<?xml version="1.0" standalone="no"?>
<!DOCTYPE svg PUBLIC "-//W3C//DTD SVG 1.1//EN" "http://www.w3.org/Graphics/SVG/1.1/DTD/svg11.dtd" >
<svg>
<metadata>
Created by FontForge 20090914 at Fri Jul 21 12:42:11 2017
 By www-data
Copyright (c) 2002, 2005 Parachute&#194;&#168;, www.parachute.gr.  All rights reserved.
</metadata>
<defs>
<font id="PFDinDisplayPro-BoldItalic" horiz-adv-x="1818" >
  <font-face 
    font-family="PF DinDisplay Pro"
    font-weight="700"
    font-style="italic"
    font-stretch="normal"
    units-per-em="1000"
    panose-1="2 0 8 6 0 0 0 9 0 4"
    ascent="750"
    descent="-250"
    x-height="494"
    cap-height="689"
    bbox="-214 -317.002 1760 949"
    underline-thickness="50"
    underline-position="-50"
    slope="-12"
    unicode-range="U+0020-U+FB05"
  />
<missing-glyph horiz-adv-x="452" 
d="M0 700h452v-700h-452v700zM339 76l-113 205l-113 -205h226zM339 624h-227l114 -203zM76 155l107 195l-107 198v-393zM376 155v390l-108 -195z" />
    <glyph glyph-name="fj" unicode="fj" horiz-adv-x="526" 
d="M493 715c17.333 0 31.666 -5.5 42.999 -16.5s17 -24.833 17 -41.5c0 -11.333 -2.5 -22.166 -7.5 -32.499s-11.667 -19.333 -20 -27s-17.666 -13.834 -27.999 -18.501s-20.833 -7 -31.5 -7c-17.333 0 -31.5 5.33301 -42.5 16s-16.5 24.334 -16.5 41.001
c0 11.333 2.5 22.166 7.5 32.499s11.5 19.5 19.5 27.5s17.167 14.333 27.5 19s20.833 7 31.5 7zM372 613c-19.333 2 -35.332 1.66504 -47.999 -1.00195s-23 -7.16699 -31 -13.5s-14 -14.166 -18 -23.499s-7.33301 -20 -10 -32l-10 -48h258l-91 -512
c-4 -22 -9.33301 -43 -16 -63s-16 -37.833 -28 -53.5s-27.833 -28.167 -47.5 -37.5s-44.834 -14 -75.501 -14c-23.333 0 -47.666 2.33301 -72.999 7l22 120c32 -3.33301 54.667 0 68 10s22 25.667 26 47l74 393h-136l-77 -408c-5.33301 -26.667 -11.833 -51.667 -19.5 -75
s-18.167 -43.5 -31.5 -60.5s-30.666 -30.333 -51.999 -40s-48.333 -14.5 -81 -14.5c-12 0 -24.833 0.666992 -38.5 2s-28.834 3.66602 -45.501 6.99902l21 106c20.667 -2 38 -1.66699 52 1s25.5 7.33398 34.5 14.001s15.833 15.334 20.5 26.001s8.33398 23 11.001 37l78 405
h-68l19 103h68l11 55c4.66699 24 10.667 46.667 18 68s18 40 32 56s32 28.667 54 38s50.333 14 85 14c9.33301 0 19.166 -0.5 29.499 -1.5s21.166 -2.16699 32.499 -3.5z" />
    <glyph glyph-name="ffj" unicode="ffj" horiz-adv-x="794" 
d="M640 613c-21.333 1.33301 -38.5 0.671875 -51.5 -1.99512s-23.333 -7 -31 -13s-13.334 -13.667 -17.001 -23s-6.5 -20 -8.5 -32l-9 -48h256l-91 -509c-4 -21.333 -9.16699 -42.166 -15.5 -62.499s-15.666 -38.333 -27.999 -54s-28.333 -28.167 -48 -37.5
s-44.834 -14 -75.501 -14c-22.667 0 -46.667 2.33301 -72 7l21 120c32 -3.33301 54.667 0.166992 68 10.5s22.333 26.166 27 47.499l71 389h-133l-76 -405c-5.33301 -26.667 -11.5 -51.667 -18.5 -75s-17.167 -43.5 -30.5 -60.5s-30.666 -30.5 -51.999 -40.5
s-48.333 -15 -81 -15c-22.667 0 -46.667 2.33301 -72 7l19 108c19.333 -0.666992 35.5 0.666016 48.5 3.99902s23.5 8.16602 31.5 14.499s14.167 14.666 18.5 24.999s7.83301 22.166 10.5 35.499l76 402h-137l-81 -423c-5.33301 -26.667 -11.666 -51.667 -18.999 -75
s-17.666 -43.5 -30.999 -60.5s-30.666 -30.5 -51.999 -40.5s-48.333 -15 -81 -15c-24.667 0 -52.334 3 -83.001 9l20 107c40 -4 68.333 0.666992 85 14s27.667 34.666 33 63.999l82 420h-69l20 103h68l8 38c4.66699 24 10.667 46.667 18 68s17.833 40 31.5 56
s31.667 28.667 54 38s50.5 14 84.5 14c21.333 0 44.666 -2 69.999 -6l-19 -107c-5.33301 0.666992 -10.166 1 -14.499 1h-12.5c-16.667 0 -30.167 -1.83301 -40.5 -5.5s-18.5 -8.66699 -24.5 -15s-10.5 -13.833 -13.5 -22.5s-5.5 -18 -7.5 -28l-6 -31h136l11 55
c4.66699 24 10.667 46.667 18 68s17.833 40 31.5 56s31.5 28.667 53.5 38s50 14 84 14c9.33301 0 19.166 -0.5 29.499 -1.5s21.166 -2.16699 32.499 -3.5zM759 715.006c17.333 0 31.668 -5.5 43.001 -16.5s17 -24.833 17 -41.5c0 -11.333 -2.5 -22.166 -7.5 -32.499
s-11.667 -19.333 -20 -27s-17.833 -13.834 -28.5 -18.501s-21.334 -7 -32.001 -7c-16.667 0 -30.5 5.33301 -41.5 16s-16.5 24.334 -16.5 41.001c0 11.333 2.5 22.166 7.5 32.499s11.5 19.5 19.5 27.5s17.167 14.333 27.5 19s20.833 7 31.5 7z" />
    <glyph glyph-name="ff" unicode="ff" horiz-adv-x="602" 
d="M382 598c-5.33301 0.666992 -10.5039 1.00293 -15.5039 1.00293h-14.5c-16.667 0 -30.167 -1.83301 -40.5 -5.5s-18.5 -8.66699 -24.5 -15s-10.5 -13.833 -13.5 -22.5s-5.5 -18 -7.5 -28l-6 -33h138l10 55c4.66699 24 10.667 46.667 18 68s17.833 40 31.5 56
s31.667 28.667 54 38s50.5 14 84.5 14c13.333 0 27 -0.666992 41 -2s28.667 -3.33301 44 -6l-20 -106c-8 1.33301 -15.333 2 -22 2h-19c-16.667 0 -30.167 -1.83301 -40.5 -5.5s-18.5 -8.66699 -24.5 -15s-10.5 -13.833 -13.5 -22.5s-5.5 -18 -7.5 -28l-9 -48h112l-19 -102
h-113l-70 -392c-5.33301 -26.667 -11.666 -51.667 -18.999 -75s-17.833 -43.5 -31.5 -60.5s-31.167 -30.5 -52.5 -40.5s-48.333 -15 -81 -15c-23.333 0 -51 3 -83 9l21 107c5.33301 -0.666992 10.166 -1.16699 14.499 -1.5s8.83301 -0.5 13.5 -0.5
c16.667 0 30.334 1.83301 41.001 5.5s19.334 9 26.001 16s11.667 15.5 15 25.5s6 21 8 33l72 389h-139l-79 -416c-5.33301 -26.667 -11.833 -51.667 -19.5 -75s-18.167 -43.5 -31.5 -60.5s-30.666 -30.5 -51.999 -40.5s-48.333 -15 -81 -15c-12 0 -24.833 0.666992 -38.5 2
s-28.5 3.66602 -44.5 6.99902l20 107c5.33301 -0.666992 10.333 -1.16699 15 -1.5s9.33398 -0.5 14.001 -0.5c16.667 0 30.334 1.83301 41.001 5.5s19.167 9 25.5 16s11.166 15.5 14.499 25.5s6 21 8 33l81 413h-69l20 102h68l8 40c4.66699 24 10.667 46.667 18 68
s18 40.166 32 56.499s32 29.166 54 38.499s50.333 14 85 14c20.667 0 44.667 -2 72 -6z" />
    <glyph glyph-name="fi" unicode="fi" horiz-adv-x="554" 
d="M159 -16c-5.33301 -26.667 -11.8291 -51.667 -19.4961 -75s-18.167 -43.5 -31.5 -60.5s-30.666 -30.333 -51.999 -40s-48.333 -14.5 -81 -14.5c-12 0 -24.833 0.666992 -38.5 2s-28.834 3.66602 -45.501 6.99902l21 106c5.33301 -0.666992 10.333 -1.16699 15 -1.5
s9 -0.5 13 -0.5c17.333 0 31.333 1.83301 42 5.5s19.167 9 25.5 16s11.166 15.5 14.499 25.5s6 21 8 33l78 405h-68l19 103h68l11 55c4.66699 24 10.667 46.667 18 68s18 40 32 56s32 28.667 54 38s50.333 14 85 14c9.33301 0 19.166 -0.5 29.499 -1.5
s21.166 -2.16699 32.499 -3.5l-17 -108c-3.33301 0.666992 -6.83301 1 -10.5 1h-11.5c-16.667 0 -30.167 -1.83301 -40.5 -5.5s-18.5 -8.66699 -24.5 -15s-10.5 -13.833 -13.5 -22.5s-5.5 -18 -7.5 -28l-9 -48h261l-61 -312
c-3.33301 -15.333 -5.16602 -27.833 -5.49902 -37.5s1.16699 -17.167 4.5 -22.5s8.66602 -9.16602 15.999 -11.499s17.666 -4.16602 30.999 -5.49902l-24 -108h-25c-48 0 -84.167 12.167 -108.5 36.5s-31.5 63.166 -21.5 116.499l47 241h-133zM493.004 714
c18 0 32.666 -5.6709 43.999 -17.0039s16.333 -25.666 15 -42.999c-0.666992 -11.333 -3.5 -22.166 -8.5 -32.499s-11.5 -19.166 -19.5 -26.499s-17 -13.166 -27 -17.499s-20.333 -6.5 -31 -6.5c-17.333 0 -31.666 5.83301 -42.999 17.5s-16.333 26.167 -15 43.5
c0 10.667 2.5 21 7.5 31s11.5 18.833 19.5 26.5s17.167 13.667 27.5 18s20.5 6.5 30.5 6.5z" />
    <glyph glyph-name="fl" unicode="fl" horiz-adv-x="568" 
d="M472 -1c-30.667 0 -55.334 3.66699 -74.001 11s-32.834 17.833 -42.501 31.5s-15.167 30.167 -16.5 49.5s0.333984 41 5.00098 65l87 459c-11.333 3.33301 -22.5 5.83301 -33.5 7.5s-21.833 2.5 -32.5 2.5c-23.333 0 -42.833 -5.66699 -58.5 -17
s-26.167 -30.333 -31.5 -57l-12 -55h106l-19 -103h-106l-78 -408c-5.33301 -26.667 -11.5 -51.667 -18.5 -75s-17.167 -43.5 -30.5 -60.5s-30.5 -30.5 -51.5 -40.5s-47.833 -15 -80.5 -15c-25.333 0 -53.333 3.33301 -84 10l21 106
c5.33301 -0.666992 10.166 -1.16699 14.499 -1.5s8.83301 -0.5 13.5 -0.5c16.667 0 30.334 1.83301 41.001 5.5s19.334 9 26.001 16s11.667 15.5 15 25.5s6 21 8 33l77 405h-67l19 103h67l14 74c6 31.333 15.667 57.833 29 79.5s29.333 39.167 48 52.5
s40.167 22.833 64.5 28.5s50.5 8.5 78.5 8.5s58.833 -3.16699 92.5 -9.5s70.5 -15.5 110.5 -27.5l-102 -540c-3.33301 -20 -1.33301 -33.333 6 -40s25.333 -10.667 54 -12l-21 -111h-38z" />
    <glyph glyph-name="ffi" unicode="ffi" horiz-adv-x="800" 
d="M398 495c4.66699 29.333 10.335 57.8281 17.002 85.4951s16.834 52.334 30.501 74.001s32.334 39 56.001 52s55.167 19.5 94.5 19.5c9.33301 0 19.166 -0.5 29.499 -1.5s21.166 -2.16699 32.499 -3.5l-17 -108c-3.33301 0.666992 -6.83301 1 -10.5 1h-10.5
c-16.667 0 -30.167 -1.83301 -40.5 -5.5s-18.5 -8.66699 -24.5 -15s-10.5 -13.833 -13.5 -22.5s-5.5 -18 -7.5 -28l-9 -48h256l-60 -313c-2 -11.333 -3.5 -21.333 -4.5 -30s-0.333008 -16.167 2 -22.5s7.33301 -11.5 15 -15.5s19.167 -7 34.5 -9l-24 -107h-25
c-28.667 0 -52.167 4 -70.5 12s-32.5 19.333 -42.5 34s-16 32.334 -18 53.001s-0.666992 43.667 4 69l43 226h-130l-71 -383c-5.33301 -28 -11.5 -54.333 -18.5 -79s-17.167 -46.334 -30.5 -65.001s-30.833 -33.5 -52.5 -44.5s-49.834 -16.5 -84.501 -16.5
c-11.333 0 -22.833 0.333008 -34.5 1s-24.167 2.33398 -37.5 5.00098l10 53.5l10 53.5c3.33301 0 6.33301 -0.166992 9 -0.5s5.33398 -0.5 8.00098 -0.5c16.667 0 30.5 2 41.5 6s19.667 9.5 26 16.5s11.333 15.333 15 25s6.5 20.5 8.5 32.5l75 396h-140
c-11.333 -67.333 -23.666 -134.333 -36.999 -201l-39 -201c-5.33301 -28 -11.5 -54.667 -18.5 -80s-17.167 -47.5 -30.5 -66.5s-30.833 -34 -52.5 -45s-49.834 -16.5 -84.501 -16.5c-12 0 -25 0.666992 -39 2s-28.667 3.66602 -44 6.99902l20 106
c5.33301 -0.666992 10.333 -1.16699 15 -1.5s9 -0.5 13 -0.5c16.667 0 30.334 1.83301 41.001 5.5s19.167 9 25.5 16s11.333 15.5 15 25.5s6.5 21 8.5 33c1.33301 8 4.16602 22.833 8.49902 44.5l15 74.5l17.5 89.5l17 89.5l14.5 74.5
c4.33301 21.667 7.16602 36.5 8.49902 44.5h-69l10 51.5l10 51.5h68c4 28 9.5 54.833 16.5 80.5s17.5 48.334 31.5 68.001s32.667 35.334 56 47.001s53.666 17.5 90.999 17.5c10.667 0 21.667 -0.333008 33 -1s23.333 -2 36 -4l-19 -107
c-5.33301 0.666992 -10.166 1 -14.499 1h-11.5c-21.333 0 -37.333 -2.83301 -48 -8.5s-18.834 -13.167 -24.501 -22.5s-9.5 -20.166 -11.5 -32.499s-4.66699 -25.166 -8 -38.499h139zM758.001 713.995c17.333 0 31.665 -5.66895 42.998 -17.002s17 -26 17 -44
c0 -11.333 -2.66699 -22 -8 -32s-12.166 -18.667 -20.499 -26s-17.666 -13.166 -27.999 -17.499s-20.5 -6.5 -30.5 -6.5c-17.333 0 -31.5 5.5 -42.5 16.5s-16.5 25.167 -16.5 42.5c0 10.667 2.5 21.167 7.5 31.5s11.5 19.333 19.5 27s17.167 13.834 27.5 18.501
s20.833 7 31.5 7z" />
    <glyph glyph-name="ffl" unicode="ffl" horiz-adv-x="840" 
d="M201 -82c2 -0.666992 5.16113 -0.998047 9.49414 -0.998047h8.5c16.667 0 30.5 1.83301 41.5 5.5s19.667 9 26 16s11.333 15.5 15 25.5s6.5 21 8.5 33l75 396h-145l-79 -420c-5.33301 -26.667 -11.833 -51.667 -19.5 -75s-18.167 -43.5 -31.5 -60.5
s-30.666 -30.5 -51.999 -40.5s-48.333 -15 -81 -15c-12 0 -24.833 0.666992 -38.5 2s-28.5 3.66602 -44.5 6.99902l20 107c5.33301 -0.666992 10.333 -1.16699 15 -1.5s9.33398 -0.5 14.001 -0.5c16.667 0 30.334 1.83301 41.001 5.5s19.167 9 25.5 16
s11.166 15.5 14.499 25.5s6 21 8 33l81 417h-69l20 102h68l7 38c4.66699 24 10.667 46.667 18 68s18 40 32 56s32 28.667 54 38s50.333 14 85 14c20.667 0 43.667 -2 69 -6l-19 -107c-5.33301 0.666992 -10.166 1 -14.499 1h-11.5c-16.667 0 -30.167 -1.83301 -40.5 -5.5
s-18.666 -8.66699 -24.999 -15s-10.833 -14 -13.5 -23s-5 -18.5 -7 -28.5l-6 -30l144 1l14 74c6 31.333 15.667 57.833 29 79.5s29.333 39.167 48 52.5s40.167 22.833 64.5 28.5s50.5 8.5 78.5 8.5c27.333 0 58 -2.83301 92 -8.5s70.667 -15.167 110 -28.5l-102 -540
c-1.33301 -10 -1.66602 -18.167 -0.999023 -24.5s3.16699 -11.5 7.5 -15.5s10.833 -6.83301 19.5 -8.5s20.334 -2.83398 35.001 -3.50098l-22 -111h-38c-30.667 0 -55.334 3.66699 -74.001 11s-32.834 17.833 -42.501 31.5s-15.167 30.167 -16.5 49.5
s0.333984 41 5.00098 65l88 459c-11.333 3.33301 -22.666 5.83301 -33.999 7.5s-22.333 2.5 -33 2.5c-23.333 0 -42.833 -5.66699 -58.5 -17s-26.167 -30.333 -31.5 -57l-11 -55h105l-19 -103h-106l-76 -399c-5.33301 -26.667 -11.5 -51.667 -18.5 -75
s-17.167 -43.5 -30.5 -60.5s-30.5 -30.5 -51.5 -40.5s-47.833 -15 -80.5 -15c-11.333 0 -23 0.5 -35 1.5s-25 2.83301 -39 5.5z" />
    <glyph glyph-name="ft" unicode="ft" horiz-adv-x="617" 
d="M237 393l-75.0039 -393.002c-5.33301 -28.667 -11.666 -55.5 -18.999 -80.5s-17.5 -46.667 -30.5 -65s-30.333 -32.833 -52 -43.5s-49.5 -16 -83.5 -16c-25.333 0 -53 3 -83 9l20 106c10.667 -2 20.667 -3 30 -3c15.333 0 28 1.66699 38 5s18.333 8.33301 25 15
s11.834 15.167 15.501 25.5s6.83398 22.166 9.50098 35.499l3 13l18.5 95.5l21 109.5l20 104.5l15.5 82.5h-68l19 103h68c2 8.66699 3.83301 17 5.5 25s3.16699 16 4.5 24c4.66699 24.667 10.667 48 18 70s18 41.333 32 58s32.333 29.667 55 39s52 14 88 14
c12 0 24.667 -0.666992 38 -2s27.666 -3.33301 42.999 -6l-21 -106c-7.33301 1.33301 -14.5 2 -21.5 2h-19.5c-22.667 0 -39.667 -3.5 -51 -10.5s-19.666 -16 -24.999 -27s-8.83301 -23.5 -10.5 -37.5s-4.5 -28.333 -8.5 -43h141l45 122h101l-24 -122h115l-19 -103h-115
l-39 -208c-4.66699 -25.333 -3.5 -43.666 3.5 -54.999s24.167 -17 51.5 -17c10 0 21.167 0.333008 33.5 1s25.833 1.66699 40.5 3l2 -105c-11.333 -4 -23.166 -7.16699 -35.499 -9.5s-24.5 -4.16602 -36.5 -5.49902s-23.167 -2.16602 -33.5 -2.49902s-19.5 -0.5 -27.5 -0.5
c-32.667 0 -58.5 4.16699 -77.5 12.5s-33 19.833 -42 34.5s-13.833 32.167 -14.5 52.5s1.33301 42.5 6 66.5l45 233h-139z" />
    <glyph glyph-name=".notdef" horiz-adv-x="452" 
d="M0 700h452v-700h-452v700zM339 76l-113 205l-113 -205h226zM339 624h-227l114 -203zM76 155l107 195l-107 198v-393zM376 155v390l-108 -195z" />
    <glyph glyph-name="space" unicode=" " horiz-adv-x="254" 
 />
    <glyph glyph-name="exclam" unicode="!" horiz-adv-x="266" 
d="M77 207l88 489h125l-103 -489h-110zM92 -7c-20 0 -35.998 6.16797 -47.998 18.501s-18 27.833 -18 46.5c0 12 2.66699 23.667 8 35s12.333 21.333 21 30s18.834 15.667 30.501 21s23.5 8 35.5 8c19.333 0 35.166 -5.83301 47.499 -17.5s18.5 -26.834 18.5 -45.501
c0 -12 -2.5 -23.833 -7.5 -35.5s-11.833 -22 -20.5 -31s-18.834 -16.167 -30.501 -21.5s-23.834 -8 -36.501 -8z" />
    <glyph glyph-name="quotedbl" unicode="&#x22;" horiz-adv-x="347" 
d="M290 696h101l-41 -214h-101zM147 696h103l-42 -214h-102z" />
    <glyph glyph-name="numbersign" unicode="#" horiz-adv-x="548" 
d="M427 298h88l-18 -94h-101l-67 -204h-106l67 204h-82l-67 -204h-107l68 204h-82l18 94h96l34 102h-84l19 94h97l68 202h103l-67 -202h85l68 202h103l-67 -202h87l-18 -94h-100zM239 298h84l34 102h-84z" />
    <glyph glyph-name="dollar" unicode="$" horiz-adv-x="534" 
d="M184 6c-37.333 3.33301 -71.6709 12.8359 -103.004 28.5029s-60.333 36.834 -87 63.501l15.5 19l24.5 29.5l25 30l16 19.5c26 -24 54.167 -42.667 84.5 -56s60.833 -20 91.5 -20c35.333 0 64 6.83301 86 20.5s33 34.834 33 63.501c0 12.667 -3 23.334 -9 32.001
s-14.333 16.167 -25 22.5s-23.5 12.166 -38.5 17.499s-31.833 11 -50.5 17c-15.333 4.66699 -32.166 10.834 -50.499 18.501s-35.5 18 -51.5 31s-29.333 29.167 -40 48.5s-16 43 -16 71c0 34.667 6.5 65.167 19.5 91.5s30 48.666 51 66.999s44.833 32.666 71.5 42.999
s54 16.5 82 18.5l3.5 18c1.66699 8.66699 3.5 17.667 5.5 27s3.83301 18.333 5.5 27s2.83398 15 3.50098 19h84l-18 -87c32 -2.66699 62.833 -9.83398 92.5 -21.501s57.167 -28.834 82.5 -51.501l-16.5 -20l-26.5 -31.5l-26.5 -31
c-8.33301 -9.66699 -13.833 -16.167 -16.5 -19.5c-23.333 20.667 -48.166 35 -74.499 43s-50.166 12 -71.499 12c-10.667 0 -22.5 -1.5 -35.5 -4.5s-25.333 -8 -37 -15s-21.334 -15.833 -29.001 -26.5s-11.5 -24 -11.5 -40c0 -12 4.5 -22.333 13.5 -31
s20 -16.334 33 -23.001s26.667 -12.167 41 -16.5s26.5 -7.83301 36.5 -10.5c17.333 -4.66699 35.5 -10.834 54.5 -18.501s36.5 -18.167 52.5 -31.5s29.167 -30 39.5 -50s15.5 -44.667 15.5 -74c0 -31.333 -5.66699 -60 -17 -86s-27.5 -48.5 -48.5 -67.5
s-46.667 -34.167 -77 -45.5s-64.5 -18 -102.5 -20c0 -4 -0.833008 -11.167 -2.5 -21.5s-3.66699 -21.333 -6 -33s-4.66602 -22.667 -6.99902 -33s-3.83301 -17.5 -4.5 -21.5h-85l21 109v0z" />
    <glyph glyph-name="percent" unicode="%" horiz-adv-x="855" 
d="M792 111c-7.33301 -38.667 -24.166 -67.3301 -50.499 -85.9971s-59.833 -28 -100.5 -28c-15.333 0 -31 2.33301 -47 7s-30.667 11.667 -44 21s-24.166 21.166 -32.499 35.499s-12.5 31.166 -12.5 50.499c0 4 0.166992 8 0.5 12s0.833008 8 1.5 12l31 163
c7.33301 38 23.5 67.167 48.5 87.5s58.833 30.5 101.5 30.5c18 0 35.167 -2.66699 51.5 -8s30.666 -13 42.999 -23s22.166 -22.167 29.499 -36.5s11 -30.5 11 -48.5c0 -8.66699 -1 -17.334 -3 -26.001zM730 278.004c0.666992 2.66699 1.00098 6.00098 1.00098 10.001
c0 13.333 -4.66699 24 -14 32s-20 12 -32 12s-23.167 -3.66699 -33.5 -11s-17.166 -19.333 -20.499 -36l-29 -154c-0.666992 -2.66699 -1 -6.33398 -1 -11.001c0 -14.667 5.16699 -25 15.5 -31s20.833 -9 31.5 -9c11.333 0 22.166 3.5 32.499 10.5s17.166 18.5 20.499 34.5z
M379.001 387.005c-7.33301 -38.667 -24.166 -67.1641 -50.499 -85.4971s-59.833 -27.5 -100.5 -27.5c-15.333 0 -31 2.33301 -47 7s-30.667 11.667 -44 21s-24.166 21.166 -32.499 35.499s-12.5 31.166 -12.5 50.499c0 4 0.166992 8 0.5 12s0.833008 8 1.5 12l31 163
c7.33301 38 23.5 67.167 48.5 87.5s58.833 30.5 101.5 30.5c18 0 35.167 -2.66699 51.5 -8s30.666 -13 42.999 -23s22.166 -22.167 29.499 -36.5s11 -30.5 11 -48.5c0 -8.66699 -1 -17.334 -3 -26.001zM317.001 555.008c0.666992 2.66699 0.999023 6.00098 0.999023 10.001
c0 13.333 -4.5 24 -13.5 32s-19.833 12 -32.5 12c-12 0 -23.167 -3.66699 -33.5 -11s-17.166 -19.333 -20.499 -36l-29 -154c-0.666992 -2.66699 -1 -6.33398 -1 -11.001c0 -14.667 5.16699 -25 15.5 -31s20.833 -9 31.5 -9c12 0 23 3.5 33 10.5s16.667 18.5 20 34.5z
M221 -16.9912h-90l567 730h91z" />
    <glyph glyph-name="ampersand" unicode="&#x26;" horiz-adv-x="817" 
d="M529 815c50.667 0 94.6719 -7.5 132.005 -22.5s68.333 -35.667 93 -62s43.167 -57 55.5 -92s18.5 -72.5 18.5 -112.5c0 -74.667 -17.833 -147.167 -53.5 -217.5s-85.167 -132.833 -148.5 -187.5c36.667 -40 80.334 -72.333 131.001 -97l-66 -88
c-13.333 5.33301 -27.5 12.5 -42.5 21.5s-29.667 18.833 -44 29.5s-28 22 -41 34s-23.833 24 -32.5 36c-12.667 -9.33301 -27.5 -17.833 -44.5 -25.5s-35 -14.334 -54 -20.001s-38.333 -10 -58 -13s-38.167 -4.5 -55.5 -4.5c-54 0 -96.667 13.333 -128 40
s-47 65.334 -47 116.001c0 28 5.16699 54.333 15.5 79s24.166 47.334 41.499 68.001s37.5 39.5 60.5 56.5s47.167 32.167 72.5 45.5c-6.66699 14 -11.834 28 -15.501 42s-5.5 28 -5.5 42c0 26 4.83301 50.333 14.5 73s22.667 42.167 39 58.5s35.666 29.333 57.999 39
s46.5 14.5 72.5 14.5c40 0 71.833 -10.833 95.5 -32.5s35.5 -49.5 35.5 -83.5c0 -23.333 -4.33301 -44.5 -13 -63.5s-20 -36.333 -34 -52s-30 -29.834 -48 -42.501s-36 -24 -54 -34c13.333 -28 27.666 -56 42.999 -84s31.666 -56 48.999 -84c48 44 85.5 93.5 112.5 148.5
s40.5 111.167 40.5 168.5c0 28.667 -3.16699 55.667 -9.5 81s-17.333 47.666 -33 66.999s-36.667 34.666 -63 45.999s-59.5 17 -99.5 17c-47.333 0 -90 -7 -128 -21s-70.167 -33.5 -96.5 -58.5s-46.5 -54.833 -60.5 -89.5s-21 -72.334 -21 -113.001
c0 -7.33301 0.5 -15.833 1.5 -25.5l3.5 -32.5l-102 -23c-2.66699 15.333 -4.33398 29.333 -5.00098 42s-1 24.334 -1 35.001c0 56 11 107.333 33 154s52 86.834 90 120.501s82.333 59.834 133 78.501s105 28 163 28zM478.005 569c-8 0 -15.168 -2 -21.501 -6
s-11.666 -9 -15.999 -15s-7.83301 -12.833 -10.5 -20.5s-4 -15.167 -4 -22.5c0 -8.66699 1.5 -17.667 4.5 -27s6.83301 -19 11.5 -29c21.333 10.667 39.5 22.667 54.5 36s22.5 29.333 22.5 48c0 10 -3.5 18.5 -10.5 25.5s-17.167 10.5 -30.5 10.5zM478.004 130
c-9.33301 12 -18.833 26.001 -28.5 42.001s-19 32.333 -28 49s-17.333 33 -25 49s-13.834 30.333 -18.501 43c-18 -9.33301 -34.833 -19.166 -50.5 -29.499s-29 -21.333 -40 -33s-19.667 -24.334 -26 -38.001s-9.5 -28.834 -9.5 -45.501c0 -26 8.16699 -45.667 24.5 -59
s37.5 -20 63.5 -20c20 0 41.833 3.5 65.5 10.5s47.834 17.5 72.501 31.5z" />
    <glyph glyph-name="quotesingle" unicode="'" horiz-adv-x="261" 
d="M176 696h102l-41 -214h-103z" />
    <glyph glyph-name="parenleft" unicode="(" horiz-adv-x="343" 
d="M191 -135c-36 49.333 -65.168 103.328 -87.501 161.995s-33.5 120.334 -33.5 185.001c0 52.667 8 103.5 24 152.5s37.333 95.833 64 140.5s57.334 86.834 92.001 126.501s70.667 76.5 108 110.5l63 -46c-31.333 -33.333 -60.5 -69.166 -87.5 -107.499
s-50.5 -78.666 -70.5 -120.999s-35.667 -86 -47 -131s-17 -90.5 -17 -136.5c0 -48 6 -96.167 18 -144.5s30 -94.166 54 -137.499z" />
    <glyph glyph-name="parenright" unicode=")" horiz-adv-x="343" 
d="M-21 -82c30.667 32 59.499 67 86.499 105s50.667 77.667 71 119s36.333 84.333 48 129s17.5 89.667 17.5 135c0 48 -5.5 96.833 -16.5 146.5s-29.167 97.5 -54.5 143.5l80 46c36 -48.667 65 -101.5 87 -158.5s33 -117.833 33 -182.5
c0 -53.333 -8.16699 -104.833 -24.5 -154.5s-38.166 -97 -65.499 -142s-58.5 -87.667 -93.5 -128s-71.5 -77.5 -109.5 -111.5z" />
    <glyph glyph-name="asterisk" unicode="*" horiz-adv-x="430" 
d="M398 416l-15.9951 -10.499c-8.66699 -5.66699 -18.334 -11.667 -29.001 -18l-29.5 -18l-16.5 -10.5l-40 103l-83 -103c-1.33301 0.666992 -5.33301 3.83398 -12 9.50098l-22 18.5l-22 18.5c-6.66699 5.66699 -10.334 9.16699 -11.001 10.5l98 90l-108 27
c0.666992 2 3.16699 7.5 7.5 16.5s9.16602 18.5 14.499 28.5s10.166 19.5 14.499 28.5s7.16602 14.5 8.49902 16.5l102 -47c0 3.33301 0.5 10.833 1.5 22.5s2.16699 24.167 3.5 37.5s2.5 25.833 3.5 37.5s1.83301 19.167 2.5 22.5h98l-36 -120l119 47
c0 -2 0.666992 -7.33301 2 -16s2.5 -18.334 3.5 -29.001s2 -20.334 3 -29.001s1.5 -14 1.5 -16l-120 -27z" />
    <glyph glyph-name="plus" unicode="+" horiz-adv-x="534" 
d="M326 247l-36 -188h-105l37 188h-193l20 99h193l35 186h104l-35 -186h192l-20 -99h-192z" />
    <glyph glyph-name="comma" unicode="," horiz-adv-x="293" 
d="M6 -97c20 12.667 37 27.3301 51 43.9971s23.667 33 29 49c-12.667 2.66699 -23 8.83398 -31 18.501s-12 22.167 -12 37.5c0 12.667 2.16699 24.834 6.5 36.501s10.5 21.834 18.5 30.501s17.5 15.5 28.5 20.5s23.5 7.5 37.5 7.5c22 0 40 -8.16699 54 -24.5
s21 -37.5 21 -63.5c0 -20 -4.16699 -40.333 -12.5 -61s-20 -40.5 -35 -59.5s-32.833 -36.667 -53.5 -53s-43.667 -30.5 -69 -42.5z" />
    <glyph glyph-name="hyphen" unicode="-" horiz-adv-x="410" 
d="M69 317h315l-22 -113h-316z" />
    <glyph glyph-name="period" unicode="." horiz-adv-x="288" 
d="M104 -7c-19.333 0 -34.8291 6.00098 -46.4961 18.001s-17.5 27.333 -17.5 46c0 12 2.5 23.667 7.5 35s11.667 21.5 20 30.5s18.166 16.167 29.499 21.5s23.666 8 36.999 8c19.333 0 35.166 -5.83301 47.499 -17.5s18.5 -26.834 18.5 -45.501
c0 -12 -2.5 -23.833 -7.5 -35.5s-11.833 -22 -20.5 -31s-18.834 -16.167 -30.501 -21.5s-24.167 -8 -37.5 -8z" />
    <glyph glyph-name="slash" unicode="/" horiz-adv-x="351" 
d="M41 -42h-100l400 767h102z" />
    <glyph glyph-name="zero" unicode="0" horiz-adv-x="534" 
d="M481 183c-6 -33.333 -16.002 -61.835 -30.002 -85.502s-31 -43.167 -51 -58.5s-42.833 -26.5 -68.5 -33.5s-53.167 -10.5 -82.5 -10.5c-24 0 -47.833 3.16699 -71.5 9.5s-45.167 16.333 -64.5 30s-35 31.334 -47 53.001s-18 47.834 -18 78.501c0 7.33301 0.5 15 1.5 23
s2.16699 16.667 3.5 26l58 293c12.667 62.667 39 109.667 79 141s91.667 47 155 47c22.667 0 45.5 -3.33301 68.5 -10s43.833 -17 62.5 -31s33.834 -32 45.501 -54s17.5 -48 17.5 -78c0 -6 -0.166992 -12.167 -0.5 -18.5s-1.16602 -12.833 -2.49902 -19.5zM408.998 478.998
c1.33301 3.33301 2.00195 6.83203 2.00195 10.499v10.5c0 12.667 -2.33301 23.5 -7 32.5s-10.834 16.5 -18.501 22.5s-16.167 10.5 -25.5 13.5s-18.666 4.5 -27.999 4.5c-24.667 0 -45.834 -7.16699 -63.501 -21.5s-29.834 -37.833 -36.501 -70.5l-53 -273
c-0.666992 -4 -1.16699 -7.66699 -1.5 -11s-0.5 -6.66602 -0.5 -9.99902c0 -13.333 2.33301 -24.5 7 -33.5s10.834 -16.167 18.501 -21.5s16.167 -9.33301 25.5 -12s18.666 -4 27.999 -4c25.333 0 46.833 6.66699 64.5 20s29.5 36 35.5 68z" />
    <glyph glyph-name="one" unicode="1" horiz-adv-x="534" 
d="M196 0l102 524l-80 -58l-54 91l177 132h116l-134 -689h-127z" />
    <glyph glyph-name="two" unicode="2" horiz-adv-x="534" 
d="M355 696c23.333 0 46.4951 -2.66699 69.4951 -8s43.5 -14 61.5 -26s32.667 -27.833 44 -47.5s17 -43.834 17 -72.501c0 -29.333 -5.33301 -56.333 -16 -81s-24.667 -47.334 -42 -68.001s-36.666 -39.167 -57.999 -55.5s-43 -31.166 -65 -44.499l-65 -40.5
c-21.333 -13.667 -41 -27.834 -59 -42.501s-33.667 -30 -47 -46s-23 -33 -29 -51h299c-3.33301 -19.333 -6.83301 -38.333 -10.5 -57l-11.5 -56h-431c8.66699 46.667 18.834 86.834 30.501 120.501s26 63.5 43 89.5s37.333 49.333 61 70s51.834 41.334 84.501 62.001
l65.5 41c21.667 13.333 41 27 58 41s30.833 28.167 41.5 42.5s16 29.5 16 45.5c0 19.333 -8.16699 34.5 -24.5 45.5s-36.166 16.5 -59.499 16.5s-47.333 -4.16699 -72 -12.5s-48 -20.833 -70 -37.5l-24.5 51c-8.33301 16.667 -16.166 33.667 -23.499 51
c30 22 63.667 39.167 101 51.5s76 18.5 116 18.5z" />
    <glyph glyph-name="three" unicode="3" horiz-adv-x="534" 
d="M344 696c24.667 0 48.1689 -3 70.502 -9s42 -15.5 59 -28.5s30.667 -29.5 41 -49.5s15.5 -44 15.5 -72c0 -42.667 -11.833 -79.5 -35.5 -110.5s-52.834 -55.167 -87.501 -72.5c23.333 -11.333 40.5 -27.833 51.5 -49.5s16.5 -46.5 16.5 -74.5
c0 -41.333 -7.5 -76.833 -22.5 -106.5s-34.667 -54.167 -59 -73.5s-52 -33.666 -83 -42.999s-62.5 -14 -94.5 -14c-40.667 0 -79.667 6.16699 -117 18.5s-66.333 29.833 -87 52.5c2 2 7.16699 8 15.5 18l27.5 32.5l27.5 32.5c8.33301 10 13.5 16 15.5 18
c15.333 -16 34.666 -28.5 57.999 -37.5s45.666 -13.5 66.999 -13.5c38 0 68.167 9.66699 90.5 29s33.5 46 33.5 80c0 21.333 -7.16699 38.666 -21.5 51.999s-33.5 20 -57.5 20h-80l21 109h78c12 0 24.333 2.16699 37 6.5s24.334 10.833 35.001 19.5s19.334 19.5 26.001 32.5
s10 27.833 10 44.5c0 12.667 -2.66699 23.334 -8 32.001s-12.166 15.5 -20.499 20.5s-17.333 8.66699 -27 11s-18.834 3.5 -27.501 3.5c-22 0 -45.167 -4.33301 -69.5 -13s-47.166 -21.334 -68.499 -38.001c-1.33301 2 -4.5 8.16699 -9.5 18.5l-16.5 33l-16.5 32.5
c-5 10 -7.83301 16 -8.5 18c29.333 22.667 63.166 40.167 101.499 52.5s78.166 18.5 119.499 18.5z" />
    <glyph glyph-name="four" unicode="4" horiz-adv-x="534" 
d="M429 99l-18 -99h-129l19 99h-287l19 103l316 487h135l-307 -476h146l38 197h129l-38 -197h56l-21 -114h-58z" />
    <glyph glyph-name="five" unicode="5" horiz-adv-x="534" 
d="M485 185c-12.667 -66 -40.335 -114.166 -83.002 -144.499s-97.667 -45.5 -165 -45.5c-41.333 0 -79.5 7.16699 -114.5 21.5s-64.167 32.166 -87.5 53.499l83 98c19.333 -19.333 40 -32.833 62 -40.5s44 -11.5 66 -11.5c31.333 0 56.5 6.66699 75.5 20s31.167 35 36.5 65
l14 77c1.33301 3.33301 2 6.66602 2 9.99902v10c0 17.333 -4.66699 29.833 -14 37.5s-21.333 11.5 -36 11.5c-9.33301 0 -19.666 -1.66699 -30.999 -5s-22.666 -7.33301 -33.999 -12s-21.833 -9.66699 -31.5 -15s-17.5 -10 -23.5 -14l-101 58l62 330h394l-22 -115h-266
l-26 -135c22 11.333 43 20.333 63 27s38.333 10 55 10c46 0 81.5 -13.167 106.5 -39.5s37.5 -60.833 37.5 -103.5c0 -15.333 -1.33301 -29.666 -4 -42.999l-18 -105v0z" />
    <glyph glyph-name="six" unicode="6" horiz-adv-x="534" 
d="M481 183c-6.66699 -32.667 -17.5 -60.8311 -32.5 -84.498s-33.167 -43.167 -54.5 -58.5s-45.166 -26.666 -71.499 -33.999s-53.833 -11 -82.5 -11c-25.333 0 -49.5 3.5 -72.5 10.5s-43.167 17.5 -60.5 31.5s-31 31.167 -41 51.5s-15 44.166 -15 71.499
c0 7.33301 0.333008 14.666 1 21.999s1.66699 15 3 23l58 300c6 32 16.5 59.833 31.5 83.5s33.167 43.5 54.5 59.5s45.5 28 72.5 36s55.5 12 85.5 12c41.333 0 79.333 -6 114 -18s62.334 -29.667 83.001 -53l-79 -101c-17.333 18 -36.833 30.833 -58.5 38.5
s-43.834 11.5 -66.501 11.5c-12 0 -24 -1.66699 -36 -5s-23.167 -8.5 -33.5 -15.5s-19.5 -16 -27.5 -27s-13.333 -24.167 -16 -39.5l-14 -74c32.667 14.667 59.5 25 80.5 31s40.167 9 57.5 9c47.333 0 82.666 -12.833 105.999 -38.5s35 -58.834 35 -99.501
c0 -13.333 -1.66699 -29.333 -5 -48zM367 258.003c2 8 2.99902 15.3301 2.99902 21.9971c0 18.667 -5.16699 31.834 -15.5 39.501s-22.166 11.5 -35.499 11.5c-16.667 0 -34.667 -3.66699 -54 -11s-41 -16.666 -65 -27.999l-18 -87c-0.666992 -4 -1.16699 -7.66699 -1.5 -11
s-0.5 -6.66602 -0.5 -9.99902c0 -24.667 7.66699 -42.167 23 -52.5s32.333 -15.5 51 -15.5c23.333 0 44.833 6.83301 64.5 20.5s32.5 36.5 38.5 68.5z" />
    <glyph glyph-name="seven" unicode="7" horiz-adv-x="534" 
d="M203 0h-137l346 574h-165l-19 -100h-119l41 215h429l-20 -107z" />
    <glyph glyph-name="eight" unicode="8" horiz-adv-x="534" 
d="M359 696c22.667 0 45.001 -3.50098 67.001 -10.501s41.667 -17.5 59 -31.5s31.333 -31.667 42 -53s16 -46.333 16 -75c0 -44.667 -9.33301 -81 -28 -109s-43 -49.667 -73 -65c18.667 -10 34 -25.333 46 -46s18 -44.667 18 -72c0 -38 -7.16699 -71.833 -21.5 -101.5
s-33.5 -54.667 -57.5 -75s-51.833 -35.833 -83.5 -46.5s-64.834 -16 -99.501 -16c-25.333 0 -50 3.33301 -74 10s-45.167 16.834 -63.5 30.501s-33 31 -44 52s-16.5 46.167 -16.5 75.5c0 25.333 3.66699 48.333 11 69s16.833 39 28.5 55s24.834 29.5 39.501 40.5
s29.667 19.833 45 26.5c-16.667 11.333 -29.834 26.5 -39.501 45.5s-14.5 40.167 -14.5 63.5c0 38 7 71.5 21 100.5s32.333 53.333 55 73s48.667 34.5 78 44.5s59 15 89 15zM343.001 573.999c-12.667 0 -25.167 -2.33203 -37.5 -6.99902s-23.166 -11.334 -32.499 -20.001
s-17 -19.167 -23 -31.5s-9 -26.5 -9 -42.5c0 -22 7.16699 -38.5 21.5 -49.5s31.166 -16.5 50.499 -16.5c11.333 0 23 2.16699 35 6.5s22.833 10.5 32.5 18.5s17.667 18 24 30s9.5 25.667 9.5 41c0 22 -7.16699 39.333 -21.5 52s-30.833 19 -49.5 19zM292.001 284
c-12.667 0 -25.666 -2.33301 -38.999 -7s-25.333 -11.334 -36 -20.001s-19.334 -19.5 -26.001 -32.5s-10 -27.5 -10 -43.5c0 -21.333 7.5 -37.5 22.5 -48.5s33.167 -16.5 54.5 -16.5c13.333 0 26.5 2.16699 39.5 6.5s24.833 10.833 35.5 19.5s19.167 19.334 25.5 32.001
s9.5 27.667 9.5 45c0 20 -7.33301 35.833 -22 47.5s-32.667 17.5 -54 17.5z" />
    <glyph glyph-name="nine" unicode="9" horiz-adv-x="534" 
d="M114 509c6 32 16.6699 59.8311 32.0029 83.498s33.666 43.167 54.999 58.5s45 26.833 71 34.5s53.333 11.5 82 11.5c26 0 50.5 -3.5 73.5 -10.5s43.167 -17.333 60.5 -31s31.166 -30.667 41.499 -51s15.5 -43.833 15.5 -70.5c0 -14.667 -1.33301 -28.667 -4 -42l-60 -306
c-12.667 -65.333 -40 -113.333 -82 -144s-95.333 -46 -160 -46c-42 0 -80.333 6 -115 18s-62.667 29.667 -84 53l81 101c17.333 -17.333 36.5 -30 57.5 -38s42.5 -12 64.5 -12c12.667 0 25.167 1.66699 37.5 5s23.666 8.5 33.999 15.5s19.333 16 27 27
s12.834 24.167 15.501 39.5l14 75l-44.5 -19c-13 -5.33301 -24.833 -9.5 -35.5 -12.5s-20.667 -5.16699 -30 -6.5s-18.333 -2 -27 -2c-46.667 0 -81.834 12.833 -105.501 38.5s-35.5 58.834 -35.5 99.501c0 8 0.5 15.833 1.5 23.5s2.16699 15.834 3.5 24.501z
M226.003 434.998c-0.666992 -3.33301 -1.16309 -6.66699 -1.49609 -10s-0.5 -6.66602 -0.5 -9.99902c0 -19.333 5.16699 -33 15.5 -41s22.166 -12 35.499 -12c17.333 0 35.666 3.66699 54.999 11s40.666 16.666 63.999 27.999l17 86c2 8 3 15.667 3 23
c0 24 -7.66699 40.833 -23 50.5s-32 14.5 -50 14.5c-23.333 0 -44.833 -6.83301 -64.5 -20.5s-32.834 -36.167 -39.501 -67.5z" />
    <glyph glyph-name="colon" unicode=":" horiz-adv-x="315" 
d="M170 278c-19.333 0 -34.9971 5.83301 -46.9971 17.5s-18 26.5 -18 44.5c0 12.667 2.5 24.834 7.5 36.501s11.667 22 20 31s18.166 16.167 29.499 21.5s23.666 8 36.999 8c19.333 0 35.166 -6 47.499 -18s18.5 -27.333 18.5 -46c0 -12 -2.5 -23.833 -7.5 -35.5
s-11.667 -21.834 -20 -30.501s-18.333 -15.667 -30 -21s-24.167 -8 -37.5 -8zM115.003 -7c-19.333 0 -34.9951 6.00098 -46.9951 18.001s-18 27.333 -18 46c0 12 2.5 23.667 7.5 35s11.667 21.5 20 30.5s18.166 16.167 29.499 21.5s23.666 8 36.999 8
c19.333 0 35.166 -5.83301 47.499 -17.5s18.5 -26.834 18.5 -45.501c0 -12 -2.5 -23.833 -7.5 -35.5s-11.833 -22 -20.5 -31s-18.834 -16.167 -30.501 -21.5s-23.834 -8 -36.501 -8z" />
    <glyph glyph-name="semicolon" unicode=";" horiz-adv-x="293" 
d="M163 278c-19.333 0 -35.1689 5.83301 -47.502 17.5s-18.5 26.5 -18.5 44.5c0 12.667 2.5 24.834 7.5 36.501s11.833 22 20.5 31s18.834 16.167 30.501 21.5s23.834 8 36.501 8c19.333 0 35 -5.83301 47 -17.5s18 -26.834 18 -45.501c0 -12 -2.33301 -23.833 -7 -35.5
s-11.167 -22 -19.5 -31s-18.333 -16.167 -30 -21.5s-24.167 -8 -37.5 -8zM-3.00293 -97c20 12.667 36.834 27.3311 50.501 43.998s23.167 33 28.5 49c-12 2.66699 -22 8.66699 -30 18s-12 21.333 -12 36c0 12.667 2.5 25 7.5 37s12 22.333 21 31s19.167 15.667 30.5 21
s23.666 8 36.999 8c23.333 0 40.833 -6.66699 52.5 -20s17.5 -30.666 17.5 -51.999c0 -22.667 -4.5 -45.5 -13.5 -68.5s-21.167 -44.667 -36.5 -65s-33.333 -39.166 -54 -56.499s-42.667 -31.333 -66 -42z" />
    <glyph glyph-name="less" unicode="&#x3c;" horiz-adv-x="534" 
d="M34 249l18 96l519 216l-22 -115l-373 -153l314 -153l-21 -108z" />
    <glyph glyph-name="equal" unicode="=" horiz-adv-x="534" 
d="M50 357l19 97h490l-19 -97h-490zM8 140l19 97h490l-19 -97h-490z" />
    <glyph glyph-name="greater" unicode="&#x3e;" horiz-adv-x="534" 
d="M-1 32l21 116l373 153l-314 153l23 107l434 -216l-18 -96z" />
    <glyph glyph-name="question" unicode="?" horiz-adv-x="489" 
d="M327 701c26.667 0 51.167 -3.83203 73.5 -11.499s41.666 -18.5 57.999 -32.5s29 -30.667 38 -50s13.5 -40.333 13.5 -63c0 -23.333 -5.33301 -45.5 -16 -66.5s-24.667 -42.833 -42 -65.5c-12.667 -17.333 -26 -32.833 -40 -46.5s-27.333 -27.334 -40 -41.001
s-23.834 -28.167 -33.501 -43.5s-16.5 -33.333 -20.5 -54l-5 -24h-129l4 24c3.33301 20 8.33301 38 15 54s15.334 31.5 26.001 46.5s22.834 30.333 36.501 46l46.5 51.5c11.333 11.333 22 25.833 32 43.5s15 35.167 15 52.5s-5.66699 31 -17 41s-29.666 15 -54.999 15
c-20.667 0 -42.334 -4.16699 -65.001 -12.5s-45 -20.5 -67 -36.5l-46 105c32 23.333 66.833 40.5 104.5 51.5s75.5 16.5 113.5 16.5zM214 -6.99902c-20 0 -35.8301 6.16797 -47.4971 18.501s-17.5 27.833 -17.5 46.5c0 12 2.66699 23.667 8 35s12.333 21.333 21 30
s18.667 15.667 30 21s23 8 35 8c19.333 0 35.166 -6 47.499 -18s18.5 -26.667 18.5 -44c0 -12.667 -2.5 -24.834 -7.5 -36.501s-11.833 -22 -20.5 -31s-18.834 -16.167 -30.501 -21.5s-23.834 -8 -36.501 -8z" />
    <glyph glyph-name="at" unicode="@" horiz-adv-x="866" 
d="M390 160c-38 0 -66.5039 9.99414 -85.5039 29.9941s-28.5 46 -28.5 78c0 10.667 1 21.667 3 33l22 115c18 94.667 69.667 142 155 142c13.333 0 29.333 -3.16699 48 -9.5s38 -15.833 58 -28.5l15 33h92l-52 -268c-0.666992 -2.66699 -1 -5.16699 -1 -7.5v-6.5
c0 -10.667 2.66699 -18.5 8 -23.5s12.666 -7.5 21.999 -7.5s21 3 35 9s27.5 16.5 40.5 31.5s24 35 33 60s13.5 56.167 13.5 93.5c0 30 -5.16699 57.833 -15.5 83.5s-25.333 48 -45 67s-44 33.833 -73 44.5s-62.167 16 -99.5 16c-54 0 -103.5 -9.16699 -148.5 -27.5
s-83.667 -43.166 -116 -74.499s-57.333 -67.5 -75 -108.5s-26.5 -83.833 -26.5 -128.5c0 -71.333 19.833 -126.666 59.5 -165.999s98.5 -59 176.5 -59c17.333 0 37.333 2.16699 60 6.5s48.667 11.5 78 21.5l22 -84c-30 -13.333 -59.667 -22 -89 -26s-56.666 -6 -81.999 -6
c-50 0 -94.667 7.5 -134 22.5s-72.666 36.167 -99.999 63.5s-48.166 59.833 -62.499 97.5s-21.5 79.5 -21.5 125.5c0 60.667 11.667 117.334 35 170.001s55.5 98.334 96.5 137.001s89.667 69.167 146 91.5s117.166 33.5 182.499 33.5c53.333 0 100.333 -7.5 141 -22.5
s74.834 -35.5 102.501 -61.5s48.5 -56.5 62.5 -91.5s21 -72.833 21 -113.5c0 -43.333 -5.66699 -83.166 -17 -119.499s-27.333 -67.666 -48 -93.999s-45.667 -47 -75 -62s-62.333 -22.5 -99 -22.5c-19.333 0 -38.5 4.33301 -57.5 13s-33.167 22 -42.5 40
c-23.333 -11.333 -47.166 -20.833 -71.499 -28.5s-45.166 -11.5 -62.499 -11.5zM381.996 313.994c-0.666992 -3.33301 -1.16699 -6.33301 -1.5 -9s-0.5 -5.66699 -0.5 -9c0 -26.667 13.667 -40 41 -40c12.667 0 27.5 3.5 44.5 10.5s34.167 15.167 51.5 24.5l28 144
c-5.33301 4 -11.5 7.83301 -18.5 11.5s-14.5 7 -22.5 10s-15.833 5.5 -23.5 7.5s-14.5 3 -20.5 3c-13.333 0 -25.833 -4.83301 -37.5 -14.5s-19.5 -25.167 -23.5 -46.5z" />
    <glyph glyph-name="A" unicode="A" horiz-adv-x="638" 
d="M427 142h-239l-72 -142h-149l374 689h140l106 -689h-144zM246 257h166l-11 105l-18 161h-4l-74 -149z" />
    <glyph glyph-name="B" unicode="B" horiz-adv-x="624" 
d="M447 689c30.667 0 57.332 -4.1709 79.999 -12.5039s41.5 -19.666 56.5 -33.999s26.167 -31 33.5 -50s11 -39.5 11 -61.5c0 -37.333 -9.16699 -70.666 -27.5 -99.999s-47.166 -53 -86.499 -71c13.333 -7.33301 24.333 -16.166 33 -26.499s15.5 -21.5 20.5 -33.5
s8.5 -24.667 10.5 -38s3 -26.333 3 -39c0 -29.333 -5.33301 -57.5 -16 -84.5s-25.834 -50.667 -45.501 -71s-43.667 -36.666 -72 -48.999s-60.166 -18.5 -95.499 -18.5h-333l134 689h294zM235.998 413.996h140c18.667 0 34.667 3 48 9s24.333 13.5 33 22.5s15 18.5 19 28.5
s6 19.333 6 28c0 43.333 -26.333 65 -79 65h-137zM178.998 121.996h143.999c34 0 61.333 9.33301 82 28s31 43.667 31 75c0 21.333 -6.66699 38.333 -20 51s-32.666 19 -57.999 19h-145z" />
    <glyph glyph-name="C" unicode="C" horiz-adv-x="563" 
d="M523 519c-17.333 18 -38.835 31.167 -64.502 39.5s-50.167 12.5 -73.5 12.5c-38.667 0 -70.5 -10.5 -95.5 -31.5s-41.833 -54.5 -50.5 -100.5l-36 -193c-2 -10 -3 -19.333 -3 -28c0 -17.333 3.33301 -32.166 10 -44.499s15.334 -22.333 26.001 -30
s22.834 -13.334 36.501 -17.001s27.834 -5.5 42.501 -5.5c11.333 0 23.666 1 36.999 3s26.833 5.16699 40.5 9.5s27 9.66602 40 15.999s24.833 13.5 35.5 21.5l57 -112c-17.333 -12.667 -35.666 -23.167 -54.999 -31.5s-39 -15 -59 -20s-40 -8.5 -60 -10.5
s-39.333 -3 -58 -3c-27.333 0 -54.833 4.16699 -82.5 12.5s-52.5 21 -74.5 38s-39.833 38.167 -53.5 63.5s-20.5 55.333 -20.5 90c0 8.66699 0.333008 17.334 1 26.001s2 17.667 4 27l43 222c14.667 74 45.5 129.667 92.5 167s109.167 56 186.5 56
c40 0 79.667 -6.33301 119 -19s70.666 -30.667 93.999 -54z" />
    <glyph glyph-name="D" unicode="D" horiz-adv-x="630" 
d="M575 221c-14.667 -74.667 -45.167 -130.167 -91.5 -166.5s-103.833 -54.5 -172.5 -54.5h-285l134 689h254c28.667 0 55.5 -4.16699 80.5 -12.5s46.833 -20.333 65.5 -36s33.5 -35 44.5 -58s16.5 -49.5 16.5 -79.5c0 -13.333 -1.66699 -29.333 -5 -48zM479 442
c1.33301 6 2.33105 11.6699 2.99805 17.0029s1 10.666 1 15.999c0 16.667 -2.83301 30.667 -8.5 42s-13.5 20.666 -23.5 27.999s-21.333 12.666 -34 15.999s-26 5 -40 5h-104l-87 -445h114c14.667 0 29.5 2.16699 44.5 6.5s28.833 11.333 41.5 21s23.834 22.5 33.501 38.5
s16.834 35.667 21.501 59z" />
    <glyph glyph-name="E" unicode="E" horiz-adv-x="579" 
d="M159 689h464l-23 -123h-328l-31 -158h288l-23 -123h-289l-32 -163h352l-24 -122h-488z" />
    <glyph glyph-name="F" unicode="F" horiz-adv-x="557" 
d="M240 403h289l-24 -122h-289l-54 -281h-137l134 689h471l-23 -123h-335z" />
    <glyph glyph-name="G" unicode="G" horiz-adv-x="609" 
d="M528 79c-20 -17.333 -40.333 -31.668 -61 -43.001s-41.5 -20.166 -62.5 -26.499s-41.667 -10.666 -62 -12.999s-39.5 -3.5 -57.5 -3.5c-30.667 0 -59.5 4.66699 -86.5 14s-50.667 23 -71 41s-36.5 39.833 -48.5 65.5s-18 54.5 -18 86.5
c0 8.66699 0.333008 17.334 1 26.001s2 17.667 4 27l44 222c7.33301 37.333 20 69.833 38 97.5s39.833 50.667 65.5 69s54 32 85 41s63.167 13.5 96.5 13.5c20 0 40.5 -1.33301 61.5 -4s41.167 -6.83398 60.5 -12.501s37.333 -12.834 54 -21.501s30.667 -18.667 42 -30
l-80 -106c-17.333 18 -38.333 30.5 -63 37.5s-48.667 10.5 -72 10.5c-16.667 0 -33.167 -2.16699 -49.5 -6.5s-31.666 -11.5 -45.999 -21.5s-26.833 -23 -37.5 -39s-18.334 -35.333 -23.001 -58l-38 -187c-2.66699 -12.667 -4 -25.334 -4 -38.001
c0 -34.667 10.167 -60.167 30.5 -76.5s45.5 -24.5 75.5 -24.5c13.333 0 28.333 1.83301 45 5.5s33.667 11.834 51 24.501l23 113h-101l23 122h238z" />
    <glyph glyph-name="H" unicode="H" horiz-adv-x="631" 
d="M409 0l56 288h-254l-56 -288h-137l134 689h137l-54 -277h254l54 277h139l-134 -689h-139z" />
    <glyph glyph-name="I" unicode="I" horiz-adv-x="295" 
d="M311 689l-134 -689h-137l134 689h137z" />
    <glyph glyph-name="J" unicode="J" horiz-adv-x="536" 
d="M461 216c-14 -74.667 -43.4971 -130.499 -88.4971 -167.499s-107.167 -55.5 -186.5 -55.5c-18.667 0 -37.834 1.5 -57.501 4.5s-38.667 7.16699 -57 12.5s-35.333 12.166 -51 20.499s-28.834 17.833 -39.501 28.5l78 105c19.333 -16.667 40.666 -28 63.999 -34
s45 -9 65 -9c35.333 0 65.5 9.5 90.5 28.5s42.167 52.167 51.5 99.5l86 440h138l-93 -473v0z" />
    <glyph glyph-name="K" unicode="K" horiz-adv-x="611" 
d="M315 313l-126 -120l-37 -193h-137l134 689h137l-59 -301l310 301h163l-283 -278l164 -411h-150z" />
    <glyph glyph-name="L" unicode="L" horiz-adv-x="557" 
d="M22 0l134 689h136l-111 -567h342l-24 -122h-477z" />
    <glyph glyph-name="M" unicode="M" horiz-adv-x="785" 
d="M401 275l282 414h132l-132 -689h-136l71 370h-3l-39 -56l-55.5 -78.5l-57.5 -80.5c-18.667 -26 -33.667 -46 -45 -60h-98l-11.5 33.5l-16 47.5l-17.5 54.5l-17.5 55l-15.5 48.5l-11 35h-5l-71 -369h-136l132 689h120l17.5 -57l22.5 -73l24.5 -80.5l23.5 -79.5l20.5 -70.5
l15.5 -53.5h6z" />
    <glyph glyph-name="N" unicode="N" horiz-adv-x="675" 
d="M485 248l43 220.5l42 220.5h135l-132 -689h-124l-28.5 61l-35.5 76.5l-39.5 83.5l-39 83.5l-34.5 75l-27 58.5l-90 -438h-136l132 689h125l28 -57.5l36 -75.5l39 -85.5l39 -86l35.5 -77l27.5 -59.5h4z" />
    <glyph glyph-name="O" unicode="O" horiz-adv-x="635" 
d="M589 214c-14 -73.333 -44.834 -128.333 -92.501 -165s-111.5 -55 -191.5 -55c-30 0 -59.5 4.5 -88.5 13.5s-54.667 22.5 -77 40.5s-40.5 40.5 -54.5 67.5s-21 58.5 -21 94.5c0 18 2 37 6 57l40 208c6.66699 36.667 18.334 68.834 35.001 96.501s37 50.667 61 69
s51.333 32.166 82 41.499s63.667 14 99 14c31.333 0 62 -4.66699 92 -14s56.5 -22.833 79.5 -40.5s41.5 -39.667 55.5 -66s21 -56.5 21 -90.5c0 -7.33301 -0.5 -15 -1.5 -23s-2.16699 -16 -3.5 -24zM493.999 436c2 10 3.00098 19.332 3.00098 27.999
c0 18 -3.33301 33.5 -10 46.5s-15.334 24 -26.001 33s-22.667 15.667 -36 20s-27 6.5 -41 6.5c-35.333 0 -65.833 -9.5 -91.5 -28.5s-42.834 -51.167 -51.501 -96.5l-37 -192c-2 -12 -3 -23 -3 -33c0 -18 3.16699 -33.5 9.5 -46.5s14.833 -23.5 25.5 -31.5
s22.667 -13.833 36 -17.5s26.666 -5.5 39.999 -5.5c38.667 0 70.334 10.333 95.001 31s41.334 53.334 50.001 98.001z" />
    <glyph glyph-name="P" unicode="P" horiz-adv-x="571" 
d="M229 383h133c17.333 0 33 2.83301 47 8.5s26 13.5 36 23.5s17.833 21.5 23.5 34.5s8.5 27.167 8.5 42.5c0 21.333 -6.83301 39 -20.5 53s-34.167 21 -61.5 21h-130zM440 689c28 0 52.6709 -5.33105 74.0039 -15.998s39.166 -24.834 53.499 -42.501s25 -37.834 32 -60.501
s10.5 -45.667 10.5 -69c0 -26.667 -4.83301 -54.167 -14.5 -82.5s-24.334 -54.333 -44.001 -78s-44.334 -43.167 -74.001 -58.5s-64.834 -23 -105.501 -23h-167l-50 -259h-137l134 689h288z" />
    <glyph glyph-name="Q" unicode="Q" horiz-adv-x="650" 
d="M589 214c-14 -70.667 -42.8301 -124.334 -86.4971 -161.001s-101.834 -56 -174.501 -58l-5 -23c-2 -8 -3 -14.667 -3 -20c0 -12 5.33301 -20.5 16 -25.5s30.667 -8.16699 60 -9.5l-15 -100c-5.33301 -0.666992 -10.5 -1 -15.5 -1h-14.5
c-48.667 0 -86.167 8.83301 -112.5 26.5s-39.5 45.167 -39.5 82.5c0 13.333 1.33301 26.333 4 39l10 44c-20.667 6.66699 -40 16 -58 28s-33.833 26.5 -47.5 43.5s-24.334 36.333 -32.001 58s-11.5 45.834 -11.5 72.501c0 18 2 37 6 57l40 208
c14 73.333 45.5 128.5 94.5 165.5s108.833 55.5 179.5 55.5c32 0 63 -4.66699 93 -14s56.667 -23 80 -41s42.166 -40.167 56.499 -66.5s21.5 -56.5 21.5 -90.5c0 -7.33301 -0.5 -14.833 -1.5 -22.5s-2.16699 -15.5 -3.5 -23.5zM494.003 436
c2 8.66699 2.99707 17.666 2.99707 26.999c0 18 -3.5 33.667 -10.5 47s-16.167 24.5 -27.5 33.5s-24 15.667 -38 20s-28 6.5 -42 6.5c-36 0 -65.833 -9.5 -89.5 -28.5s-39.834 -51.167 -48.501 -96.5l-37 -192c-2 -12 -3 -23 -3 -33c0 -18 3.33301 -33.5 10 -46.5
s15.334 -23.5 26.001 -31.5s22.834 -13.833 36.501 -17.5s27.834 -5.5 42.501 -5.5c40 0 71.333 10.333 94 31s38.334 53.334 47.001 98.001z" />
    <glyph glyph-name="R" unicode="R" horiz-adv-x="594" 
d="M449 689c29.333 0 54.6699 -5.00098 76.0029 -15.001s39 -23.333 53 -40s24.5 -35.667 31.5 -57s10.5 -43.333 10.5 -66c0 -19.333 -2.33301 -39.666 -7 -60.999s-12.834 -42.333 -24.501 -63s-27.334 -40.167 -47.001 -58.5s-44.5 -33.833 -74.5 -46.5
c2.66699 -12 7.16699 -31.167 13.5 -57.5l20.5 -83.5l20.5 -83.5c6.33301 -26.333 11.166 -45.5 14.499 -57.5h-147l-56 259h-127l-50 -259h-137l133 689h297zM230.004 382.999h139c35.333 0 63.5 10.5 84.5 31.5s31.5 47.167 31.5 78.5c0 21.333 -6.5 38.833 -19.5 52.5
s-33.167 20.5 -60.5 20.5h-139z" />
    <glyph glyph-name="S" unicode="S" horiz-adv-x="583" 
d="M365 701c42 0 83.165 -3.99512 123.498 -11.9951s77.5 -24.667 111.5 -50l-67 -112c-26 19.333 -53.167 32.666 -81.5 39.999s-56.5 11 -84.5 11c-14 0 -28.333 -1.66699 -43 -5s-28 -8.5 -40 -15.5s-22 -16.167 -30 -27.5s-12 -25.333 -12 -42
c0 -12 3.16699 -22.333 9.5 -31s15.333 -16.167 27 -22.5s25.334 -12 41.001 -17s32.834 -9.83301 51.501 -14.5c66.667 -16.667 114.834 -39.334 144.501 -68.001s44.5 -67.334 44.5 -116.001c0 -34 -7.66699 -64.833 -23 -92.5s-36.333 -51.334 -63 -71.001
s-57.5 -34.667 -92.5 -45s-72.167 -15.5 -111.5 -15.5c-50 0 -97 7.16699 -141 21.5s-83 39.166 -117 74.499c1.33301 1.33301 6.33301 6.83301 15 16.5l28 32l27.5 32c8.33301 9.66699 13.5 15.5 15.5 17.5c24 -22.667 51.167 -39.667 81.5 -51s61.833 -17 94.5 -17
c24.667 0 45.667 2.83301 63 8.5s31.666 12.834 42.999 21.501s19.666 18.334 24.999 29.001s8 21 8 31c0 12 -3.5 22.167 -10.5 30.5s-16.667 15.833 -29 22.5s-26.833 12.667 -43.5 18s-34.667 10.666 -54 15.999c-23.333 6.66699 -45.666 14.5 -66.999 23.5
s-40 20.333 -56 34s-28.667 30.167 -38 49.5s-14 42.333 -14 69c0 36 7 68 21 96s33 51.667 57 71s52 34.166 84 44.499s66 15.5 102 15.5z" />
    <glyph glyph-name="T" unicode="T" horiz-adv-x="526" 
d="M410 565l-110 -565h-137l109 565h-182l24 124h502l-24 -124h-182z" />
    <glyph glyph-name="U" unicode="U" horiz-adv-x="634" 
d="M589 219c-7.33301 -37.333 -19.5 -70.001 -36.5 -98.001s-38 -51.333 -63 -70s-53.667 -32.667 -86 -42s-67.166 -14 -104.499 -14c-31.333 0 -61.5 4.16699 -90.5 12.5s-54.5 20.833 -76.5 37.5s-39.5 37.834 -52.5 63.501s-19.5 55.5 -19.5 89.5
c0 8.66699 0.333008 17.667 1 27s2 18.666 4 27.999l86 436h137l-88 -438c-2 -12 -3 -22.667 -3 -32c0 -18 3.16699 -33.5 9.5 -46.5s14.666 -23.667 24.999 -32s21.833 -14.333 34.5 -18s25.667 -5.5 39 -5.5c16 0 32 2.33301 48 7s31 12.334 45 23.001
s26.167 24.5 36.5 41.5s17.833 37.833 22.5 62.5l85 438h139l-92 -470v0z" />
    <glyph glyph-name="V" unicode="V" horiz-adv-x="604" 
d="M304 201c3.33301 8 10.998 24.166 22.998 48.499l42 86l51 105l51.5 106l43 89l25.5 53.5h150l-352 -689h-141l-88 689h140c0.666992 -8.66699 2.33398 -25.5 5.00098 -50.5l9 -87l10.5 -105l10.5 -105.5l9 -88c2.66699 -25.333 4.33398 -42.666 5.00098 -51.999h6z" />
    <glyph glyph-name="W" unicode="W" horiz-adv-x="908" 
d="M498 455l-86 -196l-114 -259h-150l-42 689h139l7 -272l5 -213h6l95 215l120 270h134l17 -284l11 -201h6l83 203l117 282h144l-309 -689h-149l-14 260l-12 195h-8z" />
    <glyph glyph-name="X" unicode="X" horiz-adv-x="595" 
d="M317 244l-182 -244h-162l286 353l-140 336h151l80 -225l166 225h161l-270 -336l157 -353h-156z" />
    <glyph glyph-name="Y" unicode="Y" horiz-adv-x="557" 
d="M310 396l87 137l99 156h150l-288 -419l-52 -270h-137l52 270l-128 419h142l41 -167l29 -126h5z" />
    <glyph glyph-name="Z" unicode="Z" horiz-adv-x="540" 
d="M17 118l398 449h-298l23 122h463l-21 -114l-404 -453h315l-23 -122h-476z" />
    <glyph glyph-name="bracketleft" unicode="[" horiz-adv-x="291" 
d="M8 -98l155 797h205l-17 -90h-91l-121 -619h92l-17 -88h-206z" />
    <glyph glyph-name="backslash" unicode="\" horiz-adv-x="351" 
d="M89 725h103l103 -767h-102z" />
    <glyph glyph-name="bracketright" unicode="]" horiz-adv-x="291" 
d="M-39 -98l18 88h91l119 619h-90l17 90h205l-156 -797h-204z" />
    <glyph glyph-name="asciicircum" unicode="^" horiz-adv-x="534" 
d="M415 267l-74 298l-191 -299h-116l281 429h95l112 -428h-107z" />
    <glyph glyph-name="underscore" unicode="_" horiz-adv-x="497" 
d="M-69 -150l16 81h496l-16 -81h-496z" />
    <glyph glyph-name="grave" unicode="`" horiz-adv-x="508" 
d="M344 542l-166 181l106 40l120 -184z" />
    <glyph glyph-name="a" unicode="a" horiz-adv-x="525" 
d="M64 320c24 120.667 89.665 181 196.998 181c17.333 0 38 -3.5 62 -10.5s48.667 -18.833 74 -35.5l18 39h117l-96 -494h-118l-2 41c-35.333 -18 -65.166 -30 -89.499 -36s-45.166 -9 -62.499 -9c-46 0 -79.667 11.167 -101 33.5s-32 53.166 -32 92.499
c0 8.66699 0.333008 17.334 1 26.001s2 17.667 4 27zM166.998 192c-2 -9.33301 -2.99902 -17.668 -2.99902 -25.001c0 -18.667 4.83301 -31.667 14.5 -39s22.167 -11 37.5 -11c16 0 34.833 4.33301 56.5 13s44.167 19.334 67.5 32.001l35 185
c-12.667 9.33301 -29.334 17.833 -50.001 25.5s-39.667 11.5 -57 11.5s-33.333 -6 -48 -18s-24.667 -31.333 -30 -58z" />
    <glyph glyph-name="b" unicode="b" horiz-adv-x="522" 
d="M473 183c-12.667 -68 -38.8311 -116.5 -78.498 -145.5s-90.834 -43.5 -153.501 -43.5c-11.333 0 -25.333 0.833008 -42 2.5s-34.667 4.66699 -54 9s-40 10.5 -62 18.5s-44.333 18.667 -67 32l127 660h128l-51 -261c34 18.667 63.667 31 89 37s46.666 9 63.999 9
c46.667 0 80.167 -11.5 100.5 -34.5s30.5 -53.833 30.5 -92.5c0 -17.333 -2 -36 -6 -56zM369.003 305c2 10 3 18.334 3 25.001c0 19.333 -4.83301 32.5 -14.5 39.5s-21.834 10.5 -36.501 10.5c-15.333 0 -34 -4.33301 -56 -13s-44.667 -19.667 -68 -33l-40 -201
c16 -8.66699 33.5 -14.834 52.5 -18.501s36.167 -5.5 51.5 -5.5c21.333 0 39.333 5.83301 54 17.5s24.334 29.5 29.001 53.5z" />
    <glyph glyph-name="c" unicode="c" horiz-adv-x="452" 
d="M425 61c-33.333 -26.667 -66.333 -44.333 -99 -53s-67 -13 -103 -13c-25.333 0 -49 3.5 -71 10.5s-41 17.333 -57 31s-28.667 30.334 -38 50.001s-14 42.5 -14 68.5c0 6 0.333008 12.333 1 19s1.66699 13.667 3 21l22 127c11.333 60.667 37 105.667 77 135s89 44 147 44
c15.333 0 31.166 -1.16699 47.499 -3.5s32.166 -6.33301 47.499 -12s29.833 -13.334 43.5 -23.001s25.834 -21.834 36.501 -36.501l-75 -91c-17.333 20.667 -35.833 34.167 -55.5 40.5s-35.5 9.5 -47.5 9.5c-26 0 -47.5 -6.83301 -64.5 -20.5s-28.5 -35.834 -34.5 -66.501
l-20 -99c-0.666992 -3.33301 -1.16699 -6.66602 -1.5 -9.99902s-0.5 -6.66602 -0.5 -9.99902c0 -24 7.83301 -41.167 23.5 -51.5s32.834 -15.5 51.501 -15.5c13.333 0 30 3 50 9s39.667 18 59 36l72 -96v0z" />
    <glyph glyph-name="d" unicode="d" horiz-adv-x="525" 
d="M64 322c10.667 54 32.832 97.332 66.499 129.999s79.834 49 138.501 49c17.333 0 38 -1.83301 62 -5.5s46.667 -11.167 68 -22.5l49 243h125l-137 -716h-118l-1 46c-31.333 -17.333 -59.833 -30.166 -85.5 -38.499s-47.167 -12.5 -64.5 -12.5
c-44 0 -77.833 10.333 -101.5 31s-35.5 52 -35.5 94c0 17.333 2 36 6 56zM165.998 186.999c-2 -9.33301 -3.00098 -17.332 -3.00098 -23.999c0 -18.667 4.83301 -31.667 14.5 -39s22.167 -11 37.5 -11s34.666 4 57.999 12s45 18.333 65 31l39 198
c-19.333 9.33301 -37.166 16.166 -53.499 20.499s-32.166 6.5 -47.499 6.5c-20 0 -38.167 -6 -54.5 -18s-27.5 -32 -33.5 -60z" />
    <glyph glyph-name="e" unicode="e" horiz-adv-x="494" 
d="M294 502c33.333 0 61.5 -3.99805 84.5 -11.998s41.667 -18.5 56 -31.5s24.666 -27.667 30.999 -44s9.5 -33.166 9.5 -50.499c0 -28 -6.5 -52.5 -19.5 -73.5s-31.333 -38.5 -55 -52.5s-51.834 -24.667 -84.501 -32s-69 -11 -109 -11h-21
c-6.66699 0 -13.667 0.333008 -21 1c-2 -8 -3 -15.667 -3 -23c0 -24.667 7.83301 -42.167 23.5 -52.5s35.834 -15.5 60.501 -15.5c15.333 0 32.5 3.5 51.5 10.5s39.167 19.167 60.5 36.5c2.66699 -3.33301 6.83398 -9.66602 12.501 -18.999l18.5 -30l18.5 -29.5
c5.66699 -9 9.83398 -15.167 12.501 -18.5c-37.333 -26.667 -73.333 -43.334 -108 -50.001s-67.334 -10 -98.001 -10c-25.333 0 -49 3 -71 9s-41.167 15.667 -57.5 29s-29.333 30.166 -39 50.499s-14.5 45.166 -14.5 74.499c0 42 4.5 83.5 13.5 124.5
s23.833 77.667 44.5 110s47.667 58.666 81 78.999s74.333 30.5 123 30.5zM288 389.002c-29.333 0 -52.168 -8.83203 -68.501 -26.499s-28.833 -41.5 -37.5 -71.5c6.66699 -0.666992 13.167 -1 19.5 -1h17.5c24.667 0 44.834 1.83301 60.501 5.5s28 8.16699 37 13.5
s15.167 11.5 18.5 18.5s5 13.5 5 19.5c0 11.333 -3.33301 21.166 -10 29.499s-20.667 12.5 -42 12.5z" />
    <glyph glyph-name="f" unicode="f" horiz-adv-x="335" 
d="M110 393l-68.002 0.000976562l19 102h68l11 55c4.66699 24 10.667 46.667 18 68s18 40 32 56s32 28.667 54 38s50.333 14 85 14c12.667 0 26 -0.666992 40 -2s29 -3.33301 45 -6l-21 -106c-7.33301 1.33301 -14.5 2 -21.5 2h-19.5c-16.667 0 -30 -1.83301 -40 -5.5
s-18 -8.66699 -24 -15s-10.5 -13.833 -13.5 -22.5s-5.5 -18 -7.5 -28l-10 -48h113l-20 -102h-112l-79 -408c-5.33301 -26.667 -11.666 -51.667 -18.999 -75s-17.666 -43.5 -30.999 -60.5s-30.5 -30.5 -51.5 -40.5s-47.833 -15 -80.5 -15c-12 0 -24.833 0.666992 -38.5 2
s-28.5 3.66602 -44.5 6.99902l20 107c5.33301 -0.666992 10.166 -1.16699 14.499 -1.5s8.83301 -0.5 13.5 -0.5c16 0 29.333 1.66699 40 5s19.167 8.5 25.5 15.5s11.333 15.333 15 25s6.83398 21.167 9.50098 34.5z" />
    <glyph glyph-name="g" unicode="g" horiz-adv-x="516" 
d="M428 -27c-11.333 -62 -37.665 -107.332 -78.998 -135.999s-96.666 -43 -165.999 -43c-17.333 0 -35.333 1.83301 -54 5.5s-36.5 9 -53.5 16s-32.667 15.667 -47 26s-26.166 21.833 -35.499 34.5l85 80c6.66699 -8.66699 14.667 -15.834 24 -21.501
s19.166 -10.334 29.499 -14.001s20.5 -6.33398 30.5 -8.00098s18.667 -2.5 26 -2.5c27.333 0 51.666 6.33301 72.999 19s35.666 35.334 42.999 68.001l12 51c-34 -19.333 -63.833 -31.666 -89.5 -36.999s-46.834 -8 -63.501 -8c-46.667 0 -80 11.5 -100 34.5
s-30 54.167 -30 93.5c0 8.66699 0.5 17.5 1.5 26.5s2.16699 18.5 3.5 28.5l22 128c11.333 68 37 116.5 77 145.5s91.667 43.5 155 43.5c23.333 0 55 -3.83301 95 -11.5s82.667 -24.5 128 -50.5zM166.001 198.001c-2 -9.33301 -3.00195 -17.667 -3.00195 -25
c0 -18.667 5 -31.667 15 -39s22 -11 36 -11c16 0 35 4 57 12s44.667 19.333 68 34l37 195c-15.333 8 -32.666 14 -51.999 18s-36.666 6 -51.999 6c-20.667 0 -38.5 -5.83301 -53.5 -17.5s-24.833 -29.5 -29.5 -53.5z" />
    <glyph glyph-name="h" unicode="h" horiz-adv-x="529" 
d="M317 0l59.001 304.999c2 8.66699 3 16.334 3 23.001c0 19.333 -5.33301 32.833 -16 40.5s-23 11.5 -37 11.5c-16 0 -33.833 -3.33301 -53.5 -10s-43.5 -18.667 -71.5 -36l-65 -334h-127l140 716h127l-52 -264c39.333 22.667 71.666 36.5 96.999 41.5s46.333 7.5 63 7.5
c45.333 0 78.333 -11.167 99 -33.5s31 -52.833 31 -91.5c0 -16.667 -2 -35 -6 -55l-62 -321h-129z" />
    <glyph glyph-name="i" unicode="i" horiz-adv-x="287" 
d="M142 628c4 20 13.833 36.999 29.5 50.999s33.5 21 53.5 21c17.333 0 31.833 -5.5 43.5 -16.5s17.5 -25.167 17.5 -42.5c0 -11.333 -2.33301 -22.166 -7 -32.499s-11 -19.333 -19 -27s-17 -13.667 -27 -18s-20.333 -6.5 -31 -6.5c-17.333 0 -31.833 5.33301 -43.5 16
s-17.5 24.667 -17.5 42v6.5c0 2.33301 0.333008 4.5 1 6.5zM252 494.999l-61 -311l-3.5 -21c-1 -6 -1.5 -11.667 -1.5 -17c0 -14.667 4 -24.5 12 -29.5s21.333 -8.16699 40 -9.5l-24 -109h-25c-42 0 -75 9 -99 27s-36 46.333 -36 85c0 14 1.33301 27.667 4 41l67 344h127z
" />
    <glyph glyph-name="j" unicode="j" horiz-adv-x="272" 
d="M153 -45c-4 -21.333 -9.33203 -42.167 -15.999 -62.5s-16 -38.333 -28 -54s-27.833 -28.167 -47.5 -37.5s-44.834 -14 -75.501 -14c-10.667 0 -22.167 0.5 -34.5 1.5s-25.166 2.83301 -38.499 5.5l22 120c3.33301 -0.666992 6.66602 -1 9.99902 -1h10
c24 0 41.5 5 52.5 15s18.167 24.667 21.5 44l100 523h127zM231.001 699.999c17.333 0 31.6689 -5.50098 43.002 -16.501s17 -24.5 17 -40.5c0 -11.333 -2.5 -22.166 -7.5 -32.499s-11.667 -19.333 -20 -27s-17.833 -13.834 -28.5 -18.501s-21.334 -7 -32.001 -7
c-17.333 0 -31.5 5.33301 -42.5 16s-16.5 24.334 -16.5 41.001c0 11.333 2.5 22.166 7.5 32.499s11.667 19.333 20 27s17.666 13.834 27.999 18.501s20.833 7 31.5 7z" />
    <glyph glyph-name="k" unicode="k" horiz-adv-x="502" 
d="M14 0l133.999 715.999h127l-70 -368h39c18 0 34.333 3.83301 49 11.5s28 22.5 40 44.5l50 91h146l-71 -123c-11.333 -19.333 -23.833 -36.666 -37.5 -51.999s-31.167 -26.666 -52.5 -33.999c12.667 -4.66699 22.834 -10.667 30.501 -18s13.5 -15.5 17.5 -24.5
s7 -18.833 9 -29.5s3.66699 -21.334 5 -32.001l26 -182h-131l-19 161c-3.33301 24.667 -10 42.167 -20 52.5s-27.667 15.5 -53 15.5h-50l-43 -229h-126z" />
    <glyph glyph-name="l" unicode="l" horiz-adv-x="274" 
d="M180 -1c-48 0 -82.5 8.50098 -103.5 25.501s-31.5 43.5 -31.5 79.5c0 15.333 2 32.666 6 51.999l108 560h126l-106 -554c-0.666992 -3.33301 -1.16699 -6.5 -1.5 -9.5s-0.5 -6.16699 -0.5 -9.5c0 -12.667 4.5 -21.167 13.5 -25.5s25.167 -6.83301 48.5 -7.5l-21 -111h-38
z" />
    <glyph glyph-name="m" unicode="m" horiz-adv-x="792" 
d="M580 0l60.0029 306.002c1.33301 4 2 7.66699 2 11v10c0 17.333 -4.33301 30.5 -13 39.5s-20.334 13.5 -35.001 13.5s-30 -3 -46 -9s-36.667 -16.667 -62 -32l-4.5 -28.5l-4.5 -27.5l-27.5 -141.5l-27.5 -141.5h-127l29 152l30 153c1.33301 4 2 8 2 12v11
c0 16 -3.83301 28.5 -11.5 37.5s-19.167 13.5 -34.5 13.5c-13.333 0 -28.333 -3.33301 -45 -10s-38.667 -18.667 -66 -36c-11.333 -56 -22 -111.5 -32 -166.5s-20.667 -110.5 -32 -166.5h-127l96 494h117c0.666992 -7.33301 1 -14.666 1 -21.999v-22c20 12 37 21.5 51 28.5
s26.5 12.167 37.5 15.5s20.833 5.33301 29.5 6s17.334 1 26.001 1c29.333 0 52.666 -5.5 69.999 -16.5s30.666 -26.167 39.999 -45.5c22 13.333 41.667 24.166 59 32.499s32.833 14.666 46.5 18.999s25.667 7.16602 36 8.49902s20.166 2 29.499 2
c46 0 78.833 -12.167 98.5 -36.5s29.5 -55.166 29.5 -92.499c0 -18.667 -2 -37.334 -6 -56.001l-30 -158.5l-31 -157.5h-128z" />
    <glyph glyph-name="n" unicode="n" horiz-adv-x="529" 
d="M317 0l59 305.003c2 8.66699 3 16.667 3 24c0 19.333 -5 32.666 -15 39.999s-22.667 11 -38 11c-16 0 -33.667 -3.33301 -53 -10s-43.333 -18.667 -72 -36l-65 -334h-127l97 494h116l2 -42c20.667 11.333 39.167 20.166 55.5 26.499s30.833 11.166 43.5 14.499
s24 5.5 34 6.5s19 1.5 27 1.5c45.333 0 78.333 -11 99 -33s31 -52.333 31 -91c0 -16 -2 -34 -6 -54l-62 -323h-129z" />
    <glyph glyph-name="o" unicode="o" horiz-adv-x="521" 
d="M473 174c-12 -61.333 -37.666 -106.497 -76.999 -135.497s-92.333 -43.5 -159 -43.5c-25.333 0 -49.666 3.66699 -72.999 11s-43.833 18.5 -61.5 33.5s-31.834 33.5 -42.501 55.5s-16 47.667 -16 77c0 7.33301 0.333008 14.666 1 21.999s1.66699 15 3 23l19 102
c11.333 61.333 36.666 107 75.999 137s90.333 45 153 45c30 0 57.5 -4.33301 82.5 -13s46.167 -20.834 63.5 -36.501s30.833 -34.334 40.5 -56.001s14.5 -45.834 14.5 -72.501c0 -15.333 -1.33301 -29.666 -4 -42.999zM367.001 281.003c2 8.66699 2.99902 17 2.99902 25
c0 26 -8.16699 45.5 -24.5 58.5s-35.166 19.5 -56.499 19.5c-23.333 0 -43.5 -6.5 -60.5 -19.5s-28.833 -35.5 -35.5 -67.5l-18 -89c-2 -9.33301 -3 -17.333 -3 -24c0 -13.333 2.5 -24.5 7.5 -33.5s11.333 -16.333 19 -22s16.167 -9.83398 25.5 -12.501s18.666 -4 27.999 -4
c25.333 0 46.333 6.33301 63 19s28.334 35.334 35.001 68.001z" />
    <glyph glyph-name="p" unicode="p" horiz-adv-x="523" 
d="M476 173c-10.667 -54 -32.999 -97.5 -66.999 -130.5s-81 -49.5 -141 -49.5c-17.333 0 -37.333 1.66699 -60 5s-45.334 11.333 -68.001 24l-43 -220h-126l134 692h117l1 -45c32 17.333 60.833 30 86.5 38s47.167 12 64.5 12c44 0 77.667 -10.167 101 -30.5
s35 -51.5 35 -93.5c0 -17.333 -2 -36.333 -6 -57zM373.001 307c2 10 3.00195 18.666 3.00195 25.999c0 18.667 -4.83301 31.334 -14.5 38.001s-21.5 10 -35.5 10c-15.333 0 -34.833 -4.33301 -58.5 -13s-45.834 -18.667 -66.501 -30l-38 -197
c21.333 -10.667 39.666 -17.834 54.999 -21.501s31 -5.5 47 -5.5c20 0 38 5.33301 54 16s26.667 30.334 32 59.001z" />
    <glyph glyph-name="q" unicode="q" horiz-adv-x="515" 
d="M269 -199l47 239c-34.667 -19.333 -64.667 -31.833 -90 -37.5s-46.333 -8.5 -63 -8.5c-46.667 0 -80.167 11.667 -100.5 35s-30.5 54.333 -30.5 93c0 9.33301 0.333008 18.5 1 27.5s2 18.5 4 28.5l25 136c12.667 68 38.334 116.5 77.001 145.5s90.667 43.5 156 43.5
c23.333 0 54.666 -3.83301 93.999 -11.5s82 -24.5 128 -50.5l-119 -640h-129zM166 190c-2 -9.33301 -2.99902 -17.334 -2.99902 -24.001c0 -19.333 5 -32.666 15 -39.999s22 -11 36 -11c16 0 35 4.16699 57 12.5s44.667 19.5 68 33.5l38 203c-15.333 8 -32.5 14 -51.5 18
s-36.167 6 -51.5 6c-20 0 -37.833 -5.83301 -53.5 -17.5s-25.834 -29.5 -30.501 -53.5z" />
    <glyph glyph-name="r" unicode="r" horiz-adv-x="376" 
d="M400 370c-44.667 -5.33301 -82.1689 -12.333 -112.502 -21s-58.166 -20 -83.499 -34l-61 -315h-127l96 496h116l-4 -72h1c10.667 8.66699 23.667 17.5 39 26.5s31.833 17.333 49.5 25s35.834 14 54.501 19s36.667 7.5 54 7.5z" />
    <glyph glyph-name="s" unicode="s" horiz-adv-x="467" 
d="M277 500c34 0 67.3281 -3.99805 99.9951 -11.998s62.334 -23.667 89.001 -47c-11.333 -15.333 -22.166 -31 -32.499 -47l-32.5 -48c-22 17.333 -44 28.833 -66 34.5s-43.667 8.5 -65 8.5c-24.667 0 -42.834 -5.33301 -54.501 -16s-17.5 -21 -17.5 -31
c0 -11.333 5.83301 -19.5 17.5 -24.5s26.334 -9.33301 44.001 -13l57 -11.5c20.333 -4 39.333 -10.333 57 -19s32.334 -21 44.001 -37s17.5 -37.667 17.5 -65c0 -30 -6.5 -56.167 -19.5 -78.5s-30.167 -40.666 -51.5 -54.999s-45.833 -25.166 -73.5 -32.499
s-56.167 -11 -85.5 -11c-18.667 0 -36.667 0.833008 -54 2.5s-34.5 5 -51.5 10s-33.833 12.333 -50.5 22s-33 22.167 -49 37.5l36.5 45l37.5 45c21.333 -20.667 43.5 -34.834 66.5 -42.501s47.5 -11.5 73.5 -11.5c28.667 0 50.334 6 65.001 18s22 24.667 22 38
c0 10.667 -5.66699 18.834 -17 24.501s-25.5 10.667 -42.5 15l-55.5 14c-20 5 -38.5 12.167 -55.5 21.5s-31.167 21.666 -42.5 36.999s-17 35.666 -17 60.999c0 30 6.33301 55.667 19 77s28.834 38.666 48.501 51.999s41.667 23.166 66 29.499s48.5 9.5 72.5 9.5z" />
    <glyph glyph-name="t" unicode="t" horiz-adv-x="374" 
d="M62 393l18.9961 102.998h63l45 122h101l-24 -122h115l-19 -103h-115l-39 -208c-2 -10 -3 -19.333 -3 -28c0 -15.333 4.33301 -26.5 13 -33.5s23.667 -10.5 45 -10.5c10 0 21.167 0.333008 33.5 1s25.833 1.66699 40.5 3l2 -105c-11.333 -4 -23.166 -7.16699 -35.499 -9.5
s-24.5 -4.16602 -36.5 -5.49902s-23.167 -2.16602 -33.5 -2.49902s-19.5 -0.5 -27.5 -0.5c-25.333 0 -46.666 2.5 -63.999 7.5s-31.166 12.333 -41.499 22s-17.666 21.167 -21.999 34.5s-6.5 28.333 -6.5 45c0 18 2 37 6 57l45 233h-61z" />
    <glyph glyph-name="u" unicode="u" horiz-adv-x="531" 
d="M230 494l-60.001 -304c-0.666992 -4 -1.16699 -7.83301 -1.5 -11.5s-0.5 -7.16699 -0.5 -10.5c0 -19.333 5.5 -33 16.5 -41s23.167 -12 36.5 -12c16 0 33.833 3.66699 53.5 11s43.5 19.333 71.5 36l65 332h128l-96 -494h-118l-2 43c-19.333 -11.333 -37 -20.333 -53 -27
s-30.667 -11.667 -44 -15s-25.166 -5.5 -35.499 -6.5s-19.833 -1.5 -28.5 -1.5c-44.667 0 -77.167 12 -97.5 36s-30.5 55.667 -30.5 95c0 17.333 2 36 6 56l62 314h128z" />
    <glyph glyph-name="v" unicode="v" horiz-adv-x="479" 
d="M228 165l100.998 197.002c14 27.333 23.5 49.166 28.5 65.499s7.5 34.166 7.5 53.499v16h134v-15c0 -30 -4 -56.167 -12 -78.5s-19.333 -45.833 -34 -70.5l-193 -333h-127l-82 495h138c0.666992 -8 2 -19.667 4 -35l6 -48l5.5 -47.5
c1.66699 -15 2.83398 -26.5 3.50098 -34.5c0.666992 -8.66699 1.83398 -20.5 3.50098 -35.5l5 -47c1.66699 -16.333 3.16699 -32 4.5 -47s2.33301 -26.833 3 -35.5h4z" />
    <glyph glyph-name="w" unicode="w" horiz-adv-x="709" 
d="M521 0h-124.996l-16 105l-10.5 76l-10.5 76c-0.666992 0 -1.33398 0.166992 -2.00098 0.5s-1.33398 0.5 -2.00098 0.5l-75 -153l-26 -51.5l-27 -53.5h-125l-51 496h130l9 -154l10 -158h6l75 152l57 112h105c2.66699 -19.333 5.16699 -38.5 7.5 -57.5
s5.16602 -38.167 8.49902 -57.5l9.5 -79.5c3 -26.333 6.5 -52.5 10.5 -78.5h4l86 184c11.333 25.333 19.166 46.666 23.499 63.999s6.5 35.333 6.5 54v20h129v-19c0 -24.667 -3 -48.167 -9 -70.5s-15.333 -46.166 -28 -71.499z" />
    <glyph glyph-name="x" unicode="x" horiz-adv-x="507" 
d="M310 0l-66 157l-128 -157h-153l223 252l-119 243h150l58 -150l121 150h153l-217 -242l129 -253h-151z" />
    <glyph glyph-name="y" unicode="y" horiz-adv-x="458" 
d="M12 -199l114 210l-29 22l-48 463h128l11 -182l10 -171h4l111 219l17 36.5c4.66699 10.333 8.5 20 11.5 29s5 17.667 6 26s1.5 17.5 1.5 27.5v16h129v-15c0 -30 -4.16699 -56 -12.5 -78s-19.5 -45.667 -33.5 -71l-292 -532h-128z" />
    <glyph glyph-name="z" unicode="z" horiz-adv-x="474" 
d="M-9 0l19 103l302 285h-232l21 107h387l-19 -100l-302 -283h246l-21 -112h-401z" />
    <glyph glyph-name="braceleft" unicode="{" horiz-adv-x="291" 
d="M148 298c13.333 -6 25.001 -16.167 35.001 -30.5s15 -33.166 15 -56.499c0 -9.33301 -1 -20 -3 -32l-24 -122c-1.33301 -6 -2.33301 -11.833 -3 -17.5s-1 -10.834 -1 -15.501c0 -11.333 2.5 -20.166 7.5 -26.499s14.167 -9.5 27.5 -9.5h37l-16 -84h-76
c-32 0 -56 9 -72 27s-24 41 -24 69c0 9.33301 1 19.666 3 30.999l24 125c1.33301 6 2.33301 11.833 3 17.5s1 11.167 1 16.5c0 42.667 -20 64.667 -60 66l17 87c26 2 47 12 63 30s27 42.333 33 73l25 131c3.33301 18 9.33301 34.333 18 49s18.834 27.167 30.501 37.5
s24.5 18.333 38.5 24s28.667 8.5 44 8.5h86l-16 -86h-37c-9.33301 0 -17.333 -2.16699 -24 -6.5s-12.334 -9.66602 -17.001 -15.999s-8.33398 -13.5 -11.001 -21.5s-4.66699 -15.667 -6 -23l-23 -120c-3.33301 -16.667 -8.5 -31.667 -15.5 -45s-15 -24.833 -24 -34.5
s-18.333 -17.834 -28 -24.501s-18.5 -12 -26.5 -16z" />
    <glyph glyph-name="bar" unicode="|" horiz-adv-x="241" 
d="M68 -206v932h104v-932h-104z" />
    <glyph glyph-name="braceright" unicode="}" horiz-adv-x="291" 
d="M180 303c-11.333 6.66699 -22.167 17.333 -32.5 32s-15.5 34 -15.5 58c0 8.66699 1 18.667 3 30l22 120c1.33301 5.33301 2.33301 10.5 3 15.5s1 10.167 1 15.5c0 10 -2.5 18.5 -7.5 25.5s-15.167 10.5 -30.5 10.5h-34l17 85h86c30 0 52.333 -7.66699 67 -23
s22 -36 22 -62c0 -5.33301 -0.333008 -10.666 -1 -15.999s-1.66699 -11 -3 -17l-26 -131c-2 -12 -3 -23 -3 -33c0 -21.333 4.83301 -38 14.5 -50s24.5 -18.667 44.5 -20l-17 -87c-25.333 -1.33301 -46 -10.5 -62 -27.5s-27 -41.167 -33 -72.5l-26 -134
c-7.33301 -35.333 -23.333 -63.833 -48 -85.5s-52.334 -32.5 -83.001 -32.5h-85l16 84h37c10.667 0 19.334 2.16699 26.001 6.5s12 9.83301 16 16.5s7.16699 14.167 9.5 22.5s4.16602 16.166 5.49902 23.499l24 122c6.66699 32 18.834 57.833 36.501 77.5
s36.167 33.5 55.5 41.5z" />
    <glyph glyph-name="asciitilde" unicode="~" horiz-adv-x="526" 
d="M187 350c15.333 0 31.002 -3.33496 47.002 -10.002s31.833 -14.167 47.5 -22.5s31 -15.833 46 -22.5s29.5 -10 43.5 -10c4.66699 0 10 0.666992 16 2s12.667 4.33301 20 9s15.666 11.334 24.999 20.001s20 20.667 32 36c2 -2 6.16699 -5.5 12.5 -10.5l21 -16.5l21.5 -17
c6.66699 -5.33301 11 -9 13 -11c-24 -40.667 -50.333 -69.834 -79 -87.501s-58.667 -26.5 -90 -26.5c-16.667 0 -32.834 3.33301 -48.501 10s-31.334 13.834 -47.001 21.501s-31.334 14.834 -47.001 21.501s-32.167 10 -49.5 10c-14.667 0 -28.667 -3.83301 -42 -11.5
s-29.666 -22.167 -48.999 -43.5l-63 59c21.333 28.667 45.333 52.5 72 71.5s59.334 28.5 98.001 28.5z" />
    <glyph glyph-name="exclamdown" unicode="&#xa1;" horiz-adv-x="266" 
d="M214 289l-88 -489h-126l103 489h111zM200 503c19.333 0 34.8311 -6 46.498 -18s17.5 -27.333 17.5 -46c0 -12 -2.33301 -23.667 -7 -35s-11.334 -21.5 -20.001 -30.5s-18.667 -16.167 -30 -21.5s-23.666 -8 -36.999 -8c-19.333 0 -35.166 5.83301 -47.499 17.5
s-18.5 26.5 -18.5 44.5c0 12 2.5 23.833 7.5 35.5s11.833 22 20.5 31s18.834 16.333 30.501 22s24.167 8.5 37.5 8.5z" />
    <glyph glyph-name="cent" unicode="&#xa2;" horiz-adv-x="451" 
d="M425 61c-30.667 -24 -61.1641 -40.501 -91.4971 -49.501s-61.5 -14.167 -93.5 -15.5l-23 -127h-56l25 129c-42 6 -76.333 22.167 -103 48.5s-40 61.833 -40 106.5c0 7.33301 0.333008 14.333 1 21s1.66699 13.667 3 21l22 127c11.333 58.667 35.5 102.834 72.5 132.501
s84.167 45.167 141.5 46.5l24 122h55l-24 -126c24.667 -3.33301 48.5 -10.5 71.5 -21.5s42.5 -27.5 58.5 -49.5l-75 -91c-12.667 14.667 -25.834 25.5 -39.501 32.5s-26.5 11.833 -38.5 14.5l-51 -268c13.333 1.33301 27.666 5.33301 42.999 12s30.666 17 45.999 31z
M171.003 198.999c-0.666992 -3.33301 -1.16699 -6.83301 -1.5 -10.5s-0.5 -7.16699 -0.5 -10.5c0 -16 3.83301 -28.833 11.5 -38.5s17.167 -16.5 28.5 -20.5l51 262c-19.333 -4 -34.333 -12.667 -45 -26s-18.667 -32.333 -24 -57z" />
    <glyph glyph-name="sterling" unicode="&#xa3;" horiz-adv-x="534" 
d="M460 513c-9.33301 17.333 -22.165 32.999 -38.498 46.999s-38.5 21 -66.5 21c-32 0 -55.5 -9.5 -70.5 -28.5s-22.5 -41.167 -22.5 -66.5c0 -18 2.5 -36.167 7.5 -54.5s7.83301 -39.833 8.5 -64.5h144l-19 -91h-141c-7.33301 -30 -17.333 -59.333 -30 -88
s-28.667 -55 -48 -79h289l-20 -109h-451l18 94c27.333 28 50 56.333 68 85s31.667 61 41 97h-79l18 91h70c-2.66699 21.333 -5.83398 41.833 -9.50098 61.5s-5.5 38.834 -5.5 57.501c0 22.667 4 46.667 12 72s21 48.5 39 69.5s41.667 38.333 71 52s65.666 20.5 108.999 20.5
c53.333 0 98.333 -10.333 135 -31s64.667 -51.667 84 -93z" />
    <glyph glyph-name="currency" unicode="&#xa4;" horiz-adv-x="556" 
d="M30 499l65.999 66.001l68 -68c18.667 11.333 37.167 19.833 55.5 25.5s37.166 8.5 56.499 8.5c20.667 0 40 -2.66699 58 -8s36 -13.666 54 -24.999l67 67l66 -67l-68 -67c10.667 -18 19 -36.167 25 -54.5s9 -36.833 9 -55.5c0 -20.667 -2.83301 -39.834 -8.5 -57.501
s-14.167 -35.834 -25.5 -54.501l34.5 -32.5c13 -12.333 24.167 -23.5 33.5 -33.5l-66 -66l-66 67c-36 -22.667 -73.667 -34 -113 -34c-19.333 0 -38.666 3 -57.999 9s-37.666 14.333 -54.999 25l-67 -67l-66 65l68 67c-22 36.667 -33 74 -33 112c0 36 11.333 72.667 34 110z
M159.999 321.001c0 -16 3.00098 -31.001 9.00098 -45.001s14.167 -26.167 24.5 -36.5s22.5 -18.666 36.5 -24.999s29 -9.5 45 -9.5s31 3 45 9s26.333 14.333 37 25s19 23 25 37s9 29 9 45s-3 31 -9 45s-14.333 26.167 -25 36.5s-23 18.5 -37 24.5s-29 9 -45 9
s-30.833 -3 -44.5 -9s-25.834 -14.167 -36.501 -24.5s-19 -22.5 -25 -36.5s-9 -29 -9 -45z" />
    <glyph glyph-name="yen" unicode="&#xa5;" horiz-adv-x="534" 
d="M59 232h143l7 38l-8 31h-126l16 84h91l-74 304h143l45 -291h7l156 291h151l-192 -304h97l-17 -84h-132l-19 -31l-8 -38h146l-16 -82h-145l-29 -150h-137l28 150h-142z" />
    <glyph glyph-name="brokenbar" unicode="&#xa6;" horiz-adv-x="241" 
d="M68 290v436h104v-436h-104zM172 228v-434h-104v434h104z" />
    <glyph glyph-name="section" unicode="&#xa7;" horiz-adv-x="446" 
d="M319 701c12.667 0 26.1689 -0.831055 40.502 -2.49805s28.333 -4.16699 42 -7.5s26.667 -7.5 39 -12.5s23.166 -11.167 32.499 -18.5l-56 -87c-16.667 11.333 -32.334 19.166 -47.001 23.499s-30.667 6.5 -48 6.5c-8 0 -16.667 -1.16699 -26 -3.5s-17.666 -6 -24.999 -11
s-13.5 -11.5 -18.5 -19.5s-7.5 -17.333 -7.5 -28c0 -22.667 19 -44 57 -64l48 -28c16 -9.33301 30.167 -20 42.5 -32s22.333 -25.833 30 -41.5s11.5 -34.167 11.5 -55.5c0 -24.667 -5.83301 -47.5 -17.5 -68.5s-30.834 -43.5 -57.501 -67.5
c5.33301 -8.66699 10.333 -19.834 15 -33.501s7 -27.5 7 -41.5c0 -28.667 -6.5 -53.167 -19.5 -73.5s-29.5 -37.166 -49.5 -50.499s-42.333 -23.166 -67 -29.499s-48.334 -9.5 -71.001 -9.5c-26.667 0 -55 3.66699 -85 11s-54.333 18.666 -73 33.999l52 85
c15.333 -11.333 32 -19.5 50 -24.5s36.667 -7.5 56 -7.5c8.66699 0 17.834 1.33301 27.501 4s18.5 6.66699 26.5 12s14.5 12.166 19.5 20.499s7.5 18.5 7.5 30.5c0 13.333 -5.83301 25.666 -17.5 36.999s-30.5 23 -56.5 35c-16.667 8 -32.167 16.667 -46.5 26
s-26.833 19.833 -37.5 31.5s-19 25 -25 40s-9 32.5 -9 52.5c0 23.333 6 46.5 18 69.5s31.667 44.5 59 64.5c-13.333 20.667 -20 44.667 -20 72c0 26.667 5.5 50.167 16.5 70.5s25.667 37.333 44 51s39.5 23.834 63.5 30.501s49 10 75 10zM208.002 403.002
c-9.33301 -8 -16.832 -16.668 -22.499 -26.001s-8.5 -18.666 -8.5 -27.999c0 -12 3.83301 -22.333 11.5 -31s17 -16.667 28 -24s23 -14.166 36 -20.499s25.167 -13.5 36.5 -21.5c18.667 15.333 28 32.666 28 51.999c0 12 -3.5 22.333 -10.5 31s-15.833 16.667 -26.5 24
s-22.334 14.5 -35.001 21.5s-25 14.5 -37 22.5z" />
    <glyph glyph-name="dieresis" unicode="&#xa8;" horiz-adv-x="491" 
d="M439 693c16.667 0 30.167 -5.16602 40.5 -15.499s15.5 -23.833 15.5 -40.5c0 -10.667 -2.33301 -20.834 -7 -30.501s-11 -18.167 -19 -25.5s-17 -13.166 -27 -17.499s-20 -6.5 -30 -6.5c-16.667 0 -30.167 5.16699 -40.5 15.5s-15.5 23.166 -15.5 38.499
c0 10.667 2.33301 21 7 31s10.667 18.833 18 26.5s16 13.667 26 18s20.667 6.5 32 6.5zM241 693.001c16.667 0 30.166 -5.16602 40.499 -15.499s15.5 -23.833 15.5 -40.5c0 -10.667 -2.33301 -20.834 -7 -30.501s-11 -18.167 -19 -25.5s-17 -13.166 -27 -17.499
s-20 -6.5 -30 -6.5c-16.667 0 -30.167 5.16699 -40.5 15.5s-15.5 23.166 -15.5 38.499c0 10.667 2.33301 21 7 31s10.834 18.833 18.501 26.5s16.5 13.667 26.5 18s20.333 6.5 31 6.5z" />
    <glyph glyph-name="copyright" unicode="&#xa9;" horiz-adv-x="823" 
d="M412 -19c-50 0 -96.667 8.83496 -140 26.502s-81 42.5 -113 74.5s-57.167 70.167 -75.5 114.5s-27.5 93.166 -27.5 146.499c0 52 9.16699 100.333 27.5 145s43.5 83.167 75.5 115.5s69.667 57.666 113 75.999s90 27.5 140 27.5s96.667 -9 140 -27s81 -43.167 113 -75.5
s57.167 -70.833 75.5 -115.5s27.5 -93.334 27.5 -146.001c0 -52 -9.16699 -100.167 -27.5 -144.5s-43.5 -82.666 -75.5 -114.999s-69.667 -57.5 -113 -75.5s-90 -27 -140 -27zM412 635.002c-39.333 0 -75.666 -7.49902 -108.999 -22.499s-62.5 -35.667 -87.5 -62
s-44.5 -57.333 -58.5 -93s-21 -73.834 -21 -114.501c0 -41.333 7 -79.666 21 -114.999s33.5 -66 58.5 -92s54.167 -46.5 87.5 -61.5s69.666 -22.5 108.999 -22.5s75.833 7.5 109.5 22.5s62.834 35.5 87.501 61.5s44 56.667 58 92s21 73.666 21 114.999
c0 42 -7 80.833 -21 116.5s-33.333 66.5 -58 92.5s-53.834 46.333 -87.501 61s-70.167 22 -109.5 22zM512 448.003c-14.667 12.667 -29.665 21.332 -44.998 25.999s-30.333 7 -45 7c-9.33301 0 -19 -1.5 -29 -4.5s-19 -7.66699 -27 -14s-14.5 -14.666 -19.5 -24.999
s-7.5 -22.833 -7.5 -37.5v-127c0 -14.667 2.66699 -27 8 -37s12 -18.167 20 -24.5s17 -11 27 -14s19.667 -4.5 29 -4.5c13.333 0 27.666 2.33301 42.999 7s30.666 13 45.999 25l43 -68c-17.333 -14.667 -37.833 -25.834 -61.5 -33.501s-47.834 -11.5 -72.501 -11.5
c-20.667 0 -41.167 3 -61.5 9s-38.666 14.833 -54.999 26.5s-29.5 26.334 -39.5 44.001s-15 38.167 -15 61.5v162c0 24 5 45 15 63s23 33 39 45s34.167 21.167 54.5 27.5s40.833 9.5 61.5 9.5c24.667 0 49.5 -3.66699 74.5 -11s46.167 -18.333 63.5 -33z" />
    <glyph glyph-name="ordfeminine" unicode="&#xaa;" horiz-adv-x="363" 
d="M86 488c15.333 80.667 61.002 120.999 137.002 120.999c11.333 0 24.666 -2.16699 39.999 -6.5s31.666 -11.166 48.999 -20.499l11 22h90l-62 -327h-89l-1 28c-43.333 -20.667 -76.333 -31 -99 -31c-34 0 -58.667 8.33301 -74 25s-23 38 -23 64c0 10 1 20.667 3 32z
M167.002 403.999c-0.666992 -3.33301 -0.99707 -7.66699 -0.99707 -13c0 -11.333 2.83301 -19 8.5 -23s13.167 -6 22.5 -6s21.166 2.83301 35.499 8.5s28.5 12.167 42.5 19.5l20 111c-8.66699 6 -19.334 11 -32.001 15s-24.334 6 -35.001 6c-11.333 0 -21 -3.66699 -29 -11
s-13.667 -18.333 -17 -33z" />
    <glyph glyph-name="guillemotleft" unicode="&#xab;" horiz-adv-x="547" 
d="M146 22l-99 204l180 206h125l-183 -210l93 -200h-116zM353 22l-98 204l179 206h125l-182 -210l92 -200h-116z" />
    <glyph glyph-name="logicalnot" unicode="&#xac;" horiz-adv-x="534" 
d="M482 59h-108l36 188h-381l20 99h489z" />
    <glyph glyph-name="sfthyphen" unicode="&#xad;" horiz-adv-x="416" 
d="M69 317h315l-22 -113h-316z" />
    <glyph glyph-name="registered" unicode="&#xae;" horiz-adv-x="521" 
d="M266 470l-36.001 -0.000976562v-89h-47v229h91c20 0 37.167 -6.16699 51.5 -18.5s21.5 -29.166 21.5 -50.499c0 -12 -3.16699 -23.5 -9.5 -34.5s-16.166 -20.5 -29.499 -28.5l46 -97h-51zM229.999 564.999v-51h42c8.66699 0 15.667 2.5 21 7.5s8 11.5 8 19.5
c0 16 -9 24 -27 24h-44zM259.999 288.999c-29.333 0 -56.498 5.16699 -81.498 15.5s-46.833 24.666 -65.5 42.999s-33.334 40 -44.001 65s-16 52.167 -16 81.5s5.5 56.5 16.5 81.5s26 46.833 45 65.5s41 33.167 66 43.5s51.5 15.5 79.5 15.5
c28.667 0 55.667 -5.16699 81 -15.5s47.166 -24.833 65.499 -43.5s32.833 -40.5 43.5 -65.5s16 -52.167 16 -81.5s-5.5 -56.5 -16.5 -81.5s-26 -46.667 -45 -65s-41 -32.666 -66 -42.999s-51.167 -15.5 -78.5 -15.5zM260.001 653.999c-22 0 -42.667 -4.16699 -62 -12.5
s-36 -19.666 -50 -33.999s-25.167 -31.166 -33.5 -50.499s-12.5 -40.333 -12.5 -63s4.16699 -43.834 12.5 -63.501s19.5 -36.667 33.5 -51s30.667 -25.666 50 -33.999s40 -12.5 62 -12.5s42.5 4.16699 61.5 12.5s35.5 19.666 49.5 33.999s25 31.333 33 51
s12 40.834 12 63.501s-4 43.667 -12 63s-19 36.166 -33 50.499s-30.5 25.666 -49.5 33.999s-39.5 12.5 -61.5 12.5z" />
    <glyph glyph-name="macron" unicode="&#xaf;" horiz-adv-x="509" 
d="M177 585l21 104h312l-21 -104h-312z" />
    <glyph glyph-name="degree" unicode="&#xb0;" horiz-adv-x="417" 
d="M362 554c0 -20 -4 -39 -12 -57s-19 -33.667 -33 -47s-30.333 -23.833 -49 -31.5s-38.667 -11.5 -60 -11.5s-41.333 3.83301 -60 11.5s-35 18.167 -49 31.5s-25 29 -33 47s-12 37 -12 57s4 39 12 57s19 33.667 33 47s30.333 23.833 49 31.5s38.667 11.5 60 11.5
c22 0 42.333 -3.83301 61 -11.5s35 -18.167 49 -31.5s24.833 -29 32.5 -47s11.5 -37 11.5 -57zM278 554c0 19.333 -6.83301 35.5 -20.5 48.5s-30.167 19.5 -49.5 19.5s-35.833 -6.5 -49.5 -19.5s-20.5 -29.167 -20.5 -48.5c0 -18.667 6.83301 -34.667 20.5 -48
s30.167 -20 49.5 -20s35.833 6.66699 49.5 20s20.5 29.333 20.5 48z" />
    <glyph glyph-name="plusminus" unicode="&#xb1;" horiz-adv-x="534" 
d="M340 311l-34 -174h-104l34 174h-192l19 98h192l35 179h104l-35 -179h191l-19 -98h-191zM-18 0l18 97h492l-18 -97h-492z" />
    <glyph glyph-name="twosuperior" unicode="&#xb2;" horiz-adv-x="326" 
d="M278 783c14 0 28.5 -1.49902 43.5 -4.49902s28.667 -8.33301 41 -16s22.666 -18 30.999 -31s12.5 -29.5 12.5 -49.5c0 -17.333 -3.66699 -32.833 -11 -46.5s-16.666 -26.5 -27.999 -38.5s-24 -23 -38 -33l-41 -28c-8.66699 -6 -18.834 -12.333 -30.501 -19
s-23 -13.834 -34 -21.501s-21 -15.834 -30 -24.501s-15.5 -17.334 -19.5 -26.001h190c-3.33301 -13.333 -6 -26.333 -8 -39s-4.33301 -25.667 -7 -39h-289l12 63c3.33301 18.667 9.5 35.334 18.5 50.001s19.833 28 32.5 40s26.334 23 41.001 33s29.334 19.333 44.001 28
l36 20.5c12 7 22.833 14 32.5 21s17.667 14.333 24 22s9.5 15.834 9.5 24.501c0 10 -5 17.667 -15 23s-21.667 8 -35 8c-30.667 0 -61.334 -10.333 -92.001 -31l-36 71c21.333 14 44.5 24.667 69.5 32s50.5 11 76.5 11z" />
    <glyph glyph-name="threesuperior" unicode="&#xb3;" horiz-adv-x="325" 
d="M312 574c17.333 -6 30.1689 -15.833 38.502 -29.5s12.5 -29.167 12.5 -46.5c0 -23.333 -4.83301 -43.333 -14.5 -60s-22.167 -30.667 -37.5 -42s-32.833 -19.666 -52.5 -24.999s-39.5 -8 -59.5 -8c-26.667 0 -52.334 3.5 -77.001 10.5s-44.667 17.833 -60 32.5l53 70
c11.333 -10 24.5 -17.5 39.5 -22.5s29.167 -7.5 42.5 -7.5c21.333 0 38.666 4.66699 51.999 14s20 22.333 20 39c0 11.333 -4.16699 20.666 -12.5 27.999s-18.5 11 -30.5 11h-61l15 76h59c5.33301 0 11.333 0.833008 18 2.5s13 4.5 19 8.5s11.167 9 15.5 15
s6.5 13.667 6.5 23c0 13.333 -5 22.833 -15 28.5s-21.667 8.5 -35 8.5s-28.333 -2.5 -45 -7.5s-32.667 -12.833 -48 -23.5l-33 71c22 15.333 44.833 26.333 68.5 33s49.167 10 76.5 10c16 0 31.667 -1.83301 47 -5.5s28.833 -9.5 40.5 -17.5s21.167 -18.5 28.5 -31.5
s11 -28.833 11 -47.5c0 -25.333 -7.66699 -47.833 -23 -67.5s-35.333 -32.5 -60 -38.5z" />
    <glyph glyph-name="acute" unicode="&#xb4;" horiz-adv-x="508" 
d="M272 568l118 195l109 -37l-160 -185z" />
    <glyph glyph-name="mu" unicode="&#xb5;" horiz-adv-x="525" 
d="M322 0c0 7.33301 0.166016 14.498 0.499023 21.498s0.5 14.167 0.5 21.5c-30 -18 -56.167 -30 -78.5 -36s-41.5 -9.66699 -57.5 -11c-12 0 -22.167 0.333008 -30.5 1s-16.166 2.33398 -23.499 5.00098l-39 -201h-126l27 141.5l22 115l19 100l19 98l21.5 108l25.5 130.5
h128l-59 -305c-0.666992 -3.33301 -1.16699 -6.5 -1.5 -9.5s-0.5 -6.16699 -0.5 -9.5c0 -16 4.33301 -29.333 13 -40s21.667 -16 39 -16c15.333 0 33 3.33301 53 10s44 18.334 72 35.001l65 335h127l-96 -494h-120z" />
    <glyph glyph-name="mu" unicode="&#x3bc;" horiz-adv-x="525" 
d="M322 0c0 7.33301 0.166016 14.498 0.499023 21.498s0.5 14.167 0.5 21.5c-30 -18 -56.167 -30 -78.5 -36s-41.5 -9.66699 -57.5 -11c-12 0 -22.167 0.333008 -30.5 1s-16.166 2.33398 -23.499 5.00098l-39 -201h-126l27 141.5l22 115l19 100l19 98l21.5 108l25.5 130.5
h128l-59 -305c-0.666992 -3.33301 -1.16699 -6.5 -1.5 -9.5s-0.5 -6.16699 -0.5 -9.5c0 -16 4.33301 -29.333 13 -40s21.667 -16 39 -16c15.333 0 33 3.33301 53 10s44 18.334 72 35.001l65 335h127l-96 -494h-120z" />
    <glyph glyph-name="paragraph" unicode="&#xb6;" horiz-adv-x="540" 
d="M453 59c-6 -33.333 -14.498 -62.332 -25.498 -86.999s-26.167 -45.5 -45.5 -62.5s-43.5 -29.833 -72.5 -38.5s-64.833 -13.334 -107.5 -14.001l2 97c27.333 2.66699 49.833 7.16699 67.5 13.5s31.667 14.5 42 24.5s18.166 22 23.499 36s9.66602 30 12.999 48l116 630h106
zM246.002 315.001c-24.667 0 -46.667 4.33594 -66 13.0029s-35.833 20.667 -49.5 36s-24.167 33.333 -31.5 54s-11 43 -11 67c0 33.333 6.16699 63.666 18.5 90.999s29 50.666 50 69.999s45.167 34.166 72.5 44.499s56 15.5 86 15.5h88l-72 -391h-85z" />
    <glyph glyph-name="periodcentered" unicode="&#xb7;" horiz-adv-x="271" 
d="M136 197c-21.333 0 -38.665 6.83594 -51.998 20.5029s-20 30.5 -20 50.5c0 14 3 27.333 9 40s14 23.667 24 33s21.167 16.666 33.5 21.999s24.833 8 37.5 8c21.333 0 38.666 -6.5 51.999 -19.5s20 -29.833 20 -50.5c0 -13.333 -2.83301 -26.333 -8.5 -39
s-13.334 -23.834 -23.001 -33.501s-20.667 -17.334 -33 -23.001s-25.5 -8.5 -39.5 -8.5z" />
    <glyph glyph-name="cedilla" unicode="&#xb8;" horiz-adv-x="453" 
d="M146 -74l60.9971 122.001h63l-21.5 -42.5l-21.5 -42.5c16 -0.666992 29.167 -3.33398 39.5 -8.00098s18.833 -10.667 25.5 -18s11.334 -15.333 14.001 -24s4 -17.334 4 -26.001c0 -13.333 -2.83301 -26.166 -8.5 -38.499s-14.167 -23.333 -25.5 -33
s-25.166 -17.334 -41.499 -23.001s-34.833 -8.5 -55.5 -8.5c-16.667 0 -34.167 2.33301 -52.5 7s-35.166 10.667 -50.499 18l29 58c14 -7.33301 27 -12.333 39 -15s23.333 -4 34 -4c11.333 0 22.5 2.33301 33.5 7s16.5 13.334 16.5 26.001c0 5.33301 -1.5 9.5 -4.5 12.5
s-6.66699 5 -11 6s-8.83301 1.16699 -13.5 0.5s-9 -1.66699 -13 -3z" />
    <glyph glyph-name="onesuperior" unicode="&#xb9;" horiz-adv-x="257" 
d="M133 367l58 297l-45 -30l-40 64l117 81h83l-80 -412h-93z" />
    <glyph glyph-name="ordmasculine" unicode="&#xba;" horiz-adv-x="359" 
d="M373 397c-5.33301 -35.333 -20.332 -64.667 -44.999 -88s-61.667 -35 -111 -35c-40.667 0 -74.334 11 -101.001 33s-40 52 -40 90v13.5c0 4.33301 0.666992 8.83301 2 13.5l12 63c7.33301 40 24.5 70.333 51.5 91s61.833 31 104.5 31
c45.333 0 79.833 -12.167 103.5 -36.5s35.5 -54.5 35.5 -90.5c0 -4 -0.166992 -8.16699 -0.5 -12.5s-0.833008 -8.83301 -1.5 -13.5zM290.001 463.999c1.33301 6.66699 2 11.334 2 14.001c0 15.333 -4.83301 26.833 -14.5 34.5s-20.834 11.5 -33.501 11.5
c-16 0 -29.333 -4 -40 -12s-17.667 -21.333 -21 -40l-10 -57c-0.666992 -2.66699 -1 -6.33398 -1 -11.001c0 -16.667 5.33301 -28.667 16 -36s21.334 -11 32.001 -11c34 0 54 18 60 54z" />
    <glyph glyph-name="guillemotright" unicode="&#xbb;" horiz-adv-x="547" 
d="M421 432l98 -206l-179 -204h-125l182 209l-92 201h116zM213 432l99 -206l-179 -204h-126l183 209l-92 201h115z" />
    <glyph glyph-name="onequarter" unicode="&#xbc;" horiz-adv-x="855" 
d="M183 277l58 297l-45 -30l-40 64l117 81h83l-80 -412h-93zM214 -17h-90l567 730h91zM738 57l-11 -57h-94l12 57h-186l14 68l199 287h99l-191 -276h80l21 107h94l-21 -107h36l-15 -79h-37z" />
    <glyph glyph-name="onehalf" unicode="&#xbd;" horiz-adv-x="855" 
d="M149 277l58 297l-45 -30l-40 64l117 81h83l-80 -412h-93zM179 -17h-90l567 730h91zM697 416c14.667 0 29.5029 -1.50195 44.5029 -4.50195s28.667 -8.33301 41 -16s22.5 -18 30.5 -31s12 -29.5 12 -49.5c0 -17.333 -3.83301 -33.333 -11.5 -48s-17.334 -28 -29.001 -40
s-24.834 -23 -39.501 -33l-43 -28l-29.5 -18c-11 -6.66699 -21.667 -13.667 -32 -21s-19.833 -15 -28.5 -23s-15 -16.333 -19 -25h190c-0.666992 -3.33301 -1.83398 -8.66602 -3.50098 -15.999s-3.16699 -15.333 -4.5 -24s-2.66602 -16.667 -3.99902 -24
s-2.33301 -12.333 -3 -15h-288c0 2 0.5 6 1.5 12s2.16699 12.333 3.5 19s2.5 13 3.5 19s1.83301 10.333 2.5 13c4.66699 23.333 13.667 44 27 62s28.833 33.833 46.5 47.5s36.167 26 55.5 37l53 31c16 9.66699 29.167 19.334 39.5 29.001s15.5 20.5 15.5 32.5
c0 10 -4.83301 17.667 -14.5 23s-21.167 8 -34.5 8c-30.667 0 -61.334 -10.333 -92.001 -31l-7 14.5c-3.33301 7 -7 14.167 -11 21.5l-11 21l-7 14c21.333 14 44.5 24.667 69.5 32s50.5 11 76.5 11z" />
    <glyph glyph-name="threequarters" unicode="&#xbe;" horiz-adv-x="855" 
d="M341 484c17.333 -6 30.1689 -15.833 38.502 -29.5s12.5 -29.167 12.5 -46.5c0 -23.333 -4.83301 -43.333 -14.5 -60s-22.167 -30.667 -37.5 -42s-32.833 -19.666 -52.5 -24.999s-39.5 -8 -59.5 -8c-26.667 0 -52.334 3.5 -77.001 10.5s-44.667 17.833 -60 32.5l53 70
c11.333 -10 24.5 -17.5 39.5 -22.5s29.167 -7.5 42.5 -7.5c21.333 0 38.666 4.66699 51.999 14s20 22.333 20 39c0 11.333 -4.16699 20.666 -12.5 27.999s-18.5 11 -30.5 11h-61l15 76h59c5.33301 0 11.333 0.833008 18 2.5s13 4.5 19 8.5s11.167 9 15.5 15
s6.5 13.667 6.5 23c0 13.333 -5 22.833 -15 28.5s-21.667 8.5 -35 8.5s-28.333 -2.5 -45 -7.5s-32.667 -12.833 -48 -23.5l-33 71c22 15.333 44.833 26.333 68.5 33s49.167 10 76.5 10c16 0 31.667 -1.83301 47 -5.5s28.833 -9.5 40.5 -17.5s21.167 -18.5 28.5 -31.5
s11 -28.833 11 -47.5c0 -25.333 -7.66699 -47.833 -23 -67.5s-35.333 -32.5 -60 -38.5zM256.003 -17h-90l567 730h91zM756.003 57l-11 -57h-94l12 57h-186l14 68l199 287h99l-191 -276h80l21 107h94l-21 -107h36l-15 -79h-37z" />
    <glyph glyph-name="questiondown" unicode="&#xbf;" horiz-adv-x="489" 
d="M215 -196c-26.667 0 -51.168 3.83105 -73.501 11.498s-41.666 18.5 -57.999 32.5s-29 30.5 -38 49.5s-13.5 39.833 -13.5 62.5c0 20 3.83301 39.833 11.5 59.5s18.834 39.167 33.501 58.5c13.333 18 27.666 34.667 42.999 50s30 30.833 44 46.5s26.5 32 37.5 49
s18.5 36.5 22.5 58.5l6 28h130l-6 -28c-4 -20 -9.5 -38.333 -16.5 -55s-15.667 -33 -26 -49s-22.333 -32 -36 -48l-45.5 -52c-11.333 -11.333 -22.166 -25.666 -32.499 -42.999s-15.5 -34.666 -15.5 -51.999c0 -16 5.66699 -29.333 17 -40s29.666 -16 54.999 -16
c21.333 0 43.5 4.16699 66.5 12.5s45.167 20.833 66.5 37.5c2 -4 5.16699 -11 9.5 -21l13.5 -32.5l13.5 -32.5c4.33301 -10 7.5 -16.667 9.5 -20c-32 -23.333 -66.667 -40.333 -104 -51s-75.333 -16 -114 -16zM377.999 434.998c0 -20 -6.99902 -37.501 -20.999 -52.501
s-31.667 -22.5 -53 -22.5c-20 0 -36.333 6.5 -49 19.5s-19 28.833 -19 47.5c0 20.667 7.16699 38.334 21.5 53.001s32.166 22 53.499 22c20 0 36.167 -6.33301 48.5 -19s18.5 -28.667 18.5 -48z" />
    <glyph glyph-name="Agrave" unicode="&#xc0;" horiz-adv-x="638" 
d="M427 142h-239l-72 -142h-149l374 689h140l106 -689h-144zM246 257h166l-11 105l-18 161h-4l-74 -149zM421 730l-203 105l81 81l171 -134z" />
    <glyph glyph-name="Aacute" unicode="&#xc1;" horiz-adv-x="638" 
d="M427 142h-239l-72 -142h-149l374 689h140l106 -689h-144zM246 257h166l-11 105l-18 161h-4l-74 -149zM366 784l190 137l72 -86l-221 -108z" />
    <glyph glyph-name="Acircumflex" unicode="&#xc2;" horiz-adv-x="638" 
d="M427 142h-239l-72 -142h-149l374 689h140l106 -689h-144zM246 257h166l-11 105l-18 161h-4l-74 -149zM431 812l-167 -81l-32 52l173 123h84l124 -123l-54 -52z" />
    <glyph glyph-name="Atilde" unicode="&#xc3;" horiz-adv-x="638" 
d="M427 142h-239l-72 -142h-149l374 689h140l106 -689h-144zM370 879c12.667 0 24.335 -2.33105 35.002 -6.99805s20.667 -9.83398 30 -15.501s18 -10.667 26 -15s15.667 -6.5 23 -6.5c10.667 0 21.334 3.16699 32.001 9.5s23.667 18.166 39 35.499l12 -8l19.5 -13.5
c7 -5 13.667 -9.5 20 -13.5l12.5 -8c-20.667 -38 -41.834 -64.5 -63.501 -79.5s-43.834 -22.5 -66.501 -22.5c-12.667 0 -24.334 2 -35.001 6s-20.834 8.5 -30.501 13.5s-18.834 9.5 -27.501 13.5s-17.667 6 -27 6c-11.333 0 -22.166 -2.66699 -32.499 -8
s-24.166 -17 -41.499 -35l-63 45c21.333 34 43 59.667 65 77s46.333 26 73 26zM246.001 257.002h166l-11 105l-18 161h-4l-74 -149z" />
    <glyph glyph-name="Adieresis" unicode="&#xc4;" horiz-adv-x="638" 
d="M427 142h-239l-72 -142h-149l374 689h140l106 -689h-144zM246 257h166l-11 105l-18 161h-4l-74 -149zM550 872c17.333 0 31.1719 -5.50195 41.5049 -16.502s15.166 -24.5 14.499 -40.5c-0.666992 -10.667 -3.33398 -20.667 -8.00098 -30s-10.834 -17.666 -18.501 -24.999
s-16.334 -13.166 -26.001 -17.499s-19.5 -6.5 -29.5 -6.5c-17.333 0 -31.333 5.5 -42 16.5s-15.334 25.167 -14.001 42.5c0 10 2.5 19.667 7.5 29s11.167 17.5 18.5 24.5s16 12.667 26 17s20 6.5 30 6.5zM346.006 871.998c17.333 0 31.165 -5.5 41.498 -16.5
s14.833 -24.5 13.5 -40.5c-1.33301 -21.333 -10.166 -39.833 -26.499 -55.5s-34.833 -23.5 -55.5 -23.5c-16.667 0 -30.334 5.5 -41.001 16.5s-15.667 24.833 -15 41.5c0.666992 10.667 3.33398 20.667 8.00098 30s10.834 17.5 18.501 24.5s16.5 12.667 26.5 17
s20 6.5 30 6.5z" />
    <glyph glyph-name="Aring" unicode="&#xc5;" horiz-adv-x="638" 
d="M427 142h-239l-72 -142h-149l374 689h140l106 -689h-144zM246 257h166l-11 105l-18 161h-4l-74 -149zM427 781c12.667 0 24.667 5 36 15s17 21.667 17 35c0 9.33301 -3.5 17.333 -10.5 24s-15.833 10 -26.5 10c-14.667 0 -27.167 -5 -37.5 -15s-15.5 -21.667 -15.5 -35
c0 -9.33301 3.33301 -17.333 10 -24s15.667 -10 27 -10zM417 712c-28 0 -51.833 8.66797 -71.5 26.001s-29.5 39 -29.5 65c0 17.333 3.16699 34 9.5 50s15.5 30 27.5 42s26.167 21.667 42.5 29s34.5 11 54.5 11c29.333 0 54 -8.83301 74 -26.5s30 -39.834 30 -66.501
c0 -18 -3.33301 -34.833 -10 -50.5s-16 -29.5 -28 -41.5s-26.5 -21.333 -43.5 -28s-35.5 -10 -55.5 -10z" />
    <glyph glyph-name="AE" unicode="&#xc6;" horiz-adv-x="1029" 
d="M513 0l23 161.999c-40 0 -79.667 0.166992 -119 0.5s-79 0.5 -119 0.5l-60 -82l-61 -81h-162l258.5 344.5l258.5 344.5h543l-17 -123h-329l-22 -159h288l-17 -122h-289c-3.33301 -27.333 -7 -54.666 -11 -81.999l-12 -82h337l-16 -121h-474zM375 276.999
c30 0 59.5 -0.166992 88.5 -0.5s58.167 -0.5 87.5 -0.5l42 288h-2z" />
    <glyph glyph-name="Ccedilla" unicode="&#xc7;" horiz-adv-x="563" 
d="M210 -74l35.9971 72c-24 4 -47 11.167 -69 21.5s-41.5 23.666 -58.5 39.999s-30.667 36 -41 59s-15.5 49.5 -15.5 79.5c0 8.66699 0.333008 17.334 1 26.001s2 17.667 4 27l43 222c14.667 74 45.5 129.667 92.5 167s109.167 56 186.5 56c40 0 79.667 -6.33301 119 -19
s70.666 -30.667 93.999 -54l-79 -104c-17.333 18 -38.833 31.167 -64.5 39.5s-50.167 12.5 -73.5 12.5c-38.667 0 -70.5 -10.5 -95.5 -31.5s-41.833 -54.5 -50.5 -100.5l-36 -193c-2 -10 -3 -19.333 -3 -28c0 -17.333 3.33301 -32.166 10 -44.499s15.334 -22.333 26.001 -30
s22.834 -13.334 36.501 -17.001s27.834 -5.5 42.501 -5.5c11.333 0 23.666 1 36.999 3s26.833 5.16699 40.5 9.5s27 9.66602 40 15.999s24.833 13.5 35.5 21.5l57 -112c-32.667 -23.333 -68.334 -39.666 -107.001 -48.999s-76 -14.666 -112 -15.999l-15 -31
c16 -0.666992 29.167 -3.33398 39.5 -8.00098s18.833 -10.667 25.5 -18s11.334 -15.333 14.001 -24s4 -17.334 4 -26.001c0 -13.333 -2.83301 -26.166 -8.5 -38.499s-14.167 -23.333 -25.5 -33s-25.166 -17.334 -41.499 -23.001s-34.833 -8.5 -55.5 -8.5
c-16.667 0 -34.167 2.33301 -52.5 7s-35.166 10.667 -50.499 18l29 58c14 -7.33301 27 -12.333 39 -15s23.333 -4 34 -4c11.333 0 22.5 2.33301 33.5 7s16.5 13.334 16.5 26.001c0 5.33301 -1.5 9.5 -4.5 12.5s-6.66699 5 -11 6s-8.83301 1.16699 -13.5 0.5
s-9 -1.66699 -13 -3z" />
    <glyph glyph-name="Egrave" unicode="&#xc8;" horiz-adv-x="579" 
d="M159 689h464l-23 -123h-328l-31 -158h288l-23 -123h-289l-32 -163h352l-24 -122h-488zM433 730l-203 105l81 81l171 -134z" />
    <glyph glyph-name="Eacute" unicode="&#xc9;" horiz-adv-x="579" 
d="M159 689h464l-23 -123h-328l-31 -158h288l-23 -123h-289l-32 -163h352l-24 -122h-488zM317 784l190 137l72 -86l-221 -108z" />
    <glyph glyph-name="Ecircumflex" unicode="&#xca;" horiz-adv-x="579" 
d="M159 689h464l-23 -123h-328l-31 -158h288l-23 -123h-289l-32 -163h352l-24 -122h-488zM413 812l-167 -81l-32 52l173 123h84l124 -123l-54 -52z" />
    <glyph glyph-name="Edieresis" unicode="&#xcb;" horiz-adv-x="579" 
d="M159 689h464l-23 -123h-328l-31 -158h288l-23 -123h-289l-32 -163h352l-24 -122h-488zM516 872c17.333 0 31.1719 -5.50195 41.5049 -16.502s15.166 -24.5 14.499 -40.5c-0.666992 -10.667 -3.33398 -20.667 -8.00098 -30s-10.834 -17.666 -18.501 -24.999
s-16.334 -13.166 -26.001 -17.499s-19.5 -6.5 -29.5 -6.5c-17.333 0 -31.333 5.5 -42 16.5s-15.334 25.167 -14.001 42.5c0 10 2.5 19.667 7.5 29s11.167 17.5 18.5 24.5s16 12.667 26 17s20 6.5 30 6.5zM312.006 871.998c17.333 0 31.165 -5.5 41.498 -16.5
s14.833 -24.5 13.5 -40.5c-1.33301 -21.333 -10.166 -39.833 -26.499 -55.5s-34.833 -23.5 -55.5 -23.5c-16.667 0 -30.334 5.5 -41.001 16.5s-15.667 24.833 -15 41.5c0.666992 10.667 3.33398 20.667 8.00098 30s10.834 17.5 18.501 24.5s16.5 12.667 26.5 17
s20 6.5 30 6.5z" />
    <glyph glyph-name="Igrave" unicode="&#xcc;" horiz-adv-x="295" 
d="M311 689l-134 -689h-137l134 689h137zM262 730l-203 105l81 81l171 -134z" />
    <glyph glyph-name="Iacute" unicode="&#xcd;" horiz-adv-x="295" 
d="M311 689l-134 -689h-137l134 689h137zM203 784l190 137l72 -86l-221 -108z" />
    <glyph glyph-name="Icircumflex" unicode="&#xce;" horiz-adv-x="295" 
d="M311 689l-134 -689h-137l134 689h137zM272 812l-167 -81l-32 52l173 123h84l124 -123l-54 -52z" />
    <glyph glyph-name="Idieresis" unicode="&#xcf;" horiz-adv-x="295" 
d="M311 689l-134 -689h-137l134 689h137zM375 877c16.667 0 30.167 -5.16406 40.5 -15.4971s15.5 -23.5 15.5 -39.5c0 -10.667 -2.33301 -20.834 -7 -30.501s-11 -18.334 -19 -26.001s-16.833 -13.667 -26.5 -18s-19.5 -6.5 -29.5 -6.5
c-16.667 0 -30.167 5.16699 -40.5 15.5s-15.5 23.166 -15.5 38.499c0 10.667 2.33301 21 7 31s10.667 18.833 18 26.5s16 13.667 26 18s20.333 6.5 31 6.5zM171 877.003c16.667 0 29.999 -4.99902 39.999 -14.999s15 -22.667 15 -38c0 -11.333 -2.33301 -22 -7 -32
s-10.667 -18.833 -18 -26.5s-16 -13.667 -26 -18s-20.333 -6.5 -31 -6.5c-16 0 -29.333 5.16699 -40 15.5s-16 23.166 -16 38.499c0 10.667 2.33301 21 7 31s10.834 18.833 18.501 26.5s16.5 13.667 26.5 18s20.333 6.5 31 6.5z" />
    <glyph glyph-name="Eth" unicode="&#xd0;" horiz-adv-x="630" 
d="M33 391h69l58 298h254c28.667 0 55.5 -4.16699 80.5 -12.5s46.833 -20.333 65.5 -36s33.5 -35 44.5 -58s16.5 -49.5 16.5 -79.5c0 -13.333 -1.66699 -29.333 -5 -48l-41 -234c-14.667 -74.667 -45.167 -130.167 -91.5 -166.5s-103.833 -54.5 -172.5 -54.5h-285l58 297
h-70zM479 442c1.33301 6 2.33105 11.6699 2.99805 17.0029s1 10.666 1 15.999c0 16.667 -2.83301 30.667 -8.5 42s-13.5 20.666 -23.5 27.999s-21.333 12.666 -34 15.999s-26 5 -40 5h-104l-34 -175h87l-18 -94h-88l-34 -176h114c14.667 0 29.5 2.16699 44.5 6.5
s28.833 11.333 41.5 21s23.834 22.5 33.501 38.5s16.834 35.667 21.501 59z" />
    <glyph glyph-name="Ntilde" unicode="&#xd1;" horiz-adv-x="675" 
d="M485 248l43 220.5l42 220.5h135l-132 -689h-124l-28.5 61l-35.5 76.5l-39.5 83.5l-39 83.5l-34.5 75l-27 58.5l-90 -438h-136l132 689h125l28 -57.5l36 -75.5l39 -85.5l39 -86l35.5 -77l27.5 -59.5h4zM386 881c12.667 0 24.335 -2.33105 35.002 -6.99805
s20.667 -9.83398 30 -15.501s18 -10.667 26 -15s15.667 -6.5 23 -6.5c10.667 0 21.334 3.16699 32.001 9.5s23.667 18.166 39 35.499l12 -8l19.5 -13.5c7 -5 13.667 -9.5 20 -13.5l12.5 -8c-20.667 -38 -41.834 -64.5 -63.501 -79.5s-43.834 -22.5 -66.501 -22.5
c-12.667 0 -24.334 2 -35.001 6s-20.834 8.5 -30.501 13.5s-18.834 9.5 -27.501 13.5s-17.667 6 -27 6c-11.333 0 -22.166 -2.66699 -32.499 -8s-24.166 -17 -41.499 -35l-63 45c21.333 34 43 59.667 65 77s46.333 26 73 26z" />
    <glyph glyph-name="Ograve" unicode="&#xd2;" horiz-adv-x="635" 
d="M589 214c-14 -73.333 -44.834 -128.333 -92.501 -165s-111.5 -55 -191.5 -55c-30 0 -59.5 4.5 -88.5 13.5s-54.667 22.5 -77 40.5s-40.5 40.5 -54.5 67.5s-21 58.5 -21 94.5c0 18 2 37 6 57l40 208c6.66699 36.667 18.334 68.834 35.001 96.501s37 50.667 61 69
s51.333 32.166 82 41.499s63.667 14 99 14c31.333 0 62 -4.66699 92 -14s56.5 -22.833 79.5 -40.5s41.5 -39.667 55.5 -66s21 -56.5 21 -90.5c0 -7.33301 -0.5 -15 -1.5 -23s-2.16699 -16 -3.5 -24zM493.999 436c2 10 3.00098 19.332 3.00098 27.999
c0 18 -3.33301 33.5 -10 46.5s-15.334 24 -26.001 33s-22.667 15.667 -36 20s-27 6.5 -41 6.5c-35.333 0 -65.833 -9.5 -91.5 -28.5s-42.834 -51.167 -51.501 -96.5l-37 -192c-2 -12 -3 -23 -3 -33c0 -18 3.16699 -33.5 9.5 -46.5s14.833 -23.5 25.5 -31.5
s22.667 -13.833 36 -17.5s26.666 -5.5 39.999 -5.5c38.667 0 70.334 10.333 95.001 31s41.334 53.334 50.001 98.001zM468 729.999l-203 105l81 81l171 -134z" />
    <glyph glyph-name="Oacute" unicode="&#xd3;" horiz-adv-x="635" 
d="M589 214c-14 -73.333 -44.834 -128.333 -92.501 -165s-111.5 -55 -191.5 -55c-30 0 -59.5 4.5 -88.5 13.5s-54.667 22.5 -77 40.5s-40.5 40.5 -54.5 67.5s-21 58.5 -21 94.5c0 18 2 37 6 57l40 208c6.66699 36.667 18.334 68.834 35.001 96.501s37 50.667 61 69
s51.333 32.166 82 41.499s63.667 14 99 14c31.333 0 62 -4.66699 92 -14s56.5 -22.833 79.5 -40.5s41.5 -39.667 55.5 -66s21 -56.5 21 -90.5c0 -7.33301 -0.5 -15 -1.5 -23s-2.16699 -16 -3.5 -24zM493.999 436c2 10 3.00098 19.332 3.00098 27.999
c0 18 -3.33301 33.5 -10 46.5s-15.334 24 -26.001 33s-22.667 15.667 -36 20s-27 6.5 -41 6.5c-35.333 0 -65.833 -9.5 -91.5 -28.5s-42.834 -51.167 -51.501 -96.5l-37 -192c-2 -12 -3 -23 -3 -33c0 -18 3.16699 -33.5 9.5 -46.5s14.833 -23.5 25.5 -31.5
s22.667 -13.833 36 -17.5s26.666 -5.5 39.999 -5.5c38.667 0 70.334 10.333 95.001 31s41.334 53.334 50.001 98.001zM348 783.999l190 137l72 -86l-221 -108z" />
    <glyph glyph-name="Ocircumflex" unicode="&#xd4;" horiz-adv-x="635" 
d="M589 214c-14 -73.333 -44.834 -128.333 -92.501 -165s-111.5 -55 -191.5 -55c-30 0 -59.5 4.5 -88.5 13.5s-54.667 22.5 -77 40.5s-40.5 40.5 -54.5 67.5s-21 58.5 -21 94.5c0 18 2 37 6 57l40 208c6.66699 36.667 18.334 68.834 35.001 96.501s37 50.667 61 69
s51.333 32.166 82 41.499s63.667 14 99 14c31.333 0 62 -4.66699 92 -14s56.5 -22.833 79.5 -40.5s41.5 -39.667 55.5 -66s21 -56.5 21 -90.5c0 -7.33301 -0.5 -15 -1.5 -23s-2.16699 -16 -3.5 -24zM493.999 436c2 10 3.00098 19.332 3.00098 27.999
c0 18 -3.33301 33.5 -10 46.5s-15.334 24 -26.001 33s-22.667 15.667 -36 20s-27 6.5 -41 6.5c-35.333 0 -65.833 -9.5 -91.5 -28.5s-42.834 -51.167 -51.501 -96.5l-37 -192c-2 -12 -3 -23 -3 -33c0 -18 3.16699 -33.5 9.5 -46.5s14.833 -23.5 25.5 -31.5
s22.667 -13.833 36 -17.5s26.666 -5.5 39.999 -5.5c38.667 0 70.334 10.333 95.001 31s41.334 53.334 50.001 98.001zM442 811.999l-167 -81l-32 52l173 123h84l124 -123l-54 -52z" />
    <glyph glyph-name="Otilde" unicode="&#xd5;" horiz-adv-x="635" 
d="M589 214c-14 -73.333 -44.834 -128.333 -92.501 -165s-111.5 -55 -191.5 -55c-30 0 -59.5 4.5 -88.5 13.5s-54.667 22.5 -77 40.5s-40.5 40.5 -54.5 67.5s-21 58.5 -21 94.5c0 18 2 37 6 57l40 208c6.66699 36.667 18.334 68.834 35.001 96.501s37 50.667 61 69
s51.333 32.166 82 41.499s63.667 14 99 14c31.333 0 62 -4.66699 92 -14s56.5 -22.833 79.5 -40.5s41.5 -39.667 55.5 -66s21 -56.5 21 -90.5c0 -7.33301 -0.5 -15 -1.5 -23s-2.16699 -16 -3.5 -24zM493.999 436c2 10 3.00098 19.332 3.00098 27.999
c0 18 -3.33301 33.5 -10 46.5s-15.334 24 -26.001 33s-22.667 15.667 -36 20s-27 6.5 -41 6.5c-35.333 0 -65.833 -9.5 -91.5 -28.5s-42.834 -51.167 -51.501 -96.5l-37 -192c-2 -12 -3 -23 -3 -33c0 -18 3.16699 -33.5 9.5 -46.5s14.833 -23.5 25.5 -31.5
s22.667 -13.833 36 -17.5s26.666 -5.5 39.999 -5.5c38.667 0 70.334 10.333 95.001 31s41.334 53.334 50.001 98.001zM369 878.999c12.667 0 24.335 -2.33105 35.002 -6.99805s20.667 -9.83398 30 -15.501s18 -10.667 26 -15s15.667 -6.5 23 -6.5
c10.667 0 21.334 3.16699 32.001 9.5s23.667 18.166 39 35.499l12 -8l19.5 -13.5c7 -5 13.667 -9.5 20 -13.5l12.5 -8c-20.667 -38 -41.834 -64.5 -63.501 -79.5s-43.834 -22.5 -66.501 -22.5c-12.667 0 -24.334 2 -35.001 6s-20.834 8.5 -30.501 13.5
s-18.834 9.5 -27.501 13.5s-17.667 6 -27 6c-11.333 0 -22.166 -2.66699 -32.499 -8s-24.166 -17 -41.499 -35l-63 45c21.333 34 43 59.667 65 77s46.333 26 73 26z" />
    <glyph glyph-name="Odieresis" unicode="&#xd6;" horiz-adv-x="635" 
d="M589 214c-14 -73.333 -44.834 -128.333 -92.501 -165s-111.5 -55 -191.5 -55c-30 0 -59.5 4.5 -88.5 13.5s-54.667 22.5 -77 40.5s-40.5 40.5 -54.5 67.5s-21 58.5 -21 94.5c0 18 2 37 6 57l40 208c6.66699 36.667 18.334 68.834 35.001 96.501s37 50.667 61 69
s51.333 32.166 82 41.499s63.667 14 99 14c31.333 0 62 -4.66699 92 -14s56.5 -22.833 79.5 -40.5s41.5 -39.667 55.5 -66s21 -56.5 21 -90.5c0 -7.33301 -0.5 -15 -1.5 -23s-2.16699 -16 -3.5 -24zM493.999 436c2 10 3.00098 19.332 3.00098 27.999
c0 18 -3.33301 33.5 -10 46.5s-15.334 24 -26.001 33s-22.667 15.667 -36 20s-27 6.5 -41 6.5c-35.333 0 -65.833 -9.5 -91.5 -28.5s-42.834 -51.167 -51.501 -96.5l-37 -192c-2 -12 -3 -23 -3 -33c0 -18 3.16699 -33.5 9.5 -46.5s14.833 -23.5 25.5 -31.5
s22.667 -13.833 36 -17.5s26.666 -5.5 39.999 -5.5c38.667 0 70.334 10.333 95.001 31s41.334 53.334 50.001 98.001zM551 871.999c17.333 0 31.1719 -5.50195 41.5049 -16.502s15.166 -24.5 14.499 -40.5c-0.666992 -10.667 -3.33398 -20.667 -8.00098 -30
s-10.834 -17.666 -18.501 -24.999s-16.334 -13.166 -26.001 -17.499s-19.5 -6.5 -29.5 -6.5c-17.333 0 -31.333 5.5 -42 16.5s-15.334 25.167 -14.001 42.5c0 10 2.5 19.667 7.5 29s11.167 17.5 18.5 24.5s16 12.667 26 17s20 6.5 30 6.5zM347.006 871.997
c17.333 0 31.165 -5.5 41.498 -16.5s14.833 -24.5 13.5 -40.5c-1.33301 -21.333 -10.166 -39.833 -26.499 -55.5s-34.833 -23.5 -55.5 -23.5c-16.667 0 -30.334 5.5 -41.001 16.5s-15.667 24.833 -15 41.5c0.666992 10.667 3.33398 20.667 8.00098 30
s10.834 17.5 18.501 24.5s16.5 12.667 26.5 17s20 6.5 30 6.5z" />
    <glyph glyph-name="multiply" unicode="&#xd7;" horiz-adv-x="562" 
d="M289 208l-193 -160l-59 74l192 160l-131 166l83 67l132 -165l189 158l60 -76l-190 -157l134 -169l-83 -67z" />
    <glyph glyph-name="Oslash" unicode="&#xd8;" horiz-adv-x="635" 
d="M589 214c-14 -73.333 -44.832 -128.333 -92.499 -165s-111.5 -55 -191.5 -55c-32 0 -63 5 -93 15s-56.667 25 -80 45l-54 -61l-37 32l57 66c-22.667 32.667 -34 72.334 -34 119.001c0 18 2 37 6 57l40 208c6.66699 36.667 18.334 68.834 35.001 96.501s37 50.667 61 69
s51.333 32.166 82 41.499s63.667 14 99 14c34.667 0 68 -5.5 100 -16.5s59.667 -27.167 83 -48.5l38.5 43.5c10.333 11.667 17.166 19.834 20.499 24.501c7.33301 -5.33301 14.166 -11 20.499 -17s12.833 -11.667 19.5 -17l-65 -74
c9.33301 -14.667 16.833 -30.834 22.5 -48.501s8.5 -36.834 8.5 -57.501c0 -7.33301 -0.5 -15 -1.5 -23s-2.16699 -16 -3.5 -24zM478.001 526c-10.667 14.667 -24.667 25.667 -42 33s-34.666 11 -51.999 11c-35.333 0 -65.833 -9.5 -91.5 -28.5
s-42.834 -51.167 -51.501 -96.5l-37 -192c-2 -12 -3 -23 -3 -33v-11zM494.001 436c2 10 2.99805 19.332 2.99805 27.999v5l-276 -313c11.333 -13.333 25 -22.833 41 -28.5s32.667 -8.5 50 -8.5c38.667 0 70.334 10.333 95.001 31s41.334 53.334 50.001 98.001z" />
    <glyph glyph-name="Ugrave" unicode="&#xd9;" horiz-adv-x="634" 
d="M589 219c-7.33301 -37.333 -19.5 -70.001 -36.5 -98.001s-38 -51.333 -63 -70s-53.667 -32.667 -86 -42s-67.166 -14 -104.499 -14c-31.333 0 -61.5 4.16699 -90.5 12.5s-54.5 20.833 -76.5 37.5s-39.5 37.834 -52.5 63.501s-19.5 55.5 -19.5 89.5
c0 8.66699 0.333008 17.667 1 27s2 18.666 4 27.999l86 436h137l-88 -438c-2 -12 -3 -22.667 -3 -32c0 -18 3.16699 -33.5 9.5 -46.5s14.666 -23.667 24.999 -32s21.833 -14.333 34.5 -18s25.667 -5.5 39 -5.5c16 0 32 2.33301 48 7s31 12.334 45 23.001
s26.167 24.5 36.5 41.5s17.833 37.833 22.5 62.5l85 438h139zM450 729.999l-203 105l81 81l171 -134z" />
    <glyph glyph-name="Uacute" unicode="&#xda;" horiz-adv-x="634" 
d="M589 219c-7.33301 -37.333 -19.5 -70.001 -36.5 -98.001s-38 -51.333 -63 -70s-53.667 -32.667 -86 -42s-67.166 -14 -104.499 -14c-31.333 0 -61.5 4.16699 -90.5 12.5s-54.5 20.833 -76.5 37.5s-39.5 37.834 -52.5 63.501s-19.5 55.5 -19.5 89.5
c0 8.66699 0.333008 17.667 1 27s2 18.666 4 27.999l86 436h137l-88 -438c-2 -12 -3 -22.667 -3 -32c0 -18 3.16699 -33.5 9.5 -46.5s14.666 -23.667 24.999 -32s21.833 -14.333 34.5 -18s25.667 -5.5 39 -5.5c16 0 32 2.33301 48 7s31 12.334 45 23.001
s26.167 24.5 36.5 41.5s17.833 37.833 22.5 62.5l85 438h139zM348 783.999l190 137l72 -86l-221 -108z" />
    <glyph glyph-name="Ucircumflex" unicode="&#xdb;" horiz-adv-x="634" 
d="M589 219c-7.33301 -37.333 -19.5 -70.001 -36.5 -98.001s-38 -51.333 -63 -70s-53.667 -32.667 -86 -42s-67.166 -14 -104.499 -14c-31.333 0 -61.5 4.16699 -90.5 12.5s-54.5 20.833 -76.5 37.5s-39.5 37.834 -52.5 63.501s-19.5 55.5 -19.5 89.5
c0 8.66699 0.333008 17.667 1 27s2 18.666 4 27.999l86 436h137l-88 -438c-2 -12 -3 -22.667 -3 -32c0 -18 3.16699 -33.5 9.5 -46.5s14.666 -23.667 24.999 -32s21.833 -14.333 34.5 -18s25.667 -5.5 39 -5.5c16 0 32 2.33301 48 7s31 12.334 45 23.001
s26.167 24.5 36.5 41.5s17.833 37.833 22.5 62.5l85 438h139zM435 811.999l-167 -81l-32 52l173 123h84l124 -123l-54 -52z" />
    <glyph glyph-name="Udieresis" unicode="&#xdc;" horiz-adv-x="634" 
d="M589 219c-7.33301 -37.333 -19.5 -70.001 -36.5 -98.001s-38 -51.333 -63 -70s-53.667 -32.667 -86 -42s-67.166 -14 -104.499 -14c-31.333 0 -61.5 4.16699 -90.5 12.5s-54.5 20.833 -76.5 37.5s-39.5 37.834 -52.5 63.501s-19.5 55.5 -19.5 89.5
c0 8.66699 0.333008 17.667 1 27s2 18.666 4 27.999l86 436h137l-88 -438c-2 -12 -3 -22.667 -3 -32c0 -18 3.16699 -33.5 9.5 -46.5s14.666 -23.667 24.999 -32s21.833 -14.333 34.5 -18s25.667 -5.5 39 -5.5c16 0 32 2.33301 48 7s31 12.334 45 23.001
s26.167 24.5 36.5 41.5s17.833 37.833 22.5 62.5l85 438h139zM556 871.999c17.333 0 31.1719 -5.50195 41.5049 -16.502s15.166 -24.5 14.499 -40.5c-0.666992 -10.667 -3.33398 -20.667 -8.00098 -30s-10.834 -17.666 -18.501 -24.999s-16.334 -13.166 -26.001 -17.499
s-19.5 -6.5 -29.5 -6.5c-17.333 0 -31.333 5.5 -42 16.5s-15.334 25.167 -14.001 42.5c0 10 2.5 19.667 7.5 29s11.167 17.5 18.5 24.5s16 12.667 26 17s20 6.5 30 6.5zM352.006 871.997c17.333 0 31.165 -5.5 41.498 -16.5s14.833 -24.5 13.5 -40.5
c-1.33301 -21.333 -10.166 -39.833 -26.499 -55.5s-34.833 -23.5 -55.5 -23.5c-16.667 0 -30.334 5.5 -41.001 16.5s-15.667 24.833 -15 41.5c0.666992 10.667 3.33398 20.667 8.00098 30s10.834 17.5 18.501 24.5s16.5 12.667 26.5 17s20 6.5 30 6.5z" />
    <glyph glyph-name="Yacute" unicode="&#xdd;" horiz-adv-x="557" 
d="M310 396l87 137l99 156h150l-288 -419l-52 -270h-137l52 270l-128 419h142l41 -167l29 -126h5zM307 784l190 137l72 -86l-221 -108z" />
    <glyph glyph-name="Thorn" unicode="&#xde;" horiz-adv-x="576" 
d="M204 255h131c35.333 0 63.5 10.667 84.5 32s31.5 47.333 31.5 78c0 21.333 -6.83301 38.833 -20.5 52.5s-34.167 20.5 -61.5 20.5h-130zM155 0l-136.999 0.00195312l134 689l137 -1l-25 -126h151c28.667 0 53.667 -5.33301 75 -16s39 -24.834 53 -42.501
s24.5 -37.834 31.5 -60.501s10.5 -45.667 10.5 -69c0 -30 -5.16699 -59.5 -15.5 -88.5s-25.5 -54.833 -45.5 -77.5s-44.333 -41 -73 -55s-61.334 -21 -98.001 -21h-173z" />
    <glyph glyph-name="germandbls" unicode="&#xdf;" horiz-adv-x="528" 
d="M144 -1l-125 -0.00195312l100 516c12 62.667 37.833 111.167 77.5 145.5s89.5 51.5 149.5 51.5c33.333 0 61.833 -5 85.5 -15s42.834 -22.667 57.501 -38s25.334 -32.666 32.001 -51.999s10 -38.333 10 -57c0 -7.33301 -1 -17.5 -3 -30.5s-6.16699 -26.833 -12.5 -41.5
s-15.333 -29.167 -27 -43.5s-27.5 -26.166 -47.5 -35.499c20.667 -9.33301 36.167 -24.5 46.5 -45.5s15.5 -43.167 15.5 -66.5c0 -9.33301 -1 -19 -3 -29l-15 -85c-9.33301 -54 -30.5 -97.5 -63.5 -130.5s-78.5 -49.5 -136.5 -49.5c-10 0 -22.333 0.333008 -37 1
s-28.667 2.66699 -42 6l23 114c7.33301 -1.33301 14.333 -2.33301 21 -3s13.334 -1 20.001 -1c21.333 0 40.166 5.5 56.499 16.5s27.5 31.833 33.5 62.5l14 71c0.666992 3.33301 1.16699 6.33301 1.5 9s0.5 5.66699 0.5 9c0 20.667 -7.16699 36.167 -21.5 46.5
s-33.833 15.5 -58.5 15.5h-11l20 103h9c14.667 0 28.167 2.66699 40.5 8s22.666 12.333 30.999 21s14.833 18.834 19.5 30.501s7 23.834 7 36.501c0 19.333 -6.83301 35.5 -20.5 48.5s-30.834 19.5 -51.501 19.5c-15.333 0 -28.333 -2.5 -39 -7.5s-19.667 -11.833 -27 -20.5
s-13.333 -18.334 -18 -29.001s-8 -21.334 -10 -32.001z" />
    <glyph glyph-name="agrave" unicode="&#xe0;" horiz-adv-x="525" 
d="M64 320c24 120.667 89.665 181 196.998 181c17.333 0 38 -3.5 62 -10.5s48.667 -18.833 74 -35.5l18 39h117l-96 -494h-118l-2 41c-35.333 -18 -65.166 -30 -89.499 -36s-45.166 -9 -62.499 -9c-46 0 -79.667 11.167 -101 33.5s-32 53.166 -32 92.499
c0 8.66699 0.333008 17.334 1 26.001s2 17.667 4 27zM166.998 192c-2 -9.33301 -2.99902 -17.668 -2.99902 -25.001c0 -18.667 4.83301 -31.667 14.5 -39s22.167 -11 37.5 -11c16 0 34.833 4.33301 56.5 13s44.167 19.334 67.5 32.001l35 185
c-12.667 9.33301 -29.334 17.833 -50.001 25.5s-39.667 11.5 -57 11.5s-33.333 -6 -48 -18s-24.667 -31.333 -30 -58zM344.999 541.998l-166 181l106 40l120 -184z" />
    <glyph glyph-name="aacute" unicode="&#xe1;" horiz-adv-x="525" 
d="M64 320c24 120.667 89.665 181 196.998 181c17.333 0 38 -3.5 62 -10.5s48.667 -18.833 74 -35.5l18 39h117l-96 -494h-118l-2 41c-35.333 -18 -65.166 -30 -89.499 -36s-45.166 -9 -62.499 -9c-46 0 -79.667 11.167 -101 33.5s-32 53.166 -32 92.499
c0 8.66699 0.333008 17.334 1 26.001s2 17.667 4 27zM166.998 192c-2 -9.33301 -2.99902 -17.668 -2.99902 -25.001c0 -18.667 4.83301 -31.667 14.5 -39s22.167 -11 37.5 -11c16 0 34.833 4.33301 56.5 13s44.167 19.334 67.5 32.001l35 185
c-12.667 9.33301 -29.334 17.833 -50.001 25.5s-39.667 11.5 -57 11.5s-33.333 -6 -48 -18s-24.667 -31.333 -30 -58zM258.999 567.998l118 195l109 -37l-160 -185z" />
    <glyph glyph-name="acircumflex" unicode="&#xe2;" horiz-adv-x="525" 
d="M64 320c24 120.667 89.665 181 196.998 181c17.333 0 38 -3.5 62 -10.5s48.667 -18.833 74 -35.5l18 39h117l-96 -494h-118l-2 41c-35.333 -18 -65.166 -30 -89.499 -36s-45.166 -9 -62.499 -9c-46 0 -79.667 11.167 -101 33.5s-32 53.166 -32 92.499
c0 8.66699 0.333008 17.334 1 26.001s2 17.667 4 27zM166.998 192c-2 -9.33301 -2.99902 -17.668 -2.99902 -25.001c0 -18.667 4.83301 -31.667 14.5 -39s22.167 -11 37.5 -11c16 0 34.833 4.33301 56.5 13s44.167 19.334 67.5 32.001l35 185
c-12.667 9.33301 -29.334 17.833 -50.001 25.5s-39.667 11.5 -57 11.5s-33.333 -6 -48 -18s-24.667 -31.333 -30 -58zM362.999 639.998l-165 -109l-43 49l175 153h87l116 -153l-53 -43z" />
    <glyph glyph-name="atilde" unicode="&#xe3;" horiz-adv-x="525" 
d="M64 320c24 120.667 89.665 181 196.998 181c17.333 0 38 -3.5 62 -10.5s48.667 -18.833 74 -35.5l18 39h117l-96 -494h-118l-2 41c-35.333 -18 -65.166 -30 -89.499 -36s-45.166 -9 -62.499 -9c-46 0 -79.667 11.167 -101 33.5s-32 53.166 -32 92.499
c0 8.66699 0.333008 17.334 1 26.001s2 17.667 4 27zM166.998 192c-2 -9.33301 -2.99902 -17.668 -2.99902 -25.001c0 -18.667 4.83301 -31.667 14.5 -39s22.167 -11 37.5 -11c16 0 34.833 4.33301 56.5 13s44.167 19.334 67.5 32.001l35 185
c-12.667 9.33301 -29.334 17.833 -50.001 25.5s-39.667 11.5 -57 11.5s-33.333 -6 -48 -18s-24.667 -31.333 -30 -58zM279.999 712.998c12.667 0 24.335 -2.33105 35.002 -6.99805s20.667 -9.83398 30 -15.501s18 -10.667 26 -15s15.667 -6.5 23 -6.5
c10.667 0 21.334 3.16699 32.001 9.5s23.667 18.166 39 35.499l12 -8l19.5 -13.5c7 -5 13.667 -9.5 20 -13.5l12.5 -8c-20.667 -38 -41.834 -64.5 -63.501 -79.5s-43.834 -22.5 -66.501 -22.5c-12.667 0 -24.334 2 -35.001 6s-20.834 8.5 -30.501 13.5
s-18.834 9.5 -27.501 13.5s-17.667 6 -27 6c-11.333 0 -22.166 -2.66699 -32.499 -8s-24.166 -17 -41.499 -35l-63 45c21.333 34 43 59.667 65 77s46.333 26 73 26z" />
    <glyph glyph-name="adieresis" unicode="&#xe4;" horiz-adv-x="525" 
d="M64 320c24 120.667 89.665 181 196.998 181c17.333 0 38 -3.5 62 -10.5s48.667 -18.833 74 -35.5l18 39h117l-96 -494h-118l-2 41c-35.333 -18 -65.166 -30 -89.499 -36s-45.166 -9 -62.499 -9c-46 0 -79.667 11.167 -101 33.5s-32 53.166 -32 92.499
c0 8.66699 0.333008 17.334 1 26.001s2 17.667 4 27zM166.998 192c-2 -9.33301 -2.99902 -17.668 -2.99902 -25.001c0 -18.667 4.83301 -31.667 14.5 -39s22.167 -11 37.5 -11c16 0 34.833 4.33301 56.5 13s44.167 19.334 67.5 32.001l35 185
c-12.667 9.33301 -29.334 17.833 -50.001 25.5s-39.667 11.5 -57 11.5s-33.333 -6 -48 -18s-24.667 -31.333 -30 -58zM457.999 692.998c16.667 0 30.167 -5.16602 40.5 -15.499s15.5 -23.833 15.5 -40.5c0 -10.667 -2.33301 -20.834 -7 -30.501s-11 -18.167 -19 -25.5
s-17 -13.166 -27 -17.499s-20 -6.5 -30 -6.5c-16.667 0 -30.167 5.16699 -40.5 15.5s-15.5 23.166 -15.5 38.499c0 10.667 2.33301 21 7 31s10.667 18.833 18 26.5s16 13.667 26 18s20.667 6.5 32 6.5zM259.999 692.999c16.667 0 30.166 -5.16602 40.499 -15.499
s15.5 -23.833 15.5 -40.5c0 -10.667 -2.33301 -20.834 -7 -30.501s-11 -18.167 -19 -25.5s-17 -13.166 -27 -17.499s-20 -6.5 -30 -6.5c-16.667 0 -30.167 5.16699 -40.5 15.5s-15.5 23.166 -15.5 38.499c0 10.667 2.33301 21 7 31s10.834 18.833 18.501 26.5
s16.5 13.667 26.5 18s20.333 6.5 31 6.5z" />
    <glyph glyph-name="aring" unicode="&#xe5;" horiz-adv-x="525" 
d="M64 320c24 120.667 89.665 181 196.998 181c17.333 0 38 -3.5 62 -10.5s48.667 -18.833 74 -35.5l18 39h117l-96 -494h-118l-2 41c-35.333 -18 -65.166 -30 -89.499 -36s-45.166 -9 -62.499 -9c-46 0 -79.667 11.167 -101 33.5s-32 53.166 -32 92.499
c0 8.66699 0.333008 17.334 1 26.001s2 17.667 4 27zM166.998 192c-2 -9.33301 -2.99902 -17.668 -2.99902 -25.001c0 -18.667 4.83301 -31.667 14.5 -39s22.167 -11 37.5 -11c16 0 34.833 4.33301 56.5 13s44.167 19.334 67.5 32.001l35 185
c-12.667 9.33301 -29.334 17.833 -50.001 25.5s-39.667 11.5 -57 11.5s-33.333 -6 -48 -18s-24.667 -31.333 -30 -58zM346.999 599.998c12.667 0 24.667 5 36 15s17 21.667 17 35c0 9.33301 -3.5 17.333 -10.5 24s-15.833 10 -26.5 10c-14.667 0 -27.167 -5 -37.5 -15
s-15.5 -21.667 -15.5 -35c0 -9.33301 3.33301 -17.333 10 -24s15.667 -10 27 -10zM336.999 530.998c-28 0 -51.833 8.66797 -71.5 26.001s-29.5 39 -29.5 65c0 17.333 3.16699 34 9.5 50s15.5 30 27.5 42s26.167 21.667 42.5 29s34.5 11 54.5 11
c29.333 0 54 -8.83301 74 -26.5s30 -39.834 30 -66.501c0 -18 -3.33301 -34.833 -10 -50.5s-16 -29.5 -28 -41.5s-26.5 -21.333 -43.5 -28s-35.5 -10 -55.5 -10z" />
    <glyph glyph-name="ae" unicode="&#xe6;" horiz-adv-x="811" 
d="M603 389c-29.333 0 -52.8301 -9.66602 -70.4971 -28.999s-30.167 -44.666 -37.5 -75.999c8 -0.666992 16 -1 24 -1h23c19.333 0 36.166 2.16699 50.499 6.5s26.166 9.66602 35.499 15.999s16.166 13.333 20.499 21s6.5 14.5 6.5 20.5c0 11.333 -4 21.166 -12 29.499
s-21.333 12.5 -40 12.5zM460.003 452.001c18.667 15.333 40.668 27.3311 66.001 35.998s53 13 83 13c33.333 0 61.5 -3.83301 84.5 -11.5s41.667 -18 56 -31s24.666 -27.667 30.999 -44s9.5 -33.166 9.5 -50.499c0 -29.333 -7.5 -54.833 -22.5 -76.5
s-35.167 -39.667 -60.5 -54s-54.666 -25 -87.999 -32s-68.666 -10.5 -105.999 -10.5c-5.33301 0 -10.833 0.166992 -16.5 0.5s-11.167 0.833008 -16.5 1.5c-2 -9.33301 -3 -17.666 -3 -24.999c0 -21.333 7.5 -37.166 22.5 -47.499s35.5 -15.5 61.5 -15.5
c15.333 0 32.833 3.16699 52.5 9.5s40.167 18.166 61.5 35.499l29.5 -48l30.5 -47c-18.667 -13.333 -37 -24 -55 -32s-35.5 -14 -52.5 -18s-33.667 -6.66699 -50 -8s-32.166 -2 -47.499 -2c-34 0 -64.5 4.83301 -91.5 14.5s-48.5 26.167 -64.5 49.5
c-16.667 -14 -33.834 -25.167 -51.501 -33.5s-35.334 -14.833 -53.001 -19.5s-35.167 -7.66699 -52.5 -9s-33.333 -2 -48 -2c-42 0 -75 11 -99 33s-36 51 -36 87c0 31.333 5.83301 58.5 17.5 81.5s27 42 46 57s40.667 26.167 65 33.5s48.833 11 73.5 11
c12.667 0 24.167 -0.166992 34.5 -0.5s20.166 -0.666016 29.499 -0.999023s19.166 -1 29.499 -2l34.5 -3.5l4 24c1.33301 8 2 13.667 2 17c0 36.667 -28.333 55 -85 55c-16.667 0 -36 -2.33301 -58 -7s-47 -16.667 -75 -36c-7.33301 15.333 -14.166 30.666 -20.499 45.999
s-13.166 30.666 -20.499 45.999c40 26.667 77.167 44 111.5 52s66.5 12 96.5 12c34 0 62.667 -3.66699 86 -11s41.666 -19.666 54.999 -36.999zM215.004 106.999c12 0 24.332 1.16797 36.999 3.50098s24.834 5.33301 36.501 9s22.334 8 32.001 13s17.5 10.167 23.5 15.5
c0.666992 9.33301 1.5 18.333 2.5 27l3.5 30c-18 2 -33.833 3.66699 -47.5 5s-29.5 2 -47.5 2c-10 0 -20.333 -0.833008 -31 -2.5s-20.5 -4.83398 -29.5 -9.50098s-16.333 -11 -22 -19s-8.5 -18.333 -8.5 -31c0 -12 4.66699 -22.167 14 -30.5s21.666 -12.5 36.999 -12.5z
" />
    <glyph glyph-name="ccedilla" unicode="&#xe7;" horiz-adv-x="452" 
d="M154 -74c5.33301 12 10.9951 24.002 16.9951 36.002l18 35c-42 5.33301 -76.833 21.666 -104.5 48.999s-41.5 63.666 -41.5 108.999c0 6 0.333008 12.333 1 19s1.66699 13.667 3 21l22 127c11.333 60.667 37 105.667 77 135s89 44 147 44
c15.333 0 31.166 -1.16699 47.499 -3.5s32.166 -6.33301 47.499 -12s29.833 -13.334 43.5 -23.001s25.834 -21.834 36.501 -36.501l-75 -91c-17.333 20.667 -35.833 34.167 -55.5 40.5s-35.5 9.5 -47.5 9.5c-26 0 -47.5 -6.83301 -64.5 -20.5s-28.5 -35.834 -34.5 -66.501
l-20 -99c-0.666992 -3.33301 -1.16699 -6.66602 -1.5 -9.99902s-0.5 -6.66602 -0.5 -9.99902c0 -24 7.83301 -41.167 23.5 -51.5s32.834 -15.5 51.501 -15.5c13.333 0 30 3 50 9s39.667 18 59 36l72 -96c-29.333 -23.333 -58.166 -39.666 -86.499 -48.999
s-57.5 -14.666 -87.5 -15.999c-3.33301 -5.33301 -6.16602 -10.833 -8.49902 -16.5s-4.83301 -11.167 -7.5 -16.5c16 -0.666992 29.167 -3.33398 39.5 -8.00098s18.833 -10.667 25.5 -18s11.334 -15.333 14.001 -24s4 -17.334 4 -26.001
c0 -13.333 -2.83301 -26.166 -8.5 -38.499s-14.167 -23.333 -25.5 -33s-25.166 -17.334 -41.499 -23.001s-34.833 -8.5 -55.5 -8.5c-16.667 0 -34.167 2.33301 -52.5 7s-35.166 10.667 -50.499 18l29 58c14 -7.33301 27 -12.333 39 -15s23.333 -4 34 -4
c11.333 0 22.5 2.33301 33.5 7s16.5 13.334 16.5 26.001c0 5.33301 -1.5 9.5 -4.5 12.5s-6.66699 5 -11 6s-8.83301 1.16699 -13.5 0.5s-9 -1.66699 -13 -3z" />
    <glyph glyph-name="egrave" unicode="&#xe8;" horiz-adv-x="494" 
d="M294 502c33.333 0 61.5 -3.99805 84.5 -11.998s41.667 -18.5 56 -31.5s24.666 -27.667 30.999 -44s9.5 -33.166 9.5 -50.499c0 -28 -6.5 -52.5 -19.5 -73.5s-31.333 -38.5 -55 -52.5s-51.834 -24.667 -84.501 -32s-69 -11 -109 -11h-21
c-6.66699 0 -13.667 0.333008 -21 1c-2 -8 -3 -15.667 -3 -23c0 -24.667 7.83301 -42.167 23.5 -52.5s35.834 -15.5 60.501 -15.5c15.333 0 32.5 3.5 51.5 10.5s39.167 19.167 60.5 36.5c2.66699 -3.33301 6.83398 -9.66602 12.501 -18.999l18.5 -30l18.5 -29.5
c5.66699 -9 9.83398 -15.167 12.501 -18.5c-37.333 -26.667 -73.333 -43.334 -108 -50.001s-67.334 -10 -98.001 -10c-25.333 0 -49 3 -71 9s-41.167 15.667 -57.5 29s-29.333 30.166 -39 50.499s-14.5 45.166 -14.5 74.499c0 42 4.5 83.5 13.5 124.5
s23.833 77.667 44.5 110s47.667 58.666 81 78.999s74.333 30.5 123 30.5zM288 389.002c-29.333 0 -52.168 -8.83203 -68.501 -26.499s-28.833 -41.5 -37.5 -71.5c6.66699 -0.666992 13.167 -1 19.5 -1h17.5c24.667 0 44.834 1.83301 60.501 5.5s28 8.16699 37 13.5
s15.167 11.5 18.5 18.5s5 13.5 5 19.5c0 11.333 -3.33301 21.166 -10 29.499s-20.667 12.5 -42 12.5zM314.998 542.003l-166 181l106 40l120 -184z" />
    <glyph glyph-name="eacute" unicode="&#xe9;" horiz-adv-x="494" 
d="M294 502c33.333 0 61.5 -3.99805 84.5 -11.998s41.667 -18.5 56 -31.5s24.666 -27.667 30.999 -44s9.5 -33.166 9.5 -50.499c0 -28 -6.5 -52.5 -19.5 -73.5s-31.333 -38.5 -55 -52.5s-51.834 -24.667 -84.501 -32s-69 -11 -109 -11h-21
c-6.66699 0 -13.667 0.333008 -21 1c-2 -8 -3 -15.667 -3 -23c0 -24.667 7.83301 -42.167 23.5 -52.5s35.834 -15.5 60.501 -15.5c15.333 0 32.5 3.5 51.5 10.5s39.167 19.167 60.5 36.5c2.66699 -3.33301 6.83398 -9.66602 12.501 -18.999l18.5 -30l18.5 -29.5
c5.66699 -9 9.83398 -15.167 12.501 -18.5c-37.333 -26.667 -73.333 -43.334 -108 -50.001s-67.334 -10 -98.001 -10c-25.333 0 -49 3 -71 9s-41.167 15.667 -57.5 29s-29.333 30.166 -39 50.499s-14.5 45.166 -14.5 74.499c0 42 4.5 83.5 13.5 124.5
s23.833 77.667 44.5 110s47.667 58.666 81 78.999s74.333 30.5 123 30.5zM288 389.002c-29.333 0 -52.168 -8.83203 -68.501 -26.499s-28.833 -41.5 -37.5 -71.5c6.66699 -0.666992 13.167 -1 19.5 -1h17.5c24.667 0 44.834 1.83301 60.501 5.5s28 8.16699 37 13.5
s15.167 11.5 18.5 18.5s5 13.5 5 19.5c0 11.333 -3.33301 21.166 -10 29.499s-20.667 12.5 -42 12.5zM256.998 568.003l118 195l109 -37l-160 -185z" />
    <glyph glyph-name="ecircumflex" unicode="&#xea;" horiz-adv-x="494" 
d="M294 502c33.333 0 61.5 -3.99805 84.5 -11.998s41.667 -18.5 56 -31.5s24.666 -27.667 30.999 -44s9.5 -33.166 9.5 -50.499c0 -28 -6.5 -52.5 -19.5 -73.5s-31.333 -38.5 -55 -52.5s-51.834 -24.667 -84.501 -32s-69 -11 -109 -11h-21
c-6.66699 0 -13.667 0.333008 -21 1c-2 -8 -3 -15.667 -3 -23c0 -24.667 7.83301 -42.167 23.5 -52.5s35.834 -15.5 60.501 -15.5c15.333 0 32.5 3.5 51.5 10.5s39.167 19.167 60.5 36.5c2.66699 -3.33301 6.83398 -9.66602 12.501 -18.999l18.5 -30l18.5 -29.5
c5.66699 -9 9.83398 -15.167 12.501 -18.5c-37.333 -26.667 -73.333 -43.334 -108 -50.001s-67.334 -10 -98.001 -10c-25.333 0 -49 3 -71 9s-41.167 15.667 -57.5 29s-29.333 30.166 -39 50.499s-14.5 45.166 -14.5 74.499c0 42 4.5 83.5 13.5 124.5
s23.833 77.667 44.5 110s47.667 58.666 81 78.999s74.333 30.5 123 30.5zM288 389.002c-29.333 0 -52.168 -8.83203 -68.501 -26.499s-28.833 -41.5 -37.5 -71.5c6.66699 -0.666992 13.167 -1 19.5 -1h17.5c24.667 0 44.834 1.83301 60.501 5.5s28 8.16699 37 13.5
s15.167 11.5 18.5 18.5s5 13.5 5 19.5c0 11.333 -3.33301 21.166 -10 29.499s-20.667 12.5 -42 12.5zM331.998 640.003l-165 -109l-43 49l175 153h87l116 -153l-53 -43z" />
    <glyph glyph-name="edieresis" unicode="&#xeb;" horiz-adv-x="494" 
d="M294 502c33.333 0 61.5 -3.99805 84.5 -11.998s41.667 -18.5 56 -31.5s24.666 -27.667 30.999 -44s9.5 -33.166 9.5 -50.499c0 -28 -6.5 -52.5 -19.5 -73.5s-31.333 -38.5 -55 -52.5s-51.834 -24.667 -84.501 -32s-69 -11 -109 -11h-21
c-6.66699 0 -13.667 0.333008 -21 1c-2 -8 -3 -15.667 -3 -23c0 -24.667 7.83301 -42.167 23.5 -52.5s35.834 -15.5 60.501 -15.5c15.333 0 32.5 3.5 51.5 10.5s39.167 19.167 60.5 36.5c2.66699 -3.33301 6.83398 -9.66602 12.501 -18.999l18.5 -30l18.5 -29.5
c5.66699 -9 9.83398 -15.167 12.501 -18.5c-37.333 -26.667 -73.333 -43.334 -108 -50.001s-67.334 -10 -98.001 -10c-25.333 0 -49 3 -71 9s-41.167 15.667 -57.5 29s-29.333 30.166 -39 50.499s-14.5 45.166 -14.5 74.499c0 42 4.5 83.5 13.5 124.5
s23.833 77.667 44.5 110s47.667 58.666 81 78.999s74.333 30.5 123 30.5zM288 389.002c-29.333 0 -52.168 -8.83203 -68.501 -26.499s-28.833 -41.5 -37.5 -71.5c6.66699 -0.666992 13.167 -1 19.5 -1h17.5c24.667 0 44.834 1.83301 60.501 5.5s28 8.16699 37 13.5
s15.167 11.5 18.5 18.5s5 13.5 5 19.5c0 11.333 -3.33301 21.166 -10 29.499s-20.667 12.5 -42 12.5zM432.998 693.003c16.667 0 30.167 -5.16602 40.5 -15.499s15.5 -23.833 15.5 -40.5c0 -10.667 -2.33301 -20.834 -7 -30.501s-11 -18.167 -19 -25.5
s-17 -13.166 -27 -17.499s-20 -6.5 -30 -6.5c-16.667 0 -30.167 5.16699 -40.5 15.5s-15.5 23.166 -15.5 38.499c0 10.667 2.33301 21 7 31s10.667 18.833 18 26.5s16 13.667 26 18s20.667 6.5 32 6.5zM234.998 693.004c16.667 0 30.166 -5.16602 40.499 -15.499
s15.5 -23.833 15.5 -40.5c0 -10.667 -2.33301 -20.834 -7 -30.501s-11 -18.167 -19 -25.5s-17 -13.166 -27 -17.499s-20 -6.5 -30 -6.5c-16.667 0 -30.167 5.16699 -40.5 15.5s-15.5 23.166 -15.5 38.499c0 10.667 2.33301 21 7 31s10.834 18.833 18.501 26.5
s16.5 13.667 26.5 18s20.333 6.5 31 6.5z" />
    <glyph glyph-name="igrave" unicode="&#xec;" horiz-adv-x="322" 
d="M230 542l-166 181l106 40l120 -184zM294 496l-61 -312c-1.33301 -6.66699 -2.33301 -12.834 -3 -18.501s-1 -11.167 -1 -16.5c0 -17.333 4.16699 -28.666 12.5 -33.999s20.833 -8 37.5 -8l-24 -109h-25c-42 0 -75 9 -99 27s-36 46.333 -36 85c0 14 1.33301 27.667 4 41
l66 345h129z" />
    <glyph glyph-name="iacute" unicode="&#xed;" horiz-adv-x="302" 
d="M148 568l119 195l108 -37l-159 -185zM245 496l-61 -312c-1.33301 -6.66699 -2.33301 -12.834 -3 -18.501s-1 -11.167 -1 -16.5c0 -17.333 4.16699 -28.666 12.5 -33.999s20.833 -8 37.5 -8l-24 -109h-25c-42 0 -75 9 -99 27s-36 46.333 -36 85c0 14 1.33301 27.667 4 41
l66 345h129z" />
    <glyph glyph-name="icircumflex" unicode="&#xee;" horiz-adv-x="336" 
d="M249 640l-165 -106l-40 45l178 154h87l116 -153l-59 -46zM281 496l-61 -312c-1.33301 -6.66699 -2.33301 -12.834 -3 -18.501s-1 -11.167 -1 -16.5c0 -17.333 4.16699 -28.666 12.5 -33.999s20.833 -8 37.5 -8l-24 -109h-25c-42 0 -75 9 -99 27s-36 46.333 -36 85
c0 14 1.33301 27.667 4 41l66 345h129z" />
    <glyph glyph-name="idieresis" unicode="&#xef;" horiz-adv-x="332" 
d="M356 693c17.333 0 31.0039 -4.99609 41.0039 -14.9961s15 -23 15 -39c0 -10.667 -2.33301 -20.834 -7 -30.501s-10.834 -18.334 -18.501 -26.001s-16.334 -13.834 -26.001 -18.501s-19.834 -7 -30.501 -7c-16.667 0 -30.334 5.16699 -41.001 15.5s-16 23.166 -16 38.499
c0 10.667 2.33301 21 7 31s11 18.833 19 26.5s17 13.667 27 18s20 6.5 30 6.5zM159.004 693.004c16.667 0 29.999 -4.99805 39.999 -14.998s15 -23 15 -39c0 -11.333 -2.33301 -21.833 -7 -31.5s-10.667 -18.334 -18 -26.001s-16 -13.667 -26 -18s-20.333 -6.5 -31 -6.5
c-16.667 0 -30.167 5.16699 -40.5 15.5s-15.5 23.166 -15.5 38.499c0 10.667 2.33301 21 7 31s10.834 18.833 18.501 26.5s16.5 13.667 26.5 18s20.333 6.5 31 6.5zM284.003 496.006l-61 -312c-1.33301 -6.66699 -2.33301 -12.834 -3 -18.501s-1 -11.167 -1 -16.5
c0 -17.333 4.16699 -28.666 12.5 -33.999s20.833 -8 37.5 -8l-24 -109h-25c-42 0 -75 9 -99 27s-36 46.333 -36 85c0 14 1.33301 27.667 4 41l66 345h129z" />
    <glyph glyph-name="eth" unicode="&#xf0;" horiz-adv-x="523" 
d="M560 673l-38 -27.5l-38 -27.5c12 -20.667 20.5 -43 25.5 -67s7.66699 -48.833 8 -74.5s-0.833984 -51.667 -3.50098 -78s-6 -51.5 -10 -75.5l-20 -118c-5.33301 -32.667 -13.833 -61.834 -25.5 -87.501s-26.834 -47.5 -45.501 -65.5s-41.5 -31.833 -68.5 -41.5
s-58.833 -14.5 -95.5 -14.5c-34 0 -64.667 5.33301 -92 16s-50 25.5 -68 44.5s-30.667 41.167 -38 66.5s-8.33301 53 -3 83l16 86c11.333 60.667 34.833 106 70.5 136s81.834 45 138.501 45c21.333 0 43.833 -3.83301 67.5 -11.5s42.834 -19.5 57.501 -35.5h2
c0.666992 0 1.33398 0.333008 2.00098 1c2 12.667 3 25 3 37c0 14.667 -1.5 29.5 -4.5 44.5s-7.16699 28.167 -12.5 39.5l-58 -42c-5.33301 8.66699 -11 16.834 -17 24.501s-12 15.834 -18 24.501l28.5 20.5l28.5 20.5c-11.333 10.667 -25.333 20.5 -42 29.5
s-37.334 17.167 -62.001 24.5c6.66699 16 12.5 32.167 17.5 48.5s10.833 32.166 17.5 47.499c36 -6.66699 68 -17 96 -31s50.667 -30 68 -48l38 27.5l38 27.5zM363 260c5.33301 28 -0.168945 51 -16.502 69s-37.833 27 -64.5 27c-24 0 -44.5 -6.83301 -61.5 -20.5
s-28.5 -35.5 -34.5 -65.5l-12 -61c-5.33301 -28 -0.166016 -51.167 15.501 -69.5s37.834 -27.5 66.501 -27.5c26 0 47 7.33301 63 22s26.667 36 32 64z" />
    <glyph glyph-name="ntilde" unicode="&#xf1;" horiz-adv-x="529" 
d="M317 0l59 305.003c2 8.66699 3 16.667 3 24c0 19.333 -5 32.666 -15 39.999s-22.667 11 -38 11c-16 0 -33.667 -3.33301 -53 -10s-43.333 -18.667 -72 -36l-65 -334h-127l97 494h116l2 -42c20.667 11.333 39.167 20.166 55.5 26.499s30.833 11.166 43.5 14.499
s24 5.5 34 6.5s19 1.5 27 1.5c45.333 0 78.333 -11 99 -33s31 -52.333 31 -91c0 -16 -2 -34 -6 -54l-62 -323h-129zM277 713.003c12.667 0 24.335 -2.33105 35.002 -6.99805s20.667 -9.83398 30 -15.501s18 -10.667 26 -15s15.667 -6.5 23 -6.5
c10.667 0 21.334 3.16699 32.001 9.5s23.667 18.166 39 35.499l12 -8l19.5 -13.5c7 -5 13.667 -9.5 20 -13.5l12.5 -8c-20.667 -38 -41.834 -64.5 -63.501 -79.5s-43.834 -22.5 -66.501 -22.5c-12.667 0 -24.334 2 -35.001 6s-20.834 8.5 -30.501 13.5
s-18.834 9.5 -27.501 13.5s-17.667 6 -27 6c-11.333 0 -22.166 -2.66699 -32.499 -8s-24.166 -17 -41.499 -35l-63 45c21.333 34 43 59.667 65 77s46.333 26 73 26z" />
    <glyph glyph-name="ograve" unicode="&#xf2;" horiz-adv-x="521" 
d="M473 174c-12 -61.333 -37.666 -106.497 -76.999 -135.497s-92.333 -43.5 -159 -43.5c-25.333 0 -49.666 3.66699 -72.999 11s-43.833 18.5 -61.5 33.5s-31.834 33.5 -42.501 55.5s-16 47.667 -16 77c0 7.33301 0.333008 14.666 1 21.999s1.66699 15 3 23l19 102
c11.333 61.333 36.666 107 75.999 137s90.333 45 153 45c30 0 57.5 -4.33301 82.5 -13s46.167 -20.834 63.5 -36.501s30.833 -34.334 40.5 -56.001s14.5 -45.834 14.5 -72.501c0 -15.333 -1.33301 -29.666 -4 -42.999zM367.001 281.003c2 8.66699 2.99902 17 2.99902 25
c0 26 -8.16699 45.5 -24.5 58.5s-35.166 19.5 -56.499 19.5c-23.333 0 -43.5 -6.5 -60.5 -19.5s-28.833 -35.5 -35.5 -67.5l-18 -89c-2 -9.33301 -3 -17.333 -3 -24c0 -13.333 2.5 -24.5 7.5 -33.5s11.333 -16.333 19 -22s16.167 -9.83398 25.5 -12.501s18.666 -4 27.999 -4
c25.333 0 46.333 6.33301 63 19s28.334 35.334 35.001 68.001zM328 542.003l-166 181l106 40l120 -184z" />
    <glyph glyph-name="oacute" unicode="&#xf3;" horiz-adv-x="521" 
d="M473 174c-12 -61.333 -37.666 -106.497 -76.999 -135.497s-92.333 -43.5 -159 -43.5c-25.333 0 -49.666 3.66699 -72.999 11s-43.833 18.5 -61.5 33.5s-31.834 33.5 -42.501 55.5s-16 47.667 -16 77c0 7.33301 0.333008 14.666 1 21.999s1.66699 15 3 23l19 102
c11.333 61.333 36.666 107 75.999 137s90.333 45 153 45c30 0 57.5 -4.33301 82.5 -13s46.167 -20.834 63.5 -36.501s30.833 -34.334 40.5 -56.001s14.5 -45.834 14.5 -72.501c0 -15.333 -1.33301 -29.666 -4 -42.999zM367.001 281.003c2 8.66699 2.99902 17 2.99902 25
c0 26 -8.16699 45.5 -24.5 58.5s-35.166 19.5 -56.499 19.5c-23.333 0 -43.5 -6.5 -60.5 -19.5s-28.833 -35.5 -35.5 -67.5l-18 -89c-2 -9.33301 -3 -17.333 -3 -24c0 -13.333 2.5 -24.5 7.5 -33.5s11.333 -16.333 19 -22s16.167 -9.83398 25.5 -12.501s18.666 -4 27.999 -4
c25.333 0 46.333 6.33301 63 19s28.334 35.334 35.001 68.001zM262 568.003l118 195l109 -37l-160 -185z" />
    <glyph glyph-name="ocircumflex" unicode="&#xf4;" horiz-adv-x="521" 
d="M473 174c-12 -61.333 -37.666 -106.497 -76.999 -135.497s-92.333 -43.5 -159 -43.5c-25.333 0 -49.666 3.66699 -72.999 11s-43.833 18.5 -61.5 33.5s-31.834 33.5 -42.501 55.5s-16 47.667 -16 77c0 7.33301 0.333008 14.666 1 21.999s1.66699 15 3 23l19 102
c11.333 61.333 36.666 107 75.999 137s90.333 45 153 45c30 0 57.5 -4.33301 82.5 -13s46.167 -20.834 63.5 -36.501s30.833 -34.334 40.5 -56.001s14.5 -45.834 14.5 -72.501c0 -15.333 -1.33301 -29.666 -4 -42.999zM367.001 281.003c2 8.66699 2.99902 17 2.99902 25
c0 26 -8.16699 45.5 -24.5 58.5s-35.166 19.5 -56.499 19.5c-23.333 0 -43.5 -6.5 -60.5 -19.5s-28.833 -35.5 -35.5 -67.5l-18 -89c-2 -9.33301 -3 -17.333 -3 -24c0 -13.333 2.5 -24.5 7.5 -33.5s11.333 -16.333 19 -22s16.167 -9.83398 25.5 -12.501s18.666 -4 27.999 -4
c25.333 0 46.333 6.33301 63 19s28.334 35.334 35.001 68.001zM345 640.003l-165 -109l-43 49l175 153h87l116 -153l-53 -43z" />
    <glyph glyph-name="otilde" unicode="&#xf5;" horiz-adv-x="521" 
d="M473 174c-12 -61.333 -37.666 -106.497 -76.999 -135.497s-92.333 -43.5 -159 -43.5c-25.333 0 -49.666 3.66699 -72.999 11s-43.833 18.5 -61.5 33.5s-31.834 33.5 -42.501 55.5s-16 47.667 -16 77c0 7.33301 0.333008 14.666 1 21.999s1.66699 15 3 23l19 102
c11.333 61.333 36.666 107 75.999 137s90.333 45 153 45c30 0 57.5 -4.33301 82.5 -13s46.167 -20.834 63.5 -36.501s30.833 -34.334 40.5 -56.001s14.5 -45.834 14.5 -72.501c0 -15.333 -1.33301 -29.666 -4 -42.999zM367.001 281.003c2 8.66699 2.99902 17 2.99902 25
c0 26 -8.16699 45.5 -24.5 58.5s-35.166 19.5 -56.499 19.5c-23.333 0 -43.5 -6.5 -60.5 -19.5s-28.833 -35.5 -35.5 -67.5l-18 -89c-2 -9.33301 -3 -17.333 -3 -24c0 -13.333 2.5 -24.5 7.5 -33.5s11.333 -16.333 19 -22s16.167 -9.83398 25.5 -12.501s18.666 -4 27.999 -4
c25.333 0 46.333 6.33301 63 19s28.334 35.334 35.001 68.001zM270 713.003c12.667 0 24.335 -2.33105 35.002 -6.99805s20.667 -9.83398 30 -15.501s18 -10.667 26 -15s15.667 -6.5 23 -6.5c10.667 0 21.334 3.16699 32.001 9.5s23.667 18.166 39 35.499l12 -8l19.5 -13.5
c7 -5 13.667 -9.5 20 -13.5l12.5 -8c-20.667 -38 -41.834 -64.5 -63.501 -79.5s-43.834 -22.5 -66.501 -22.5c-12.667 0 -24.334 2 -35.001 6s-20.834 8.5 -30.501 13.5s-18.834 9.5 -27.501 13.5s-17.667 6 -27 6c-11.333 0 -22.166 -2.66699 -32.499 -8
s-24.166 -17 -41.499 -35l-63 45c21.333 34 43 59.667 65 77s46.333 26 73 26z" />
    <glyph glyph-name="odieresis" unicode="&#xf6;" horiz-adv-x="521" 
d="M473 174c-12 -61.333 -37.666 -106.497 -76.999 -135.497s-92.333 -43.5 -159 -43.5c-25.333 0 -49.666 3.66699 -72.999 11s-43.833 18.5 -61.5 33.5s-31.834 33.5 -42.501 55.5s-16 47.667 -16 77c0 7.33301 0.333008 14.666 1 21.999s1.66699 15 3 23l19 102
c11.333 61.333 36.666 107 75.999 137s90.333 45 153 45c30 0 57.5 -4.33301 82.5 -13s46.167 -20.834 63.5 -36.501s30.833 -34.334 40.5 -56.001s14.5 -45.834 14.5 -72.501c0 -15.333 -1.33301 -29.666 -4 -42.999zM367.001 281.003c2 8.66699 2.99902 17 2.99902 25
c0 26 -8.16699 45.5 -24.5 58.5s-35.166 19.5 -56.499 19.5c-23.333 0 -43.5 -6.5 -60.5 -19.5s-28.833 -35.5 -35.5 -67.5l-18 -89c-2 -9.33301 -3 -17.333 -3 -24c0 -13.333 2.5 -24.5 7.5 -33.5s11.333 -16.333 19 -22s16.167 -9.83398 25.5 -12.501s18.666 -4 27.999 -4
c25.333 0 46.333 6.33301 63 19s28.334 35.334 35.001 68.001zM449 693.003c16.667 0 30.167 -5.16602 40.5 -15.499s15.5 -23.833 15.5 -40.5c0 -10.667 -2.33301 -20.834 -7 -30.501s-11 -18.167 -19 -25.5s-17 -13.166 -27 -17.499s-20 -6.5 -30 -6.5
c-16.667 0 -30.167 5.16699 -40.5 15.5s-15.5 23.166 -15.5 38.499c0 10.667 2.33301 21 7 31s10.667 18.833 18 26.5s16 13.667 26 18s20.667 6.5 32 6.5zM251 693.004c16.667 0 30.166 -5.16602 40.499 -15.499s15.5 -23.833 15.5 -40.5
c0 -10.667 -2.33301 -20.834 -7 -30.501s-11 -18.167 -19 -25.5s-17 -13.166 -27 -17.499s-20 -6.5 -30 -6.5c-16.667 0 -30.167 5.16699 -40.5 15.5s-15.5 23.166 -15.5 38.499c0 10.667 2.33301 21 7 31s10.834 18.833 18.501 26.5s16.5 13.667 26.5 18s20.333 6.5 31 6.5
z" />
    <glyph glyph-name="divide" unicode="&#xf7;" horiz-adv-x="534" 
d="M310 420c-19.333 0 -35.167 5.83301 -47.5 17.5s-18.5 26.167 -18.5 43.5c0 12 2.66699 23.333 8 34s12.5 20 21.5 28s19.167 14.333 30.5 19s23 7 35 7c19.333 0 35 -5.66699 47 -17s18 -26 18 -44c0 -11.333 -2.66699 -22.333 -8 -33s-12.5 -20 -21.5 -28
s-19 -14.5 -30 -19.5s-22.5 -7.5 -34.5 -7.5zM27.999 247l20 99h493l-19 -99h-494zM230.999 18c-19.333 0 -34.999 5.83203 -46.999 17.499s-18 26.167 -18 43.5c0 12 2.66699 23.167 8 33.5s12.333 19.5 21 27.5s18.667 14.333 30 19s23 7 35 7
c19.333 0 35.166 -5.66699 47.499 -17s18.5 -25.666 18.5 -42.999c0 -12 -2.66699 -23.333 -8 -34s-12.5 -20 -21.5 -28s-19.167 -14.333 -30.5 -19s-23 -7 -35 -7z" />
    <glyph glyph-name="oslash" unicode="&#xf8;" horiz-adv-x="521" 
d="M473 174c-12 -61.333 -37.666 -106.501 -76.999 -135.501s-92.333 -43.5 -159 -43.5c-28 0 -54.333 4.33301 -79 13s-46 21.667 -64 39l-52 -52l-28 27c4 4.66699 10.833 11.834 20.5 21.501l34.5 34.5c-16.667 26 -25 57.333 -25 94c0 7.33301 0.333008 14.666 1 21.999
s1.66699 15 3 23l19 102c11.333 61.333 36.666 107 75.999 137s90.333 45 153 45c30 0 57.5 -4.33301 82.5 -13s46.167 -20.667 63.5 -36l48 49l29 -28l-51 -51c19.333 -28.667 29 -61.667 29 -99c0 -15.333 -1.33301 -29.666 -4 -42.999zM367.001 280.999
c2 8.66699 3 17 3 25c0 3.33301 -0.166992 6.16602 -0.5 8.49902s-0.833008 4.83301 -1.5 7.5l-182 -183c7.33301 -10 17.166 -17 29.499 -21s24.5 -6 36.5 -6c25.333 0 46.333 6.33301 63 19s28.334 35.334 35.001 68.001zM350.001 359.999c-16 16 -36.333 24 -61 24
c-23.333 0 -43.5 -6.5 -60.5 -19.5s-28.833 -35.5 -35.5 -67.5l-18 -89c-2 -9.33301 -3 -17.333 -3 -24v-2z" />
    <glyph glyph-name="ugrave" unicode="&#xf9;" horiz-adv-x="531" 
d="M230 494l-60.001 -304c-0.666992 -4 -1.16699 -7.83301 -1.5 -11.5s-0.5 -7.16699 -0.5 -10.5c0 -19.333 5.5 -33 16.5 -41s23.167 -12 36.5 -12c16 0 33.833 3.66699 53.5 11s43.5 19.333 71.5 36l65 332h128l-96 -494h-118l-2 43c-19.333 -11.333 -37 -20.333 -53 -27
s-30.667 -11.667 -44 -15s-25.166 -5.5 -35.499 -6.5s-19.833 -1.5 -28.5 -1.5c-44.667 0 -77.167 12 -97.5 36s-30.5 55.667 -30.5 95c0 17.333 2 36 6 56l62 314h128zM342.999 542l-166 181l106 40l120 -184z" />
    <glyph glyph-name="uacute" unicode="&#xfa;" horiz-adv-x="531" 
d="M230 494l-60.001 -304c-0.666992 -4 -1.16699 -7.83301 -1.5 -11.5s-0.5 -7.16699 -0.5 -10.5c0 -19.333 5.5 -33 16.5 -41s23.167 -12 36.5 -12c16 0 33.833 3.66699 53.5 11s43.5 19.333 71.5 36l65 332h128l-96 -494h-118l-2 43c-19.333 -11.333 -37 -20.333 -53 -27
s-30.667 -11.667 -44 -15s-25.166 -5.5 -35.499 -6.5s-19.833 -1.5 -28.5 -1.5c-44.667 0 -77.167 12 -97.5 36s-30.5 55.667 -30.5 95c0 17.333 2 36 6 56l62 314h128zM271.999 568l118 195l109 -37l-160 -185z" />
    <glyph glyph-name="ucircumflex" unicode="&#xfb;" horiz-adv-x="531" 
d="M230 494l-60.001 -304c-0.666992 -4 -1.16699 -7.83301 -1.5 -11.5s-0.5 -7.16699 -0.5 -10.5c0 -19.333 5.5 -33 16.5 -41s23.167 -12 36.5 -12c16 0 33.833 3.66699 53.5 11s43.5 19.333 71.5 36l65 332h128l-96 -494h-118l-2 43c-19.333 -11.333 -37 -20.333 -53 -27
s-30.667 -11.667 -44 -15s-25.166 -5.5 -35.499 -6.5s-19.833 -1.5 -28.5 -1.5c-44.667 0 -77.167 12 -97.5 36s-30.5 55.667 -30.5 95c0 17.333 2 36 6 56l62 314h128zM346.999 640l-165 -109l-43 49l175 153h87l116 -153l-53 -43z" />
    <glyph glyph-name="udieresis" unicode="&#xfc;" horiz-adv-x="531" 
d="M230 494l-60.001 -304c-0.666992 -4 -1.16699 -7.83301 -1.5 -11.5s-0.5 -7.16699 -0.5 -10.5c0 -19.333 5.5 -33 16.5 -41s23.167 -12 36.5 -12c16 0 33.833 3.66699 53.5 11s43.5 19.333 71.5 36l65 332h128l-96 -494h-118l-2 43c-19.333 -11.333 -37 -20.333 -53 -27
s-30.667 -11.667 -44 -15s-25.166 -5.5 -35.499 -6.5s-19.833 -1.5 -28.5 -1.5c-44.667 0 -77.167 12 -97.5 36s-30.5 55.667 -30.5 95c0 17.333 2 36 6 56l62 314h128zM449.999 693c16.667 0 30.167 -5.16602 40.5 -15.499s15.5 -23.833 15.5 -40.5
c0 -10.667 -2.33301 -20.834 -7 -30.501s-11 -18.167 -19 -25.5s-17 -13.166 -27 -17.499s-20 -6.5 -30 -6.5c-16.667 0 -30.167 5.16699 -40.5 15.5s-15.5 23.166 -15.5 38.499c0 10.667 2.33301 21 7 31s10.667 18.833 18 26.5s16 13.667 26 18s20.667 6.5 32 6.5z
M251.999 693.001c16.667 0 30.166 -5.16602 40.499 -15.499s15.5 -23.833 15.5 -40.5c0 -10.667 -2.33301 -20.834 -7 -30.501s-11 -18.167 -19 -25.5s-17 -13.166 -27 -17.499s-20 -6.5 -30 -6.5c-16.667 0 -30.167 5.16699 -40.5 15.5s-15.5 23.166 -15.5 38.499
c0 10.667 2.33301 21 7 31s10.834 18.833 18.501 26.5s16.5 13.667 26.5 18s20.333 6.5 31 6.5z" />
    <glyph glyph-name="yacute" unicode="&#xfd;" horiz-adv-x="458" 
d="M12 -199l114 210l-29 22l-48 463h128l11 -182l10 -171h4l111 219l17 36.5c4.66699 10.333 8.5 20 11.5 29s5 17.667 6 26s1.5 17.5 1.5 27.5v16h129v-15c0 -30 -4.16699 -56 -12.5 -78s-19.5 -45.667 -33.5 -71l-292 -532h-128zM235 568l118 195l109 -37l-160 -185z" />
    <glyph glyph-name="thorn" unicode="&#xfe;" horiz-adv-x="523" 
d="M476 173c-10.667 -54 -33.3311 -97.5 -67.998 -130.5s-81.334 -49.5 -140.001 -49.5c-17.333 0 -37.333 1.66699 -60 5s-45.334 11.333 -68.001 24l-43 -220h-126l171 886h128l-47 -239c32 17.333 60.833 30 86.5 38s47.167 12 64.5 12c44 0 77.667 -10.167 101 -30.5
s35 -51.5 35 -93.5c0 -17.333 -2 -36.333 -6 -57zM373.003 307c2 10 3.00195 18.666 3.00195 25.999c0 18.667 -4.83301 31.334 -14.5 38.001s-21.5 10 -35.5 10c-15.333 0 -34.833 -4.33301 -58.5 -13s-45.834 -18.667 -66.501 -30l-38 -197
c21.333 -10.667 39.666 -17.834 54.999 -21.501s31 -5.5 47 -5.5c20 0 38 5.33301 54 16s26.667 30.334 32 59.001z" />
    <glyph glyph-name="ydieresis" unicode="&#xff;" horiz-adv-x="458" 
d="M12 -199l114 210l-29 22l-48 463h128l11 -182l10 -171h4l111 219l17 36.5c4.66699 10.333 8.5 20 11.5 29s5 17.667 6 26s1.5 17.5 1.5 27.5v16h129v-15c0 -30 -4.16699 -56 -12.5 -78s-19.5 -45.667 -33.5 -71l-292 -532h-128zM420 693
c16.667 0 30.167 -5.16602 40.5 -15.499s15.5 -23.833 15.5 -40.5c0 -10.667 -2.33301 -20.834 -7 -30.501s-11 -18.167 -19 -25.5s-17 -13.166 -27 -17.499s-20 -6.5 -30 -6.5c-16.667 0 -30.167 5.16699 -40.5 15.5s-15.5 23.166 -15.5 38.499c0 10.667 2.33301 21 7 31
s10.667 18.833 18 26.5s16 13.667 26 18s20.667 6.5 32 6.5zM222 693.001c16.667 0 30.166 -5.16602 40.499 -15.499s15.5 -23.833 15.5 -40.5c0 -10.667 -2.33301 -20.834 -7 -30.501s-11 -18.167 -19 -25.5s-17 -13.166 -27 -17.499s-20 -6.5 -30 -6.5
c-16.667 0 -30.167 5.16699 -40.5 15.5s-15.5 23.166 -15.5 38.499c0 10.667 2.33301 21 7 31s10.834 18.833 18.501 26.5s16.5 13.667 26.5 18s20.333 6.5 31 6.5z" />
    <glyph glyph-name="Amacron" unicode="&#x100;" horiz-adv-x="638" 
d="M427 142h-239l-72 -142h-149l374 689h140l106 -689h-144zM246 257h166l-11 105l-18 161h-4l-74 -149zM267 761l20 105h312l-21 -105h-311z" />
    <glyph glyph-name="amacron" unicode="&#x101;" horiz-adv-x="525" 
d="M64 320c24 120.667 89.665 181 196.998 181c17.333 0 38 -3.5 62 -10.5s48.667 -18.833 74 -35.5l18 39h117l-96 -494h-118l-2 41c-35.333 -18 -65.166 -30 -89.499 -36s-45.166 -9 -62.499 -9c-46 0 -79.667 11.167 -101 33.5s-32 53.166 -32 92.499
c0 8.66699 0.333008 17.334 1 26.001s2 17.667 4 27zM166.998 192c-2 -9.33301 -2.99902 -17.668 -2.99902 -25.001c0 -18.667 4.83301 -31.667 14.5 -39s22.167 -11 37.5 -11c16 0 34.833 4.33301 56.5 13s44.167 19.334 67.5 32.001l35 185
c-12.667 9.33301 -29.334 17.833 -50.001 25.5s-39.667 11.5 -57 11.5s-33.333 -6 -48 -18s-24.667 -31.333 -30 -58zM184.999 584.998l21 104h312l-21 -104h-312z" />
    <glyph glyph-name="Abreve" unicode="&#x102;" horiz-adv-x="638" 
d="M427 142h-239l-72 -142h-149l374 689h140l106 -689h-144zM246 257h166l-11 105l-18 161h-4l-74 -149zM418 734c-28 0 -50.668 5.16504 -68.001 15.498s-30.833 23 -40.5 38s-16 31.333 -19 49s-3.83301 33.834 -2.5 48.501h91c-1.33301 -7.33301 -1.5 -14.833 -0.5 -22.5
s3.5 -14.834 7.5 -21.501s9.16699 -12 15.5 -16s14.5 -6 24.5 -6c10.667 0 20.334 2.16699 29.001 6.5s16.167 9.83301 22.5 16.5s11.333 13.834 15 21.501s6.16699 14.834 7.5 21.501h92c-4 -15.333 -10 -31.833 -18 -49.5s-18.833 -34 -32.5 -49s-30.667 -27.5 -51 -37.5
s-44.5 -15 -72.5 -15z" />
    <glyph glyph-name="abreve" unicode="&#x103;" horiz-adv-x="525" 
d="M64 320c24 120.667 89.665 181 196.998 181c17.333 0 38 -3.5 62 -10.5s48.667 -18.833 74 -35.5l18 39h117l-96 -494h-118l-2 41c-35.333 -18 -65.166 -30 -89.499 -36s-45.166 -9 -62.499 -9c-46 0 -79.667 11.167 -101 33.5s-32 53.166 -32 92.499
c0 8.66699 0.333008 17.334 1 26.001s2 17.667 4 27zM166.998 192c-2 -9.33301 -2.99902 -17.668 -2.99902 -25.001c0 -18.667 4.83301 -31.667 14.5 -39s22.167 -11 37.5 -11c16 0 34.833 4.33301 56.5 13s44.167 19.334 67.5 32.001l35 185
c-12.667 9.33301 -29.334 17.833 -50.001 25.5s-39.667 11.5 -57 11.5s-33.333 -6 -48 -18s-24.667 -31.333 -30 -58zM334.999 563.998c-27.333 0 -49.835 4.83203 -67.502 14.499s-31.5 21.834 -41.5 36.501s-16.5 31 -19.5 49s-3.83301 35.667 -2.5 53h91
c-1.33301 -6.66699 -1.5 -13.834 -0.5 -21.501s3.5 -15 7.5 -22s9.33301 -12.833 16 -17.5s15.334 -7 26.001 -7c10 0 19.333 2.16699 28 6.5s16.167 10 22.5 17s11.5 14.333 15.5 22s6.66699 15.167 8 22.5h92c-3.33301 -15.333 -9.16602 -31.833 -17.499 -49.5
s-19.5 -34.167 -33.5 -49.5s-31.167 -28.166 -51.5 -38.499s-44.5 -15.5 -72.5 -15.5z" />
    <glyph glyph-name="Aogonek" unicode="&#x104;" horiz-adv-x="638" 
d="M427 142h-239l-72 -142h-149l374 689h140l106 -689h-60c-35.333 -39.333 -54.333 -69.333 -57 -90c-2 -18.667 8.33301 -28 31 -28c7.33301 0 16.166 1 26.499 3s22.833 6.33301 37.5 13l15 -66c-18 -10 -36.5 -17 -55.5 -21s-37.167 -6 -54.5 -6
c-29.333 0 -51.666 8.66699 -66.999 26s-21.333 38.666 -18 63.999c2 14 7 29.333 15 46s22.667 36.334 44 59.001h-1zM246 257h166l-11 105l-18 161h-4l-74 -149z" />
    <glyph glyph-name="aogonek" unicode="&#x105;" horiz-adv-x="525" 
d="M258 -105c2 14.667 7.16602 30.168 15.499 46.501s23.166 35.833 44.499 58.5l-2 41c-35.333 -18 -65.166 -30 -89.499 -36s-45.166 -9 -62.499 -9c-46 0 -79.667 11.167 -101 33.5s-32 53.166 -32 92.499c0 8.66699 0.333008 17.334 1 26.001s2 17.667 4 27l28 145
c24 120.667 89.667 181 197 181c17.333 0 38 -3.5 62 -10.5s48.667 -18.833 74 -35.5l18 39h117l-96 -494h-36c-35.333 -39.333 -54.333 -69.333 -57 -90c-2 -18.667 8.33301 -28 31 -28c7.33301 0 16.166 1 26.499 3s22.833 6.33301 37.5 13l15 -66
c-18 -10 -36.5 -17 -55.5 -21s-37.167 -6 -54.5 -6c-29.333 0 -51.666 8.66699 -66.999 26s-21.333 38.666 -18 63.999zM166.999 192.001c-2 -9.33301 -2.99902 -17.668 -2.99902 -25.001c0 -18.667 4.83301 -31.667 14.5 -39s22.167 -11 37.5 -11
c16 0 34.833 4.33301 56.5 13s44.167 19.334 67.5 32.001l35 185c-12.667 9.33301 -29.334 17.833 -50.001 25.5s-39.667 11.5 -57 11.5s-33.333 -6 -48 -18s-24.667 -31.333 -30 -58z" />
    <glyph glyph-name="Cacute" unicode="&#x106;" horiz-adv-x="563" 
d="M523 519c-17.333 18 -38.835 31.167 -64.502 39.5s-50.167 12.5 -73.5 12.5c-38.667 0 -70.5 -10.5 -95.5 -31.5s-41.833 -54.5 -50.5 -100.5l-36 -193c-2 -10 -3 -19.333 -3 -28c0 -17.333 3.33301 -32.166 10 -44.499s15.334 -22.333 26.001 -30
s22.834 -13.334 36.501 -17.001s27.834 -5.5 42.501 -5.5c11.333 0 23.666 1 36.999 3s26.833 5.16699 40.5 9.5s27 9.66602 40 15.999s24.833 13.5 35.5 21.5l57 -112c-17.333 -12.667 -35.666 -23.167 -54.999 -31.5s-39 -15 -59 -20s-40 -8.5 -60 -10.5
s-39.333 -3 -58 -3c-27.333 0 -54.833 4.16699 -82.5 12.5s-52.5 21 -74.5 38s-39.833 38.167 -53.5 63.5s-20.5 55.333 -20.5 90c0 8.66699 0.333008 17.334 1 26.001s2 17.667 4 27l43 222c14.667 74 45.5 129.667 92.5 167s109.167 56 186.5 56
c40 0 79.667 -6.33301 119 -19s70.666 -30.667 93.999 -54zM334.998 784l190 137l72 -86l-221 -108z" />
    <glyph glyph-name="cacute" unicode="&#x107;" horiz-adv-x="452" 
d="M425 61c-33.333 -26.667 -66.333 -44.333 -99 -53s-67 -13 -103 -13c-25.333 0 -49 3.5 -71 10.5s-41 17.333 -57 31s-28.667 30.334 -38 50.001s-14 42.5 -14 68.5c0 6 0.333008 12.333 1 19s1.66699 13.667 3 21l22 127c11.333 60.667 37 105.667 77 135s89 44 147 44
c15.333 0 31.166 -1.16699 47.499 -3.5s32.166 -6.33301 47.499 -12s29.833 -13.334 43.5 -23.001s25.834 -21.834 36.501 -36.501l-75 -91c-17.333 20.667 -35.833 34.167 -55.5 40.5s-35.5 9.5 -47.5 9.5c-26 0 -47.5 -6.83301 -64.5 -20.5s-28.5 -35.834 -34.5 -66.501
l-20 -99c-0.666992 -3.33301 -1.16699 -6.66602 -1.5 -9.99902s-0.5 -6.66602 -0.5 -9.99902c0 -24 7.83301 -41.167 23.5 -51.5s32.834 -15.5 51.501 -15.5c13.333 0 30 3 50 9s39.667 18 59 36zM246 568.001l118 195l109 -37l-160 -185z" />
    <glyph glyph-name="Ccircumflex" unicode="&#x108;" horiz-adv-x="563" 
d="M523 519c-17.333 18 -38.835 31.167 -64.502 39.5s-50.167 12.5 -73.5 12.5c-38.667 0 -70.5 -10.5 -95.5 -31.5s-41.833 -54.5 -50.5 -100.5l-36 -193c-2 -10 -3 -19.333 -3 -28c0 -17.333 3.33301 -32.166 10 -44.499s15.334 -22.333 26.001 -30
s22.834 -13.334 36.501 -17.001s27.834 -5.5 42.501 -5.5c11.333 0 23.666 1 36.999 3s26.833 5.16699 40.5 9.5s27 9.66602 40 15.999s24.833 13.5 35.5 21.5l57 -112c-17.333 -12.667 -35.666 -23.167 -54.999 -31.5s-39 -15 -59 -20s-40 -8.5 -60 -10.5
s-39.333 -3 -58 -3c-27.333 0 -54.833 4.16699 -82.5 12.5s-52.5 21 -74.5 38s-39.833 38.167 -53.5 63.5s-20.5 55.333 -20.5 90c0 8.66699 0.333008 17.334 1 26.001s2 17.667 4 27l43 222c14.667 74 45.5 129.667 92.5 167s109.167 56 186.5 56
c40 0 79.667 -6.33301 119 -19s70.666 -30.667 93.999 -54zM427.998 812l-167 -81l-32 52l173 123h84l124 -123l-54 -52z" />
    <glyph glyph-name="ccircumflex" unicode="&#x109;" horiz-adv-x="452" 
d="M425 61c-33.333 -26.667 -66.333 -44.333 -99 -53s-67 -13 -103 -13c-25.333 0 -49 3.5 -71 10.5s-41 17.333 -57 31s-28.667 30.334 -38 50.001s-14 42.5 -14 68.5c0 6 0.333008 12.333 1 19s1.66699 13.667 3 21l22 127c11.333 60.667 37 105.667 77 135s89 44 147 44
c15.333 0 31.166 -1.16699 47.499 -3.5s32.166 -6.33301 47.499 -12s29.833 -13.334 43.5 -23.001s25.834 -21.834 36.501 -36.501l-75 -91c-17.333 20.667 -35.833 34.167 -55.5 40.5s-35.5 9.5 -47.5 9.5c-26 0 -47.5 -6.83301 -64.5 -20.5s-28.5 -35.834 -34.5 -66.501
l-20 -99c-0.666992 -3.33301 -1.16699 -6.66602 -1.5 -9.99902s-0.5 -6.66602 -0.5 -9.99902c0 -24 7.83301 -41.167 23.5 -51.5s32.834 -15.5 51.501 -15.5c13.333 0 30 3 50 9s39.667 18 59 36zM325 640.001l-165 -109l-43 49l175 153h87l116 -153l-53 -43z" />
    <glyph glyph-name="Cdotaccent" unicode="&#x10a;" horiz-adv-x="563" 
d="M523 519c-17.333 18 -38.835 31.167 -64.502 39.5s-50.167 12.5 -73.5 12.5c-38.667 0 -70.5 -10.5 -95.5 -31.5s-41.833 -54.5 -50.5 -100.5l-36 -193c-2 -10 -3 -19.333 -3 -28c0 -17.333 3.33301 -32.166 10 -44.499s15.334 -22.333 26.001 -30
s22.834 -13.334 36.501 -17.001s27.834 -5.5 42.501 -5.5c11.333 0 23.666 1 36.999 3s26.833 5.16699 40.5 9.5s27 9.66602 40 15.999s24.833 13.5 35.5 21.5l57 -112c-17.333 -12.667 -35.666 -23.167 -54.999 -31.5s-39 -15 -59 -20s-40 -8.5 -60 -10.5
s-39.333 -3 -58 -3c-27.333 0 -54.833 4.16699 -82.5 12.5s-52.5 21 -74.5 38s-39.833 38.167 -53.5 63.5s-20.5 55.333 -20.5 90c0 8.66699 0.333008 17.334 1 26.001s2 17.667 4 27l43 222c14.667 74 45.5 129.667 92.5 167s109.167 56 186.5 56
c40 0 79.667 -6.33301 119 -19s70.666 -30.667 93.999 -54zM406.998 732c-20 0 -35.832 6.83398 -47.499 20.501s-15.834 30.5 -12.501 50.5c3.33301 20.667 13.333 38.167 30 52.5s35.334 21.5 56.001 21.5c19.333 0 34.833 -6.33301 46.5 -19
s15.834 -29.334 12.501 -50.001c-1.33301 -10 -4.5 -19.667 -9.5 -29s-11.333 -17.5 -19 -24.5s-16.334 -12.5 -26.001 -16.5s-19.834 -6 -30.501 -6z" />
    <glyph glyph-name="cdotaccent" unicode="&#x10b;" horiz-adv-x="452" 
d="M425 61c-33.333 -26.667 -66.333 -44.333 -99 -53s-67 -13 -103 -13c-25.333 0 -49 3.5 -71 10.5s-41 17.333 -57 31s-28.667 30.334 -38 50.001s-14 42.5 -14 68.5c0 6 0.333008 12.333 1 19s1.66699 13.667 3 21l22 127c11.333 60.667 37 105.667 77 135s89 44 147 44
c15.333 0 31.166 -1.16699 47.499 -3.5s32.166 -6.33301 47.499 -12s29.833 -13.334 43.5 -23.001s25.834 -21.834 36.501 -36.501l-75 -91c-17.333 20.667 -35.833 34.167 -55.5 40.5s-35.5 9.5 -47.5 9.5c-26 0 -47.5 -6.83301 -64.5 -20.5s-28.5 -35.834 -34.5 -66.501
l-20 -99c-0.666992 -3.33301 -1.16699 -6.66602 -1.5 -9.99902s-0.5 -6.66602 -0.5 -9.99902c0 -24 7.83301 -41.167 23.5 -51.5s32.834 -15.5 51.501 -15.5c13.333 0 30 3 50 9s39.667 18 59 36zM312 563.001c-20 0 -35.832 6.83398 -47.499 20.501
s-15.834 30.5 -12.501 50.5c3.33301 20.667 13.333 38.167 30 52.5s35.334 21.5 56.001 21.5c19.333 0 34.833 -6.33301 46.5 -19s15.834 -29.334 12.501 -50.001c-1.33301 -10 -4.5 -19.667 -9.5 -29s-11.333 -17.5 -19 -24.5s-16.334 -12.5 -26.001 -16.5
s-19.834 -6 -30.501 -6z" />
    <glyph glyph-name="Ccaron" unicode="&#x10c;" horiz-adv-x="563" 
d="M523 519c-17.333 18 -38.835 31.167 -64.502 39.5s-50.167 12.5 -73.5 12.5c-38.667 0 -70.5 -10.5 -95.5 -31.5s-41.833 -54.5 -50.5 -100.5l-36 -193c-2 -10 -3 -19.333 -3 -28c0 -17.333 3.33301 -32.166 10 -44.499s15.334 -22.333 26.001 -30
s22.834 -13.334 36.501 -17.001s27.834 -5.5 42.501 -5.5c11.333 0 23.666 1 36.999 3s26.833 5.16699 40.5 9.5s27 9.66602 40 15.999s24.833 13.5 35.5 21.5l57 -112c-17.333 -12.667 -35.666 -23.167 -54.999 -31.5s-39 -15 -59 -20s-40 -8.5 -60 -10.5
s-39.333 -3 -58 -3c-27.333 0 -54.833 4.16699 -82.5 12.5s-52.5 21 -74.5 38s-39.833 38.167 -53.5 63.5s-20.5 55.333 -20.5 90c0 8.66699 0.333008 17.334 1 26.001s2 17.667 4 27l43 222c14.667 74 45.5 129.667 92.5 167s109.167 56 186.5 56
c40 0 79.667 -6.33301 119 -19s70.666 -30.667 93.999 -54zM584.998 908l34 -52l-175 -124h-84l-122 123l52 51l129 -80z" />
    <glyph glyph-name="ccaron" unicode="&#x10d;" horiz-adv-x="452" 
d="M425 61c-33.333 -26.667 -66.333 -44.333 -99 -53s-67 -13 -103 -13c-25.333 0 -49 3.5 -71 10.5s-41 17.333 -57 31s-28.667 30.334 -38 50.001s-14 42.5 -14 68.5c0 6 0.333008 12.333 1 19s1.66699 13.667 3 21l22 127c11.333 60.667 37 105.667 77 135s89 44 147 44
c15.333 0 31.166 -1.16699 47.499 -3.5s32.166 -6.33301 47.499 -12s29.833 -13.334 43.5 -23.001s25.834 -21.834 36.501 -36.501l-75 -91c-17.333 20.667 -35.833 34.167 -55.5 40.5s-35.5 9.5 -47.5 9.5c-26 0 -47.5 -6.83301 -64.5 -20.5s-28.5 -35.834 -34.5 -66.501
l-20 -99c-0.666992 -3.33301 -1.16699 -6.66602 -1.5 -9.99902s-0.5 -6.66602 -0.5 -9.99902c0 -24 7.83301 -41.167 23.5 -51.5s32.834 -15.5 51.501 -15.5c13.333 0 30 3 50 9s39.667 18 59 36zM486 736.001l42 -46l-176 -153h-87l-118 154l57 45
c6.66699 -5.33301 15.334 -12.833 26.001 -22.5l32.5 -30l32 -30c10.333 -9.66699 19.166 -17.5 26.499 -23.5z" />
    <glyph glyph-name="Dcaron" unicode="&#x10e;" horiz-adv-x="630" 
d="M575 221c-14.667 -74.667 -45.167 -130.167 -91.5 -166.5s-103.833 -54.5 -172.5 -54.5h-285l134 689h254c28.667 0 55.5 -4.16699 80.5 -12.5s46.833 -20.333 65.5 -36s33.5 -35 44.5 -58s16.5 -49.5 16.5 -79.5c0 -13.333 -1.66699 -29.333 -5 -48zM479 442
c1.33301 6 2.33105 11.6699 2.99805 17.0029s1 10.666 1 15.999c0 16.667 -2.83301 30.667 -8.5 42s-13.5 20.666 -23.5 27.999s-21.333 12.666 -34 15.999s-26 5 -40 5h-104l-87 -445h114c14.667 0 29.5 2.16699 44.5 6.5s28.833 11.333 41.5 21s23.834 22.5 33.501 38.5
s16.834 35.667 21.501 59zM564.998 908.003l34 -52l-175 -124h-84l-122 123l52 51l129 -80z" />
    <glyph glyph-name="dcaron" unicode="&#x10f;" horiz-adv-x="661" 
d="M575 511c20.667 10 37.168 20.6689 49.501 32.002s21.166 24.666 26.499 39.999c-12 2.66699 -22.167 10 -30.5 22s-12.5 25.333 -12.5 40c0 24 8.16699 44.667 24.5 62s37.833 26 64.5 26c22.667 0 40.834 -7.5 54.501 -22.5s20.5 -34.833 20.5 -59.5
c0 -38.667 -14.833 -75.334 -44.5 -110.001s-69.834 -62.667 -120.501 -84zM64.001 322.002c10.667 54 32.832 97.332 66.499 129.999s79.834 49 138.501 49c17.333 0 38 -1.83301 62 -5.5s46.667 -11.167 68 -22.5l49 243h125l-137 -716h-118l-1 46
c-31.333 -17.333 -59.833 -30.166 -85.5 -38.499s-47.167 -12.5 -64.5 -12.5c-44 0 -77.833 10.333 -101.5 31s-35.5 52 -35.5 94c0 17.333 2 36 6 56zM165.999 187.001c-2 -9.33301 -3.00098 -17.332 -3.00098 -23.999c0 -18.667 4.83301 -31.667 14.5 -39
s22.167 -11 37.5 -11s34.666 4 57.999 12s45 18.333 65 31l39 198c-19.333 9.33301 -37.166 16.166 -53.499 20.499s-32.166 6.5 -47.499 6.5c-20 0 -38.167 -6 -54.5 -18s-27.5 -32 -33.5 -60z" />
    <glyph glyph-name="Dcroat" unicode="&#x110;" horiz-adv-x="630" 
d="M33 391h69l58 298h254c28.667 0 55.5 -4.16699 80.5 -12.5s46.833 -20.333 65.5 -36s33.5 -35 44.5 -58s16.5 -49.5 16.5 -79.5c0 -13.333 -1.66699 -29.333 -5 -48l-41 -234c-14.667 -74.667 -45.167 -130.167 -91.5 -166.5s-103.833 -54.5 -172.5 -54.5h-285l58 297
h-70zM479 442c1.33301 6 2.33105 11.6699 2.99805 17.0029s1 10.666 1 15.999c0 16.667 -2.83301 30.667 -8.5 42s-13.5 20.666 -23.5 27.999s-21.333 12.666 -34 15.999s-26 5 -40 5h-104l-34 -175h87l-18 -94h-88l-34 -176h114c14.667 0 29.5 2.16699 44.5 6.5
s28.833 11.333 41.5 21s23.834 22.5 33.501 38.5s16.834 35.667 21.501 59z" />
    <glyph glyph-name="dcroat" unicode="&#x111;" horiz-adv-x="525" 
d="M278 638l153.998 -0.000976562l16 78h125l-15 -78h46l-15 -81h-47l-106 -557h-118l-1 46c-31.333 -17.333 -59.833 -30.166 -85.5 -38.499s-47.167 -12.5 -64.5 -12.5c-44 0 -77.833 10.333 -101.5 31s-35.5 52 -35.5 94c0 17.333 2 36 6 56l28 146
c10.667 54 32.834 97.333 66.501 130s79.834 49 138.501 49c17.333 0 38 -1.83301 62 -5.5s46.667 -11.167 68 -22.5l17 84h-153zM165.998 186.999c-2 -9.33301 -3.00098 -17.332 -3.00098 -23.999c0 -18.667 4.83301 -31.667 14.5 -39s22.167 -11 37.5 -11
s34.666 4 57.999 12s45 18.333 65 31l39 198c-19.333 9.33301 -37.166 16.166 -53.499 20.499s-32.166 6.5 -47.499 6.5c-20 0 -38.167 -6 -54.5 -18s-27.5 -32 -33.5 -60z" />
    <glyph glyph-name="Emacron" unicode="&#x112;" horiz-adv-x="579" 
d="M159 689h464l-23 -123h-328l-31 -158h288l-23 -123h-289l-32 -163h352l-24 -122h-488zM249 761l20 105h312l-21 -105h-311z" />
    <glyph glyph-name="emacron" unicode="&#x113;" horiz-adv-x="494" 
d="M294 502c33.333 0 61.5 -3.99805 84.5 -11.998s41.667 -18.5 56 -31.5s24.666 -27.667 30.999 -44s9.5 -33.166 9.5 -50.499c0 -28 -6.5 -52.5 -19.5 -73.5s-31.333 -38.5 -55 -52.5s-51.834 -24.667 -84.501 -32s-69 -11 -109 -11h-21
c-6.66699 0 -13.667 0.333008 -21 1c-2 -8 -3 -15.667 -3 -23c0 -24.667 7.83301 -42.167 23.5 -52.5s35.834 -15.5 60.501 -15.5c15.333 0 32.5 3.5 51.5 10.5s39.167 19.167 60.5 36.5c2.66699 -3.33301 6.83398 -9.66602 12.501 -18.999l18.5 -30l18.5 -29.5
c5.66699 -9 9.83398 -15.167 12.501 -18.5c-37.333 -26.667 -73.333 -43.334 -108 -50.001s-67.334 -10 -98.001 -10c-25.333 0 -49 3 -71 9s-41.167 15.667 -57.5 29s-29.333 30.166 -39 50.499s-14.5 45.166 -14.5 74.499c0 42 4.5 83.5 13.5 124.5
s23.833 77.667 44.5 110s47.667 58.666 81 78.999s74.333 30.5 123 30.5zM288 389.002c-29.333 0 -52.168 -8.83203 -68.501 -26.499s-28.833 -41.5 -37.5 -71.5c6.66699 -0.666992 13.167 -1 19.5 -1h17.5c24.667 0 44.834 1.83301 60.501 5.5s28 8.16699 37 13.5
s15.167 11.5 18.5 18.5s5 13.5 5 19.5c0 11.333 -3.33301 21.166 -10 29.499s-20.667 12.5 -42 12.5zM164.998 585.003l21 104h312l-21 -104h-312z" />
    <glyph glyph-name="Ebreve" unicode="&#x114;" horiz-adv-x="579" 
d="M159 689h464l-23 -123h-328l-31 -158h288l-23 -123h-289l-32 -163h352l-24 -122h-488zM402 734c-28 0 -50.668 5.16504 -68.001 15.498s-30.833 23 -40.5 38s-16 31.333 -19 49s-3.83301 33.834 -2.5 48.501h91c-1.33301 -7.33301 -1.5 -14.833 -0.5 -22.5
s3.5 -14.834 7.5 -21.501s9.16699 -12 15.5 -16s14.5 -6 24.5 -6c10.667 0 20.334 2.16699 29.001 6.5s16.167 9.83301 22.5 16.5s11.333 13.834 15 21.501s6.16699 14.834 7.5 21.501h92c-4 -15.333 -10 -31.833 -18 -49.5s-18.833 -34 -32.5 -49s-30.667 -27.5 -51 -37.5
s-44.5 -15 -72.5 -15z" />
    <glyph glyph-name="ebreve" unicode="&#x115;" horiz-adv-x="494" 
d="M294 502c33.333 0 61.5 -3.99805 84.5 -11.998s41.667 -18.5 56 -31.5s24.666 -27.667 30.999 -44s9.5 -33.166 9.5 -50.499c0 -28 -6.5 -52.5 -19.5 -73.5s-31.333 -38.5 -55 -52.5s-51.834 -24.667 -84.501 -32s-69 -11 -109 -11h-21
c-6.66699 0 -13.667 0.333008 -21 1c-2 -8 -3 -15.667 -3 -23c0 -24.667 7.83301 -42.167 23.5 -52.5s35.834 -15.5 60.501 -15.5c15.333 0 32.5 3.5 51.5 10.5s39.167 19.167 60.5 36.5c2.66699 -3.33301 6.83398 -9.66602 12.501 -18.999l18.5 -30l18.5 -29.5
c5.66699 -9 9.83398 -15.167 12.501 -18.5c-37.333 -26.667 -73.333 -43.334 -108 -50.001s-67.334 -10 -98.001 -10c-25.333 0 -49 3 -71 9s-41.167 15.667 -57.5 29s-29.333 30.166 -39 50.499s-14.5 45.166 -14.5 74.499c0 42 4.5 83.5 13.5 124.5
s23.833 77.667 44.5 110s47.667 58.666 81 78.999s74.333 30.5 123 30.5zM288 389.002c-29.333 0 -52.168 -8.83203 -68.501 -26.499s-28.833 -41.5 -37.5 -71.5c6.66699 -0.666992 13.167 -1 19.5 -1h17.5c24.667 0 44.834 1.83301 60.501 5.5s28 8.16699 37 13.5
s15.167 11.5 18.5 18.5s5 13.5 5 19.5c0 11.333 -3.33301 21.166 -10 29.499s-20.667 12.5 -42 12.5zM317.998 564.003c-27.333 0 -49.835 4.83203 -67.502 14.499s-31.5 21.834 -41.5 36.501s-16.5 31 -19.5 49s-3.83301 35.667 -2.5 53h91
c-1.33301 -6.66699 -1.5 -13.834 -0.5 -21.501s3.5 -15 7.5 -22s9.33301 -12.833 16 -17.5s15.334 -7 26.001 -7c10 0 19.333 2.16699 28 6.5s16.167 10 22.5 17s11.5 14.333 15.5 22s6.66699 15.167 8 22.5h92c-3.33301 -15.333 -9.16602 -31.833 -17.499 -49.5
s-19.5 -34.167 -33.5 -49.5s-31.167 -28.166 -51.5 -38.499s-44.5 -15.5 -72.5 -15.5z" />
    <glyph glyph-name="Edotaccent" unicode="&#x116;" horiz-adv-x="579" 
d="M159 689h464l-23 -123h-328l-31 -158h288l-23 -123h-289l-32 -163h352l-24 -122h-488zM399 737c-20 0 -35.832 6.83398 -47.499 20.501s-15.834 30.5 -12.501 50.5c3.33301 20.667 13.333 38.167 30 52.5s35.334 21.5 56.001 21.5c19.333 0 34.833 -6.33301 46.5 -19
s15.834 -29.334 12.501 -50.001c-1.33301 -10 -4.5 -19.667 -9.5 -29s-11.333 -17.5 -19 -24.5s-16.334 -12.5 -26.001 -16.5s-19.834 -6 -30.501 -6z" />
    <glyph glyph-name="edotaccent" unicode="&#x117;" horiz-adv-x="494" 
d="M294 502c33.333 0 61.5 -3.99805 84.5 -11.998s41.667 -18.5 56 -31.5s24.666 -27.667 30.999 -44s9.5 -33.166 9.5 -50.499c0 -28 -6.5 -52.5 -19.5 -73.5s-31.333 -38.5 -55 -52.5s-51.834 -24.667 -84.501 -32s-69 -11 -109 -11h-21
c-6.66699 0 -13.667 0.333008 -21 1c-2 -8 -3 -15.667 -3 -23c0 -24.667 7.83301 -42.167 23.5 -52.5s35.834 -15.5 60.501 -15.5c15.333 0 32.5 3.5 51.5 10.5s39.167 19.167 60.5 36.5c2.66699 -3.33301 6.83398 -9.66602 12.501 -18.999l18.5 -30l18.5 -29.5
c5.66699 -9 9.83398 -15.167 12.501 -18.5c-37.333 -26.667 -73.333 -43.334 -108 -50.001s-67.334 -10 -98.001 -10c-25.333 0 -49 3 -71 9s-41.167 15.667 -57.5 29s-29.333 30.166 -39 50.499s-14.5 45.166 -14.5 74.499c0 42 4.5 83.5 13.5 124.5
s23.833 77.667 44.5 110s47.667 58.666 81 78.999s74.333 30.5 123 30.5zM288 389.002c-29.333 0 -52.168 -8.83203 -68.501 -26.499s-28.833 -41.5 -37.5 -71.5c6.66699 -0.666992 13.167 -1 19.5 -1h17.5c24.667 0 44.834 1.83301 60.501 5.5s28 8.16699 37 13.5
s15.167 11.5 18.5 18.5s5 13.5 5 19.5c0 11.333 -3.33301 21.166 -10 29.499s-20.667 12.5 -42 12.5zM302.998 563.003c-20 0 -35.832 6.83398 -47.499 20.501s-15.834 30.5 -12.501 50.5c3.33301 20.667 13.333 38.167 30 52.5s35.334 21.5 56.001 21.5
c19.333 0 34.833 -6.33301 46.5 -19s15.834 -29.334 12.501 -50.001c-1.33301 -10 -4.5 -19.667 -9.5 -29s-11.333 -17.5 -19 -24.5s-16.334 -12.5 -26.001 -16.5s-19.834 -6 -30.501 -6z" />
    <glyph glyph-name="Eogonek" unicode="&#x118;" horiz-adv-x="579" 
d="M159 689h464l-23 -123h-328l-31 -158h288l-23 -123h-289l-32 -163h352l-24 -122h-15c-35.333 -39.333 -54.333 -69.333 -57 -90c-2 -18.667 8.33301 -28 31 -28c7.33301 0 16.166 1 26.499 3s22.833 6.33301 37.5 13l15 -66c-18 -10 -36.5 -17 -55.5 -21
s-37.167 -6 -54.5 -6c-29.333 0 -51.666 8.66699 -66.999 26s-21.333 38.666 -18 63.999c2 14 7 29.333 15 46s22.667 36.334 44 59.001h-390z" />
    <glyph glyph-name="eogonek" unicode="&#x119;" horiz-adv-x="494" 
d="M239 -74c1.33301 10.667 4.16602 21.835 8.49902 33.502s11.833 24.5 22.5 38.5c-19.333 -2 -38 -3 -56 -3c-25.333 0 -49 3 -71 9s-41.167 15.667 -57.5 29s-29.333 30.166 -39 50.499s-14.5 45.166 -14.5 74.499c0 42 4.5 83.5 13.5 124.5s23.833 77.667 44.5 110
s47.667 58.666 81 78.999s74.333 30.5 123 30.5c33.333 0 61.5 -4 84.5 -12s41.667 -18.5 56 -31.5s24.666 -27.667 30.999 -44s9.5 -33.166 9.5 -50.499c0 -28 -6.5 -52.5 -19.5 -73.5s-31.333 -38.5 -55 -52.5s-51.834 -24.667 -84.501 -32s-69 -11 -109 -11h-21
c-6.66699 0 -13.667 0.333008 -21 1c-2 -8 -3 -15.667 -3 -23c0 -24.667 7.83301 -42.167 23.5 -52.5s35.834 -15.5 60.501 -15.5c15.333 0 32.5 3.5 51.5 10.5s39.167 19.167 60.5 36.5c2.66699 -3.33301 6.83398 -9.66602 12.501 -18.999l18.5 -30l18.5 -29.5
c5.66699 -9 9.83398 -15.167 12.501 -18.5c-13.333 -10 -26.333 -18 -39 -24c-35.333 -39.333 -54.333 -69.333 -57 -90c-2 -18.667 8.33301 -28 31 -28c7.33301 0 16.166 1 26.499 3s22.833 6.33301 37.5 13l15 -66c-18 -10 -36.5 -17 -55.5 -21s-37.167 -6 -54.5 -6
c-29.333 0 -51.666 8.66699 -66.999 26s-21.333 38.666 -18 63.999zM288 389.001c-29.333 0 -52.168 -8.83203 -68.501 -26.499s-28.833 -41.5 -37.5 -71.5c6.66699 -0.666992 13.167 -1 19.5 -1h17.5c24.667 0 44.834 1.83301 60.501 5.5s28 8.16699 37 13.5
s15.167 11.5 18.5 18.5s5 13.5 5 19.5c0 11.333 -3.33301 21.166 -10 29.499s-20.667 12.5 -42 12.5z" />
    <glyph glyph-name="Ecaron" unicode="&#x11a;" horiz-adv-x="579" 
d="M159 689h464l-23 -123h-328l-31 -158h288l-23 -123h-289l-32 -163h352l-24 -122h-488zM566 908l34 -52l-175 -124h-84l-122 123l52 51l129 -80z" />
    <glyph glyph-name="ecaron" unicode="&#x11b;" horiz-adv-x="494" 
d="M294 502c33.333 0 61.5 -3.99805 84.5 -11.998s41.667 -18.5 56 -31.5s24.666 -27.667 30.999 -44s9.5 -33.166 9.5 -50.499c0 -28 -6.5 -52.5 -19.5 -73.5s-31.333 -38.5 -55 -52.5s-51.834 -24.667 -84.501 -32s-69 -11 -109 -11h-21
c-6.66699 0 -13.667 0.333008 -21 1c-2 -8 -3 -15.667 -3 -23c0 -24.667 7.83301 -42.167 23.5 -52.5s35.834 -15.5 60.501 -15.5c15.333 0 32.5 3.5 51.5 10.5s39.167 19.167 60.5 36.5c2.66699 -3.33301 6.83398 -9.66602 12.501 -18.999l18.5 -30l18.5 -29.5
c5.66699 -9 9.83398 -15.167 12.501 -18.5c-37.333 -26.667 -73.333 -43.334 -108 -50.001s-67.334 -10 -98.001 -10c-25.333 0 -49 3 -71 9s-41.167 15.667 -57.5 29s-29.333 30.166 -39 50.499s-14.5 45.166 -14.5 74.499c0 42 4.5 83.5 13.5 124.5
s23.833 77.667 44.5 110s47.667 58.666 81 78.999s74.333 30.5 123 30.5zM288 389.002c-29.333 0 -52.168 -8.83203 -68.501 -26.499s-28.833 -41.5 -37.5 -71.5c6.66699 -0.666992 13.167 -1 19.5 -1h17.5c24.667 0 44.834 1.83301 60.501 5.5s28 8.16699 37 13.5
s15.167 11.5 18.5 18.5s5 13.5 5 19.5c0 11.333 -3.33301 21.166 -10 29.499s-20.667 12.5 -42 12.5zM473.998 736.003l42 -46l-176 -153h-87l-118 154l57 45c6.66699 -5.33301 15.334 -12.833 26.001 -22.5l32.5 -30l32 -30c10.333 -9.66699 19.166 -17.5 26.499 -23.5z
" />
    <glyph glyph-name="Gcircumflex" unicode="&#x11c;" horiz-adv-x="609" 
d="M528 79c-20 -17.333 -40.333 -31.668 -61 -43.001s-41.5 -20.166 -62.5 -26.499s-41.667 -10.666 -62 -12.999s-39.5 -3.5 -57.5 -3.5c-30.667 0 -59.5 4.66699 -86.5 14s-50.667 23 -71 41s-36.5 39.833 -48.5 65.5s-18 54.5 -18 86.5
c0 8.66699 0.333008 17.334 1 26.001s2 17.667 4 27l44 222c7.33301 37.333 20 69.833 38 97.5s39.833 50.667 65.5 69s54 32 85 41s63.167 13.5 96.5 13.5c20 0 40.5 -1.33301 61.5 -4s41.167 -6.83398 60.5 -12.501s37.333 -12.834 54 -21.501s30.667 -18.667 42 -30
l-80 -106c-17.333 18 -38.333 30.5 -63 37.5s-48.667 10.5 -72 10.5c-16.667 0 -33.167 -2.16699 -49.5 -6.5s-31.666 -11.5 -45.999 -21.5s-26.833 -23 -37.5 -39s-18.334 -35.333 -23.001 -58l-38 -187c-2.66699 -12.667 -4 -25.334 -4 -38.001
c0 -34.667 10.167 -60.167 30.5 -76.5s45.5 -24.5 75.5 -24.5c13.333 0 28.333 1.83301 45 5.5s33.667 11.834 51 24.501l23 113h-101l23 122h238zM424 811.998l-167 -81l-32 52l173 123h84l124 -123l-54 -52z" />
    <glyph glyph-name="gcircumflex" unicode="&#x11d;" horiz-adv-x="516" 
d="M428 -27c-11.333 -62 -37.665 -107.332 -78.998 -135.999s-96.666 -43 -165.999 -43c-17.333 0 -35.333 1.83301 -54 5.5s-36.5 9 -53.5 16s-32.667 15.667 -47 26s-26.166 21.833 -35.499 34.5l85 80c6.66699 -8.66699 14.667 -15.834 24 -21.501
s19.166 -10.334 29.499 -14.001s20.5 -6.33398 30.5 -8.00098s18.667 -2.5 26 -2.5c27.333 0 51.666 6.33301 72.999 19s35.666 35.334 42.999 68.001l12 51c-34 -19.333 -63.833 -31.666 -89.5 -36.999s-46.834 -8 -63.501 -8c-46.667 0 -80 11.5 -100 34.5
s-30 54.167 -30 93.5c0 8.66699 0.5 17.5 1.5 26.5s2.16699 18.5 3.5 28.5l22 128c11.333 68 37 116.5 77 145.5s91.667 43.5 155 43.5c23.333 0 55 -3.83301 95 -11.5s82.667 -24.5 128 -50.5zM166.001 198.001c-2 -9.33301 -3.00195 -17.667 -3.00195 -25
c0 -18.667 5 -31.667 15 -39s22 -11 36 -11c16 0 35 4 57 12s44.667 19.333 68 34l37 195c-15.333 8 -32.666 14 -51.999 18s-36.666 6 -51.999 6c-20.667 0 -38.5 -5.83301 -53.5 -17.5s-24.833 -29.5 -29.5 -53.5zM351.999 640l-165 -109l-43 49l175 153h87l116 -153
l-53 -43z" />
    <glyph glyph-name="Gbreve" unicode="&#x11e;" horiz-adv-x="609" 
d="M528 79c-20 -17.333 -40.333 -31.668 -61 -43.001s-41.5 -20.166 -62.5 -26.499s-41.667 -10.666 -62 -12.999s-39.5 -3.5 -57.5 -3.5c-30.667 0 -59.5 4.66699 -86.5 14s-50.667 23 -71 41s-36.5 39.833 -48.5 65.5s-18 54.5 -18 86.5
c0 8.66699 0.333008 17.334 1 26.001s2 17.667 4 27l44 222c7.33301 37.333 20 69.833 38 97.5s39.833 50.667 65.5 69s54 32 85 41s63.167 13.5 96.5 13.5c20 0 40.5 -1.33301 61.5 -4s41.167 -6.83398 60.5 -12.501s37.333 -12.834 54 -21.501s30.667 -18.667 42 -30
l-80 -106c-17.333 18 -38.333 30.5 -63 37.5s-48.667 10.5 -72 10.5c-16.667 0 -33.167 -2.16699 -49.5 -6.5s-31.666 -11.5 -45.999 -21.5s-26.833 -23 -37.5 -39s-18.334 -35.333 -23.001 -58l-38 -187c-2.66699 -12.667 -4 -25.334 -4 -38.001
c0 -34.667 10.167 -60.167 30.5 -76.5s45.5 -24.5 75.5 -24.5c13.333 0 28.333 1.83301 45 5.5s33.667 11.834 51 24.501l23 113h-101l23 122h238zM421 733.998c-28 0 -50.668 5.16504 -68.001 15.498s-30.833 23 -40.5 38s-16 31.333 -19 49s-3.83301 33.834 -2.5 48.501
h91c-1.33301 -7.33301 -1.5 -14.833 -0.5 -22.5s3.5 -14.834 7.5 -21.501s9.16699 -12 15.5 -16s14.5 -6 24.5 -6c10.667 0 20.334 2.16699 29.001 6.5s16.167 9.83301 22.5 16.5s11.333 13.834 15 21.501s6.16699 14.834 7.5 21.501h92c-4 -15.333 -10 -31.833 -18 -49.5
s-18.833 -34 -32.5 -49s-30.667 -27.5 -51 -37.5s-44.5 -15 -72.5 -15z" />
    <glyph glyph-name="gbreve" unicode="&#x11f;" horiz-adv-x="516" 
d="M428 -27c-11.333 -62 -37.665 -107.332 -78.998 -135.999s-96.666 -43 -165.999 -43c-17.333 0 -35.333 1.83301 -54 5.5s-36.5 9 -53.5 16s-32.667 15.667 -47 26s-26.166 21.833 -35.499 34.5l85 80c6.66699 -8.66699 14.667 -15.834 24 -21.501
s19.166 -10.334 29.499 -14.001s20.5 -6.33398 30.5 -8.00098s18.667 -2.5 26 -2.5c27.333 0 51.666 6.33301 72.999 19s35.666 35.334 42.999 68.001l12 51c-34 -19.333 -63.833 -31.666 -89.5 -36.999s-46.834 -8 -63.501 -8c-46.667 0 -80 11.5 -100 34.5
s-30 54.167 -30 93.5c0 8.66699 0.5 17.5 1.5 26.5s2.16699 18.5 3.5 28.5l22 128c11.333 68 37 116.5 77 145.5s91.667 43.5 155 43.5c23.333 0 55 -3.83301 95 -11.5s82.667 -24.5 128 -50.5zM166.001 198.001c-2 -9.33301 -3.00195 -17.667 -3.00195 -25
c0 -18.667 5 -31.667 15 -39s22 -11 36 -11c16 0 35 4 57 12s44.667 19.333 68 34l37 195c-15.333 8 -32.666 14 -51.999 18s-36.666 6 -51.999 6c-20.667 0 -38.5 -5.83301 -53.5 -17.5s-24.833 -29.5 -29.5 -53.5zM328.999 564c-27.333 0 -49.835 4.83203 -67.502 14.499
s-31.5 21.834 -41.5 36.501s-16.5 31 -19.5 49s-3.83301 35.667 -2.5 53h91c-1.33301 -6.66699 -1.5 -13.834 -0.5 -21.501s3.5 -15 7.5 -22s9.33301 -12.833 16 -17.5s15.334 -7 26.001 -7c10 0 19.333 2.16699 28 6.5s16.167 10 22.5 17s11.5 14.333 15.5 22
s6.66699 15.167 8 22.5h92c-3.33301 -15.333 -9.16602 -31.833 -17.499 -49.5s-19.5 -34.167 -33.5 -49.5s-31.167 -28.166 -51.5 -38.499s-44.5 -15.5 -72.5 -15.5z" />
    <glyph glyph-name="Gdotaccent" unicode="&#x120;" horiz-adv-x="609" 
d="M528 79c-20 -17.333 -40.333 -31.668 -61 -43.001s-41.5 -20.166 -62.5 -26.499s-41.667 -10.666 -62 -12.999s-39.5 -3.5 -57.5 -3.5c-30.667 0 -59.5 4.66699 -86.5 14s-50.667 23 -71 41s-36.5 39.833 -48.5 65.5s-18 54.5 -18 86.5
c0 8.66699 0.333008 17.334 1 26.001s2 17.667 4 27l44 222c7.33301 37.333 20 69.833 38 97.5s39.833 50.667 65.5 69s54 32 85 41s63.167 13.5 96.5 13.5c20 0 40.5 -1.33301 61.5 -4s41.167 -6.83398 60.5 -12.501s37.333 -12.834 54 -21.501s30.667 -18.667 42 -30
l-80 -106c-17.333 18 -38.333 30.5 -63 37.5s-48.667 10.5 -72 10.5c-16.667 0 -33.167 -2.16699 -49.5 -6.5s-31.666 -11.5 -45.999 -21.5s-26.833 -23 -37.5 -39s-18.334 -35.333 -23.001 -58l-38 -187c-2.66699 -12.667 -4 -25.334 -4 -38.001
c0 -34.667 10.167 -60.167 30.5 -76.5s45.5 -24.5 75.5 -24.5c13.333 0 28.333 1.83301 45 5.5s33.667 11.834 51 24.501l23 113h-101l23 122h238zM406 731.998c-20 0 -35.832 6.83398 -47.499 20.501s-15.834 30.5 -12.501 50.5c3.33301 20.667 13.333 38.167 30 52.5
s35.334 21.5 56.001 21.5c19.333 0 34.833 -6.33301 46.5 -19s15.834 -29.334 12.501 -50.001c-1.33301 -10 -4.5 -19.667 -9.5 -29s-11.333 -17.5 -19 -24.5s-16.334 -12.5 -26.001 -16.5s-19.834 -6 -30.501 -6z" />
    <glyph glyph-name="gdotaccent" unicode="&#x121;" horiz-adv-x="516" 
d="M428 -27c-11.333 -62 -37.665 -107.332 -78.998 -135.999s-96.666 -43 -165.999 -43c-17.333 0 -35.333 1.83301 -54 5.5s-36.5 9 -53.5 16s-32.667 15.667 -47 26s-26.166 21.833 -35.499 34.5l85 80c6.66699 -8.66699 14.667 -15.834 24 -21.501
s19.166 -10.334 29.499 -14.001s20.5 -6.33398 30.5 -8.00098s18.667 -2.5 26 -2.5c27.333 0 51.666 6.33301 72.999 19s35.666 35.334 42.999 68.001l12 51c-34 -19.333 -63.833 -31.666 -89.5 -36.999s-46.834 -8 -63.501 -8c-46.667 0 -80 11.5 -100 34.5
s-30 54.167 -30 93.5c0 8.66699 0.5 17.5 1.5 26.5s2.16699 18.5 3.5 28.5l22 128c11.333 68 37 116.5 77 145.5s91.667 43.5 155 43.5c23.333 0 55 -3.83301 95 -11.5s82.667 -24.5 128 -50.5zM166.001 198.001c-2 -9.33301 -3.00195 -17.667 -3.00195 -25
c0 -18.667 5 -31.667 15 -39s22 -11 36 -11c16 0 35 4 57 12s44.667 19.333 68 34l37 195c-15.333 8 -32.666 14 -51.999 18s-36.666 6 -51.999 6c-20.667 0 -38.5 -5.83301 -53.5 -17.5s-24.833 -29.5 -29.5 -53.5zM330.999 563c-20 0 -35.832 6.83398 -47.499 20.501
s-15.834 30.5 -12.501 50.5c3.33301 20.667 13.333 38.167 30 52.5s35.334 21.5 56.001 21.5c19.333 0 34.833 -6.33301 46.5 -19s15.834 -29.334 12.501 -50.001c-1.33301 -10 -4.5 -19.667 -9.5 -29s-11.333 -17.5 -19 -24.5s-16.334 -12.5 -26.001 -16.5
s-19.834 -6 -30.501 -6z" />
    <glyph glyph-name="Gcommaaccent" unicode="&#x122;" horiz-adv-x="609" 
d="M528 79c-20 -17.333 -40.333 -31.668 -61 -43.001s-41.5 -20.166 -62.5 -26.499s-41.667 -10.666 -62 -12.999s-39.5 -3.5 -57.5 -3.5c-30.667 0 -59.5 4.66699 -86.5 14s-50.667 23 -71 41s-36.5 39.833 -48.5 65.5s-18 54.5 -18 86.5
c0 8.66699 0.333008 17.334 1 26.001s2 17.667 4 27l44 222c7.33301 37.333 20 69.833 38 97.5s39.833 50.667 65.5 69s54 32 85 41s63.167 13.5 96.5 13.5c20 0 40.5 -1.33301 61.5 -4s41.167 -6.83398 60.5 -12.501s37.333 -12.834 54 -21.501s30.667 -18.667 42 -30
l-80 -106c-17.333 18 -38.333 30.5 -63 37.5s-48.667 10.5 -72 10.5c-16.667 0 -33.167 -2.16699 -49.5 -6.5s-31.666 -11.5 -45.999 -21.5s-26.833 -23 -37.5 -39s-18.334 -35.333 -23.001 -58l-38 -187c-2.66699 -12.667 -4 -25.334 -4 -38.001
c0 -34.667 10.167 -60.167 30.5 -76.5s45.5 -24.5 75.5 -24.5c13.333 0 28.333 1.83301 45 5.5s33.667 11.834 51 24.501l23 113h-101l23 122h238zM147 -263.002c20.667 10 37.168 20.6689 49.501 32.002s21.166 24.666 26.499 39.999c-12 2.66699 -22.167 10 -30.5 22
s-12.5 25.333 -12.5 40c0 24 8.16699 44.667 24.5 62s37.833 26 64.5 26c22.667 0 40.834 -7.5 54.501 -22.5s20.5 -34.833 20.5 -59.5c0 -38.667 -14.833 -75.334 -44.5 -110.001s-69.834 -62.667 -120.501 -84z" />
    <glyph glyph-name="gcommaaccent" unicode="&#x123;" horiz-adv-x="516" 
d="M459 769c-20 -10 -36.333 -20.6689 -49 -32.002s-21.667 -24.666 -27 -39.999c12.667 -2.66699 23 -10.167 31 -22.5s12 -25.833 12 -40.5c0 -23.333 -8 -43.666 -24 -60.999s-37.667 -26 -65 -26c-22 0 -40.167 7.5 -54.5 22.5s-21.5 34.5 -21.5 58.5
c0 38.667 14.833 75.5 44.5 110.5s70.5 63.5 122.5 85.5zM428 -27.002c-11.333 -62 -37.665 -107.332 -78.998 -135.999s-96.666 -43 -165.999 -43c-17.333 0 -35.333 1.83301 -54 5.5s-36.5 9 -53.5 16s-32.667 15.667 -47 26s-26.166 21.833 -35.499 34.5l85 80
c6.66699 -8.66699 14.667 -15.834 24 -21.501s19.166 -10.334 29.499 -14.001s20.5 -6.33398 30.5 -8.00098s18.667 -2.5 26 -2.5c27.333 0 51.666 6.33301 72.999 19s35.666 35.334 42.999 68.001l12 51c-34 -19.333 -63.833 -31.666 -89.5 -36.999s-46.834 -8 -63.501 -8
c-46.667 0 -80 11.5 -100 34.5s-30 54.167 -30 93.5c0 8.66699 0.5 17.5 1.5 26.5s2.16699 18.5 3.5 28.5l22 128c11.333 68 37 116.5 77 145.5s91.667 43.5 155 43.5c23.333 0 55 -3.83301 95 -11.5s82.667 -24.5 128 -50.5zM166.001 197.999
c-2 -9.33301 -3.00195 -17.667 -3.00195 -25c0 -18.667 5 -31.667 15 -39s22 -11 36 -11c16 0 35 4 57 12s44.667 19.333 68 34l37 195c-15.333 8 -32.666 14 -51.999 18s-36.666 6 -51.999 6c-20.667 0 -38.5 -5.83301 -53.5 -17.5s-24.833 -29.5 -29.5 -53.5z" />
    <glyph glyph-name="Hcircumflex" unicode="&#x124;" horiz-adv-x="631" 
d="M409 0l56 288h-254l-56 -288h-137l134 689h137l-54 -277h254l54 277h139l-134 -689h-139zM438 812l-167 -81l-32 52l173 123h84l124 -123l-54 -52z" />
    <glyph glyph-name="hcircumflex" unicode="&#x125;" horiz-adv-x="529" 
d="M317 0l59.001 304.999c2 8.66699 3 16.334 3 23.001c0 19.333 -5.33301 32.833 -16 40.5s-23 11.5 -37 11.5c-16 0 -33.833 -3.33301 -53.5 -10s-43.5 -18.667 -71.5 -36l-65 -334h-127l140 716h127l-52 -264c39.333 22.667 71.666 36.5 96.999 41.5s46.333 7.5 63 7.5
c45.333 0 78.333 -11.167 99 -33.5s31 -52.833 31 -91.5c0 -16.667 -2 -35 -6 -55l-62 -321h-129zM234.001 811.999l-167 -81l-32 52l173 123h84l124 -123l-54 -52z" />
    <glyph glyph-name="Hbar" unicode="&#x126;" horiz-adv-x="631" 
d="M409 0l56 288h-254l-56 -288h-137l100 515h-45l16 82h45l18 92h137l-18 -92h254l18 92h139l-18 -92h42l-16 -82h-42l-100 -515h-139zM489 412l20 103h-254l-20 -103h254z" />
    <glyph glyph-name="hbar" unicode="&#x127;" horiz-adv-x="529" 
d="M81 638l53.001 -0.000976562l15 78h127l-16 -78h181l-16 -81h-181l-20 -105c39.333 22.667 71.666 36.5 96.999 41.5s46.333 7.5 63 7.5c45.333 0 78.333 -11.167 99 -33.5s31 -52.833 31 -91.5c0 -16.667 -2 -35 -6 -55l-62 -321h-129l59 305
c2 8.66699 3 16.334 3 23.001c0 19.333 -5.33301 32.833 -16 40.5s-23 11.5 -37 11.5c-16 0 -33.833 -3.33301 -53.5 -10s-43.5 -18.667 -71.5 -36l-65 -334h-127l109 557h-53z" />
    <glyph glyph-name="Itilde" unicode="&#x128;" horiz-adv-x="295" 
d="M311 689l-134 -689h-137l134 689h137zM209 879c12.667 0 24.335 -2.33105 35.002 -6.99805s20.667 -9.83398 30 -15.501s18 -10.667 26 -15s15.667 -6.5 23 -6.5c10.667 0 21.334 3.16699 32.001 9.5s23.667 18.166 39 35.499l12 -8l19.5 -13.5
c7 -5 13.667 -9.5 20 -13.5l12.5 -8c-20.667 -38 -41.834 -64.5 -63.501 -79.5s-43.834 -22.5 -66.501 -22.5c-12.667 0 -24.334 2 -35.001 6s-20.834 8.5 -30.501 13.5s-18.834 9.5 -27.501 13.5s-17.667 6 -27 6c-11.333 0 -22.166 -2.66699 -32.499 -8
s-24.166 -17 -41.499 -35l-63 45c21.333 34 43 59.667 65 77s46.333 26 73 26z" />
    <glyph glyph-name="itilde" unicode="&#x129;" horiz-adv-x="337" 
d="M295 496l-61 -311.999l-3.5 -19.5c-1 -5.66699 -1.16699 -10.834 -0.5 -15.501c0 -15.333 4 -25.833 12 -31.5s20.667 -9.16699 38 -10.5l-24 -109h-25c-42 0 -75 9 -99 27s-36 46.333 -36 85c0 14 1.33301 27.667 4 41l66 345h129zM190 713.001
c12.667 0 24.335 -2.33105 35.002 -6.99805s20.667 -9.83398 30 -15.501s18 -10.667 26 -15s15.667 -6.5 23 -6.5c10.667 0 21.334 3.16699 32.001 9.5s23.667 18.166 39 35.499l12 -8l19.5 -13.5c7 -5 13.667 -9.5 20 -13.5l12.5 -8
c-20.667 -38 -41.834 -64.5 -63.501 -79.5s-43.834 -22.5 -66.501 -22.5c-12.667 0 -24.334 2 -35.001 6s-20.834 8.5 -30.501 13.5s-18.834 9.5 -27.501 13.5s-17.667 6 -27 6c-11.333 0 -22.166 -2.66699 -32.499 -8s-24.166 -17 -41.499 -35l-63 45
c21.333 34 43 59.667 65 77s46.333 26 73 26z" />
    <glyph glyph-name="Imacron" unicode="&#x12a;" horiz-adv-x="295" 
d="M311 689l-134 -689h-137l134 689h137zM101 761l20 105h312l-21 -105h-311z" />
    <glyph glyph-name="imacron" unicode="&#x12b;" horiz-adv-x="337" 
d="M276 496l-61 -311.999l-3.5 -19.5c-1 -5.66699 -1.16699 -10.834 -0.5 -15.501c0 -15.333 4 -25.833 12 -31.5s20.667 -9.16699 38 -10.5l-24 -109h-25c-42 0 -75 9 -99 27s-36 46.333 -36 85c0 14 1.33301 27.667 4 41l66 345h129zM71 585.001l21 104h312l-21 -104h-312
z" />
    <glyph glyph-name="Ibreve" unicode="&#x12c;" horiz-adv-x="295" 
d="M247 734c-28 0 -50.668 5.16504 -68.001 15.498s-30.833 23 -40.5 38s-16 31.333 -19 49s-3.83301 33.834 -2.5 48.501h91c-1.33301 -7.33301 -1.5 -14.833 -0.5 -22.5s3.5 -14.834 7.5 -21.501s9.16699 -12 15.5 -16s14.5 -6 24.5 -6
c10.667 0 20.334 2.16699 29.001 6.5s16.167 9.83301 22.5 16.5s11.333 13.834 15 21.501s6.16699 14.834 7.5 21.501h92c-4 -15.333 -10 -31.833 -18 -49.5s-18.833 -34 -32.5 -49s-30.667 -27.5 -51 -37.5s-44.5 -15 -72.5 -15zM310.999 688.998l-134 -689h-137l134 689
h137z" />
    <glyph glyph-name="ibreve" unicode="&#x12d;" horiz-adv-x="327" 
d="M292 496l-61 -311.999l-3.5 -19.5c-1 -5.66699 -1.16699 -10.834 -0.5 -15.501c0 -15.333 4 -25.833 12 -31.5s20.667 -9.16699 38 -10.5l-24 -109h-25c-42 0 -75 9 -99 27s-36 46.333 -36 85c0 14 1.33301 27.667 4 41l66 345h129zM234 570.001
c-27.333 0 -49.835 4.83203 -67.502 14.499s-31.5 21.834 -41.5 36.501s-16.5 31 -19.5 49s-3.83301 35.667 -2.5 53h91c-1.33301 -6.66699 -1.5 -13.834 -0.5 -21.501s3.5 -15 7.5 -22s9.33301 -12.833 16 -17.5s15.334 -7 26.001 -7c10 0 19.333 2.16699 28 6.5
s16.167 10 22.5 17s11.5 14.333 15.5 22s6.66699 15.167 8 22.5h92c-3.33301 -15.333 -9.16602 -31.833 -17.499 -49.5s-19.5 -34.167 -33.5 -49.5s-31.167 -28.166 -51.5 -38.499s-44.5 -15.5 -72.5 -15.5z" />
    <glyph glyph-name="Iogonek" unicode="&#x12e;" horiz-adv-x="295" 
d="M6 -105c2 14 7 29.333 15 46s22.667 36.334 44 59.001h-25l134 689h137l-134 -689h-29c-35.333 -39.333 -54.333 -69.333 -57 -90c-2 -18.667 8.33301 -28 31 -28c7.33301 0 16.166 1 26.499 3s22.833 6.33301 37.5 13l15 -66c-18 -10 -36.5 -17 -55.5 -21
s-37.167 -6 -54.5 -6c-29.333 0 -51.666 8.66699 -66.999 26s-21.333 38.666 -18 63.999z" />
    <glyph glyph-name="iogonek" unicode="&#x12f;" horiz-adv-x="287" 
d="M71 -106c2 14.667 7.33203 30.832 15.999 48.499s24.667 38.167 48 61.5c-25.333 6.66699 -45.166 18.5 -59.499 35.5s-21.5 40.5 -21.5 70.5c0 14 1.33301 27.667 4 41l67 344h127l-61 -311l-3.5 -21c-1 -6 -1.5 -11.667 -1.5 -17c0 -14.667 4 -24.5 12 -29.5
s21.333 -8.16699 40 -9.5l-24 -109h-2c-18 -19.333 -31.5 -36.166 -40.5 -50.499s-14.167 -27.166 -15.5 -38.499c-2 -18.667 8.33301 -28 31 -28c7.33301 0 16.166 1 26.499 3s22.833 6.33301 37.5 13l15 -66c-18 -10 -36.5 -17 -55.5 -21s-37.167 -6 -54.5 -6
c-29.333 0 -51.666 8.66699 -66.999 26s-21.333 38.666 -18 63.999zM141.999 627.998c4 20 13.833 36.999 29.5 50.999s33.5 21 53.5 21c17.333 0 31.833 -5.5 43.5 -16.5s17.5 -25.167 17.5 -42.5c0 -11.333 -2.33301 -22.166 -7 -32.499s-11 -19.333 -19 -27
s-17 -13.667 -27 -18s-20.333 -6.5 -31 -6.5c-17.333 0 -31.833 5.33301 -43.5 16s-17.5 24.667 -17.5 42v6.5c0 2.33301 0.333008 4.5 1 6.5z" />
    <glyph glyph-name="Idotaccent" unicode="&#x130;" horiz-adv-x="295" 
d="M311 689l-134 -689h-137l134 689h137zM252 732c-20 0 -35.832 6.83398 -47.499 20.501s-15.834 30.5 -12.501 50.5c3.33301 20.667 13.333 38.167 30 52.5s35.334 21.5 56.001 21.5c19.333 0 34.833 -6.33301 46.5 -19s15.834 -29.334 12.501 -50.001
c-1.33301 -10 -4.5 -19.667 -9.5 -29s-11.333 -17.5 -19 -24.5s-16.334 -12.5 -26.001 -16.5s-19.834 -6 -30.501 -6z" />
    <glyph glyph-name="dotlessi" unicode="&#x131;" horiz-adv-x="287" 
d="M253 496l-61 -311.999l-3.5 -19.5c-1 -5.66699 -1.16699 -10.834 -0.5 -15.501c0 -15.333 4 -25.833 12 -31.5s20.667 -9.16699 38 -10.5l-24 -109h-25c-42 0 -75 9 -99 27s-36 46.333 -36 85c0 14 1.33301 27.667 4 41l66 345h129z" />
    <glyph glyph-name="IJ" unicode="&#x132;" horiz-adv-x="803" 
d="M311 689l-134 -689h-137l134 689h137zM728 216c-14 -74.667 -43.4971 -130.499 -88.4971 -167.499s-107.167 -55.5 -186.5 -55.5c-18.667 0 -37.834 1.5 -57.501 4.5s-38.667 7.16699 -57 12.5s-35.333 12.166 -51 20.499s-28.834 17.833 -39.501 28.5l78 105
c19.333 -16.667 40.666 -28 63.999 -34s45 -9 65 -9c35.333 0 65.5 9.5 90.5 28.5s42.167 52.167 51.5 99.5l86 440h138z" />
    <glyph glyph-name="ij" unicode="&#x133;" horiz-adv-x="525" 
d="M142 628c4 20 13.833 36.999 29.5 50.999s33.5 21 53.5 21c17.333 0 31.833 -5.5 43.5 -16.5s17.5 -25.167 17.5 -42.5c0 -11.333 -2.33301 -22.166 -7 -32.499s-11 -19.333 -19 -27s-17 -13.667 -27 -18s-20.333 -6.5 -31 -6.5c-17.333 0 -31.833 5.33301 -43.5 16
s-17.5 24.667 -17.5 42v6.5c0 2.33301 0.333008 4.5 1 6.5zM252 494.999l-61 -311l-3.5 -21c-1 -6 -1.5 -11.667 -1.5 -17c0 -14.667 4 -24.5 12 -29.5s21.333 -8.16699 40 -9.5l-24 -109h-25c-42 0 -75 9 -99 27s-36 46.333 -36 85c0 14 1.33301 27.667 4 41l67 344h127z
M406 -45.001c-4 -21.333 -9.33203 -42.167 -15.999 -62.5s-16 -38.333 -28 -54s-27.833 -28.167 -47.5 -37.5s-44.834 -14 -75.501 -14c-10.667 0 -22.167 0.5 -34.5 1.5s-25.166 2.83301 -38.499 5.5l22 120c3.33301 -0.666992 6.66602 -1 9.99902 -1h10
c24 0 41.5 5 52.5 15s18.167 24.667 21.5 44l100 523h127zM484.001 699.998c17.333 0 31.6689 -5.50098 43.002 -16.501s17 -24.5 17 -40.5c0 -11.333 -2.5 -22.166 -7.5 -32.499s-11.667 -19.333 -20 -27s-17.833 -13.834 -28.5 -18.501s-21.334 -7 -32.001 -7
c-17.333 0 -31.5 5.33301 -42.5 16s-16.5 24.334 -16.5 41.001c0 11.333 2.5 22.166 7.5 32.499s11.667 19.333 20 27s17.666 13.834 27.999 18.501s20.833 7 31.5 7z" />
    <glyph glyph-name="Jcircumflex" unicode="&#x134;" horiz-adv-x="536" 
d="M461 217c-14 -74.667 -43.4971 -130.499 -88.4971 -167.499s-107.167 -55.5 -186.5 -55.5c-18.667 0 -37.834 1.5 -57.501 4.5s-38.667 7.16699 -57 12.5s-35.333 12.166 -51 20.499s-28.834 17.833 -39.501 28.5l78 105c19.333 -16.667 40.666 -28 63.999 -34
s45 -9 65 -9c35.333 0 65.5 9.5 90.5 28.5s42.167 52.167 51.5 99.5l86 440h138zM510.003 814.001l-167 -81l-32 52l173 123h84l124 -123l-54 -52z" />
    <glyph glyph-name="jcircumflex" unicode="&#x135;" horiz-adv-x="363" 
d="M272 640l-165 -106l-40 45l177 154h87l117 -153l-59 -46zM203 -45c-4 -21.333 -9.16699 -42.167 -15.5 -62.5s-15.666 -38.333 -27.999 -54s-28.333 -28.167 -48 -37.5s-44.834 -14 -75.501 -14c-10.667 0 -22.167 0.5 -34.5 1.5s-25.166 2.83301 -38.499 5.5l22 120
c3.33301 -0.666992 6.66602 -1 9.99902 -1h10c24 0 41.5 5 52.5 15s18.167 24.667 21.5 44l100 523h127z" />
    <glyph glyph-name="Kcommaaccent" unicode="&#x136;" horiz-adv-x="611" 
d="M315 313l-126 -120l-37 -193h-137l134 689h137l-59 -301l310 301h163l-283 -278l164 -411h-150zM155 -246c20.667 10 37.168 20.6689 49.501 32.002s21.166 24.666 26.499 39.999c-12 2.66699 -22.167 10 -30.5 22s-12.5 25.333 -12.5 40c0 24 8.16699 44.667 24.5 62
s37.833 26 64.5 26c22.667 0 40.834 -7.5 54.501 -22.5s20.5 -34.833 20.5 -59.5c0 -38.667 -14.833 -75.334 -44.5 -110.001s-69.834 -62.667 -120.501 -84z" />
    <glyph glyph-name="kcommaaccent" unicode="&#x137;" horiz-adv-x="502" 
d="M14 0l133.999 715.999h127l-70 -368h39c18 0 34.333 3.83301 49 11.5s28 22.5 40 44.5l50 91h146l-71 -123c-11.333 -19.333 -23.833 -36.666 -37.5 -51.999s-31.167 -26.666 -52.5 -33.999c12.667 -4.66699 22.834 -10.667 30.501 -18s13.5 -15.5 17.5 -24.5
s7 -18.833 9 -29.5s3.66699 -21.334 5 -32.001l26 -182h-131l-19 161c-3.33301 24.667 -10 42.167 -20 52.5s-27.667 15.5 -53 15.5h-50l-43 -229h-126zM93.999 -263.001c20.667 10 37.168 20.6689 49.501 32.002s21.166 24.666 26.499 39.999
c-12 2.66699 -22.167 10 -30.5 22s-12.5 25.333 -12.5 40c0 24 8.16699 44.667 24.5 62s37.833 26 64.5 26c22.667 0 40.834 -7.5 54.501 -22.5s20.5 -34.833 20.5 -59.5c0 -38.667 -14.833 -75.334 -44.5 -110.001s-69.834 -62.667 -120.501 -84z" />
    <glyph glyph-name="kgreenlandic" unicode="&#x138;" horiz-adv-x="514" 
d="M523 495l-66.0029 -144.999c-12 -24 -25.167 -43.667 -39.5 -59s-32.166 -27 -53.499 -35c22.667 -8 37.667 -20 45 -36s13 -36.333 17 -61l25 -159h-132l-16 135c-3.33301 30 -12.166 49 -26.499 57s-33.166 12 -56.499 12h-49l-36 -204h-125l91 495h126l-35 -178h48
c20.667 0 38.5 4.16699 53.5 12.5s29.167 26.166 42.5 53.499l53 112h134z" />
    <glyph glyph-name="Lacute" unicode="&#x139;" horiz-adv-x="557" 
d="M22 0l134 689h136l-111 -567h342l-24 -122h-477zM196 784l190 137l72 -86l-221 -108z" />
    <glyph glyph-name="lacute" unicode="&#x13a;" horiz-adv-x="274" 
d="M180 -1c-48 0 -82.5 8.50098 -103.5 25.501s-31.5 43.5 -31.5 79.5c0 15.333 2 32.666 6 51.999l108 560h126l-106 -554c-0.666992 -3.33301 -1.16699 -6.5 -1.5 -9.5s-0.5 -6.16699 -0.5 -9.5c0 -12.667 4.5 -21.167 13.5 -25.5s25.167 -6.83301 48.5 -7.5l-21 -111h-38
zM194 798.001l190 137l72 -86l-221 -108z" />
    <glyph glyph-name="Lcommaaccent" unicode="&#x13b;" horiz-adv-x="557" 
d="M22 0l134 689h136l-111 -567h342l-24 -122h-477zM116 -263c20.667 10 37.168 20.6689 49.501 32.002s21.166 24.666 26.499 39.999c-12 2.66699 -22.167 10 -30.5 22s-12.5 25.333 -12.5 40c0 24 8.16699 44.667 24.5 62s37.833 26 64.5 26
c22.667 0 40.834 -7.5 54.501 -22.5s20.5 -34.833 20.5 -59.5c0 -38.667 -14.833 -75.334 -44.5 -110.001s-69.834 -62.667 -120.501 -84z" />
    <glyph glyph-name="lcommaaccent" unicode="&#x13c;" horiz-adv-x="274" 
d="M180 -1c-48 0 -82.5 8.50098 -103.5 25.501s-31.5 43.5 -31.5 79.5c0 15.333 2 32.666 6 51.999l108 560h126l-106 -554c-0.666992 -3.33301 -1.16699 -6.5 -1.5 -9.5s-0.5 -6.16699 -0.5 -9.5c0 -12.667 4.5 -21.167 13.5 -25.5s25.167 -6.83301 48.5 -7.5l-21 -111h-38
zM-20 -259.999c20.667 10 37.168 20.6689 49.501 32.002s21.166 24.666 26.499 39.999c-12 2.66699 -22.167 10 -30.5 22s-12.5 25.333 -12.5 40c0 24 8.16699 44.667 24.5 62s37.833 26 64.5 26c22.667 0 40.834 -7.5 54.501 -22.5s20.5 -34.833 20.5 -59.5
c0 -38.667 -14.833 -75.334 -44.5 -110.001s-69.834 -62.667 -120.501 -84z" />
    <glyph glyph-name="Lcaron" unicode="&#x13d;" horiz-adv-x="557" 
d="M22 0l134 689h136l-111 -567h342l-24 -122h-477zM331 471c20.667 10 37.168 20.6689 49.501 32.002s21.166 24.666 26.499 39.999c-12 2.66699 -22.167 10 -30.5 22s-12.5 25.333 -12.5 40c0 24 8.16699 44.667 24.5 62s37.833 26 64.5 26
c22.667 0 40.834 -7.5 54.501 -22.5s20.5 -34.833 20.5 -59.5c0 -38.667 -14.833 -75.334 -44.5 -110.001s-69.834 -62.667 -120.501 -84z" />
    <glyph glyph-name="lcaron" unicode="&#x13e;" horiz-adv-x="404" 
d="M290 499c20.667 10 37.168 20.6689 49.501 32.002s21.166 24.666 26.499 39.999c-12 2.66699 -22.167 10 -30.5 22s-12.5 25.333 -12.5 40c0 24 8.16699 44.667 24.5 62s37.833 26 64.5 26c22.667 0 40.834 -7.5 54.501 -22.5s20.5 -34.833 20.5 -59.5
c0 -38.667 -14.833 -75.334 -44.5 -110.001s-69.834 -62.667 -120.501 -84zM180.001 -0.998047c-48 0 -82.5 8.50098 -103.5 25.501s-31.5 43.5 -31.5 79.5c0 15.333 2 32.666 6 51.999l108 560h126l-106 -554c-0.666992 -3.33301 -1.16699 -6.5 -1.5 -9.5
s-0.5 -6.16699 -0.5 -9.5c0 -12.667 4.5 -21.167 13.5 -25.5s25.167 -6.83301 48.5 -7.5l-21 -111h-38z" />
    <glyph glyph-name="Ldot" unicode="&#x13f;" horiz-adv-x="557" 
d="M22 0l134 689h136l-111 -567h342l-24 -122h-477zM382 291c-20 0 -35.832 6.83398 -47.499 20.501s-15.834 30.5 -12.501 50.5c3.33301 20.667 13.333 38.167 30 52.5s35.334 21.5 56.001 21.5c19.333 0 34.833 -6.33301 46.5 -19s15.834 -29.334 12.501 -50.001
c-1.33301 -10 -4.5 -19.667 -9.5 -29s-11.333 -17.5 -19 -24.5s-16.334 -12.5 -26.001 -16.5s-19.834 -6 -30.501 -6z" />
    <glyph glyph-name="ldot" unicode="&#x140;" horiz-adv-x="401" 
d="M338 304c-20 0 -35.832 6.83398 -47.499 20.501s-15.834 30.5 -12.501 50.5c3.33301 20.667 13.333 38.167 30 52.5s35.334 21.5 56.001 21.5c19.333 0 34.833 -6.33301 46.5 -19s15.834 -29.334 12.501 -50.001c-1.33301 -10 -4.5 -19.667 -9.5 -29
s-11.333 -17.5 -19 -24.5s-16.334 -12.5 -26.001 -16.5s-19.834 -6 -30.501 -6zM180.001 -0.999023c-48 0 -82.5 8.50098 -103.5 25.501s-31.5 43.5 -31.5 79.5c0 15.333 2 32.666 6 51.999l108 560h126l-106 -554c-0.666992 -3.33301 -1.16699 -6.5 -1.5 -9.5
s-0.5 -6.16699 -0.5 -9.5c0 -12.667 4.5 -21.167 13.5 -25.5s25.167 -6.83301 48.5 -7.5l-21 -111h-38z" />
    <glyph glyph-name="Lslash" unicode="&#x141;" horiz-adv-x="569" 
d="M34 0l40 209l-49 -26l-29 78l98 52l74 376h136l-58 -297l127 67l30 -78l-178 -93l-32 -166h342l-24 -122h-477z" />
    <glyph glyph-name="lslash" unicode="&#x142;" horiz-adv-x="318" 
d="M199 -1c-48 0 -82.5 8.50098 -103.5 25.501s-31.5 43.5 -31.5 79.5c0 15.333 2 32.666 6 51.999l21 108l-27 -14l-27 -15l-28 77l51 28l51 28l67 348h126l-52 -271l58 32l16 -38l16 -39l-110 -60l-34 -178c-0.666992 -3.33301 -1.16699 -6.5 -1.5 -9.5
s-0.5 -6.16699 -0.5 -9.5c0 -12.667 4.5 -21.167 13.5 -25.5s25.167 -6.83301 48.5 -7.5l-21 -111h-38z" />
    <glyph glyph-name="Nacute" unicode="&#x143;" horiz-adv-x="675" 
d="M485 248l43 220.5l42 220.5h135l-132 -689h-124l-28.5 61l-35.5 76.5l-39.5 83.5l-39 83.5l-34.5 75l-27 58.5l-90 -438h-136l132 689h125l28 -57.5l36 -75.5l39 -85.5l39 -86l35.5 -77l27.5 -59.5h4zM367 784l190 137l72 -86l-221 -108z" />
    <glyph glyph-name="nacute" unicode="&#x144;" horiz-adv-x="529" 
d="M317 0l59 305.003c2 8.66699 3 16.667 3 24c0 19.333 -5 32.666 -15 39.999s-22.667 11 -38 11c-16 0 -33.667 -3.33301 -53 -10s-43.333 -18.667 -72 -36l-65 -334h-127l97 494h116l2 -42c20.667 11.333 39.167 20.166 55.5 26.499s30.833 11.166 43.5 14.499
s24 5.5 34 6.5s19 1.5 27 1.5c45.333 0 78.333 -11 99 -33s31 -52.333 31 -91c0 -16 -2 -34 -6 -54l-62 -323h-129zM246 568.003l118 195l109 -37l-160 -185z" />
    <glyph glyph-name="Ncommaaccent" unicode="&#x145;" horiz-adv-x="675" 
d="M485 248l43 220.5l42 220.5h135l-132 -689h-124l-28.5 61l-35.5 76.5l-39.5 83.5l-39 83.5l-34.5 75l-27 58.5l-90 -438h-136l132 689h125l28 -57.5l36 -75.5l39 -85.5l39 -86l35.5 -77l27.5 -59.5h4zM181 -243c20.667 10 37.168 20.6689 49.501 32.002
s21.166 24.666 26.499 39.999c-12 2.66699 -22.167 10 -30.5 22s-12.5 25.333 -12.5 40c0 24 8.16699 44.667 24.5 62s37.833 26 64.5 26c22.667 0 40.834 -7.5 54.501 -22.5s20.5 -34.833 20.5 -59.5c0 -38.667 -14.833 -75.334 -44.5 -110.001
s-69.834 -62.667 -120.501 -84z" />
    <glyph glyph-name="ncommaaccent" unicode="&#x146;" horiz-adv-x="529" 
d="M317 0l59 305.003c2 8.66699 3 16.667 3 24c0 19.333 -5 32.666 -15 39.999s-22.667 11 -38 11c-16 0 -33.667 -3.33301 -53 -10s-43.333 -18.667 -72 -36l-65 -334h-127l97 494h116l2 -42c20.667 11.333 39.167 20.166 55.5 26.499s30.833 11.166 43.5 14.499
s24 5.5 34 6.5s19 1.5 27 1.5c45.333 0 78.333 -11 99 -33s31 -52.333 31 -91c0 -16 -2 -34 -6 -54l-62 -323h-129zM97 -262.997c20.667 10 37.168 20.6689 49.501 32.002s21.166 24.666 26.499 39.999c-12 2.66699 -22.167 10 -30.5 22s-12.5 25.333 -12.5 40
c0 24 8.16699 44.667 24.5 62s37.833 26 64.5 26c22.667 0 40.834 -7.5 54.501 -22.5s20.5 -34.833 20.5 -59.5c0 -38.667 -14.833 -75.334 -44.5 -110.001s-69.834 -62.667 -120.501 -84z" />
    <glyph glyph-name="Ncaron" unicode="&#x147;" horiz-adv-x="675" 
d="M485 248l43 220.5l42 220.5h135l-132 -689h-124l-28.5 61l-35.5 76.5l-39.5 83.5l-39 83.5l-34.5 75l-27 58.5l-90 -438h-136l132 689h125l28 -57.5l36 -75.5l39 -85.5l39 -86l35.5 -77l27.5 -59.5h4zM607 908l34 -52l-175 -124h-84l-122 123l52 51l129 -80z" />
    <glyph glyph-name="ncaron" unicode="&#x148;" horiz-adv-x="529" 
d="M317 0l59 305.003c2 8.66699 3 16.667 3 24c0 19.333 -5 32.666 -15 39.999s-22.667 11 -38 11c-16 0 -33.667 -3.33301 -53 -10s-43.333 -18.667 -72 -36l-65 -334h-127l97 494h116l2 -42c20.667 11.333 39.167 20.166 55.5 26.499s30.833 11.166 43.5 14.499
s24 5.5 34 6.5s19 1.5 27 1.5c45.333 0 78.333 -11 99 -33s31 -52.333 31 -91c0 -16 -2 -34 -6 -54l-62 -323h-129zM496 736.003l42 -46l-176 -153h-87l-118 154l57 45c6.66699 -5.33301 15.334 -12.833 26.001 -22.5l32.5 -30l32 -30
c10.333 -9.66699 19.166 -17.5 26.499 -23.5z" />
    <glyph glyph-name="napostrophe" unicode="&#x149;" horiz-adv-x="662" 
d="M450 0l59 305.003c2 8.66699 3 16.667 3 24c0 19.333 -5 32.666 -15 39.999s-22.667 11 -38 11c-16 0 -33.667 -3.33301 -53 -10s-43.333 -18.667 -72 -36l-65 -334h-127l97 494h116l2 -42c20.667 11.333 39.167 20.166 55.5 26.499s30.833 11.166 43.5 14.499
s24 5.5 34 6.5s19 1.5 27 1.5c45.333 0 78.333 -11 99 -33s31 -52.333 31 -91c0 -16 -2 -34 -6 -54l-62 -323h-129zM37 464.003c20.667 10 37.168 20.6689 49.501 32.002s21.166 24.666 26.499 39.999c-12 2.66699 -22.167 10 -30.5 22s-12.5 25.333 -12.5 40
c0 24 8.16699 44.667 24.5 62s37.833 26 64.5 26c22.667 0 40.834 -7.5 54.501 -22.5s20.5 -34.833 20.5 -59.5c0 -38.667 -14.833 -75.334 -44.5 -110.001s-69.834 -62.667 -120.501 -84z" />
    <glyph glyph-name="Eng" unicode="&#x14a;" horiz-adv-x="675" 
d="M237 434l-83.999 -434h-136l134 689h124l114 -236l92 -200h4l85 436h137l-151 -771c-8.66699 -42.667 -25.334 -72.667 -50.001 -90s-54 -26 -88 -26c-18.667 0 -37.167 2 -55.5 6s-35.166 9.66699 -50.499 17l36 100c15.333 -3.33301 27.666 -5 36.999 -5
c14 0 25.333 3.5 34 10.5s14.667 18.833 18 35.5l8 40l-122 254l-80 174h-6z" />
    <glyph glyph-name="eng" unicode="&#x14b;" horiz-adv-x="529" 
d="M430 -82c-8.66699 -42.667 -25.501 -72.666 -50.501 -89.999s-54.5 -26 -88.5 -26c-18 0 -36 2 -54 6s-35 9.66699 -51 17l35 100l20 -3.5c6 -1 11.667 -1.5 17 -1.5c14.667 0 26.334 3.5 35.001 10.5s14.667 18.833 18 35.5l65 339c2 8.66699 3 16.667 3 24
c0 19.333 -5 32.666 -15 39.999s-22.667 11 -38 11s-33 -3.5 -53 -10.5s-44 -18.167 -72 -33.5l-65 -336h-127l96 494h113l2 -43c41.333 22.667 75.5 36.667 102.5 42s48.833 8 65.5 8c44.667 0 77 -10.667 97 -32s30 -51 30 -89c0 -18 -2 -37 -6 -57l-79 -405v0z" />
    <glyph glyph-name="Omacron" unicode="&#x14c;" horiz-adv-x="635" 
d="M589 214c-14 -73.333 -44.834 -128.333 -92.501 -165s-111.5 -55 -191.5 -55c-30 0 -59.5 4.5 -88.5 13.5s-54.667 22.5 -77 40.5s-40.5 40.5 -54.5 67.5s-21 58.5 -21 94.5c0 18 2 37 6 57l40 208c6.66699 36.667 18.334 68.834 35.001 96.501s37 50.667 61 69
s51.333 32.166 82 41.499s63.667 14 99 14c31.333 0 62 -4.66699 92 -14s56.5 -22.833 79.5 -40.5s41.5 -39.667 55.5 -66s21 -56.5 21 -90.5c0 -7.33301 -0.5 -15 -1.5 -23s-2.16699 -16 -3.5 -24zM493.999 436c2 10 3.00098 19.332 3.00098 27.999
c0 18 -3.33301 33.5 -10 46.5s-15.334 24 -26.001 33s-22.667 15.667 -36 20s-27 6.5 -41 6.5c-35.333 0 -65.833 -9.5 -91.5 -28.5s-42.834 -51.167 -51.501 -96.5l-37 -192c-2 -12 -3 -23 -3 -33c0 -18 3.16699 -33.5 9.5 -46.5s14.833 -23.5 25.5 -31.5
s22.667 -13.833 36 -17.5s26.666 -5.5 39.999 -5.5c38.667 0 70.334 10.333 95.001 31s41.334 53.334 50.001 98.001zM276 760.999l20 105h312l-21 -105h-311z" />
    <glyph glyph-name="omacron" unicode="&#x14d;" horiz-adv-x="521" 
d="M473 174c-12 -61.333 -37.666 -106.497 -76.999 -135.497s-92.333 -43.5 -159 -43.5c-25.333 0 -49.666 3.66699 -72.999 11s-43.833 18.5 -61.5 33.5s-31.834 33.5 -42.501 55.5s-16 47.667 -16 77c0 7.33301 0.333008 14.666 1 21.999s1.66699 15 3 23l19 102
c11.333 61.333 36.666 107 75.999 137s90.333 45 153 45c30 0 57.5 -4.33301 82.5 -13s46.167 -20.834 63.5 -36.501s30.833 -34.334 40.5 -56.001s14.5 -45.834 14.5 -72.501c0 -15.333 -1.33301 -29.666 -4 -42.999zM367.001 281.003c2 8.66699 2.99902 17 2.99902 25
c0 26 -8.16699 45.5 -24.5 58.5s-35.166 19.5 -56.499 19.5c-23.333 0 -43.5 -6.5 -60.5 -19.5s-28.833 -35.5 -35.5 -67.5l-18 -89c-2 -9.33301 -3 -17.333 -3 -24c0 -13.333 2.5 -24.5 7.5 -33.5s11.333 -16.333 19 -22s16.167 -9.83398 25.5 -12.501s18.666 -4 27.999 -4
c25.333 0 46.333 6.33301 63 19s28.334 35.334 35.001 68.001zM173 585.003l21 104h312l-21 -104h-312z" />
    <glyph glyph-name="Obreve" unicode="&#x14e;" horiz-adv-x="635" 
d="M589 214c-14 -73.333 -44.834 -128.333 -92.501 -165s-111.5 -55 -191.5 -55c-30 0 -59.5 4.5 -88.5 13.5s-54.667 22.5 -77 40.5s-40.5 40.5 -54.5 67.5s-21 58.5 -21 94.5c0 18 2 37 6 57l40 208c6.66699 36.667 18.334 68.834 35.001 96.501s37 50.667 61 69
s51.333 32.166 82 41.499s63.667 14 99 14c31.333 0 62 -4.66699 92 -14s56.5 -22.833 79.5 -40.5s41.5 -39.667 55.5 -66s21 -56.5 21 -90.5c0 -7.33301 -0.5 -15 -1.5 -23s-2.16699 -16 -3.5 -24zM493.999 436c2 10 3.00098 19.332 3.00098 27.999
c0 18 -3.33301 33.5 -10 46.5s-15.334 24 -26.001 33s-22.667 15.667 -36 20s-27 6.5 -41 6.5c-35.333 0 -65.833 -9.5 -91.5 -28.5s-42.834 -51.167 -51.501 -96.5l-37 -192c-2 -12 -3 -23 -3 -33c0 -18 3.16699 -33.5 9.5 -46.5s14.833 -23.5 25.5 -31.5
s22.667 -13.833 36 -17.5s26.666 -5.5 39.999 -5.5c38.667 0 70.334 10.333 95.001 31s41.334 53.334 50.001 98.001zM420 733.999c-28 0 -50.668 5.16504 -68.001 15.498s-30.833 23 -40.5 38s-16 31.333 -19 49s-3.83301 33.834 -2.5 48.501h91
c-1.33301 -7.33301 -1.5 -14.833 -0.5 -22.5s3.5 -14.834 7.5 -21.501s9.16699 -12 15.5 -16s14.5 -6 24.5 -6c10.667 0 20.334 2.16699 29.001 6.5s16.167 9.83301 22.5 16.5s11.333 13.834 15 21.501s6.16699 14.834 7.5 21.501h92c-4 -15.333 -10 -31.833 -18 -49.5
s-18.833 -34 -32.5 -49s-30.667 -27.5 -51 -37.5s-44.5 -15 -72.5 -15z" />
    <glyph glyph-name="obreve" unicode="&#x14f;" horiz-adv-x="521" 
d="M473 174c-12 -61.333 -37.666 -106.497 -76.999 -135.497s-92.333 -43.5 -159 -43.5c-25.333 0 -49.666 3.66699 -72.999 11s-43.833 18.5 -61.5 33.5s-31.834 33.5 -42.501 55.5s-16 47.667 -16 77c0 7.33301 0.333008 14.666 1 21.999s1.66699 15 3 23l19 102
c11.333 61.333 36.666 107 75.999 137s90.333 45 153 45c30 0 57.5 -4.33301 82.5 -13s46.167 -20.834 63.5 -36.501s30.833 -34.334 40.5 -56.001s14.5 -45.834 14.5 -72.501c0 -15.333 -1.33301 -29.666 -4 -42.999zM367.001 281.003c2 8.66699 2.99902 17 2.99902 25
c0 26 -8.16699 45.5 -24.5 58.5s-35.166 19.5 -56.499 19.5c-23.333 0 -43.5 -6.5 -60.5 -19.5s-28.833 -35.5 -35.5 -67.5l-18 -89c-2 -9.33301 -3 -17.333 -3 -24c0 -13.333 2.5 -24.5 7.5 -33.5s11.333 -16.333 19 -22s16.167 -9.83398 25.5 -12.501s18.666 -4 27.999 -4
c25.333 0 46.333 6.33301 63 19s28.334 35.334 35.001 68.001zM328 564.003c-27.333 0 -49.835 4.83203 -67.502 14.499s-31.5 21.834 -41.5 36.501s-16.5 31 -19.5 49s-3.83301 35.667 -2.5 53h91c-1.33301 -6.66699 -1.5 -13.834 -0.5 -21.501s3.5 -15 7.5 -22
s9.33301 -12.833 16 -17.5s15.334 -7 26.001 -7c10 0 19.333 2.16699 28 6.5s16.167 10 22.5 17s11.5 14.333 15.5 22s6.66699 15.167 8 22.5h92c-3.33301 -15.333 -9.16602 -31.833 -17.499 -49.5s-19.5 -34.167 -33.5 -49.5s-31.167 -28.166 -51.5 -38.499
s-44.5 -15.5 -72.5 -15.5z" />
    <glyph glyph-name="Ohungarumlaut" unicode="&#x150;" horiz-adv-x="635" 
d="M589 214c-14 -73.333 -44.834 -128.333 -92.501 -165s-111.5 -55 -191.5 -55c-30 0 -59.5 4.5 -88.5 13.5s-54.667 22.5 -77 40.5s-40.5 40.5 -54.5 67.5s-21 58.5 -21 94.5c0 18 2 37 6 57l40 208c6.66699 36.667 18.334 68.834 35.001 96.501s37 50.667 61 69
s51.333 32.166 82 41.499s63.667 14 99 14c31.333 0 62 -4.66699 92 -14s56.5 -22.833 79.5 -40.5s41.5 -39.667 55.5 -66s21 -56.5 21 -90.5c0 -7.33301 -0.5 -15 -1.5 -23s-2.16699 -16 -3.5 -24zM493.999 436c2 10 3.00098 19.332 3.00098 27.999
c0 18 -3.33301 33.5 -10 46.5s-15.334 24 -26.001 33s-22.667 15.667 -36 20s-27 6.5 -41 6.5c-35.333 0 -65.833 -9.5 -91.5 -28.5s-42.834 -51.167 -51.501 -96.5l-37 -192c-2 -12 -3 -23 -3 -33c0 -18 3.16699 -33.5 9.5 -46.5s14.833 -23.5 25.5 -31.5
s22.667 -13.833 36 -17.5s26.666 -5.5 39.999 -5.5c38.667 0 70.334 10.333 95.001 31s41.334 53.334 50.001 98.001zM253 782.999l175 141l78 -83l-206 -113zM453 782.999l185 141l73 -83l-212 -113z" />
    <glyph glyph-name="ohungarumlaut" unicode="&#x151;" horiz-adv-x="521" 
d="M473 174c-12 -61.333 -37.666 -106.497 -76.999 -135.497s-92.333 -43.5 -159 -43.5c-25.333 0 -49.666 3.66699 -72.999 11s-43.833 18.5 -61.5 33.5s-31.834 33.5 -42.501 55.5s-16 47.667 -16 77c0 7.33301 0.333008 14.666 1 21.999s1.66699 15 3 23l19 102
c11.333 61.333 36.666 107 75.999 137s90.333 45 153 45c30 0 57.5 -4.33301 82.5 -13s46.167 -20.834 63.5 -36.501s30.833 -34.334 40.5 -56.001s14.5 -45.834 14.5 -72.501c0 -15.333 -1.33301 -29.666 -4 -42.999zM367.001 281.003c2 8.66699 2.99902 17 2.99902 25
c0 26 -8.16699 45.5 -24.5 58.5s-35.166 19.5 -56.499 19.5c-23.333 0 -43.5 -6.5 -60.5 -19.5s-28.833 -35.5 -35.5 -67.5l-18 -89c-2 -9.33301 -3 -17.333 -3 -24c0 -13.333 2.5 -24.5 7.5 -33.5s11.333 -16.333 19 -22s16.167 -9.83398 25.5 -12.501s18.666 -4 27.999 -4
c25.333 0 46.333 6.33301 63 19s28.334 35.334 35.001 68.001zM352 568.003l119 195l108 -37l-159 -185zM182 568.003l118 195l109 -37l-159 -185z" />
    <glyph glyph-name="OE" unicode="&#x152;" horiz-adv-x="908" 
d="M388 696c13.333 0 29.3291 -0.666016 47.9961 -1.99902s34 -3 46 -5h474l-24 -123h-337l-31 -158h288l-24 -123h-288l-32 -163h337l-23 -122h-467c-11.333 -2 -23.166 -3.33301 -35.499 -4s-24.5 -1 -36.5 -1c-34.667 0 -65.667 5.16699 -93 15.5
s-50.666 24.833 -69.999 43.5s-34.166 41 -44.499 67s-15.5 54.667 -15.5 86c0 19.333 2 39.666 6 60.999l40 207c14.667 74 46.334 129.333 95.001 166s111 55 187 55zM305.996 119.001c10 0 20.833 0.999023 32.5 2.99902s23.5 6.33301 35.5 13l81 416
c-9.33301 7.33301 -21.166 12.333 -35.499 15s-27.833 4 -40.5 4c-34 0 -64 -9.5 -90 -28.5s-43.333 -51.167 -52 -96.5l-38 -198c-2 -11.333 -3 -21.333 -3 -30c0 -17.333 3.16699 -32.166 9.5 -44.499s14.666 -22.5 24.999 -30.5s22 -13.833 35 -17.5s26.5 -5.5 40.5 -5.5
z" />
    <glyph glyph-name="oe" unicode="&#x153;" horiz-adv-x="818" 
d="M617 502c32 0 59.5049 -3.99805 82.5049 -11.998s41.833 -18.5 56.5 -31.5s25.5 -28 32.5 -45s10.5 -34.5 10.5 -52.5c0 -28 -6.83301 -52.167 -20.5 -72.5s-32.667 -37.333 -57 -51s-52.833 -23.667 -85.5 -30s-68 -9.5 -106 -9.5h-21
c-6.66699 0 -13.667 0.333008 -21 1c-0.666992 -3.33301 -1.16699 -7.33301 -1.5 -12s-0.5 -8.66699 -0.5 -12c0 -25.333 7.66699 -43.333 23 -54s35.666 -16 60.999 -16c14.667 0 31.667 3.5 51 10.5s39.666 19.167 60.999 36.5c2 -3.33301 6 -9.66602 12 -18.999l18.5 -30
c6.33301 -10.667 12.5 -20.5 18.5 -29.5s10.333 -15.167 13 -18.5c-37.333 -26.667 -73.333 -43.334 -108 -50.001s-67.334 -10 -98.001 -10c-28.667 0 -54.667 4.66699 -78 14s-42.333 23.666 -57 42.999c-22 -22 -47.833 -37 -77.5 -45s-61.834 -12 -96.501 -12
c-23.333 0 -46 3.66699 -68 11s-41.833 18.166 -59.5 32.499s-31.834 32 -42.501 53s-16 45.5 -16 73.5c0 6.66699 0.333008 13.334 1 20.001s1.66699 13.667 3 21l20 114c11.333 61.333 37 106.833 77 136.5s89.667 44.5 149 44.5c29.333 0 59 -5.33301 89 -16
s52.667 -26 68 -46c20.667 23.333 45.5 39.666 74.5 48.999s59.833 14 92.5 14zM367.005 287.002c0.666992 3.33301 1.16895 6.83301 1.50195 10.5s0.5 7.16699 0.5 10.5c0 25.333 -8.33301 44.166 -25 56.499s-35.334 18.5 -56.001 18.5c-23.333 0 -44 -6.33301 -62 -19
s-30 -35 -36 -67l-17 -94c-0.666992 -3.33301 -1.16699 -6.5 -1.5 -9.5s-0.5 -6.16699 -0.5 -9.5c0 -12.667 2.16699 -23.5 6.5 -32.5s10 -16.5 17 -22.5s15.167 -10.333 24.5 -13s18.666 -4 27.999 -4c25.333 0 47.333 6.33301 66 19s31 35.334 37 68.001zM616.007 389.002
c-29.333 0 -52.834 -8.83203 -70.501 -26.499s-30.5 -41.5 -38.5 -71.5c6.66699 -0.666992 13 -1 19 -1h17c26 0 47.333 1.83301 64 5.5s29.834 8.16699 39.501 13.5s16.167 11.5 19.5 18.5s5 13.5 5 19.5c0 11.333 -3.83301 21.166 -11.5 29.499s-22.167 12.5 -43.5 12.5z
" />
    <glyph glyph-name="Racute" unicode="&#x154;" horiz-adv-x="594" 
d="M449 689c29.333 0 54.6699 -5.00098 76.0029 -15.001s39 -23.333 53 -40s24.5 -35.667 31.5 -57s10.5 -43.333 10.5 -66c0 -19.333 -2.33301 -39.666 -7 -60.999s-12.834 -42.333 -24.501 -63s-27.334 -40.167 -47.001 -58.5s-44.5 -33.833 -74.5 -46.5
c2.66699 -12 7.16699 -31.167 13.5 -57.5l20.5 -83.5l20.5 -83.5c6.33301 -26.333 11.166 -45.5 14.499 -57.5h-147l-56 259h-127l-50 -259h-137l133 689h297zM230.004 382.999h139c35.333 0 63.5 10.5 84.5 31.5s31.5 47.167 31.5 78.5c0 21.333 -6.5 38.833 -19.5 52.5
s-33.167 20.5 -60.5 20.5h-139zM312.004 783.999l190 137l72 -86l-221 -108z" />
    <glyph glyph-name="racute" unicode="&#x155;" horiz-adv-x="376" 
d="M400 370c-44.667 -5.33301 -82.1689 -12.333 -112.502 -21s-58.166 -20 -83.499 -34l-61 -315h-127l96 496h116l-4 -72h1c10.667 8.66699 23.667 17.5 39 26.5s31.833 17.333 49.5 25s35.834 14 54.501 19s36.667 7.5 54 7.5zM197.998 568l118 195l109 -37l-160 -185z
" />
    <glyph glyph-name="Rcommaaccent" unicode="&#x156;" horiz-adv-x="594" 
d="M449 689c29.333 0 54.6699 -5.00098 76.0029 -15.001s39 -23.333 53 -40s24.5 -35.667 31.5 -57s10.5 -43.333 10.5 -66c0 -19.333 -2.33301 -39.666 -7 -60.999s-12.834 -42.333 -24.501 -63s-27.334 -40.167 -47.001 -58.5s-44.5 -33.833 -74.5 -46.5
c2.66699 -12 7.16699 -31.167 13.5 -57.5l20.5 -83.5l20.5 -83.5c6.33301 -26.333 11.166 -45.5 14.499 -57.5h-147l-56 259h-127l-50 -259h-137l133 689h297zM230.004 382.999h139c35.333 0 63.5 10.5 84.5 31.5s31.5 47.167 31.5 78.5c0 21.333 -6.5 38.833 -19.5 52.5
s-33.167 20.5 -60.5 20.5h-139zM146.004 -243.001c20.667 10 37.168 20.6689 49.501 32.002s21.166 24.666 26.499 39.999c-12 2.66699 -22.167 10 -30.5 22s-12.5 25.333 -12.5 40c0 24 8.16699 44.667 24.5 62s37.833 26 64.5 26c22.667 0 40.834 -7.5 54.501 -22.5
s20.5 -34.833 20.5 -59.5c0 -38.667 -14.833 -75.334 -44.5 -110.001s-69.834 -62.667 -120.501 -84z" />
    <glyph glyph-name="rcommaaccent" unicode="&#x157;" horiz-adv-x="376" 
d="M400 370c-44.667 -5.33301 -82.1689 -12.333 -112.502 -21s-58.166 -20 -83.499 -34l-61 -315h-127l96 496h116l-4 -72h1c10.667 8.66699 23.667 17.5 39 26.5s31.833 17.333 49.5 25s35.834 14 54.501 19s36.667 7.5 54 7.5zM-58.002 -263
c20.667 10 37.168 20.6689 49.501 32.002s21.166 24.666 26.499 39.999c-12 2.66699 -22.167 10 -30.5 22s-12.5 25.333 -12.5 40c0 24 8.16699 44.667 24.5 62s37.833 26 64.5 26c22.667 0 40.834 -7.5 54.501 -22.5s20.5 -34.833 20.5 -59.5
c0 -38.667 -14.833 -75.334 -44.5 -110.001s-69.834 -62.667 -120.501 -84z" />
    <glyph glyph-name="Rcaron" unicode="&#x158;" horiz-adv-x="594" 
d="M449 689c29.333 0 54.6699 -5.00098 76.0029 -15.001s39 -23.333 53 -40s24.5 -35.667 31.5 -57s10.5 -43.333 10.5 -66c0 -19.333 -2.33301 -39.666 -7 -60.999s-12.834 -42.333 -24.501 -63s-27.334 -40.167 -47.001 -58.5s-44.5 -33.833 -74.5 -46.5
c2.66699 -12 7.16699 -31.167 13.5 -57.5l20.5 -83.5l20.5 -83.5c6.33301 -26.333 11.166 -45.5 14.499 -57.5h-147l-56 259h-127l-50 -259h-137l133 689h297zM230.004 382.999h139c35.333 0 63.5 10.5 84.5 31.5s31.5 47.167 31.5 78.5c0 21.333 -6.5 38.833 -19.5 52.5
s-33.167 20.5 -60.5 20.5h-139zM562.004 907.999l34 -52l-175 -124h-84l-122 123l52 51l129 -80z" />
    <glyph glyph-name="rcaron" unicode="&#x159;" horiz-adv-x="376" 
d="M400 370c-44.667 -5.33301 -82.1689 -12.333 -112.502 -21s-58.166 -20 -83.499 -34l-61 -315h-127l96 496h116l-4 -72h1c10.667 8.66699 23.667 17.5 39 26.5s31.833 17.333 49.5 25s35.834 14 54.501 19s36.667 7.5 54 7.5zM431.998 736l42 -46l-176 -153h-87l-118 154
l57 45c6.66699 -5.33301 15.334 -12.833 26.001 -22.5l32.5 -30l32 -30c10.333 -9.66699 19.166 -17.5 26.499 -23.5z" />
    <glyph glyph-name="Sacute" unicode="&#x15a;" horiz-adv-x="583" 
d="M365 701c42 0 83.165 -3.99512 123.498 -11.9951s77.5 -24.667 111.5 -50l-67 -112c-26 19.333 -53.167 32.666 -81.5 39.999s-56.5 11 -84.5 11c-14 0 -28.333 -1.66699 -43 -5s-28 -8.5 -40 -15.5s-22 -16.167 -30 -27.5s-12 -25.333 -12 -42
c0 -12 3.16699 -22.333 9.5 -31s15.333 -16.167 27 -22.5s25.334 -12 41.001 -17s32.834 -9.83301 51.501 -14.5c66.667 -16.667 114.834 -39.334 144.501 -68.001s44.5 -67.334 44.5 -116.001c0 -34 -7.66699 -64.833 -23 -92.5s-36.333 -51.334 -63 -71.001
s-57.5 -34.667 -92.5 -45s-72.167 -15.5 -111.5 -15.5c-50 0 -97 7.16699 -141 21.5s-83 39.166 -117 74.499c1.33301 1.33301 6.33301 6.83301 15 16.5l28 32l27.5 32c8.33301 9.66699 13.5 15.5 15.5 17.5c24 -22.667 51.167 -39.667 81.5 -51s61.833 -17 94.5 -17
c24.667 0 45.667 2.83301 63 8.5s31.666 12.834 42.999 21.501s19.666 18.334 24.999 29.001s8 21 8 31c0 12 -3.5 22.167 -10.5 30.5s-16.667 15.833 -29 22.5s-26.833 12.667 -43.5 18s-34.667 10.666 -54 15.999c-23.333 6.66699 -45.666 14.5 -66.999 23.5
s-40 20.333 -56 34s-28.667 30.167 -38 49.5s-14 42.333 -14 69c0 36 7 68 21 96s33 51.667 57 71s52 34.166 84 44.499s66 15.5 102 15.5zM310.998 784.005l190 137l72 -86l-221 -108z" />
    </font>
</defs>
</svg>
