<?xml version="1.0" encoding="UTF-8"?>
<svg width="22px" height="18px" viewBox="0 0 22 18" version="1.1" xmlns="http://www.w3.org/2000/svg" xmlns:xlink="http://www.w3.org/1999/xlink">
    <!-- Generator: Sketch 45.2 (43514) - http://www.bohemiancoding.com/sketch -->
    <title>Combined Shape</title>
    <desc>Created with Sketch.</desc>
    <defs></defs>
    <g id="Page-1" stroke="none" stroke-width="1" fill="none" fill-rule="evenodd" stroke-linejoin="round">
        <g id="2_1_Personal-Page---Artist---DONE" transform="translate(-709.000000, -444.000000)" stroke="#999999" fill-rule="nonzero" stroke-width="1.5" fill="#999999">
            <g id="Music" transform="translate(410.000000, 371.000000)">
                <g id="Area" transform="translate(20.000000, 47.000000)">
                    <g id="Group-2-Copy-2" transform="translate(252.000000, 27.000000)">
                        <path d="M28,5.33333407 L28.1380262,5.33333407 L28.1380262,10.6666674 L28,10.6666674 L28,5.33333407 Z M30.4954118,6.22222238 L30.633438,6.22222238 L30.633438,9.77777805 L30.4954118,9.77777805 L30.4954118,6.22222238 Z M32.9908241,2.6666667 L33.1288503,2.6666667 L33.1288503,13.3333334 L32.9908241,13.3333334 L32.9908241,2.6666667 Z M35.4862363,0 L35.6242625,0 L35.6242625,16 L35.4862363,16 L35.4862363,0 Z M37.9816482,1.77777805 L38.1196744,1.77777805 L38.1196744,14.2222224 L37.9816482,14.2222224 L37.9816482,1.77777805 Z M40.4770593,3.55555641 L40.6150856,3.55555641 L40.6150856,12.4444454 L40.4770593,12.4444454 L40.4770593,3.55555641 Z M42.9724712,5.33333407 L43.1104974,5.33333407 L43.1104974,10.6666674 L42.9724712,10.6666674 L42.9724712,5.33333407 Z M45.4678835,4.44444436 L45.6059097,4.44444436 L45.6059097,11.5555554 L45.4678835,11.5555554 L45.4678835,4.44444436 Z M47.9632939,6.22222238 L48.1013201,6.22222238 L48.1013201,9.77777805 L47.9632939,9.77777805 L47.9632939,6.22222238 Z" id="Combined-Shape"></path>
                    </g>
                </g>
            </g>
        </g>
    </g>
</svg>