<?xml version="1.0" encoding="UTF-8"?>
<svg width="72px" height="65px" viewBox="0 0 72 65" version="1.1" xmlns="http://www.w3.org/2000/svg" xmlns:xlink="http://www.w3.org/1999/xlink">
    <!-- Generator: Sketch 46.2 (44496) - http://www.bohemiancoding.com/sketch -->
    <title>Shape</title>
    <desc>Created with Sketch.</desc>
    <defs>
        <filter x="-11.0%" y="-9.9%" width="122.1%" height="133.3%" filterUnits="objectBoundingBox" id="filter-1">
            <feOffset dx="0" dy="15" in="SourceAlpha" result="shadowOffsetOuter1"></feOffset>
            <feGaussianBlur stdDeviation="10" in="shadowOffsetOuter1" result="shadowBlurOuter1"></feGaussianBlur>
            <feColorMatrix values="0 0 0 0 0   0 0 0 0 0   0 0 0 0 0  0 0 0 0.3 0" type="matrix" in="shadowBlurOuter1" result="shadowMatrixOuter1"></feColorMatrix>
            <feMerge>
                <feMergeNode in="shadowMatrixOuter1"></feMergeNode>
                <feMergeNode in="SourceGraphic"></feMergeNode>
            </feMerge>
        </filter>
    </defs>
    <g id="Page-1" stroke="none" stroke-width="1" fill="none" fill-rule="evenodd">
        <g id="Error-save---DONE" filter="url(#filter-1)" transform="translate(-134.000000, -69.000000)">
            <rect id="Avatar_BG" fill="#FFFFFF" x="0" y="0" width="340" height="228" rx="4"></rect>
            <path d="M145,98 C145,111.75 156.25,123 170,123 C183.75,123 195,111.75 195,98 C195,84.25 183.75,73 170,73 C156.25,73 145,84.25 145,98 Z M149,98 C149,87 159,77 170,77 C181,77 191,87 191,98 C191,109 181,119 170,119 C159,119 149,109 149,98 Z" id="Shape" fill="#CFCFCF" transform="translate(170.000000, 98.000000) rotate(45.000000) translate(-170.000000, -98.000000) "></path>
        </g>
    </g>
</svg>