<?xml version="1.0" encoding="UTF-8"?>
<svg width="40px" height="55px" viewBox="0 0 40 55" version="1.1" xmlns="http://www.w3.org/2000/svg" xmlns:xlink="http://www.w3.org/1999/xlink">
    <!-- Generator: Sketch 45.2 (43514) - http://www.bohemiancoding.com/sketch -->
    <title>Group 9</title>
    <desc>Created with Sketch.</desc>
    <defs></defs>
    <g id="Page-1" stroke="none" stroke-width="1" fill="none" fill-rule="evenodd">
        <g id="1_9_create-artist" transform="translate(-460.000000, -326.000000)">
            <g id="Content" transform="translate(420.000000, 326.000000)">
                <g id="Icon" transform="translate(32.000000, 0.000000)">
                    <g id="Group-9" transform="translate(8.000000, 0.000000)">
                        <path d="M20,34.6363636 C24.7909091,34.6363636 28.4545455,30.9727273 28.4545455,26.1818182 L28.4545455,9.27272727 C28.4545455,4.48181818 24.7909091,0.818181818 20,0.818181818 C15.2090909,0.818181818 11.5454545,4.48181818 11.5454545,9.27272727 L11.5454545,26.1818182 C11.5454545,30.9727273 15.2090909,34.6363636 20,34.6363636 L20,34.6363636 Z" id="Shape" fill="#8C96AA"></path>
                        <path d="M34.9363636,26.1818182 C34.9363636,34.6363636 27.8909091,40.5545455 20,40.5545455 C12.1090909,40.5545455 5.06363636,34.6363636 5.06363636,26.1818182 L0.272727273,26.1818182 C0.272727273,35.7636364 7.88181818,43.6545455 17.1818182,45.0636364 L17.1818182,54.3636364 L22.8181818,54.3636364 L22.8181818,45.0636364 C32.1181818,43.6545455 39.7272727,35.7636364 39.7272727,26.1818182 L34.9363636,26.1818182 L34.9363636,26.1818182 Z" id="Path" fill="#DDE0E7"></path>
                    </g>
                </g>
            </g>
        </g>
    </g>
</svg>