<?xml version="1.0" encoding="UTF-8"?>
<svg width="57px" height="57px" viewBox="0 0 57 57" version="1.1" xmlns="http://www.w3.org/2000/svg" xmlns:xlink="http://www.w3.org/1999/xlink">
    <!-- Generator: Sketch 45.2 (43514) - http://www.bohemiancoding.com/sketch -->
    <title>Group 2</title>
    <desc>Created with Sketch.</desc>
    <defs></defs>
    <g id="Page-1" stroke="none" stroke-width="1" fill="none" fill-rule="evenodd">
        <g id="1_9_create-artist" transform="translate(-452.000000, -546.000000)" fill="#FF5400">
            <g id="Content" transform="translate(420.000000, 326.000000)">
                <g id="Icon" transform="translate(32.000000, 0.000000)">
                    <g id="Group-2" transform="translate(0.000000, 220.000000)">
                        <path d="M28.1818182,0 C12.6818182,0 0,12.6818182 0,28.1818182 C0,43.6818182 12.6818182,56.3636364 28.1818182,56.3636364 C43.6818182,56.3636364 56.3636364,43.6818182 56.3636364,28.1818182 C56.3636364,12.6818182 43.6818182,0 28.1818182,0 L28.1818182,0 Z M28.1818182,5.63636364 C36.6363636,5.63636364 43.6818182,10.1454545 47.6272727,16.9090909 L28.1818182,16.9090909 C22.8272727,16.9090909 18.0363636,20.8545455 17.1909091,25.9272727 L10.4272727,14.3727273 C14.6545455,9.01818182 20.8545455,5.63636364 28.1818182,5.63636364 L28.1818182,5.63636364 Z M36.6363636,28.1818182 C36.6363636,32.9727273 32.9727273,36.6363636 28.1818182,36.6363636 C23.3909091,36.6363636 19.7272727,32.9727273 19.7272727,28.1818182 C19.7272727,23.3909091 23.3909091,19.7272727 28.1818182,19.7272727 C32.9727273,19.7272727 36.6363636,23.3909091 36.6363636,28.1818182 L36.6363636,28.1818182 Z M5.63636364,28.1818182 C5.63636364,23.9545455 6.76363636,20.2909091 8.73636364,16.9090909 L18.6,33.8181818 C20.5727273,37.2 24.2363636,39.4545455 28.1818182,39.4545455 C29.5909091,39.4545455 30.7181818,39.1727273 31.8454545,38.8909091 L25.0818182,50.4454545 C14.0909091,49.0363636 5.63636364,39.4545455 5.63636364,28.1818182 L5.63636364,28.1818182 Z M28.1818182,50.7272727 L38.0454545,33.8181818 C38.8909091,32.1272727 39.7363636,30.1545455 39.7363636,28.1818182 C39.7363636,24.8 38.3272727,21.7 35.7909091,19.7272727 L49.3181818,19.7272727 C50.4454545,22.2636364 51.0090909,25.0818182 51.0090909,28.1818182 C50.7272727,40.5818182 40.5818182,50.7272727 28.1818182,50.7272727 L28.1818182,50.7272727 Z" id="Shape"></path>
                    </g>
                </g>
            </g>
        </g>
    </g>
</svg>