<?xml version="1.0" encoding="UTF-8"?>
<svg width="62px" height="40px" viewBox="0 0 62 40" version="1.1" xmlns="http://www.w3.org/2000/svg" xmlns:xlink="http://www.w3.org/1999/xlink">
    <!-- Generator: Sketch 45.2 (43514) - http://www.bohemiancoding.com/sketch -->
    <title>Group 8</title>
    <desc>Created with Sketch.</desc>
    <defs></defs>
    <g id="Page-1" stroke="none" stroke-width="1" fill="none" fill-rule="evenodd">
        <g id="1_9_create-artist" transform="translate(-609.000000, -335.000000)">
            <g id="Content" transform="translate(420.000000, 326.000000)">
                <g id="Icon" transform="translate(32.000000, 0.000000)">
                    <g id="Group-8" transform="translate(157.000000, 9.000000)">
                        <path d="M19.7272727,16.9090909 C24.5181818,16.9090909 28.1818182,13.2454545 28.1818182,8.45454545 C28.1818182,3.66363636 24.5181818,0 19.7272727,0 C14.9363636,0 11.2727273,3.66363636 11.2727273,8.45454545 C11.2727273,13.2454545 14.9363636,16.9090909 19.7272727,16.9090909 L19.7272727,16.9090909 Z M19.7272727,22.5454545 C13.2454545,22.5454545 0,25.9272727 0,32.4090909 L0,39.4545455 L39.4545455,39.4545455 L39.4545455,32.4090909 C39.4545455,25.9272727 26.2090909,22.5454545 19.7272727,22.5454545 L19.7272727,22.5454545 Z" id="Shape" fill="#8C96AA"></path>
                        <path d="M42.2727273,16.9090909 C47.0636364,16.9090909 50.7272727,13.2454545 50.7272727,8.45454545 C50.7272727,3.66363636 47.0636364,0 42.2727273,0 C37.4818182,0 33.8181818,3.66363636 33.8181818,8.45454545 C33.8181818,13.2454545 37.4818182,16.9090909 42.2727273,16.9090909 L42.2727273,16.9090909 Z" id="Path" fill="#DDE0E7"></path>
                        <path d="M42.2727273,22.5454545 C41.4272727,22.5454545 40.5818182,22.5454545 39.4545455,22.8272727 C42.8363636,25.0818182 45.0909091,28.4636364 45.0909091,32.4090909 L45.0909091,39.4545455 L62,39.4545455 L62,32.4090909 C62,25.9272727 48.7545455,22.5454545 42.2727273,22.5454545 L42.2727273,22.5454545 Z" id="Path" fill="#DDE0E7"></path>
                    </g>
                </g>
            </g>
        </g>
    </g>
</svg>