<?xml version="1.0" encoding="UTF-8"?>
<svg width="60px" height="57px" viewBox="0 0 60 57" version="1.1" xmlns="http://www.w3.org/2000/svg" xmlns:xlink="http://www.w3.org/1999/xlink">
    <!-- Generator: Sketch 45.2 (43514) - http://www.bohemiancoding.com/sketch -->
    <title>Group</title>
    <desc>Created with Sketch.</desc>
    <defs></defs>
    <g id="Page-1" stroke="none" stroke-width="1" fill="none" fill-rule="evenodd">
        <g id="1_9_create-artist" transform="translate(-610.000000, -546.000000)">
            <g id="Content" transform="translate(420.000000, 326.000000)">
                <g id="Icon" transform="translate(32.000000, 0.000000)">
                    <g id="Group" transform="translate(158.000000, 220.000000)">
                        <path d="M22.5454545,11.2727273 C22.5454545,5.07272727 17.4727273,0 11.2727273,0 C5.07272727,0 0,5.07272727 0,11.2727273 C0,17.4727273 5.07272727,22.5454545 11.2727273,22.5454545 C12.9636364,22.5454545 14.3727273,22.2636364 15.7818182,21.4181818 L22.5454545,28.1818182 L15.7818182,34.9454545 C14.3727273,34.1 12.9636364,33.8181818 11.2727273,33.8181818 C5.07272727,33.8181818 0,38.8909091 0,45.0909091 C0,51.2909091 5.07272727,56.3636364 11.2727273,56.3636364 C17.4727273,56.3636364 22.5454545,51.2909091 22.5454545,45.0909091 C22.5454545,43.4 22.2636364,41.9909091 21.4181818,40.5818182 L28.1818182,33.8181818 L47.9090909,53.5454545 L59.1818182,53.5454545 L21.4181818,15.7818182 C22.2636364,14.3727273 22.5454545,12.9636364 22.5454545,11.2727273 L22.5454545,11.2727273 Z M11.2727273,16.9090909 C8.17272727,16.9090909 5.63636364,14.3727273 5.63636364,11.2727273 C5.63636364,8.17272727 8.17272727,5.63636364 11.2727273,5.63636364 C14.3727273,5.63636364 16.9090909,8.17272727 16.9090909,11.2727273 C16.9090909,14.3727273 14.3727273,16.9090909 11.2727273,16.9090909 L11.2727273,16.9090909 Z M11.2727273,50.7272727 C8.17272727,50.7272727 5.63636364,48.1909091 5.63636364,45.0909091 C5.63636364,41.9909091 8.17272727,39.4545455 11.2727273,39.4545455 C14.3727273,39.4545455 16.9090909,41.9909091 16.9090909,45.0909091 C16.9090909,48.1909091 14.3727273,50.7272727 11.2727273,50.7272727 L11.2727273,50.7272727 Z M28.1818182,26.7727273 C29.0272727,26.7727273 29.5909091,27.3363636 29.5909091,28.1818182 C29.5909091,29.0272727 29.0272727,29.5909091 28.1818182,29.5909091 C27.3363636,29.5909091 26.7727273,29.0272727 26.7727273,28.1818182 C26.7727273,27.3363636 27.3363636,26.7727273 28.1818182,26.7727273 L28.1818182,26.7727273 Z" id="Shape" fill="#8C96AA"></path>
                        <polygon id="Path" fill="#DDE0E7" points="59.1818182 2.81818182 47.9090909 2.81818182 31 19.7272727 36.6363636 25.3636364"></polygon>
                    </g>
                </g>
            </g>
        </g>
    </g>
</svg>