<?xml version="1.0" encoding="UTF-8"?>
<svg width="57px" height="46px" viewBox="0 0 57 46" version="1.1" xmlns="http://www.w3.org/2000/svg" xmlns:xlink="http://www.w3.org/1999/xlink">
    <!-- Generator: Sketch 45.2 (43514) - http://www.bohemiancoding.com/sketch -->
    <title>Group 5</title>
    <desc>Created with Sketch.</desc>
    <defs></defs>
    <g id="Page-1" stroke="none" stroke-width="1" fill="none" fill-rule="evenodd">
        <g id="1_9_create-artist" transform="translate(-772.000000, -552.000000)" fill="#FF5400">
            <g id="Content" transform="translate(420.000000, 326.000000)">
                <g id="Icon" transform="translate(32.000000, 0.000000)">
                    <g id="Group-5" transform="translate(320.000000, 226.000000)">
                        <path d="M45.0909091,0 L50.7272727,11.2727273 L42.2727273,11.2727273 L36.6363636,0 L31,0 L36.6363636,11.2727273 L28.1818182,11.2727273 L22.5454545,0 L16.9090909,0 L22.5454545,11.2727273 L14.0909091,11.2727273 L8.45454545,0 L5.63636364,0 C2.53636364,0 0,2.53636364 0,5.63636364 L0,39.4545455 C0,42.5545455 2.53636364,45.0909091 5.63636364,45.0909091 L50.7272727,45.0909091 C53.8272727,45.0909091 56.3636364,42.5545455 56.3636364,39.4545455 L56.3636364,0 L45.0909091,0 L45.0909091,0 Z" id="Shape-Copy-2"></path>
                    </g>
                </g>
            </g>
        </g>
    </g>
</svg>