<?xml version="1.0" encoding="UTF-8"?>
<svg width="20px" height="20px" viewBox="0 0 20 20" version="1.1" xmlns="http://www.w3.org/2000/svg" xmlns:xlink="http://www.w3.org/1999/xlink">
    <!-- Generator: Sketch 45.2 (43514) - http://www.bohemiancoding.com/sketch -->
    <title>Shape Copy</title>
    <desc>Created with Sketch.</desc>
    <defs>
        <filter x="-7.2%" y="-24.2%" width="114.3%" height="171.7%" filterUnits="objectBoundingBox" id="filter-1">
            <feOffset dx="0" dy="5" in="SourceAlpha" result="shadowOffsetOuter1"></feOffset>
            <feGaussianBlur stdDeviation="5" in="shadowOffsetOuter1" result="shadowBlurOuter1"></feGaussianBlur>
            <feColorMatrix values="0 0 0 0 0   0 0 0 0 0   0 0 0 0 0  0 0 0 0.05 0" type="matrix" in="shadowBlurOuter1" result="shadowMatrixOuter1"></feColorMatrix>
            <feMerge>
                <feMergeNode in="shadowMatrixOuter1"></feMergeNode>
                <feMergeNode in="SourceGraphic"></feMergeNode>
            </feMerge>
        </filter>
        <rect id="path-2" x="0" y="0" width="300" height="60" rx="4"></rect>
        <filter x="-2.3%" y="-8.3%" width="104.7%" height="123.3%" filterUnits="objectBoundingBox" id="filter-3">
            <feOffset dx="0" dy="2" in="SourceAlpha" result="shadowOffsetOuter1"></feOffset>
            <feGaussianBlur stdDeviation="2" in="shadowOffsetOuter1" result="shadowBlurOuter1"></feGaussianBlur>
            <feColorMatrix values="0 0 0 0 0   0 0 0 0 0   0 0 0 0 0  0 0 0 0.5 0" type="matrix" in="shadowBlurOuter1"></feColorMatrix>
        </filter>
    </defs>
    <g id="Page-1" stroke="none" stroke-width="1" fill="none" fill-rule="evenodd">
        <g id="2_1_Personal-Page---Artist---DONE" transform="translate(-230.000000, -360.000000)">
            <g id="Login---DONE" filter="url(#filter-1)" transform="translate(90.000000, 340.000000)">
                <g id="Avatar_BG">
                    <use fill="black" fill-opacity="1" filter="url(#filter-3)" xlink:href="#path-2"></use>
                    <use fill="#FFFFFF" fill-rule="evenodd" xlink:href="#path-2"></use>
                </g>
                <path d="M142.222222,25.5555556 L142.222222,25.5555556 L142.222222,25.5555556 C142.222222,24.9419058 141.724761,24.4444444 141.111111,24.4444444 L141.111111,24.4444444 L141.111111,24.4444444 C140.497461,24.4444444 140,24.9419058 140,25.5555556 L140,25.5555556 L140,25.5555556 C140,26.1692053 140.497461,26.6666667 141.111111,26.6666667 L141.111111,26.6666667 L141.111111,26.6666667 C141.724761,26.6666667 142.222222,26.1692053 142.222222,25.5555556 Z M142.222222,30 L142.222222,30 L142.222222,30 C142.222222,29.3863503 141.724761,28.8888889 141.111111,28.8888889 L141.111111,28.8888889 L141.111111,28.8888889 C140.497461,28.8888889 140,29.3863503 140,30 L140,30 L140,30 C140,30.6136497 140.497461,31.1111111 141.111111,31.1111111 L141.111111,31.1111111 L141.111111,31.1111111 C141.724761,31.1111111 142.222222,30.6136497 142.222222,30 Z M142.222222,20.2222222 L142.222222,20 C141,20 140,21 140,22.2222222 L140.222222,22.2222222 L140.222222,22.2222222 C141.326792,22.2222222 142.222222,21.3267917 142.222222,20.2222222 Z M146.666667,38.8888889 L146.666667,38.8888889 L146.666667,38.8888889 C146.666667,38.2752392 146.169205,37.7777778 145.555556,37.7777778 L145.555556,37.7777778 L145.555556,37.7777778 C144.941906,37.7777778 144.444444,38.2752392 144.444444,38.8888889 L144.444444,38.8888889 L144.444444,38.8888889 C144.444444,39.5025386 144.941906,40 145.555556,40 L145.555556,40 L145.555556,40 C146.169205,40 146.666667,39.5025386 146.666667,38.8888889 Z M142.222222,34.4444444 L142.222222,34.4444444 L142.222222,34.4444444 C142.222222,33.8307947 141.724761,33.3333333 141.111111,33.3333333 L141.111111,33.3333333 L141.111111,33.3333333 C140.497461,33.3333333 140,33.8307947 140,34.4444444 L140,34.4444444 L140,34.4444444 C140,35.0580942 140.497461,35.5555556 141.111111,35.5555556 L141.111111,35.5555556 L141.111111,35.5555556 C141.724761,35.5555556 142.222222,35.0580942 142.222222,34.4444444 Z M140.222222,37.7777778 L140,37.7777778 C140,39 141,40 142.222222,40 L142.222222,39.7777778 L142.222222,39.7777778 C142.222222,38.6732083 141.326792,37.7777778 140.222222,37.7777778 Z M148.888889,22 L148.888889,24.6666667 L148.888889,24.6666667 C148.888889,25.7712362 149.784319,26.6666667 150.888889,26.6666667 L158,26.6666667 L158,26.6666667 C159.104569,26.6666667 160,25.7712362 160,24.6666667 L160,22.2222222 C160,21 159,20 157.777778,20 L150.888889,20 L150.888889,20 C149.784319,20 148.888889,20.8954305 148.888889,22 Z M160,34.4444444 L160,34.4444444 L160,34.4444444 C160,33.8307947 159.502539,33.3333333 158.888889,33.3333333 L158.888889,33.3333333 L158.888889,33.3333333 C158.275239,33.3333333 157.777778,33.8307947 157.777778,34.4444444 L157.777778,34.4444444 L157.777778,34.4444444 C157.777778,35.0580942 158.275239,35.5555556 158.888889,35.5555556 L158.888889,35.5555556 L158.888889,35.5555556 C159.502539,35.5555556 160,35.0580942 160,34.4444444 Z M146.666667,21.1111111 L146.666667,21.1111111 L146.666667,21.1111111 C146.666667,20.4974614 146.169205,20 145.555556,20 L145.555556,20 L145.555556,20 C144.941906,20 144.444444,20.4974614 144.444444,21.1111111 L144.444444,21.1111111 L144.444444,21.1111111 C144.444444,21.7247608 144.941906,22.2222222 145.555556,22.2222222 L145.555556,22.2222222 L145.555556,22.2222222 C146.169205,22.2222222 146.666667,21.7247608 146.666667,21.1111111 Z M160,37.7777778 L158.888889,37.7777778 L158.888889,37.7777778 C158.275239,37.7777778 157.777778,38.2752392 157.777778,38.8888889 L157.777778,38.8888889 L157.777778,38.8888889 C157.777778,39.2574105 158.076524,39.5561563 158.445045,39.5561563 C158.574356,39.5561563 158.70088,39.5185835 158.809233,39.4480072 C159.603087,38.9309847 160,38.3742269 160,37.7777778 Z M160,30 L160,30 L160,30 C160,29.3863503 159.502539,28.8888889 158.888889,28.8888889 L158.888889,28.8888889 L158.888889,28.8888889 C158.275239,28.8888889 157.777778,29.3863503 157.777778,30 L157.777778,30 L157.777778,30 C157.777778,30.6136497 158.275239,31.1111111 158.888889,31.1111111 L158.888889,31.1111111 L158.888889,31.1111111 C159.502539,31.1111111 160,30.6136497 160,30 Z M151.111111,38.8888889 L151.111111,38.8888889 L151.111111,38.8888889 C151.111111,38.2752392 150.61365,37.7777778 150,37.7777778 L150,37.7777778 L150,37.7777778 C149.38635,37.7777778 148.888889,38.2752392 148.888889,38.8888889 L148.888889,38.8888889 L148.888889,38.8888889 C148.888889,39.5025386 149.38635,40 150,40 L150,40 L150,40 C150.61365,40 151.111111,39.5025386 151.111111,38.8888889 Z M155.555556,38.8888889 L155.555556,38.8888889 L155.555556,38.8888889 C155.555556,38.2752392 155.058094,37.7777778 154.444444,37.7777778 L154.444444,37.7777778 L154.444444,37.7777778 C153.830795,37.7777778 153.333333,38.2752392 153.333333,38.8888889 L153.333333,38.8888889 L153.333333,38.8888889 C153.333333,39.5025386 153.830795,40 154.444444,40 L154.444444,40 L154.444444,40 C155.058094,40 155.555556,39.5025386 155.555556,38.8888889 Z" id="Shape-Copy" fill="#CFCFCF"></path>
            </g>
        </g>
    </g>
</svg>