<?xml version="1.0" encoding="UTF-8"?>
<svg width="12px" height="12px" viewBox="0 0 12 12" version="1.1" xmlns="http://www.w3.org/2000/svg" xmlns:xlink="http://www.w3.org/1999/xlink">
    <!-- Generator: Sketch 46.2 (44496) - http://www.bohemiancoding.com/sketch -->
    <title>Shape Copy 2</title>
    <desc>Created with Sketch.</desc>
    <defs></defs>
    <g id="Page-1" stroke="none" stroke-width="1" fill="none" fill-rule="evenodd">
        <g id="3_2_Add-Role" transform="translate(-110.000000, -838.000000)" fill="#999999">
            <g id="Artist-Information" transform="translate(90.000000, 470.000000)">
                <g id="Information" transform="translate(0.000000, 301.000000)">
                    <g id="Icon" transform="translate(20.000000, 18.000000)">
                        <path d="M10,56 L7,56 L7,59 L10,59 L10,56 L10,56 Z M8,49 L8,50 L4,50 L4,49 L2,49 L2,50 L1,50 C1,50 0.00219726563,49.8920288 0,51.4 L0,59.8 C0,60.46 0.6,61 1.33333333,61 L10.6666667,61 C11.4,61 12,60.46 12,59.8 L12.0028687,51 C12.0219727,50.0200195 11,50 11,50 L10,50 L10,49 L8.66666667,49 L8,49 Z M11,60 L1,60 L1,52 L11,52 L11,60 L11,60 Z" id="Shape-Copy-2"></path>
                    </g>
                </g>
            </g>
        </g>
    </g>
</svg>