<?xml version="1.0" encoding="UTF-8"?>
<svg width="88px" height="75px" viewBox="0 0 88 75" version="1.1" xmlns="http://www.w3.org/2000/svg" xmlns:xlink="http://www.w3.org/1999/xlink">
    <!-- Generator: Sketch 46.2 (44496) - http://www.bohemiancoding.com/sketch -->
    <title>Group 3</title>
    <desc>Created with Sketch.</desc>
    <defs>
        <path d="M56,69 L56,57 L56,57 C56,56.4477153 56.4477153,56 57,56 L64.3333333,56 L64.3333333,56 C64.8856181,56 65.3333333,56.4477153 65.3333333,57 L65.3333333,69 L65.3333333,69 C65.3333333,69.5522847 65.7810486,70 66.3333333,70 L76,70 L76,70 C76.5522847,70 77,69.5522847 77,69 L77,52.3333333 L77,52.3333333 C77,51.7810486 77.4477153,51.3333333 78,51.3333333 L81.3940418,51.3333333 L81.3940418,51.3333333 C81.9463265,51.3333333 82.3940418,50.8856181 82.3940418,50.3333333 C82.3940418,50.0498468 82.2737204,49.7796817 82.0630065,49.5900392 L61.3356314,30.9354016 L61.3356314,30.9354016 C60.9553264,30.5931271 60.3780069,30.5931271 59.9977019,30.9354016 L39.2703268,49.5900392 L39.2703268,49.5900392 C38.8598168,49.9594982 38.8265384,50.591788 39.1959974,51.0022981 C39.3856399,51.2130119 39.6558051,51.3333333 39.9392916,51.3333333 L43.3333333,51.3333333 L43.3333333,51.3333333 C43.8856181,51.3333333 44.3333333,51.7810486 44.3333333,52.3333333 L44.3333333,69 L44.3333333,69 C44.3333333,69.5522847 44.7810486,70 45.3333333,70 L55,70 L55,70 C55.5522847,70 56,69.5522847 56,69 Z" id="path-1"></path>
    </defs>
    <g id="Page-1" stroke="none" stroke-width="1" fill="none" fill-rule="evenodd">
        <g id="1_9_cabinet-documents" transform="translate(-170.000000, -378.000000)">
            <g id="Main" transform="translate(90.000000, 329.000000)">
                <g id="Group-2" transform="translate(80.000000, 49.000000)">
                    <g id="Group-3">
                        <path d="M7.58333333,0 C3.4125,0 0,3.15 0,7 L0,63 C0,66.85 3.4125,70 7.58333333,70 L53.0833333,70 C57.2541667,70 60.6666667,66.85 60.6666667,63 L60.6666667,21 L37.9166667,0 L7.58333333,0 L7.58333333,0 Z M34.125,24.5 L34.125,5.25 L54.9791667,24.5 L34.125,24.5 L34.125,24.5 Z" id="Shape" fill="#E5E5E5"></path>
                        <g id="Shape">
                            <use fill="#FF5400" fill-rule="evenodd" xlink:href="#path-1"></use>
                            <path stroke="#FFFFFF" stroke-width="5" d="M41.8333333,53.8333333 L39.9392916,53.8333333 C38.9470888,53.8333333 38.0015107,53.4122084 37.337762,52.6747099 C36.0446555,51.2379248 36.1611299,49.0249104 37.597915,47.7318038 L58.3252901,29.0771662 C59.6563575,27.8792056 61.6769758,27.8792056 63.0080432,29.0771662 L83.7354183,47.7318038 C84.4729168,48.3955525 84.8940418,49.3411306 84.8940418,50.3333333 C84.8940418,52.26633 83.3270384,53.8333333 81.3940418,53.8333333 L79.5,53.8333333 L79.5,69 C79.5,70.9329966 77.9329966,72.5 76,72.5 L66.3333333,72.5 C64.4003367,72.5 62.8333333,70.9329966 62.8333333,69 L62.8333333,58.5 L58.5,58.5 L58.5,69 C58.5,70.9329966 56.9329966,72.5 55,72.5 L45.3333333,72.5 C43.4003367,72.5 41.8333333,70.9329966 41.8333333,69 L41.8333333,53.8333333 Z"></path>
                        </g>
                    </g>
                </g>
            </g>
        </g>
    </g>
</svg>