<?xml version="1.0" encoding="UTF-8"?>
<svg width="84px" height="75px" viewBox="0 0 84 75" version="1.1" xmlns="http://www.w3.org/2000/svg" xmlns:xlink="http://www.w3.org/1999/xlink">
    <!-- Generator: Sketch 46.2 (44496) - http://www.bohemiancoding.com/sketch -->
    <title>Group 7</title>
    <desc>Created with Sketch.</desc>
    <defs>
        <path d="M60.4117647,32.6666667 C50.1882353,32.6666667 41.8235294,41.0666667 41.8235294,51.3333333 C41.8235294,61.6 50.1882353,70 60.4117647,70 C70.6352941,70 79,61.6 79,51.3333333 C79,41.0666667 70.6352941,32.6666667 60.4117647,32.6666667 L60.4117647,32.6666667 Z M60.4117647,38.2666667 C63.5717647,38.2666667 65.9882353,40.6933333 65.9882353,43.8666667 C65.9882353,47.04 63.5717647,49.4666667 60.4117647,49.4666667 C57.2517647,49.4666667 54.8352941,47.04 54.8352941,43.8666667 C54.8352941,40.6933333 57.2517647,38.2666667 60.4117647,38.2666667 L60.4117647,38.2666667 Z M60.4117647,64.7733333 C55.7647059,64.7733333 51.6752941,62.3466667 49.2588235,58.8 C49.2588235,55.0666667 56.6941176,53.0133333 60.4117647,53.0133333 C64.1294118,53.0133333 71.5647059,55.0666667 71.5647059,58.8 C69.1482353,62.3466667 65.0588235,64.7733333 60.4117647,64.7733333 L60.4117647,64.7733333 Z" id="path-1"></path>
    </defs>
    <g id="Page-1" stroke="none" stroke-width="1" fill="none" fill-rule="evenodd">
        <g id="1_9_cabinet-documents" transform="translate(-650.000000, -378.000000)">
            <g id="Main" transform="translate(90.000000, 329.000000)">
                <g id="Group-2" transform="translate(80.000000, 49.000000)">
                    <g id="Group-7" transform="translate(480.000000, 0.000000)">
                        <path d="M0,7 L0,63 C0,66.85 3.39816176,70 7.55147059,70 L52.8602941,70 C57.0136029,70 51.1176471,66.85 51.1176471,63 L60.4117647,21 L37.7573529,0 L7.55147059,0 C3.39816176,0 0,3.15 0,7 Z M33.9816176,5.25 L54.7481618,24.5 L33.9816176,24.5 L33.9816176,5.25 Z" id="Shape-Copy-6" fill="#E5E5E5"></path>
                        <g id="Shape">
                            <use fill="#999999" fill-rule="evenodd" xlink:href="#path-1"></use>
                            <path stroke="#FFFFFF" stroke-width="5" d="M60.4117647,30.1666667 C72.0183679,30.1666667 81.5,39.6883057 81.5,51.3333333 C81.5,62.978361 72.0183679,72.5 60.4117647,72.5 C48.8051615,72.5 39.3235294,62.978361 39.3235294,51.3333333 C39.3235294,39.6883057 48.8051615,30.1666667 60.4117647,30.1666667 Z M60.4117647,40.7666667 C58.6348385,40.7666667 57.3352941,42.0716943 57.3352941,43.8666667 C57.3352941,45.661639 58.6348385,46.9666667 60.4117647,46.9666667 C62.188691,46.9666667 63.4882353,45.661639 63.4882353,43.8666667 C63.4882353,42.0716943 62.188691,40.7666667 60.4117647,40.7666667 Z M68.8087654,58.3032283 C68.4340667,57.8765135 67.643809,57.3302096 66.4108028,56.8101619 C64.5310662,56.0173414 62.0799738,55.5133333 60.4117647,55.5133333 C58.7435556,55.5133333 56.2924632,56.0173414 54.4127266,56.8101619 C53.1797204,57.3302096 52.3894627,57.8765135 52.014764,58.3032283 C54.0929747,60.7784277 57.1482731,62.2733333 60.4117647,62.2733333 C63.6752563,62.2733333 66.7305548,60.7784277 68.8087654,58.3032283 Z"></path>
                        </g>
                    </g>
                </g>
            </g>
        </g>
    </g>
</svg>