<?xml version="1.0" encoding="UTF-8"?>
<svg width="30px" height="30px" viewBox="0 0 30 30" version="1.1" xmlns="http://www.w3.org/2000/svg" xmlns:xlink="http://www.w3.org/1999/xlink">
    <!-- Generator: Sketch 46.2 (44496) - http://www.bohemiancoding.com/sketch -->
    <title>1499300640_46-facebook</title>
    <desc>Created with Sketch.</desc>
    <defs></defs>
    <g id="Page-1" stroke="none" stroke-width="1" fill="none" fill-rule="evenodd">
        <g id="1_1_Login" transform="translate(-1000.000000, -661.000000)">
            <g id="Social" transform="translate(800.000000, 661.000000)">
                <rect id="Rectangle-2-Copy-2" fill="#FFFFFF" x="206" y="5" width="19" height="19"></rect>
                <g id="1499300640_46-facebook" transform="translate(200.000000, 0.000000)" fill-rule="nonzero" fill="#4C66A4">
                    <path d="M15.2082,0.0942 C7.0482,0.0942 0.4332,6.7104 0.4332,14.8692 C0.4332,23.0292 7.0482,29.643 15.2082,29.643 C23.3682,29.643 29.9832,23.0292 29.9832,14.8692 C29.9832,6.7104 23.3676,0.0942 15.2082,0.0942 Z M19.1184,14.8074 L16.56,14.8074 C16.56,18.8958 16.56,23.9316 16.56,23.9316 L12.768,23.9316 C12.768,23.9316 12.768,18.9474 12.768,14.8074 L10.9644,14.8074 L10.9644,11.586 L12.768,11.586 L12.768,9.4986 C12.768,8.0046 13.4772,5.6724 16.5954,5.6724 L19.4034,5.6832 L19.4034,8.8122 C19.4034,8.8122 17.6958,8.8122 17.3646,8.8122 C17.0316,8.8122 16.5606,8.9784 16.5606,9.6888 L16.5606,11.5866 L19.4514,11.5866 L19.1184,14.8074 Z" id="Shape"></path>
                </g>
            </g>
        </g>
    </g>
</svg>