<svg xmlns="http://www.w3.org/2000/svg" width="35" height="32" viewBox="0 0 35 32">
    <g fill="none" fill-rule="evenodd">
        <path fill="#E5E5E5" d="M27 14.099h-6.143a4 4 0 0 0-4 4v11.436c0 .36.048.71.137 1.042H4.25c-1.788 0-3.25-1.33-3.25-2.957V3.958C1 2.33 2.462 1 4.25 1h13L27 9.873V14.1zm-11.375-2.747h8.938l-8.938-8.134v8.134z"/>
        <path fill="#4A90E2" d="M32.115 24.501c0-.207.07-.415.07-.691 0-.277 0-.485-.07-.692l1.482-1.176c.142-.138.142-.276.071-.414l-1.412-2.42c-.07-.07-.212-.139-.424-.07l-1.765.692c-.353-.277-.777-.484-1.2-.692l-.283-1.798c.07-.207-.141-.345-.282-.345h-2.825c-.141 0-.353.138-.353.276l-.282 1.867c-.424.138-.777.415-1.2.692l-1.696-.692c-.211-.069-.353 0-.494.138l-1.412 2.42c-.07.07 0 .277.141.416l1.483 1.106c0 .207-.07.415-.07.692 0 .276 0 .484.07.691l-1.483 1.176c-.141.138-.141.276-.07.414l1.412 2.42c.07.07.212.139.423.07l1.766-.692c.353.277.776.484 1.2.692l.283 1.798c0 .138.14.276.353.276h2.824c.141 0 .353-.138.353-.276l.283-1.798c.423-.208.847-.415 1.2-.692l1.765.692c.142.069.353 0 .424-.138l1.412-2.42c.07-.139.07-.346-.07-.416l-1.624-1.106zm-5.226 1.729c-1.341 0-2.471-1.107-2.471-2.42 0-1.314 1.13-2.42 2.471-2.42 1.342 0 2.472 1.106 2.472 2.42 0 1.313-1.13 2.42-2.472 2.42z"/>
    </g>
</svg>
