<svg xmlns="http://www.w3.org/2000/svg" width="35" height="33" viewBox="0 0 35 33">
    <g fill="none" fill-rule="evenodd">
        <path fill="#E5E5E5" d="M27 14.286h-6.143a4 4 0 0 0-4 4V30c0 .345.044.68.126 1H4.25C2.463 31 1 29.65 1 28V4c0-1.65 1.463-3 3.25-3h13L27 10v4.286zM15.625 11.5h8.938l-8.938-8.25v8.25z"/>
        <path fill="#00B700" d="M33.911 29.528V18.672c0-.853-.695-1.55-1.544-1.55h-10.81c-.85 0-1.545.697-1.545 1.55v10.856c0 .853.695 1.551 1.544 1.551h10.81c.85 0 1.545-.698 1.545-1.55zm-9.652-4.265l1.93 2.327 2.703-3.49 3.475 4.653h-10.81l2.702-3.49z"/>
    </g>
</svg>
