<svg xmlns="http://www.w3.org/2000/svg" width="37" height="32" viewBox="0 0 37 32">
    <g fill="none" fill-rule="evenodd">
        <path fill="#E5E5E5" d="M27.214 14.286h-6.226a4 4 0 0 0-4 4V30c0 .345.043.68.126 1H4.277C2.475 31 1 29.65 1 28V4c0-1.65 1.475-3 3.277-3h13.107l9.83 9v4.286zM15.745 11.5h9.011l-9.01-8.25v8.25z"/>
        <path fill="#FF5400" d="M25.32 29.83v-3.234a1 1 0 0 1 1-1h1.518a1 1 0 0 1 1 1v3.234a1 1 0 0 0 1 1h2.398a1 1 0 0 0 1-1V24.85a1 1 0 0 1 1-1h.32a.503.503 0 0 0 .334-.878l-7.145-6.379a1 1 0 0 0-1.332 0l-7.145 6.379a.503.503 0 0 0 .335.878h.32a1 1 0 0 1 1 1v4.979a1 1 0 0 0 1 1h2.397a1 1 0 0 0 1-1z"/>
    </g>
</svg>
