<svg xmlns="http://www.w3.org/2000/svg" width="35" height="32" viewBox="0 0 35 32">
    <g fill="none" fill-rule="evenodd">
        <path fill="#E5E5E5" d="M27 14.099h-6.143a4 4 0 0 0-4 4v11.436c0 .36.048.71.137 1.042H4.25c-1.788 0-3.25-1.33-3.25-2.957V3.958C1 2.33 2.462 1 4.25 1h13L27 9.873V14.1zm-11.375-2.747h8.938l-8.938-8.134v8.134z"/>
        <path fill="#999" d="M26.962 16.895c-3.823 0-6.95 3.096-6.95 6.88s3.127 6.88 6.95 6.88c3.822 0 6.949-3.096 6.949-6.88s-3.127-6.88-6.95-6.88zm0 2.064c1.181 0 2.084.894 2.084 2.064s-.903 2.064-2.084 2.064c-1.182 0-2.085-.895-2.085-2.064 0-1.17.903-2.064 2.085-2.064zm0 9.77a5.084 5.084 0 0 1-4.17-2.202c0-1.376 2.78-2.133 4.17-2.133 1.39 0 4.17.757 4.17 2.133a5.084 5.084 0 0 1-4.17 2.202z"/>
    </g>
</svg>
