<?xml version="1.0" encoding="UTF-8"?>
<svg width="38px" height="32px" viewBox="0 0 38 32" version="1.1" xmlns="http://www.w3.org/2000/svg" xmlns:xlink="http://www.w3.org/1999/xlink">
    <!-- Generator: Sketch 46.2 (44496) - http://www.bohemiancoding.com/sketch -->
    <title>Group</title>
    <desc>Created with Sketch.</desc>
    <defs>
        <rect id="path-1" x="0" y="0" width="300" height="311" rx="4"></rect>
        <path d="M24,29 L24,25 L24,25 C24,24.4477153 24.4477153,24 25,24 L27,24 L27,24 C27.5522847,24 28,24.4477153 28,25 L28,29 L28,29 C28,29.5522847 28.4477153,30 29,30 L32,30 L32,30 C32.5522847,30 33,29.5522847 33,29 L33,23 L33,23 C33,22.4477153 33.4477153,22 34,22 L34.5,22 L34.5,22 C34.8178973,22 35.075604,21.7422933 35.075604,21.424396 C35.075604,21.26122 35.0063465,21.1057119 34.8850588,20.9965529 L26.6689647,13.6020683 L26.6689647,13.6020683 C26.2886598,13.2597938 25.7113402,13.2597938 25.3310353,13.6020683 L17.1149412,20.9965529 L17.1149412,20.9965529 C16.87865,21.209215 16.8594948,21.5731636 17.0721569,21.8094548 C17.1813159,21.9307425 17.336824,22 17.5,22 L18,22 L18,22 C18.5522847,22 19,22.4477153 19,23 L19,29 L19,29 C19,29.5522847 19.4477153,30 20,30 L23,30 L23,30 C23.5522847,30 24,29.5522847 24,29 Z" id="path-2"></path>
    </defs>
    <g id="Page-1" stroke="none" stroke-width="1" fill="none" fill-rule="evenodd">
        <g id="2_5_Artist-Page" transform="translate(-1070.000000, -600.000000)">
            <rect id="BG" fill="#FFFFFF" x="0" y="60" width="1440" height="1100"></rect>
            <g id="rider" transform="translate(1050.000000, 553.000000)">
                <g id="Avatar_BG-Copy-2">
                    <use fill="#FFFFFF" fill-rule="evenodd" xlink:href="#path-1"></use>
                    <rect stroke="#F2F2F2" stroke-width="1" x="0.5" y="0.5" width="299" height="310" rx="4"></rect>
                </g>
            </g>
            <g id="Group" transform="translate(1070.000000, 600.000000)">
                <path d="M3.25,0 C1.4625,0 0,1.35 0,3 L0,27 C0,28.65 1.4625,30 3.25,30 L22.75,30 C24.5375,30 26,28.65 26,27 L26,9 L16.25,0 L3.25,0 L3.25,0 Z M14.625,10.5 L14.625,2.25 L23.5625,10.5 L14.625,10.5 L14.625,10.5 Z" id="Shape" fill="#E5E5E5"></path>
                <g id="Shape">
                    <use fill="#FF5400" fill-rule="evenodd" xlink:href="#path-2"></use>
                    <path stroke="#FFFFFF" stroke-width="2" d="M25,29 C25,30.1045695 24.1045695,31 23,31 L20,31 C18.8954305,31 18,30.1045695 18,29 L18,23 L17.5,23 C17.0533375,23 16.6276642,22.8104211 16.3288628,22.4784195 C15.7467417,21.8316183 15.7991753,20.8353799 16.4459765,20.2532588 L24.6620705,12.8587741 C25.4226805,12.1742252 26.5773195,12.1742252 27.3379295,12.8587741 L35.5540235,20.2532588 C35.8860251,20.5520602 36.075604,20.9777335 36.075604,21.424396 C36.075604,22.2945781 35.3701821,23 34.5,23 L34,23 L34,29 C34,30.1045695 33.1045695,31 32,31 L29,31 C27.8954305,31 27,30.1045695 27,29 L27,25 L25,25 L25,29 Z"></path>
                </g>
            </g>
        </g>
    </g>
</svg>