<?xml version="1.0" encoding="UTF-8"?>
<svg width="30px" height="30px" viewBox="0 0 30 30" version="1.1" xmlns="http://www.w3.org/2000/svg" xmlns:xlink="http://www.w3.org/1999/xlink">
    <!-- Generator: Sketch 46.2 (44496) - http://www.bohemiancoding.com/sketch -->
    <title>1499300691_38-instagram</title>
    <desc>Created with Sketch.</desc>
    <defs>
        <linearGradient x1="15.2732029%" y1="13.6067708%" x2="86.4501421%" y2="86.8125688%" id="linearGradient-1">
            <stop stop-color="#5539D9" offset="0%"></stop>
            <stop stop-color="#DF1D63" offset="50.3069196%"></stop>
            <stop stop-color="#FFC147" offset="100%"></stop>
        </linearGradient>
    </defs>
    <g id="Page-1" stroke="none" stroke-width="1" fill="none" fill-rule="evenodd">
        <g id="1_1_Login" transform="translate(-840.000000, -661.000000)">
            <g id="Social" transform="translate(800.000000, 661.000000)">
                <rect id="Rectangle-2" fill="#FFFFFF" x="46" y="6" width="19" height="19"></rect>
                <g id="1499300691_38-instagram" transform="translate(40.000000, 0.000000)" fill-rule="nonzero" fill="url(#linearGradient-1)">
                    <circle id="Oval" cx="15.06" cy="15" r="2.64"></circle>
                    <path d="M18.36,8.52 L11.76,8.52 C10.8,8.52 9.96,8.82 9.42,9.36 C8.88,9.9 8.58,10.74 8.58,11.7 L8.58,18.3 C8.58,19.26 8.88,20.1 9.48,20.7 C10.08,21.24 10.86,21.54 11.82,21.54 L18.36,21.54 C19.32,21.54 20.16,21.24 20.7,20.7 C21.3,20.16 21.6,19.32 21.6,18.36 L21.6,11.76 C21.6,10.8 21.3,10.02 20.76,9.42 C20.16,8.82 19.38,8.52 18.36,8.52 Z M15.06,19.08 C12.78,19.08 10.98,17.22 10.98,15 C10.98,12.72 12.84,10.92 15.06,10.92 C17.28,10.92 19.2,12.72 19.2,15 C19.2,17.28 17.34,19.08 15.06,19.08 Z M19.32,11.7 C18.78,11.7 18.36,11.28 18.36,10.74 C18.36,10.2 18.78,9.78 19.32,9.78 C19.86,9.78 20.28,10.2 20.28,10.74 C20.28,11.28 19.86,11.7 19.32,11.7 Z" id="Shape"></path>
                    <path d="M15.18,0.12 C7.02,0.12 0.42,6.72 0.42,14.88 C0.42,23.04 7.02,29.64 15.18,29.64 C23.34,29.64 29.94,23.04 29.94,14.88 C30,6.72 23.34,0.12 15.18,0.12 Z M23.04,18.36 C23.04,19.74 22.56,20.94 21.72,21.78 C20.88,22.62 19.68,23.04 18.36,23.04 L11.82,23.04 C10.5,23.04 9.3,22.62 8.46,21.78 C7.56,20.94 7.14,19.74 7.14,18.36 L7.14,11.76 C7.14,9 9,7.08 11.82,7.08 L18.42,7.08 C19.8,7.08 20.94,7.56 21.78,8.4 C22.62,9.24 23.04,10.38 23.04,11.76 L23.04,18.36 Z" id="Shape"></path>
                </g>
            </g>
        </g>
    </g>
</svg>