<svg xmlns="http://www.w3.org/2000/svg" width="30" height="20" viewBox="0 0 30 20">
    <g fill="#E5E5E5" fill-rule="nonzero">
        <path d="M1.573 1.2l11.49 8.286c.521.375 1.24.542 1.937.51.697.03 1.415-.135 1.936-.51L28.426 1.2C29.347.54 29.137 0 27.97 0H2.03C.864 0 .656.54 1.574 1.2z"/>
        <path d="M28.406 2.939l-11.809 8.72c-.441.324-1.02.481-1.597.475-.577.006-1.156-.152-1.597-.475L1.593 2.94C.718 2.293 0 2.639 0 3.709v14.31c0 1.07.9 1.944 2 1.944h26c1.1 0 2-.876 2-1.945V3.71c.001-1.07-.716-1.416-1.594-.77z"/>
    </g>
</svg>
