<?xml version="1.0" encoding="UTF-8"?>
<svg width="10px" height="15px" viewBox="0 0 10 15" version="1.1" xmlns="http://www.w3.org/2000/svg" xmlns:xlink="http://www.w3.org/1999/xlink">
    <!-- Generator: Sketch 45.2 (43514) - http://www.bohemiancoding.com/sketch -->
    <title>Shape</title>
    <desc>Created with Sketch.</desc>
    <defs></defs>
    <g id="Page-1" stroke="none" stroke-width="1" fill="none" fill-rule="evenodd">
        <g id="5_2_Event-Page---DONE" transform="translate(-111.000000, -739.000000)" fill="#4A90E2">
            <g id="Artist-Information" transform="translate(90.000000, 420.000000)">
                <g id="Information" transform="translate(0.000000, 301.000000)">
                    <g id="Icon" transform="translate(20.000000, 18.000000)">
                        <path d="M6,0 C3.21428571,0 1,2.21428571 1,5 C1,8.71428571 6,14.2857143 6,14.2857143 C6,14.2857143 11,8.71428571 11,5 C11,2.21428571 8.78571429,0 6,0 L6,0 Z M6,6.78571429 C5,6.78571429 4.21428571,6 4.21428571,5 C4.21428571,4 5,3.21428571 6,3.21428571 C7,3.21428571 7.78571429,4 7.78571429,5 C7.78571429,6 7,6.78571429 6,6.78571429 L6,6.78571429 Z" id="Shape"></path>
                    </g>
                </g>
            </g>
        </g>
    </g>
</svg>