<?xml version="1.0" encoding="UTF-8"?>
<svg width="42px" height="27px" viewBox="0 0 42 27" version="1.1" xmlns="http://www.w3.org/2000/svg" xmlns:xlink="http://www.w3.org/1999/xlink">
    <!-- Generator: Sketch 46.2 (44496) - http://www.bohemiancoding.com/sketch -->
    <title>Shape</title>
    <desc>Created with Sketch.</desc>
    <defs>
        <filter x="-11.0%" y="-3.1%" width="122.1%" height="110.0%" filterUnits="objectBoundingBox" id="filter-1">
            <feOffset dx="0" dy="15" in="SourceAlpha" result="shadowOffsetOuter1"></feOffset>
            <feGaussianBlur stdDeviation="10" in="shadowOffsetOuter1" result="shadowBlurOuter1"></feGaussianBlur>
            <feColorMatrix values="0 0 0 0 0   0 0 0 0 0   0 0 0 0 0  0 0 0 0.3 0" type="matrix" in="shadowBlurOuter1" result="shadowMatrixOuter1"></feColorMatrix>
            <feMerge>
                <feMergeNode in="shadowMatrixOuter1"></feMergeNode>
                <feMergeNode in="SourceGraphic"></feMergeNode>
            </feMerge>
        </filter>
    </defs>
    <g id="Page-1" stroke="none" stroke-width="1" fill="none" fill-rule="evenodd">
        <g id="Messages---DONE" filter="url(#filter-1)" transform="translate(-19.000000, -180.000000)" fill-rule="nonzero" fill="#333333">
            <g id="Group-3" transform="translate(0.000000, 20.000000)">
                <g id="Group-7" transform="translate(0.000000, 63.000000)">
                    <path d="M60.5656818,123.356909 C60.5881136,123.287705 60.6033864,123.214682 60.6033864,123.137841 L60.6033864,97.7817727 C60.6033864,97.7044545 60.5881136,97.6309545 60.5652045,97.5612727 C60.5618636,97.5517273 60.5599545,97.5421818 60.5561364,97.5326364 C60.5255909,97.4510227 60.4807273,97.3775227 60.4244091,97.3130909 C60.4205909,97.3087955 60.4201136,97.3035455 60.4162955,97.29925 C60.4139091,97.2968636 60.4110455,97.2959091 60.4086591,97.2935227 C60.3485227,97.2295682 60.2774091,97.1780227 60.1977045,97.1393636 C60.1915,97.1365 60.1867273,97.1326818 60.1805227,97.1298182 C60.1051136,97.0959318 60.0230227,97.0768409 59.9366364,97.0711136 C59.9280455,97.0706364 59.9199318,97.0687273 59.9113409,97.0687273 C59.9032273,97.06825 59.8960682,97.0663409 59.8879545,97.0663409 L20.1764773,97.0663409 C20.1683636,97.0663409 20.1607273,97.06825 20.1526136,97.0687273 C20.1449773,97.0692045 20.1373409,97.0706364 20.1297045,97.0711136 C20.0423636,97.0768409 19.9588409,97.0964091 19.8824773,97.1307727 C19.8777045,97.1326818 19.8738864,97.1360227 19.8691136,97.1379318 C19.7879773,97.1765909 19.7159091,97.2290909 19.6552955,97.294 C19.6529091,97.2963864 19.6500455,97.2968636 19.6476591,97.29925 C19.6438409,97.3030682 19.6433636,97.3083182 19.6395455,97.3126136 C19.5832273,97.3770455 19.5378864,97.4510227 19.5073409,97.5326364 C19.5035227,97.5421818 19.5016136,97.5517273 19.4982727,97.56175 C19.4753636,97.6314318 19.4600909,97.7049318 19.4600909,97.78225 L19.4600909,123.138795 C19.4600909,123.217068 19.4758409,123.291523 19.4992273,123.362159 C19.5025682,123.371705 19.5044773,123.380773 19.5078182,123.390318 C19.5388409,123.472409 19.5846591,123.546386 19.6414545,123.610818 C19.6447955,123.614636 19.64575,123.619409 19.6490909,123.623227 C19.6519545,123.626568 19.6557727,123.628477 19.6591136,123.631818 C19.6825,123.656159 19.7082727,123.677636 19.735,123.698636 C19.7469318,123.707705 19.7574318,123.718682 19.7698409,123.727273 C19.8013409,123.749227 19.8352273,123.766886 19.8700682,123.783114 C19.8786591,123.786932 19.8862955,123.793136 19.8948864,123.796477 C19.9812727,123.833227 20.07625,123.854227 20.176,123.854227 L59.887,123.854227 C59.98675,123.854227 60.0817273,123.833705 60.1681136,123.796477 C60.1814773,123.79075 60.1938864,123.782159 60.2067727,123.775477 C60.2363636,123.760682 60.2659545,123.745409 60.2931591,123.726795 C60.3074773,123.716773 60.3203636,123.703886 60.3342045,123.692909 C60.3585455,123.673341 60.3824091,123.653773 60.4034091,123.631341 C60.4072273,123.627523 60.4115227,123.624659 60.4153409,123.620841 C60.4191591,123.616545 60.4201136,123.610818 60.4239318,123.606523 C60.4797727,123.542568 60.5246364,123.469068 60.5551818,123.387932 C60.5599545,123.377432 60.5623409,123.367409 60.5656818,123.356909 Z M20.8923864,99.4054545 L32.9420909,110.411841 L20.8923864,121.506045 L20.8923864,99.4054545 Z M45.5893409,109.872523 C45.5397045,109.904977 45.4872045,109.932182 45.4456818,109.978 C45.4299318,109.995182 45.4246818,110.017614 45.4108409,110.03575 L40.0319773,114.948795 L22.0216136,98.4976818 L58.0423409,98.4976818 L45.5893409,109.872523 Z M34.0035455,111.381182 L39.5489773,116.446477 C39.6859545,116.571523 39.8587273,116.634045 40.0319773,116.634045 C40.2052273,116.634045 40.378,116.571523 40.5145,116.446477 L45.9912045,111.444182 L58.039,122.422409 L22.0111136,122.422409 L34.0035455,111.381182 Z M47.0531364,110.474364 L59.1715682,99.4054545 L59.1715682,121.5175 L47.0531364,110.474364 Z" id="Shape"></path>
                </g>
            </g>
        </g>
    </g>
</svg>