<svg xmlns="http://www.w3.org/2000/svg" xmlns:xlink="http://www.w3.org/1999/xlink" width="16" height="16" viewBox="0 0 16 16">
    <defs>
        <path id="a" d="M46.251 44l3.378-3.377a1.278 1.278 0 0 0 0-1.801l-.45-.45a1.276 1.276 0 0 0-1.801 0L44 41.749l-3.378-3.378a1.277 1.277 0 0 0-1.8 0l-.45.45a1.278 1.278 0 0 0 0 1.802L41.747 44l-3.377 3.377a1.278 1.278 0 0 0 0 1.801l.45.45a1.277 1.277 0 0 0 1.801 0L44 46.252l3.378 3.378a1.277 1.277 0 0 0 1.8 0l.45-.451a1.278 1.278 0 0 0 0-1.8L46.252 44z"/>
    </defs>
    <g fill="none" fill-rule="nonzero" transform="translate(-36 -36)">
        <use fill="#D0021B" fill-rule="evenodd" xlink:href="#a"/>
        <path stroke="#FFF" stroke-width="2" d="M47.666 44l2.67 2.67a2.278 2.278 0 0 1 0 3.215l-.45.45a2.277 2.277 0 0 1-3.215 0L44 47.666l-2.67 2.67a2.277 2.277 0 0 1-3.215 0l-.451-.45a2.278 2.278 0 0 1 0-3.215l2.67-2.67-2.67-2.67a2.279 2.279 0 0 1 0-3.216l.45-.45a2.277 2.277 0 0 1 3.215 0L44 40.334l2.67-2.668a2.276 2.276 0 0 1 3.215-.002l.451.451a2.278 2.278 0 0 1 0 3.215L47.666 44z"/>
    </g>
</svg>
