<svg xmlns="http://www.w3.org/2000/svg" width="58" height="64" viewBox="0 0 58 64">
    <defs>
        <filter id="a" width="125%" height="109.6%" x="-12.5%" y="-2.4%" filterUnits="objectBoundingBox">
            <feOffset dy="25" in="SourceAlpha" result="shadowOffsetOuter1"/>
            <feGaussianBlur in="shadowOffsetOuter1" result="shadowBlurOuter1" stdDeviation="10"/>
            <feColorMatrix in="shadowBlurOuter1" result="shadowMatrixOuter1" values="0 0 0 0 0 0 0 0 0 0 0 0 0 0 0 0 0 0 0.2 0"/>
            <feMerge>
                <feMergeNode in="shadowMatrixOuter1"/>
                <feMergeNode in="SourceGraphic"/>
            </feMerge>
        </filter>
    </defs>
    <path fill="#D0021B" fill-rule="nonzero" d="M38.752 324l5.63-5.628a2.13 2.13 0 0 0 0-3.002l-.751-.75a2.126 2.126 0 0 0-3.002 0L35 320.248l-5.63-5.629a2.128 2.128 0 0 0-3 0l-.752.75a2.13 2.13 0 0 0 0 3.002l5.63 5.629-5.63 5.629a2.13 2.13 0 0 0 0 3.001l.751.75a2.128 2.128 0 0 0 3.002 0L35 327.753l5.63 5.629a2.128 2.128 0 0 0 3 0l.752-.751a2.13 2.13 0 0 0 0-3.001L38.752 324z" filter="url(#a)" transform="translate(-6 -314)"/>
</svg>
