<svg xmlns="http://www.w3.org/2000/svg" width="26" height="16" viewBox="0 0 26 16">
    <path fill="#37A870" fill-rule="evenodd" d="M17.186 1.741L12.005 7.09a1 1 0 0 0 0 1.391l.068.071a1 1 0 0 0 1.436 0l5.182-5.347a1 1 0 0 0 0-1.392l-.068-.07a1 1 0 0 0-1.437 0zm-5.116 9.93L9.127 8.633a1 1 0 0 0-1.436 0l-.069.071a1 1 0 0 0 0 1.392l4.451 4.594a1 1 0 0 0 1.436 0L24.615 3.228a1 1 0 0 0-.024-1.416l-.122-.117a1 1 0 0 0-1.415.028l-9.545 9.944a1 1 0 0 1-1.44.004zM7.562 14.69l.068-.071a1 1 0 0 0 0-1.392L3.18 8.633a1 1 0 0 0-1.436 0l-.069.071a1 1 0 0 0 0 1.392l4.451 4.594a1 1 0 0 0 1.437 0z"/>
</svg>
