<svg xmlns="http://www.w3.org/2000/svg" xmlns:xlink="http://www.w3.org/1999/xlink" width="124" height="124" viewBox="0 0 124 124">
    <defs>
        <rect id="a" width="120" height="120" rx="4"/>
    </defs>
    <g fill="none" fill-rule="evenodd" transform="translate(2 2)">
        <mask id="b" fill="#fff">
            <use xlink:href="#a"/>
        </mask>
        <use fill="#FFF" stroke="#F2F2F2" xlink:href="#a"/>
        <g fill-rule="nonzero" mask="url(#b)">
            <g fill="#F2F2F2">
                <path d="M90.697 66.688c-.232-1.017-.795-1.978-1.683-2.754a6.164 6.164 0 0 0-3.115-1.406l-18.18-3.518 5.26 3.49-8.303 26.029L60 69.195 55.322 88.53l-8.3-26.028 5.258-3.49-18.18 3.517a6.165 6.165 0 0 0-3.115 1.406c-.888.777-1.452 1.737-1.683 2.755l-5.39 23.675 10.168 3.528c3.376 3.51 12.825 6.09 24.157 6.336h3.525c11.332-.245 20.78-2.827 24.157-6.336l10.168-3.528-5.39-23.676z"/>
                <path d="M60 61.653l-4.19 1.5L60 69.195l4.192-6.042zM75.559 38.34c0-10.746-4.422-19.167-15.559-19.167-11.138 0-15.558 8.421-15.558 19.166-1.165.608-1.93 2.034-.786 5.09.577 1.535 1.594 2.82 2.457 3.494C49.287 54.825 55.53 60.926 60 60.926s10.713-6.1 13.886-14.003c.864-.673 1.88-1.96 2.458-3.494 1.144-3.057.38-4.482-.785-5.09z"/>
            </g>
            <path fill="#E5E5E5" d="M22.576 84.964c-5.19-.613-9.28-2.015-10.983-3.784L5 78.892l3.495-15.35c.15-.66.516-1.283 1.091-1.786.58-.499 1.287-.801 2.02-.911l12.768-2.925c-1.92-1.643-3.786-4.219-4.979-7.194-.56-.435-1.22-1.27-1.594-2.265-.742-1.98-.246-2.905.51-3.3 0-6.966 2.864-12.426 10.086-12.426h.002c7.22 0 10.086 5.46 10.086 12.426.756.395 1.252 1.32.51 3.3-.375.996-1.034 1.83-1.594 2.265-1.193 2.975-3.059 5.55-4.98 7.194l5.647 1.294-4.395.85a8.638 8.638 0 0 0-4.332 1.986c-1.262 1.103-2.12 2.514-2.478 4.083l-4.287 18.831zm88.93-21.423a3.366 3.366 0 0 0-1.092-1.785 3.985 3.985 0 0 0-2.02-.912L95.626 57.92c1.921-1.643 3.786-4.22 4.98-7.194.561-.436 1.219-1.27 1.593-2.265.743-1.98.247-2.905-.508-3.3 0-6.967-2.868-12.426-10.09-12.426-7.22 0-10.087 5.46-10.087 12.426-.754.395-1.25 1.32-.508 3.3.373.995 1.032 1.83 1.592 2.265 1.194 2.974 3.06 5.55 4.98 7.194l-5.646 1.293 4.395.85a8.637 8.637 0 0 1 4.32 1.977c1.273 1.112 2.13 2.524 2.488 4.09l4.288 18.834c5.19-.613 9.28-2.015 10.983-3.784l6.592-2.288-3.493-15.35z" opacity=".4"/>
        </g>
    </g>
</svg>
