<?xml version="1.0" encoding="UTF-8"?>
<svg width="36px" height="32px" viewBox="0 0 36 32" version="1.1" xmlns="http://www.w3.org/2000/svg" xmlns:xlink="http://www.w3.org/1999/xlink">
    <!-- Generator: Sketch 46.2 (44496) - http://www.bohemiancoding.com/sketch -->
    <title>Group 3</title>
    <desc>Created with Sketch.</desc>
    <defs>
        <rect id="path-1" x="0" y="0" width="300" height="311" rx="4"></rect>
        <path d="M26,14 C21.6,14 18,17.6 18,22 C18,26.4 21.6,30 26,30 C30.4,30 34,26.4 34,22 C34,17.6 30.4,14 26,14 L26,14 Z M26,16.4 C27.36,16.4 28.4,17.44 28.4,18.8 C28.4,20.16 27.36,21.2 26,21.2 C24.64,21.2 23.6,20.16 23.6,18.8 C23.6,17.44 24.64,16.4 26,16.4 L26,16.4 Z M26,27.76 C24,27.76 22.24,26.72 21.2,25.2 C21.2,23.6 24.4,22.72 26,22.72 C27.6,22.72 30.8,23.6 30.8,25.2 C29.76,26.72 28,27.76 26,27.76 L26,27.76 Z" id="path-2"></path>
    </defs>
    <g id="Page-1" stroke="none" stroke-width="1" fill="none" fill-rule="evenodd">
        <g id="2_5_Artist-Page" transform="translate(-1070.000000, -742.000000)">
            <rect id="BG" fill="#FFFFFF" x="0" y="60" width="1440" height="1100"></rect>
            <g id="rider" transform="translate(1050.000000, 553.000000)">
                <g id="Avatar_BG-Copy-2">
                    <use fill="#FFFFFF" fill-rule="evenodd" xlink:href="#path-1"></use>
                    <rect stroke="#F2F2F2" stroke-width="1" x="0.5" y="0.5" width="299" height="310" rx="4"></rect>
                </g>
            </g>
            <text id="Pasport.pdf" font-family=".AppleSystemUIFont" font-size="10" font-weight="normal" letter-spacing="0.2857144" fill="#333333">
                <tspan x="1115.04966" y="759">Pasport.pdf</tspan>
            </text>
            <g id="Group-3" transform="translate(1070.000000, 742.000000)">
                <path d="M0,3 L0,27 C0,28.65 1.4625,30 3.25,30 L22.75,30 C24.5375,30 22,28.65 22,27 L26,9 L16.25,0 L3.25,0 C1.4625,0 0,1.35 0,3 Z M14.625,2.25 L23.5625,10.5 L14.625,10.5 L14.625,2.25 Z" id="Shape-Copy-6" fill="#E5E5E5"></path>
                <g id="Shape">
                    <use fill="#999999" fill-rule="evenodd" xlink:href="#path-2"></use>
                    <path stroke="#FFFFFF" stroke-width="2" d="M26,13 C30.9522847,13 35,17.0477153 35,22 C35,26.9522847 30.9522847,31 26,31 C21.0477153,31 17,26.9522847 17,22 C17,17.0477153 21.0477153,13 26,13 Z M26,17.4 C25.1922847,17.4 24.6,17.9922847 24.6,18.8 C24.6,19.6077153 25.1922847,20.2 26,20.2 C26.8077153,20.2 27.4,19.6077153 27.4,18.8 C27.4,17.9922847 26.8077153,17.4 26,17.4 Z M29.7139395,24.9827302 C29.2981296,24.4204635 27.4576018,23.72 26,23.72 C24.5423982,23.72 22.7018704,24.4204635 22.2860605,24.9827302 C23.1949778,26.0891642 24.5500881,26.76 26,26.76 C27.4499119,26.76 28.8050222,26.0891642 29.7139395,24.9827302 Z"></path>
                </g>
            </g>
        </g>
    </g>
</svg>