<?xml version="1.0" encoding="UTF-8"?>
<svg width="37px" height="32px" viewBox="0 0 37 32" version="1.1" xmlns="http://www.w3.org/2000/svg" xmlns:xlink="http://www.w3.org/1999/xlink">
    <!-- Generator: Sketch 46.2 (44496) - http://www.bohemiancoding.com/sketch -->
    <title>Group 4</title>
    <desc>Created with Sketch.</desc>
    <defs>
        <rect id="path-1" x="0" y="0" width="300" height="311" rx="4"></rect>
        <path d="M34,28.2222222 L34,15.7777778 C34,14.8 33.2,14 32.2222222,14 L19.7777778,14 C18.8,14 18,14.8 18,15.7777778 L18,28.2222222 C18,29.2 18.8,30 19.7777778,30 L32.2222222,30 C33.2,30 34,29.2 34,28.2222222 L34,28.2222222 Z M22.8888889,23.3333333 L25.1111111,26 L28.2222222,22 L32.2222222,27.3333333 L19.7777778,27.3333333 L22.8888889,23.3333333 L22.8888889,23.3333333 Z" id="path-2"></path>
    </defs>
    <g id="Page-1" stroke="none" stroke-width="1" fill="none" fill-rule="evenodd">
        <g id="2_5_Artist-Page" transform="translate(-1070.000000, -813.000000)">
            <rect id="BG" fill="#FFFFFF" x="0" y="60" width="1440" height="1100"></rect>
            <g id="rider" transform="translate(1050.000000, 553.000000)">
                <g id="Avatar_BG-Copy-2">
                    <use fill="#FFFFFF" fill-rule="evenodd" xlink:href="#path-1"></use>
                    <rect stroke="#F2F2F2" stroke-width="1" x="0.5" y="0.5" width="299" height="310" rx="4"></rect>
                </g>
            </g>
            <text id="Photos.zip" font-family=".AppleSystemUIFont" font-size="10" font-weight="normal" letter-spacing="0.2857144" fill="#333333">
                <tspan x="1115.07826" y="830">Photos.zip</tspan>
            </text>
            <g id="Group-4" transform="translate(1070.000000, 813.000000)">
                <path d="M0,3 L0,27 C0,28.65 1.4625,30 3.25,30 L22.75,30 C24.5375,30 26,28.65 26,27 L26,9 L16.25,0 L3.25,0 C1.4625,0 0,1.35 0,3 Z M14.625,2.25 L23.5625,10.5 L14.625,10.5 L14.625,2.25 Z" id="Shape-Copy-7" fill="#E5E5E5"></path>
                <g id="Shape">
                    <use fill="#00B700" fill-rule="evenodd" xlink:href="#path-2"></use>
                    <path stroke="#FFFFFF" stroke-width="2" d="M35,28.2222222 C35,29.7522847 33.7522847,31 32.2222222,31 L19.7777778,31 C18.2477153,31 17,29.7522847 17,28.2222222 L17,15.7777778 C17,14.2477153 18.2477153,13 19.7777778,13 L32.2222222,13 C33.7522847,13 35,14.2477153 35,15.7777778 L35,28.2222222 Z M26.1187134,26.3333333 L30.2222222,26.3333333 L28.2077725,23.6474003 L26.1187134,26.3333333 Z M24.0871806,26.3333333 L22.9157512,24.9276181 L21.8224171,26.3333333 L24.0871806,26.3333333 Z M24.0871806,26.3333333 L26.1187134,26.3333333 L25.1379735,27.5942847 L24.0871806,26.3333333 Z"></path>
                </g>
            </g>
        </g>
    </g>
</svg>