<?xml version="1.0" encoding="UTF-8"?>
<svg width="20px" height="18px" viewBox="0 0 20 18" version="1.1" xmlns="http://www.w3.org/2000/svg" xmlns:xlink="http://www.w3.org/1999/xlink">
    <!-- Generator: Sketch 45.2 (43514) - http://www.bohemiancoding.com/sketch -->
    <title>Shape</title>
    <desc>Created with Sketch.</desc>
    <defs></defs>
    <g id="Page-1" stroke="none" stroke-width="1" fill="none" fill-rule="evenodd">
        <g id="2_1_Personal-Page---Artist---DONE" transform="translate(-550.000000, -200.000000)" fill="#999999">
            <g id="Photos-Empty" transform="translate(410.000000, 100.000000)">
                <g id="Area" transform="translate(20.000000, 47.000000)">
                    <g id="Group-2-Copy-2" transform="translate(92.000000, 53.000000)">
                        <g id="camera-alt" transform="translate(28.000000, 0.000000)">
                            <circle id="Oval" cx="10" cy="10" r="3"></circle>
                            <path d="M7,0 L5.2,2 L2,2 C0.9,2 0,2.9 0,4 L0,16 C0,17.1 0.9,18 2,18 L18,18 C19.1,18 20,17.1 20,16 L20,4 C20,2.9 19.1,2 18,2 L14.8,2 L13,0 L7,0 L7,0 Z M10,15 C7.2,15 5,12.8 5,10 C5,7.2 7.2,5 10,5 C12.8,5 15,7.2 15,10 C15,12.8 12.8,15 10,15 L10,15 Z" id="Shape"></path>
                        </g>
                    </g>
                </g>
            </g>
        </g>
    </g>
</svg>