<?xml version="1.0" encoding="UTF-8"?>
<svg width="86px" height="77px" viewBox="0 0 86 77" version="1.1" xmlns="http://www.w3.org/2000/svg" xmlns:xlink="http://www.w3.org/1999/xlink">
    <!-- Generator: Sketch 46.2 (44496) - http://www.bohemiancoding.com/sketch -->
    <title>PhotosPoster@1,5x</title>
    <desc>Created with Sketch.</desc>
    <defs>
        <path d="M79,65.8518519 L79,36.8148148 C79,34.5333333 77.1411765,32.6666667 74.869281,32.6666667 L45.9542484,32.6666667 C43.6823529,32.6666667 41.8235294,34.5333333 41.8235294,36.8148148 L41.8235294,65.8518519 C41.8235294,68.1333333 43.6823529,70 45.9542484,70 L74.869281,70 C77.1411765,70 79,68.1333333 79,65.8518519 L79,65.8518519 Z M53.1830065,54.4444444 L58.3464052,60.6666667 L65.5751634,51.3333333 L74.869281,63.7777778 L45.9542484,63.7777778 L53.1830065,54.4444444 L53.1830065,54.4444444 Z" id="path-1"></path>
    </defs>
    <g id="Page-1" stroke="none" stroke-width="1" fill="none" fill-rule="evenodd">
        <g id="1_9_cabinet-documents" transform="translate(-889.000000, -377.000000)">
            <g id="Main" transform="translate(90.000000, 329.000000)">
                <g id="Group-2" transform="translate(79.000000, 48.000000)">
                    <g id="PhotosPoster" transform="translate(721.000000, 1.000000)">
                        <path d="M0,7 L0,63 C0,66.85 3.39816176,70 7.55147059,70 L52.8602941,70 C57.0136029,70 60.4117647,66.85 60.4117647,63 L60.4117647,21 L37.7573529,0 L7.55147059,0 C3.39816176,0 0,3.15 0,7 Z M33.9816176,5.25 L54.7481618,24.5 L33.9816176,24.5 L33.9816176,5.25 Z" id="Shape-Copy-7" fill="#E5E5E5"></path>
                        <g id="Shape">
                            <use fill="#00B700" fill-rule="evenodd" xlink:href="#path-1"></use>
                            <path stroke="#FFFFFF" stroke-width="2" d="M81.5,65.8518519 C81.5,69.5116943 78.5242502,72.5 74.869281,72.5 L45.9542484,72.5 C42.2992792,72.5 39.3235294,69.5116943 39.3235294,65.8518519 L39.3235294,36.8148148 C39.3235294,33.1549724 42.2992792,30.1666667 45.9542484,30.1666667 L74.869281,30.1666667 C78.5242502,30.1666667 81.5,33.1549724 81.5,36.8148148 L81.5,65.8518519 Z M65.5389831,55.4628163 L67.5516701,52.8641571 L63.5721377,52.8292906 L65.5389831,55.4628163 Z M69.8818797,61.2777778 L72.8662553,65.273735 L74.869281,61.2777778 L69.8818797,61.2777778 Z M51.0526676,61.2777778 L45.9542484,61.2777778 L47.930755,65.3086016 L51.0526676,61.2777778 Z M53.2502733,58.4403627 L55.1595132,55.9752682 L51.2591446,56.0409265 L53.2502733,58.4403627 Z M55.6048509,61.2777778 L58.413672,64.662585 L61.0352384,61.2777778 L55.6048509,61.2777778 Z"></path>
                        </g>
                    </g>
                </g>
            </g>
        </g>
    </g>
</svg>