<svg height="300" version="1.1" width="300" xmlns="http://www.w3.org/2000/svg" style="overflow: hidden; position: relative; top: -0.3125px;"><desc style="-webkit-tap-highlight-color: rgba(0, 0, 0, 0);">Created with Raphaël 2.0.1</desc><defs style="-webkit-tap-highlight-color: rgba(0, 0, 0, 0);"></defs><rect x="0" y="0" width="640" height="480" r="0" rx="0" ry="0" fill="#cccccc" stroke="none" style="-webkit-tap-highlight-color: rgba(0, 0, 0, 0);"></rect><rect x="379" y="202" width="228" height="206" r="5" rx="5" ry="5" fill="#ffffff" stroke="none" transform="matrix(1,0,0,1,-114,-103)" stroke-width="0" opacity="0.2" style="-webkit-tap-highlight-color: rgba(0, 0, 0, 0); opacity: 0.2;"></rect><rect x="125" y="192" width="79" height="113" r="5" rx="5" ry="5" fill="#ffffff" stroke="none" transform="matrix(1,0,0,1,-39.5,-56.5)" stroke-width="0" opacity="0.2" style="-webkit-tap-highlight-color: rgba(0, 0, 0, 0); opacity: 0.2;"></rect><rect x="193" y="228" width="117" height="174" r="5" rx="5" ry="5" fill="#ffffff" stroke="none" transform="matrix(1,0,0,1,-58.5,-87)" stroke-width="0" opacity="0.2" style="-webkit-tap-highlight-color: rgba(0, 0, 0, 0); opacity: 0.2;"></rect><rect x="204" y="153" width="27" height="135" r="5" rx="5" ry="5" fill="#ffffff" stroke="none" transform="matrix(1,0,0,1,-13.5,-67.5)" stroke-width="0" opacity="0.2" style="-webkit-tap-highlight-color: rgba(0, 0, 0, 0); opacity: 0.2;"></rect><rect x="402" y="354" width="304" height="70" r="5" rx="5" ry="5" fill="#ffffff" stroke="none" transform="matrix(1,0,0,1,-152,-35)" stroke-width="0" opacity="0.2" style="-webkit-tap-highlight-color: rgba(0, 0, 0, 0); opacity: 0.2;"></rect><rect x="153" y="357" width="182" height="220" r="5" rx="5" ry="5" fill="#ffffff" stroke="none" transform="matrix(1,0,0,1,-91,-110)" stroke-width="0" opacity="0.2" style="-webkit-tap-highlight-color: rgba(0, 0, 0, 0); opacity: 0.2;"></rect><rect x="127" y="146" width="268" height="301" r="5" rx="5" ry="5" fill="#ffffff" stroke="none" transform="matrix(1,0,0,1,-134,-150.5)" stroke-width="0" opacity="0.2" style="-webkit-tap-highlight-color: rgba(0, 0, 0, 0); opacity: 0.2;"></rect><rect x="442" y="359" width="48" height="170" r="5" rx="5" ry="5" fill="#ffffff" stroke="none" transform="matrix(1,0,0,1,-24,-85)" stroke-width="0" opacity="0.2" style="-webkit-tap-highlight-color: rgba(0, 0, 0, 0); opacity: 0.2;"></rect><rect x="271" y="242" width="67" height="278" r="5" rx="5" ry="5" fill="#ffffff" stroke="none" transform="matrix(1,0,0,1,-33.5,-139)" stroke-width="0" opacity="0.2" style="-webkit-tap-highlight-color: rgba(0, 0, 0, 0); opacity: 0.2;"></rect><rect x="347" y="154" width="156" height="145" r="5" rx="5" ry="5" fill="#ffffff" stroke="none" transform="matrix(1,0,0,1,-78,-72.5)" stroke-width="0" opacity="0.2" style="-webkit-tap-highlight-color: rgba(0, 0, 0, 0); opacity: 0.2;"></rect><rect x="152" y="290" width="179" height="238" r="5" rx="5" ry="5" fill="#ffffff" stroke="none" transform="matrix(1,0,0,1,-89.5,-119)" stroke-width="0" opacity="0.2" style="-webkit-tap-highlight-color: rgba(0, 0, 0, 0); opacity: 0.2;"></rect><rect x="332" y="306" width="25" height="67" r="5" rx="5" ry="5" fill="#ffffff" stroke="none" transform="matrix(1,0,0,1,-12.5,-33.5)" stroke-width="0" opacity="0.2" style="-webkit-tap-highlight-color: rgba(0, 0, 0, 0); opacity: 0.2;"></rect><rect x="401" y="316" width="224" height="139" r="5" rx="5" ry="5" fill="#ffffff" stroke="none" transform="matrix(1,0,0,1,-112,-69.5)" stroke-width="0" opacity="0.2" style="-webkit-tap-highlight-color: rgba(0, 0, 0, 0); opacity: 0.2;"></rect><rect x="154" y="357" width="199" height="217" r="5" rx="5" ry="5" fill="#ffffff" stroke="none" transform="matrix(1,0,0,1,-99.5,-108.5)" stroke-width="0" opacity="0.2" style="-webkit-tap-highlight-color: rgba(0, 0, 0, 0); opacity: 0.2;"></rect><rect x="140" y="268" width="103" height="151" r="5" rx="5" ry="5" fill="#ffffff" stroke="none" transform="matrix(1,0,0,1,-51.5,-75.5)" stroke-width="0" opacity="0.2" style="-webkit-tap-highlight-color: rgba(0, 0, 0, 0); opacity: 0.2;"></rect><rect x="179" y="304" width="48" height="242" r="5" rx="5" ry="5" fill="#ffffff" stroke="none" transform="matrix(1,0,0,1,-24,-121)" stroke-width="0" opacity="0.2" style="-webkit-tap-highlight-color: rgba(0, 0, 0, 0); opacity: 0.2;"></rect><rect x="240" y="315" width="128" height="299" r="5" rx="5" ry="5" fill="#ffffff" stroke="none" transform="matrix(1,0,0,1,-64,-149.5)" stroke-width="0" opacity="0.2" style="-webkit-tap-highlight-color: rgba(0, 0, 0, 0); opacity: 0.2;"></rect><rect x="501" y="307" width="73" height="263" r="5" rx="5" ry="5" fill="#ffffff" stroke="none" transform="matrix(1,0,0,1,-36.5,-131.5)" stroke-width="0" opacity="0.2" style="-webkit-tap-highlight-color: rgba(0, 0, 0, 0); opacity: 0.2;"></rect><rect x="439" y="358" width="167" height="124" r="5" rx="5" ry="5" fill="#ffffff" stroke="none" transform="matrix(1,0,0,1,-83.5,-62)" stroke-width="0" opacity="0.2" style="-webkit-tap-highlight-color: rgba(0, 0, 0, 0); opacity: 0.2;"></rect><rect x="120" y="277" width="272" height="235" r="5" rx="5" ry="5" fill="#ffffff" stroke="none" transform="matrix(1,0,0,1,-136,-117.5)" stroke-width="0" opacity="0.2" style="-webkit-tap-highlight-color: rgba(0, 0, 0, 0); opacity: 0.2;"></rect><rect x="355" y="157" width="201" height="181" r="5" rx="5" ry="5" fill="#ffffff" stroke="none" transform="matrix(1,0,0,1,-100.5,-90.5)" stroke-width="0" opacity="0.2" style="-webkit-tap-highlight-color: rgba(0, 0, 0, 0); opacity: 0.2;"></rect><rect x="318" y="241" width="74" height="127" r="5" rx="5" ry="5" fill="#ffffff" stroke="none" transform="matrix(1,0,0,1,-37,-63.5)" stroke-width="0" opacity="0.2" style="-webkit-tap-highlight-color: rgba(0, 0, 0, 0); opacity: 0.2;"></rect><rect x="129" y="207" width="93" height="293" r="5" rx="5" ry="5" fill="#ffffff" stroke="none" transform="matrix(1,0,0,1,-46.5,-146.5)" stroke-width="0" opacity="0.2" style="-webkit-tap-highlight-color: rgba(0, 0, 0, 0); opacity: 0.2;"></rect><rect x="397" y="175" width="88" height="273" r="5" rx="5" ry="5" fill="#ffffff" stroke="none" transform="matrix(1,0,0,1,-44,-136.5)" stroke-width="0" opacity="0.2" style="-webkit-tap-highlight-color: rgba(0, 0, 0, 0); opacity: 0.2;"></rect><rect x="295" y="179" width="43" height="179" r="5" rx="5" ry="5" fill="#ffffff" stroke="none" transform="matrix(1,0,0,1,-21.5,-89.5)" stroke-width="0" opacity="0.2" style="-webkit-tap-highlight-color: rgba(0, 0, 0, 0); opacity: 0.2;"></rect><rect x="305" y="303" width="183" height="164" r="5" rx="5" ry="5" fill="#ffffff" stroke="none" transform="matrix(1,0,0,1,-91.5,-82)" stroke-width="0" opacity="0.2" style="-webkit-tap-highlight-color: rgba(0, 0, 0, 0); opacity: 0.2;"></rect><rect x="517" y="122" width="271" height="272" r="5" rx="5" ry="5" fill="#ffffff" stroke="none" transform="matrix(1,0,0,1,-135.5,-136)" stroke-width="0" opacity="0.2" style="-webkit-tap-highlight-color: rgba(0, 0, 0, 0); opacity: 0.2;"></rect><rect x="360" y="125" width="163" height="159" r="5" rx="5" ry="5" fill="#ffffff" stroke="none" transform="matrix(1,0,0,1,-81.5,-79.5)" stroke-width="0" opacity="0.2" style="-webkit-tap-highlight-color: rgba(0, 0, 0, 0); opacity: 0.2;"></rect><rect x="415" y="352" width="231" height="240" r="5" rx="5" ry="5" fill="#ffffff" stroke="none" transform="matrix(1,0,0,1,-115.5,-120)" stroke-width="0" opacity="0.2" style="-webkit-tap-highlight-color: rgba(0, 0, 0, 0); opacity: 0.2;"></rect><rect x="519" y="305" width="128" height="65" r="5" rx="5" ry="5" fill="#ffffff" stroke="none" transform="matrix(1,0,0,1,-64,-32.5)" stroke-width="0" opacity="0.2" style="-webkit-tap-highlight-color: rgba(0, 0, 0, 0); opacity: 0.2;"></rect><rect x="471" y="215" width="250" height="130" r="5" rx="5" ry="5" fill="#ffffff" stroke="none" transform="matrix(1,0,0,1,-125,-65)" stroke-width="0" opacity="0.2" style="-webkit-tap-highlight-color: rgba(0, 0, 0, 0); opacity: 0.2;"></rect><rect x="485" y="329" width="160" height="46" r="5" rx="5" ry="5" fill="#ffffff" stroke="none" transform="matrix(1,0,0,1,-80,-23)" stroke-width="0" opacity="0.2" style="-webkit-tap-highlight-color: rgba(0, 0, 0, 0); opacity: 0.2;"></rect></svg>