<svg xmlns="http://www.w3.org/2000/svg" xmlns:xlink="http://www.w3.org/1999/xlink" width="124" height="124" viewBox="0 0 124 124">
    <defs>
        <rect id="a" width="120" height="120" rx="60"/>
    </defs>
    <g fill="none" fill-rule="evenodd" transform="translate(2 2)">
        <mask id="b" fill="#fff">
            <use xlink:href="#a"/>
        </mask>
        <use fill="#FFF" stroke="#F2F2F2" xlink:href="#a"/>
        <path fill="#F2F2F2" fill-rule="nonzero" d="M71.44 89.529c-.351-3.869-.217-6.569-.217-10.104 1.752-.92 4.891-6.78 5.422-11.731 1.377-.113 3.55-1.457 4.185-6.764.344-2.848-1.02-4.452-1.85-4.956 2.242-6.741 6.898-27.597-8.611-29.752C68.773 23.418 64.686 22 59.374 22c-21.25.391-23.812 16.046-19.154 33.974-.828.504-2.191 2.108-1.85 4.956.638 5.307 2.808 6.65 4.185 6.764.528 4.948 3.792 10.812 5.549 11.73 0 3.536.132 6.236-.218 10.105C43.68 100.833 15.31 97.66 14 119.462h91.2c-1.308-21.802-29.556-18.63-33.76-29.933z" mask="url(#b)"/>
    </g>
</svg>
