<?xml version="1.0" encoding="UTF-8"?>
<svg width="300px" height="200px" viewBox="0 0 300 200" version="1.1" xmlns="http://www.w3.org/2000/svg" xmlns:xlink="http://www.w3.org/1999/xlink">
    <!-- Generator: Sketch 46.2 (44496) - http://www.bohemiancoding.com/sketch -->
    <title>Mask</title>
    <desc>Created with Sketch.</desc>
    <defs>
        <path d="M0,1.99566213 C0,0.893488369 0.887404312,0 1.99505333,0 L298.004947,0 C299.106784,0 300,0.891685486 300,1.99566213 L300,200 L0,200 L0,1.99566213 Z" id="path-1"></path>
        <mask id="mask-2" maskContentUnits="userSpaceOnUse" maskUnits="objectBoundingBox" x="0" y="0" width="300" height="200" fill="white">
            <use xlink:href="#path-1"></use>
        </mask>
        <mask id="mask-4" maskContentUnits="userSpaceOnUse" maskUnits="objectBoundingBox" x="0" y="0" width="300" height="200" fill="white">
            <use xlink:href="#path-1"></use>
        </mask>
    </defs>
    <g id="Page-1" stroke="none" stroke-width="1" fill="none" fill-rule="evenodd">
        <g id="3_1_Event-List---Feed" transform="translate(-90.000000, -241.000000)">
            <g id="Event-Card" transform="translate(90.000000, 180.000000)">
                <g id="Events_1-grid" transform="translate(0.000000, 61.000000)">
                    <g id="Avatar_BG-Copy-3">
                        <mask id="mask-3" fill="white">
                            <use xlink:href="#path-1"></use>
                        </mask>
                        <g id="Mask" stroke="#E5E5E5" mask="url(#mask-2)" stroke-width="2" fill="#FFFFFF" stroke-dasharray="3">
                            <use mask="url(#mask-4)" xlink:href="#path-1"></use>
                        </g>
                        <g id="if_Events_751098-Copy" mask="url(#mask-3)" fill-rule="nonzero">
                            <g transform="translate(103.000000, 45.000000)" id="Shape">
                                <path d="M61.2427407,107.091875 C61.2427407,107.091875 61.3976667,106.179219 60.2418148,102.678125 C58.3914074,96.2070313 50.4501481,91.7915625 45.825,91.7915625 C33.9583704,91.5732813 33.3003704,83.9282813 33.2638148,83.0809375 L36.4685185,83.0809375 C36.4685185,83.0809375 39.5948889,83.0345313 38.3380741,80.3240625 C38.3380741,80.3189063 38.3345926,80.3189063 38.3328519,80.31375 L34.2856296,71.5996875 C38.399,70.88125 42.1294074,69.0353125 45.1356667,66.3901563 C45.2174815,66.3385938 45.2697037,66.281875 45.348037,66.2045313 C47.0295926,64.3345313 48.5718889,62.4129688 49.9192222,60.51375 C49.9488148,60.4845313 49.9488148,60.4621875 49.9488148,60.4329688 C56.9796667,50.4470313 59.3644815,40.4026563 60.1982963,35.0092188 L60.1982963,34.87 C60.3097037,34.3371875 60.3392963,33.8851563 60.4158889,33.48125 C60.4454815,33.0051563 60.4977037,32.62875 60.5255556,32.2832813 C60.6073704,31.425625 60.6073704,30.9735938 60.6073704,30.9735938 C60.6317407,30.6264063 60.6317407,30.2792188 60.6317407,29.9320313 C60.6317407,13.4251563 47.0835556,0.0446875 30.3393704,0.0446875 C13.6212963,0.0446875 0.0696296296,13.4251563 0.0696296296,29.9320313 C0.0696296296,30.2792188 0.0696296296,30.6264063 0.094,30.9735938 C0.094,31.1317188 0.094,31.3225 0.123592593,31.4548438 C0.175814815,32.4964063 0.288962963,33.48125 0.423,34.47125 C0.423,34.5520313 0.44737037,34.6053125 0.44737037,34.656875 C2.17766667,47.691875 8.05092593,57.2034375 11.7273704,62.060625 C11.9188519,62.3046875 12.1085926,62.5453125 12.2704815,62.7601563 C12.7805185,63.4270313 13.2435556,63.958125 13.6195556,64.4153125 C13.999037,64.8690625 14.2984444,65.1870313 14.516037,65.4001563 C14.758,65.6442188 14.8624444,65.7525 14.8624444,65.7525 C14.8624444,65.7525 14.8624444,65.7525 14.892037,65.7525 C17.9748889,68.7396875 21.9785926,70.8245313 26.4174815,71.5996875 L22.9655926,79.4354688 C21.4598519,82.8540625 24.7707407,83.0826563 24.7707407,83.0826563 L28.3462222,83.0826563 C30.456,96.195 40.1327778,96.3617188 44.515963,96.4803125 C55.6184074,97.7401563 56.4661481,106.791094 56.4661481,108.160938 C56.7742593,109.150938 57.3138889,110.214844 59.4724074,109.912344 C61.6274444,109.604688 61.2427407,107.091875 61.2427407,107.091875 Z M25.4705185,65.8917188 C22.3058519,65.065 19.458,63.4407813 17.1880741,61.2442188 C17.1637037,61.2442188 17.1637037,61.2442188 17.1637037,61.2442188 C17.1637037,61.2442188 17.0714444,61.153125 16.8642963,60.9434375 C16.6815185,60.7629688 16.4256296,60.4914063 16.1053333,60.1064063 C15.7815556,59.71625 15.3898889,59.2607813 14.952963,58.6935938 C14.8154444,58.5148438 14.6518148,58.3085938 14.4899259,58.0989063 C11.3600741,53.9653125 6.35892593,45.87 4.88277778,34.766875 C4.88277778,34.7239063 4.86188889,34.6775 4.86188889,34.6104688 C4.74874074,33.7682813 4.65648148,32.9278125 4.60774074,32.0409375 C4.58337037,31.9275 4.58337037,31.7642188 4.58337037,31.631875 C4.56074074,31.33625 4.56074074,31.0371875 4.56074074,30.7432813 C4.56074074,16.6890625 16.1018519,5.29375 30.3358889,5.29375 C44.5925556,5.29375 56.1301852,16.6890625 56.1301852,30.7432813 C56.1301852,31.0371875 56.1301852,31.33625 56.111037,31.631875 C56.111037,31.631875 56.111037,32.016875 56.0431481,32.7439063 C56.0187778,33.0395313 55.9752593,33.3592188 55.9456667,33.7665625 C55.8795185,34.1085938 55.8534074,34.4935938 55.7594074,34.9507812 L55.7594074,35.0659375 C55.0509259,39.6584375 53.022963,48.2109375 47.0365556,56.711875 C47.0365556,56.7359375 47.0365556,56.753125 47.0121852,56.7789063 C45.8580741,58.39625 44.5455556,60.0342188 43.1181481,61.6257813 C43.0485185,61.6928125 43.005,61.7392188 42.9353704,61.7890625 C40.8812963,63.5920313 38.4303333,64.961875 35.7304444,65.7525 C30.966037,67.8992188 25.4705185,65.8917188 25.4705185,65.8917188 Z" fill="#4A90E2"></path>
                                <path d="M70.7315185,12.4798438 C67.6765185,12.4798438 64.7799259,13.1089063 62.1113704,14.17625 C60.858037,14.8396875 61.2688519,16.4192187 61.2688519,16.4192187 L61.4847037,16.9039062 L61.4847037,16.9021875 C61.4847037,16.9021875 61.4899259,16.9176563 61.4899259,16.9228125 L61.5142963,16.9760938 C61.6500741,17.25625 62.2993704,18.2479688 64.6128148,17.4796875 C64.7085556,17.4470313 64.7764444,17.44875 64.866963,17.4264062 C66.7225926,16.8471875 68.6844074,16.5051562 70.7367407,16.5051562 C81.6546667,16.5051562 90.4889259,25.2295313 90.4889259,35.990625 C90.4889259,36.2175 90.4889259,36.4426563 90.4732593,36.67125 C90.4732593,36.67125 90.4732593,36.9651563 90.421037,37.52375 C90.4018889,37.7489063 90.3688148,37.9946875 90.3496667,38.3092188 C90.2957037,38.5704688 90.2817778,38.8660938 90.2051852,39.2132813 L90.2051852,39.304375 C89.6603333,42.8192188 88.1093333,49.369375 83.525963,55.88 C83.525963,55.8989063 83.525963,55.9126563 83.5068148,55.9315625 C82.6242593,57.1690625 81.6215926,58.4254688 80.5284074,59.6423438 C80.470963,59.695625 80.4361481,59.7282813 80.3839259,59.7660938 C78.8137778,61.14625 76.939,62.198125 74.871,62.803125 C71.2189259,64.4428125 67.0063333,62.9079688 67.0063333,62.9079688 C64.5814815,62.2754688 62.4003333,61.0328125 60.6630741,59.3501563 C60.6439259,59.3501563 60.6439259,59.3501563 60.6439259,59.3501563 C60.6439259,59.3501563 60.576037,59.2779688 60.4176296,59.1215625 C60.2731481,58.9789063 60.0799259,58.774375 59.8344815,58.47875 C59.6377778,58.2346875 59.3801481,57.9270313 59.1207778,57.6021875 C59.1155556,57.5935938 59.1068519,57.5935938 59.1016296,57.5832813 C57.5645556,55.8284375 56.2677037,57.5695313 56.259,57.5832813 L56.0414074,57.9596875 C56.0361852,57.97 55.607963,58.7795313 56.2241852,59.62 C56.306,59.7334375 56.3982593,59.8692188 56.4783333,59.9723438 C56.6228148,60.1579688 56.7672963,60.3435938 56.8926296,60.5051563 C57.2825556,61.0207813 57.6394074,61.4246875 57.9283704,61.7753125 C58.2173333,62.1225 58.4436296,62.3665625 58.6142222,62.528125 C58.7952593,62.71375 58.8788148,62.7996875 58.8788148,62.7996875 C58.8788148,62.7996875 58.8788148,62.7996875 58.9031852,62.7996875 C61.2636296,65.0873438 64.3273333,66.6823438 67.7252593,67.2753125 L65.0828148,73.27375 C64.1584815,75.3775 65.5858889,75.8948438 66.1986296,76.0254688 L75.811,76.0254688 C76.4463704,75.9120313 77.5639259,75.4909375 76.851963,73.9595313 C76.851963,73.9560938 76.851963,73.9560938 76.851963,73.9509375 L73.7534444,67.2753125 C76.9007037,66.7235938 79.7572593,65.3090625 82.0602593,63.2895313 C82.1229259,63.2465625 82.162963,63.2035938 82.2238889,63.146875 C83.5102963,61.7134375 84.6922593,60.2404688 85.728,58.788125 C85.7471481,58.7640625 85.7471481,58.746875 85.7471481,58.72625 C91.1312593,51.0760938 92.9572963,43.388125 93.5978889,39.2579688 L93.5978889,39.153125 C93.6797037,38.7440625 93.7040741,38.396875 93.7615185,38.0875 C93.7858889,37.7214063 93.8241852,37.4360938 93.8433333,37.1696875 C93.906,36.5148438 93.906,36.1659375 93.906,36.1659375 C93.9303704,35.9029688 93.9303704,35.6348438 93.9303704,35.371875 C93.9321111,22.7253125 83.5538148,12.4798438 70.7315185,12.4798438 Z" fill="#FF5400"></path>
                            </g>
                        </g>
                    </g>
                </g>
            </g>
        </g>
    </g>
</svg>