<?xml version="1.0" encoding="UTF-8"?>
<svg width="16px" height="16px" viewBox="0 0 16 16" version="1.1" xmlns="http://www.w3.org/2000/svg" xmlns:xlink="http://www.w3.org/1999/xlink">
    <!-- Generator: Sketch 45.2 (43514) - http://www.bohemiancoding.com/sketch -->
    <title>Shape Copy 29</title>
    <desc>Created with Sketch.</desc>
    <defs></defs>
    <g id="Page-1" stroke="none" stroke-width="1" fill="none" fill-rule="evenodd">
        <g id="2_1_Personal-Page---Artist---DONE" transform="translate(-190.000000, -560.000000)" fill="#FF9F00">
            <g id="Artist-Information" transform="translate(90.000000, 470.000000)">
                <g id="Star" transform="translate(20.000000, 89.000000)">
                    <path d="M88,13.6653158 L91.6191841,15.9357166 C92.5561602,16.5235041 93.120183,16.1255269 92.8784617,15.0445622 L91.9093835,10.7108947 L95.1168876,7.81968894 C95.9368185,7.08061306 95.7152952,6.402378 94.610376,6.30376201 L90.4161624,5.92942105 L88.7512444,1.84360316 C88.3363436,0.82540925 87.664043,0.824460592 87.2487556,1.84360316 L85.5838376,5.92942105 L81.389624,6.30376201 C80.2899545,6.40190946 80.0707627,7.0874466 80.8831124,7.81968894 L84.0906165,10.7108947 L83.1215383,15.0445622 C82.880042,16.1245207 83.4458851,16.5222211 84.3808159,15.9357166 L88,13.6653158 Z" id="Shape-Copy-29"></path>
                </g>
            </g>
        </g>
    </g>
</svg>