<?xml version="1.0" encoding="UTF-8"?>
<svg width="72px" height="65px" viewBox="0 0 72 65" version="1.1" xmlns="http://www.w3.org/2000/svg" xmlns:xlink="http://www.w3.org/1999/xlink">
    <!-- Generator: Sketch 45.2 (43514) - http://www.bohemiancoding.com/sketch -->
    <title>Shape</title>
    <desc>Created with Sketch.</desc>
    <defs>
        <filter x="-11.0%" y="-9.9%" width="122.1%" height="133.3%" filterUnits="objectBoundingBox" id="filter-1">
            <feOffset dx="0" dy="15" in="SourceAlpha" result="shadowOffsetOuter1"></feOffset>
            <feGaussianBlur stdDeviation="10" in="shadowOffsetOuter1" result="shadowBlurOuter1"></feGaussianBlur>
            <feColorMatrix values="0 0 0 0 0   0 0 0 0 0   0 0 0 0 0  0 0 0 0.3 0" type="matrix" in="shadowBlurOuter1" result="shadowMatrixOuter1"></feColorMatrix>
            <feMerge>
                <feMergeNode in="shadowMatrixOuter1"></feMergeNode>
                <feMergeNode in="SourceGraphic"></feMergeNode>
            </feMerge>
        </filter>
    </defs>
    <g id="Page-1" stroke="none" stroke-width="1" fill="none" fill-rule="evenodd">
        <g id="Error-save---DONE" filter="url(#filter-1)" transform="translate(-134.000000, -69.000000)">
            <rect id="Avatar_BG" fill="#FFFFFF" x="0" y="0" width="340" height="228" rx="4"></rect>
            <path d="M167.5,88 L167.5,95.5 L160,95.5 L160,95.5 C158.619288,95.5 157.5,96.6192881 157.5,98 L157.5,98 L157.5,98 C157.5,99.3807119 158.619288,100.5 160,100.5 L167.5,100.5 L167.5,108 L167.5,108 C167.5,109.380712 168.619288,110.5 170,110.5 L170,110.5 L170,110.5 C171.380712,110.5 172.5,109.380712 172.5,108 L172.5,100.5 L180,100.5 L180,100.5 C181.380712,100.5 182.5,99.3807119 182.5,98 L182.5,98 L182.5,98 C182.5,96.6192881 181.380712,95.5 180,95.5 L172.5,95.5 L172.5,88 L172.5,88 C172.5,86.6192881 171.380712,85.5 170,85.5 L170,85.5 L170,85.5 C168.619288,85.5 167.5,86.6192881 167.5,88 Z M145,98 C145,111.75 156.25,123 170,123 C183.75,123 195,111.75 195,98 C195,84.25 183.75,73 170,73 C156.25,73 145,84.25 145,98 Z M149,98 C149,87 159,77 170,77 C181,77 191,87 191,98 C191,109 181,119 170,119 C159,119 149,109 149,98 Z" id="Shape" fill="#CFCFCF" transform="translate(170.000000, 98.000000) rotate(45.000000) translate(-170.000000, -98.000000) "></path>
        </g>
    </g>
</svg>