<?xml version="1.0" encoding="UTF-8"?>
<svg width="38px" height="38px" viewBox="0 0 38 38" version="1.1" xmlns="http://www.w3.org/2000/svg" xmlns:xlink="http://www.w3.org/1999/xlink">
    <!-- Generator: Sketch 46.2 (44496) - http://www.bohemiancoding.com/sketch -->
    <title>Path</title>
    <desc>Created with Sketch.</desc>
    <defs>
        <path d="M1257.87532,86.1246765 C1259.04875,84.9512501 1259.05206,83.0520558 1257.88287,81.8828721 L1258.11713,82.1171279 C1256.94787,80.9478704 1255.04704,80.9529572 1253.87532,82.1246765 L1240,96 L1226.12468,82.1246765 C1224.95125,80.9512501 1223.05206,80.9479442 1221.88287,82.1171279 L1222.11713,81.8828721 C1220.94787,83.0521296 1220.95296,84.9529572 1222.12468,86.1246765 L1236,100 L1222.12468,113.875324 C1220.95125,115.04875 1220.94794,116.947944 1222.11713,118.117128 L1221.88287,117.882872 C1223.05213,119.05213 1224.95296,119.047043 1226.12468,117.875324 L1240,104 L1253.87532,117.875324 C1255.04875,119.04875 1256.94794,119.052056 1258.11713,117.882872 L1257.88287,118.117128 C1259.05213,116.94787 1259.04704,115.047043 1257.87532,113.875324 L1244,100 L1257.87532,86.1246765 Z" id="path-1"></path>
    </defs>
    <g id="Page-1" stroke="none" stroke-width="1" fill="none" fill-rule="evenodd">
        <g id="5_1_Search" transform="translate(-1311.000000, -177.000000)">
            <g id="Name-&amp;-Description" transform="translate(90.000000, 96.000000)">
                <g id="Path">
                    <use fill="#333333" fill-rule="evenodd" xlink:href="#path-1"></use>
                    <path stroke="#FFFFFF" stroke-width="1" d="M1257.64253,117.642667 C1257.60639,117.683914 1257.56865,117.724244 1257.52932,117.763575 L1258.23643,118.470681 L1258.47068,118.236425 L1257.76357,117.529319 C1257.72419,117.568699 1257.68382,117.606481 1257.64253,117.642667 Z M1222.35733,117.642527 C1222.31609,117.606386 1222.27576,117.56865 1222.23643,117.529319 L1221.52932,118.236425 L1221.76357,118.470681 L1222.47068,117.763575 C1222.4313,117.724195 1222.39352,117.683819 1222.35733,117.642527 Z M1222.35747,82.3573333 C1222.39361,82.3160859 1222.43135,82.2757565 1222.47068,82.2364255 L1221.76357,81.5293187 L1221.52932,81.7635745 L1222.23643,82.4706813 C1222.27581,82.4313014 1222.31618,82.3935187 1222.35747,82.3573333 Z M1257.64267,82.3574733 C1257.68391,82.3936144 1257.72424,82.4313503 1257.76357,82.4706813 L1258.47068,81.7635745 L1258.23643,81.5293187 L1257.52932,82.2364255 C1257.5687,82.2758054 1257.60648,82.3161815 1257.64267,82.3574733 Z M1257.64253,117.642667 C1256.66288,118.501163 1255.16772,118.460616 1254.22888,117.52177 L1240,103.292893 L1225.77112,117.52177 C1224.83326,118.459637 1223.33658,118.500546 1222.35733,117.642527 C1221.49884,116.662879 1221.53938,115.167723 1222.47823,114.228877 L1236.70711,100 L1222.47823,85.7711231 C1221.54036,84.8332558 1221.49945,83.3365829 1222.35747,82.3573333 C1223.33712,81.4988368 1224.83228,81.539384 1225.77112,82.4782299 L1240,96.7071068 L1254.22888,82.4782299 C1255.16674,81.5403626 1256.66342,81.4994543 1257.64267,82.3574733 C1258.50116,83.3371213 1258.46062,84.8322772 1257.52177,85.7711231 L1243.29289,100 L1257.52177,114.228877 C1258.45964,115.166744 1258.50055,116.663417 1257.64253,117.642667 Z"></path>
                </g>
            </g>
        </g>
    </g>
</svg>