<?xml version="1.0" encoding="UTF-8"?>
<svg width="21px" height="20px" viewBox="0 0 21 20" version="1.1" xmlns="http://www.w3.org/2000/svg" xmlns:xlink="http://www.w3.org/1999/xlink">
    <!-- Generator: Sketch 45.2 (43514) - http://www.bohemiancoding.com/sketch -->
    <title>Shape</title>
    <desc>Created with Sketch.</desc>
    <defs>
        <filter x="-14.4%" y="-8.9%" width="129.2%" height="129.6%" filterUnits="objectBoundingBox" id="filter-1">
            <feMerge>
                <feMergeNode in="shadowMatrixOuter1"></feMergeNode>
                <feMergeNode in="SourceGraphic"></feMergeNode>
            </feMerge>
        </filter>
    </defs>
    <g id="Page-1" stroke="none" stroke-width="1" fill="none" fill-rule="evenodd">
        <g id="User-Menu---DONE" filter="url(#filter-1)" transform="translate(-19.000000, -167.000000)" fill="#F2F2F2">
            <g id="4" transform="translate(20.000000, 167.000000)">
                <path d="M17.4846253,11.0552764 C17.4846253,10.7537688 17.5866406,10.4522613 17.5866406,10.0502513 C17.5866406,9.64824121 17.5866406,9.34673367 17.4846253,9.04522613 L19.6269452,7.33668342 C19.8309756,7.13567839 19.8309756,6.93467337 19.7289604,6.73366834 L17.6886558,3.2160804 C17.5866406,3.11557789 17.3826101,3.01507538 17.0765644,3.11557789 L14.5261837,4.12060302 C14.0161075,3.71859296 13.4040162,3.41708543 12.7919248,3.11557789 L12.3838639,0.502512563 C12.4858791,0.201005025 12.1798334,0 11.9758029,0 L7.89519376,0 C7.6911633,0 7.38511761,0.201005025 7.38511761,0.40201005 L6.97705669,3.11557789 C6.36496531,3.31658291 5.85488916,3.71859296 5.24279778,4.12060302 L2.79443227,3.11557789 C2.48838658,3.01507538 2.28435612,3.11557789 2.08032566,3.31658291 L0.0400210689,6.83417085 C-0.0619941608,6.93467337 0.0400210689,7.2361809 0.244051528,7.43718593 L2.38637135,9.04522613 C2.38637135,9.34673367 2.28435612,9.64824121 2.28435612,10.0502513 C2.28435612,10.4522613 2.28435612,10.7537688 2.38637135,11.0552764 L0.244051528,12.7638191 C0.0400210689,12.9648241 0.0400210689,13.1658291 0.142036299,13.3668342 L2.18234089,16.8844221 C2.28435612,16.9849246 2.48838658,17.0854271 2.79443227,16.9849246 L5.34481301,15.9798995 C5.85488916,16.3819095 6.46698054,16.6834171 7.07907192,16.9849246 L7.48713284,19.5979899 C7.48713284,19.798995 7.6911633,20 7.99720899,20 L12.0778182,20 C12.2818486,20 12.5878943,19.798995 12.5878943,19.5979899 L12.9959552,16.9849246 C13.6080466,16.6834171 14.220138,16.3819095 14.7302141,15.9798995 L17.2805949,16.9849246 C17.4846253,17.0854271 17.790671,16.9849246 17.8926863,16.7839196 L19.9329909,13.2663317 C20.0350061,13.0653266 20.0350061,12.7638191 19.8309756,12.6633166 L17.4846253,11.0552764 L17.4846253,11.0552764 Z M9.93549835,13.5678392 C7.99720899,13.5678392 6.36496531,11.959799 6.36496531,10.0502513 C6.36496531,8.14070352 7.99720899,6.53266332 9.93549835,6.53266332 C11.8737877,6.53266332 13.5060314,8.14070352 13.5060314,10.0502513 C13.5060314,11.959799 11.8737877,13.5678392 9.93549835,13.5678392 L9.93549835,13.5678392 Z" id="Shape"></path>
            </g>
        </g>
    </g>
</svg>