<?xml version="1.0" encoding="UTF-8"?>
<svg width="30px" height="30px" viewBox="0 0 30 30" version="1.1" xmlns="http://www.w3.org/2000/svg" xmlns:xlink="http://www.w3.org/1999/xlink">
    <!-- Generator: Sketch 46.2 (44496) - http://www.bohemiancoding.com/sketch -->
    <title>1499300707_soundcloud</title>
    <desc>Created with Sketch.</desc>
    <defs></defs>
    <g id="Page-1" stroke="none" stroke-width="1" fill="none" fill-rule="evenodd">
        <g id="1_1_Login" transform="translate(-800.000000, -661.000000)" fill-rule="nonzero">
            <g id="Social" transform="translate(800.000000, 661.000000)">
                <g id="1499300707_soundcloud">
                    <rect id="rect2990-1" fill="#FF5200" x="0" y="0.0597609562" width="30" height="29.8804781" rx="14.940239"></rect>
                    <path d="M17.1750006,10.8481082 C16.6418124,10.8481082 16.1229096,10.9535863 15.6645006,11.1304787 C15.4857324,11.1991398 15.4380558,11.2676671 15.4365006,11.4053791 L15.4365006,18.8710159 C15.4380546,19.0137705 15.550512,19.1341637 15.6915006,19.1489044 C15.6977322,19.1496813 22.1954376,19.1518924 22.2375,19.1518924 C23.542233,19.1518924 24.6,18.0979518 24.6,16.7988048 C24.6,15.4996584 23.5418436,14.4487052 22.2375,14.4487052 C21.9142386,14.4487052 21.6048102,14.5142122 21.324,14.6309761 C21.135495,12.510989 19.352151,10.8481082 17.1750006,10.8481082 L17.1750006,10.8481082 Z M14.9535006,11.397909 C14.812122,11.397909 14.6963382,11.5140078 14.6940006,11.6563751 C14.6940006,11.6563751 14.5663314,15.7514444 14.5875006,16.9556773 C14.6086692,18.1599096 14.6940006,18.8784861 14.6940006,18.8784861 C14.6963406,19.0185257 14.812122,19.1339641 14.9535006,19.1339641 C15.0948792,19.1339641 15.210663,19.0185825 15.2130006,18.876992 C15.2130006,18.876992 15.3177096,17.597538 15.3300006,16.9556773 C15.3638226,15.1894153 15.2130006,11.6563751 15.2130006,11.6563751 C15.2110506,11.5140078 15.0952692,11.397909 14.9535006,11.397909 Z M14.1240006,11.8565743 C14.0029428,11.8689532 13.9071942,11.972008 13.9050006,12.0971122 C13.9050006,12.0971122 13.789143,15.3353719 13.8120006,16.9541833 C13.821198,17.6055317 13.9050006,18.9053779 13.9050006,18.9053779 C13.9073406,19.0372709 14.0140794,19.1474098 14.1465006,19.1474098 C14.2780044,19.1474098 14.387439,19.0395819 14.3910006,18.9068719 L14.3910006,18.9053779 C14.3910006,18.9053779 14.4842046,17.6066725 14.4945006,16.9556767 C14.5201122,15.3363137 14.3910006,12.0971122 14.3910006,12.0971122 C14.3882706,11.9636671 14.2785318,11.8565743 14.1465006,11.8565743 C14.1382242,11.8565743 14.1320712,11.8557496 14.1240006,11.8565743 Z M11.7360006,12.4138452 C11.630454,12.4138452 11.5445046,12.4968502 11.5410006,12.6050803 C11.5410006,12.6050803 11.4037608,15.8961365 11.4210006,16.9541833 C11.4382404,18.0122307 11.5410006,18.9487052 11.5410006,18.9487052 C11.5445046,19.0557705 11.630454,19.1414343 11.7360006,19.1414343 C11.8419372,19.1414343 11.9274966,19.056159 11.9310006,18.9487052 C11.9310006,18.9487052 12.0478056,18.0124554 12.0675006,16.9541833 C12.0871962,15.8959112 11.9310006,12.6050803 11.9310006,12.6050803 C11.9274966,12.4968502 11.8419372,12.4138452 11.7360006,12.4138452 Z M12.5340006,12.5079687 C12.4183278,12.5079687 12.325227,12.5988741 12.3225006,12.7156375 C12.3225006,12.7156375 12.190368,15.5413422 12.2115006,16.9541833 C12.2213724,17.614142 12.3225006,18.9307769 12.3225006,18.9307769 C12.3248406,19.0467645 12.4183278,19.1399402 12.5340006,19.1399402 C12.6483744,19.1399402 12.7415934,19.0482843 12.7455006,18.9322709 L12.7455006,18.9307769 C12.7455006,18.9307769 12.857517,17.6143703 12.8685006,16.9541833 C12.8920068,15.5412645 12.7455006,12.7156375 12.7455006,12.7156375 C12.7423866,12.5988741 12.6488946,12.5079687 12.5340006,12.5079687 Z M10.9455006,12.5707177 C10.848522,12.5707177 10.7705046,12.6477072 10.7670006,12.747012 C10.7670006,12.747012 10.6173192,15.9175237 10.6350006,16.9541833 C10.6526826,17.9908422 10.7670006,18.9621514 10.7670006,18.9621514 C10.7701206,19.0599078 10.848522,19.1384462 10.9455006,19.1384462 C11.0407992,19.1384462 11.117835,19.0614227 11.1225006,18.9636454 L11.1225006,18.9621514 C11.1225006,18.9621514 11.2581996,17.6252271 11.2710006,16.9541833 C11.2977588,15.5514568 11.1225006,12.747012 11.1225006,12.747012 C11.1186066,12.6477048 11.0413104,12.5707177 10.9455006,12.5707177 L10.9455006,12.5707177 Z M13.3380006,12.6454189 C13.2129798,12.6454189 13.112727,12.746048 13.1100006,12.87251 C13.1100006,12.87251 12.9892494,15.5933068 13.0080006,16.9541833 C13.017042,17.6103831 13.1115006,18.9203181 13.1115006,18.9203181 C13.1138406,19.044453 13.2129798,19.1429283 13.3380006,19.1429283 C13.4622426,19.1429283 13.5613806,19.0437932 13.5645006,18.9173307 C13.5645006,18.9173307 13.6686252,17.6095345 13.6785006,16.9541833 C13.6990098,15.5932219 13.5645006,12.87251 13.5645006,12.87251 C13.5613866,12.7468243 13.4622426,12.6454189 13.3380006,12.6454189 Z M10.1595006,12.9113546 C10.0726482,12.9113546 10.0028934,12.9812175 9.9990006,13.0712145 C9.9990006,13.0712145 9.8366052,15.6593994 9.8580006,16.9541833 C9.869199,17.6318438 9.9990006,18.9815731 9.9990006,18.9815731 C10.0028946,19.0700193 10.0730376,19.1414337 10.1595006,19.1414337 C10.245459,19.1414337 10.3179666,19.0715504 10.3230006,18.9830671 L10.3230006,18.9815731 C10.3230006,18.9815731 10.4622192,17.9406884 10.4805006,16.9541833 C10.498782,15.9676775 10.3230006,13.0712145 10.3230006,13.0712145 C10.3187166,12.9812175 10.2463524,12.9113546 10.1595006,12.9113546 Z M9.3810006,13.6494024 C9.3034956,13.6494024 9.239787,13.7125297 9.2355006,13.7928287 C9.2355006,13.7928287 9.0742554,16.0842765 9.0855006,16.9526892 C9.0967464,17.821102 9.2355006,18.9950193 9.2355006,18.9950193 C9.2397846,19.0745432 9.3034956,19.1384456 9.3810006,19.1384456 C9.4581162,19.1384456 9.5222142,19.0753195 9.5265006,18.9950193 C9.5265006,18.9950193 9.685968,17.6357779 9.6960006,16.9526892 C9.7114896,15.8981259 9.5265006,13.7928287 9.5265006,13.7928287 C9.5222166,13.7125297 9.4581162,13.6494024 9.3810006,13.6494024 Z M7.8420006,14.74751 C7.7824122,14.74751 7.7341758,14.7944486 7.7295006,14.8580677 C7.7295006,14.8580677 7.557558,16.2638355 7.5585006,16.9526892 C7.5594426,17.6415436 7.7295006,18.9770916 7.7295006,18.9770916 C7.7341746,19.0399345 7.7820216,19.0861554 7.8420006,19.0861554 C7.9004214,19.0861554 7.9490478,19.0399351 7.9545006,18.9770916 C7.9545006,18.9770916 8.1454542,17.6308034 8.1465006,16.9526892 C8.1475806,16.2518241 7.9545006,14.8580677 7.9545006,14.8580677 C7.9490466,14.7944486 7.9004214,14.74751 7.8420006,14.74751 Z M7.0815006,14.8207171 C7.0308696,14.8207171 6.989064,14.8605323 6.9840006,14.9148406 C6.9840006,14.9156116 6.8043732,16.2708616 6.8055006,16.9526892 C6.8065866,17.6096886 6.9840006,18.9143426 6.9840006,18.9143426 C6.9890646,18.9690394 7.0308696,19.0084661 7.0815006,19.0084661 C7.1313534,19.0084661 7.1716584,18.9708633 7.1775006,18.9173307 C7.1775006,18.9173307 7.3787886,17.6110058 7.3800006,16.9526892 C7.3812546,16.2700894 7.1775006,14.9148406 7.1775006,14.9148406 C7.171269,14.8601444 7.1313534,14.8207171 7.0815006,14.8207171 L7.0815006,14.8207171 Z M8.6085006,14.8834661 C8.5391742,14.8834661 8.483787,14.9371984 8.4795006,15.0089641 C8.4795006,15.0089641 8.320287,16.3029084 8.3190006,16.9526892 C8.3176506,17.6350805 8.4795006,18.9935259 8.4795006,18.9935259 C8.4837846,19.0664552 8.5387854,19.1205179 8.6085006,19.1205179 C8.6765586,19.1205179 8.7317646,19.0667785 8.7375006,18.9950193 L8.7375006,18.9935253 C8.7375006,18.9935253 8.9204838,17.6193508 8.9190006,16.9526886 C8.9175186,16.2860265 8.7375006,15.0089635 8.7375006,15.0089635 C8.7328266,14.9368106 8.6770476,14.8834655 8.6085006,14.8834655 L8.6085006,14.8834661 Z M6.3255012,15.1568725 C6.2849958,15.1568725 6.2518428,15.1892325 6.2460012,15.2330677 C6.2460012,15.2338446 6.0562818,16.3829086 6.0570012,16.9526892 C6.0577212,17.5224693 6.2460012,18.6319721 6.2460012,18.6319721 C6.2518452,18.6765837 6.2864964,18.7081673 6.3270012,18.7081673 C6.367506,18.7081673 6.4013796,18.6773588 6.4080012,18.6319721 C6.4080012,18.6319721 6.6201972,17.5170054 6.6210006,16.9526892 C6.6218226,16.3754922 6.4080012,15.2330677 6.4080012,15.2330677 C6.4013796,15.1876811 6.366006,15.1568725 6.3255012,15.1568725 L6.3255012,15.1568725 Z M5.6175009,15.814243 C5.57738496,15.814243 5.5449537,15.8451096 5.5395009,15.8889442 C5.5395009,15.8889442 5.3995929,16.5986074 5.4000009,16.9526892 C5.4004089,17.3067711 5.5395009,17.9955179 5.5395009,17.9955179 C5.5449537,18.0393532 5.57777484,18.0702191 5.6175009,18.0702191 C5.6564481,18.0702191 5.6877693,18.0385781 5.6940009,17.9955179 C5.6940009,17.9955179 5.86002042,17.3049532 5.8605009,16.9526892 C5.8609869,16.5942693 5.6940009,15.8889442 5.6940009,15.8889442 C5.6881587,15.8451096 5.6564481,15.814243 5.6175009,15.814243 Z" id="rect2989-7" fill="#FFFFFF"></path>
                </g>
            </g>
        </g>
    </g>
</svg>