<?xml version="1.0" encoding="UTF-8"?>
<svg width="37px" height="32px" viewBox="0 0 37 32" version="1.1" xmlns="http://www.w3.org/2000/svg" xmlns:xlink="http://www.w3.org/1999/xlink">
    <!-- Generator: Sketch 46.2 (44496) - http://www.bohemiancoding.com/sketch -->
    <title>Group 2</title>
    <desc>Created with Sketch.</desc>
    <defs>
        <rect id="path-1" x="0" y="0" width="300" height="311" rx="4"></rect>
        <path d="M32.9877003,22.8442211 C32.9877003,22.6030151 33.0693125,22.361809 33.0693125,22.040201 C33.0693125,21.718593 33.0693125,21.4773869 32.9877003,21.2361809 L34.7015561,19.8693467 C34.8647805,19.7085427 34.8647805,19.5477387 34.7831683,19.3869347 L33.1509246,16.5728643 C33.0693125,16.4924623 32.9060881,16.4120603 32.6612515,16.4924623 L30.620947,17.2964824 C30.212886,16.9748744 29.7232129,16.7336683 29.2335398,16.4924623 L28.9070911,14.4020101 C28.9887033,14.160804 28.7438667,14 28.5806424,14 L25.316155,14 C25.1529306,14 24.9080941,14.160804 24.9080941,14.321608 L24.5816454,16.4924623 C24.0919722,16.6532663 23.6839113,16.9748744 23.1942382,17.2964824 L21.2355458,16.4924623 C20.9907093,16.4120603 20.8274849,16.4924623 20.6642605,16.6532663 L19.0320169,19.4673367 C18.9504047,19.5477387 19.0320169,19.7889447 19.1952412,19.9497487 L20.9090971,21.2361809 C20.9090971,21.4773869 20.8274849,21.718593 20.8274849,22.040201 C20.8274849,22.361809 20.8274849,22.6030151 20.9090971,22.8442211 L19.1952412,24.2110553 C19.0320169,24.3718593 19.0320169,24.5326633 19.113629,24.6934673 L20.7458727,27.5075377 C20.8274849,27.5879397 20.9907093,27.6683417 21.2355458,27.5879397 L23.2758504,26.7839196 C23.6839113,27.1055276 24.1735844,27.3467337 24.6632575,27.5879397 L24.9897063,29.678392 C24.9897063,29.839196 25.1529306,30 25.3977672,30 L28.6622545,30 C28.8254789,30 29.0703155,29.839196 29.0703155,29.678392 L29.3967642,27.5879397 C29.8864373,27.3467337 30.3761104,27.1055276 30.7841713,26.7839196 L32.8244759,27.5879397 C32.9877003,27.6683417 33.2325368,27.5879397 33.314149,27.4271357 L34.9463927,24.6130653 C35.0280049,24.4522613 35.0280049,24.2110553 34.8647805,24.1306533 L32.9877003,22.8442211 L32.9877003,22.8442211 Z M26.9483987,24.8542714 C25.3977672,24.8542714 24.0919722,23.5678392 24.0919722,22.040201 C24.0919722,20.5125628 25.3977672,19.2261307 26.9483987,19.2261307 C28.4990302,19.2261307 29.8048251,20.5125628 29.8048251,22.040201 C29.8048251,23.5678392 28.4990302,24.8542714 26.9483987,24.8542714 L26.9483987,24.8542714 Z" id="path-2"></path>
    </defs>
    <g id="Page-1" stroke="none" stroke-width="1" fill="none" fill-rule="evenodd">
        <g id="2_5_Artist-Page" transform="translate(-1070.000000, -671.000000)">
            <rect id="BG" fill="#FFFFFF" x="0" y="60" width="1440" height="1100"></rect>
            <g id="rider" transform="translate(1050.000000, 553.000000)">
                <g id="Avatar_BG-Copy-2">
                    <use fill="#FFFFFF" fill-rule="evenodd" xlink:href="#path-1"></use>
                    <rect stroke="#F2F2F2" stroke-width="1" x="0.5" y="0.5" width="299" height="310" rx="4"></rect>
                </g>
            </g>
            <g id="Group-2" transform="translate(1070.000000, 671.000000)">
                <path d="M3.25,0 C1.4625,0 0,1.35 0,3 L0,27 C0,28.65 1.4625,30 3.25,30 L22.75,30 C24.5375,30 26,28.65 26,27 L26,9 L16.25,0 L3.25,0 L3.25,0 Z M14.625,10.5 L14.625,2.25 L23.5625,10.5 L14.625,10.5 L14.625,10.5 Z" id="Shape-Copy" fill="#E5E5E5"></path>
                <g id="Shape">
                    <use fill="#4A90E2" fill-rule="evenodd" xlink:href="#path-2"></use>
                    <path stroke="#FFFFFF" stroke-width="2" d="M34.0524846,22.3616507 L35.3881055,23.2770009 C36.0635153,23.6660429 36.1394191,24.4718464 35.8114128,25.1148025 L34.2058757,27.87971 C33.8755255,28.5306132 33.0353106,28.8065319 32.4578473,28.5183071 L30.916977,27.9110984 C30.7437639,28.0184733 30.5499783,28.1252838 30.3053245,28.2510952 L30.0655704,29.786388 C30.0017544,30.5078301 29.3055183,31 28.6622545,31 L25.3977672,31 C24.6824794,31 24.050163,30.4936922 23.9937887,29.7821451 L23.7546895,28.2510454 C23.5096347,28.1250012 23.3157647,28.0181255 23.1426567,27.9108188 L21.547544,28.5380224 C20.9777259,28.7251453 20.4166391,28.5869535 20.0440673,28.2199064 L19.9483021,28.1255612 L19.8808526,28.0092748 L18.2219023,25.1460416 C17.9412192,24.5929996 18.0210146,23.9641026 18.4934358,23.4986866 L18.5717292,23.4292415 L19.832867,22.423459 C19.8287557,22.3135041 19.8274849,22.1886183 19.8274849,22.040201 C19.8274849,21.9157489 19.8338985,21.8088403 19.8475133,21.689713 L18.5949306,20.7495157 L18.4934358,20.6621174 C18.0195397,20.1952484 17.7527981,19.4720502 18.213922,18.8846981 L19.8666899,16.0352428 L19.9624551,15.9408977 C20.3929556,15.5167807 20.9312736,15.3400022 21.6152857,15.567369 L23.0799018,16.1685766 C23.1922985,16.0935605 23.2980336,16.0237302 23.356769,15.9869073 C23.4658448,15.9185247 23.5708958,15.8567818 23.6743746,15.8010529 L23.9124956,14.2175698 C23.9741101,13.4939705 24.6717157,13 25.316155,13 L28.5806424,13 C29.3079579,13 30.0069613,13.6107552 29.9218368,14.4188255 L30.1421079,15.8293566 C30.3871626,15.9554008 30.5810327,16.0622765 30.7541407,16.1695832 L32.3492534,15.5423796 C32.9190714,15.3552567 33.4801583,15.4934485 33.8527301,15.8604956 L33.9484952,15.9548408 L34.0159448,16.0711272 L35.674895,18.9343604 C35.9555781,19.4874024 35.8757828,20.1162994 35.4033616,20.5817154 L35.3250682,20.6511605 L34.0639303,21.656943 C34.0680417,21.7668979 34.0693125,21.8917837 34.0693125,22.040201 C34.0693125,22.1544611 34.0639063,22.2539335 34.0524846,22.3616507 Z M26.9483987,23.8542714 C27.9500618,23.8542714 28.8048251,23.0121828 28.8048251,22.040201 C28.8048251,21.0682192 27.9500618,20.2261307 26.9483987,20.2261307 C25.9467355,20.2261307 25.0919722,21.0682192 25.0919722,22.040201 C25.0919722,23.0121828 25.9467355,23.8542714 26.9483987,23.8542714 Z"></path>
                </g>
            </g>
        </g>
    </g>
</svg>