<?xml version="1.0" encoding="UTF-8"?>
<svg width="88px" height="77px" viewBox="0 0 88 77" version="1.1" xmlns="http://www.w3.org/2000/svg" xmlns:xlink="http://www.w3.org/1999/xlink">
    <!-- Generator: Sketch 46.2 (44496) - http://www.bohemiancoding.com/sketch -->
    <title>TechRider@1,5x</title>
    <desc>Created with Sketch.</desc>
    <defs>
        <path d="M76.3429635,53.3031826 C76.3429635,52.7403685 76.5318374,52.1775544 76.5318374,51.4271357 C76.5318374,50.6767169 76.5318374,50.1139028 76.3429635,49.5510888 L80.3093156,46.361809 C80.6870635,45.9865997 80.6870635,45.6113903 80.4981895,45.2361809 L76.7207113,38.6700168 C76.5318374,38.4824121 76.1540896,38.2948074 75.5874679,38.4824121 L70.8656201,40.358459 C69.9212505,39.6080402 68.7880071,39.0452261 67.6547636,38.4824121 L66.899268,33.6046901 C67.0881419,33.041876 66.5215201,32.6666667 66.1437723,32.6666667 L58.5888159,32.6666667 C58.211068,32.6666667 57.6444463,33.041876 57.6444463,33.4170854 L56.8889507,38.4824121 C55.7557072,38.8576214 54.8113376,39.6080402 53.6780942,40.358459 L49.1451203,38.4824121 C48.5784986,38.2948074 48.2007508,38.4824121 47.8230029,38.8576214 L44.0455247,45.4237856 C43.8566508,45.6113903 44.0455247,46.1742044 44.4232725,46.5494137 L48.3896247,49.5510888 C48.3896247,50.1139028 48.2007508,50.6767169 48.2007508,51.4271357 C48.2007508,52.1775544 48.2007508,52.7403685 48.3896247,53.3031826 L44.4232725,56.4924623 C44.0455247,56.8676717 44.0455247,57.2428811 44.2343986,57.6180905 L48.0118769,64.1842546 C48.2007508,64.3718593 48.5784986,64.559464 49.1451203,64.3718593 L53.8669681,62.4958124 C54.8113376,63.2462312 55.9445811,63.8090452 57.0778246,64.3718593 L57.8333202,69.2495812 C57.8333202,69.6247906 58.211068,70 58.7776898,70 L66.3326462,70 C66.710394,70 67.2770158,69.6247906 67.2770158,69.2495812 L68.0325114,64.3718593 C69.1657549,63.8090452 70.2989984,63.2462312 71.2433679,62.4958124 L75.9652157,64.3718593 C76.3429635,64.559464 76.9095852,64.3718593 77.0984591,63.9966499 L80.8759374,57.4304858 C81.0648113,57.0552764 81.0648113,56.4924623 80.6870635,56.3048576 L76.3429635,53.3031826 L76.3429635,53.3031826 Z M62.3662941,57.9932998 C58.7776898,57.9932998 55.7557072,54.9916248 55.7557072,51.4271357 C55.7557072,47.8626466 58.7776898,44.8609715 62.3662941,44.8609715 C65.9548984,44.8609715 68.976881,47.8626466 68.976881,51.4271357 C68.976881,54.9916248 65.9548984,57.9932998 62.3662941,57.9932998 L62.3662941,57.9932998 Z" id="path-1"></path>
    </defs>
    <g id="Page-1" stroke="none" stroke-width="1" fill="none" fill-rule="evenodd">
        <g id="1_9_cabinet-documents" transform="translate(-409.000000, -377.000000)">
            <g id="Main" transform="translate(90.000000, 329.000000)">
                <g id="Group-2" transform="translate(79.000000, 48.000000)">
                    <g id="TechRider" transform="translate(241.000000, 1.000000)">
                        <path d="M7.52142857,0 C3.38464286,0 0,3.15 0,7 L0,63 C0,66.85 3.38464286,70 7.52142857,70 L52.65,70 C56.7867857,70 60.1714286,66.85 60.1714286,63 L60.1714286,21 L37.6071429,0 L7.52142857,0 L7.52142857,0 Z M33.8464286,24.5 L33.8464286,5.25 L54.5303571,24.5 L33.8464286,24.5 L33.8464286,24.5 Z" id="Shape-Copy" fill="#E5E5E5"></path>
                        <g id="Shape">
                            <use fill="#4A90E2" fill-rule="evenodd" xlink:href="#path-1"></use>
                            <path stroke="#FFFFFF" stroke-width="2" d="M79.0011978,52.1012027 L82.0038695,54.175981 C83.6562115,55.137421 83.8413676,57.0996181 83.1089757,58.5545586 L83.0429273,58.6771432 L79.2872114,65.2054791 C78.4725512,66.7086974 76.5401361,67.3597452 74.9817725,66.6712194 L71.5706374,65.3159344 C71.2066755,65.5395151 70.8016258,65.7644148 70.3066671,66.0224438 L69.7651529,69.5186332 C69.6077241,71.2918192 67.9110392,72.5 66.3326462,72.5 L58.7776898,72.5 C57.0284327,72.5 55.483656,71.2541223 55.3436426,69.5086872 L54.8036585,66.0223766 C54.3085339,65.7642393 53.903516,65.5393502 53.5397492,65.3159143 L50.0682108,66.6951983 L49.9309036,66.7451576 C48.5394292,67.2058655 47.1620788,66.8638418 46.2500796,65.9579711 L46.0121299,65.7216205 L42.0674087,58.8647479 L42.0013603,58.7421633 C41.3227074,57.3939785 41.5162165,55.8563085 42.6614753,54.7187458 L42.7545038,54.6263424 L45.710601,52.2493923 C45.7031446,52.0098228 45.7007508,51.740592 45.7007508,51.4271357 C45.7007508,51.1611099 45.7129317,50.9290472 45.7385667,50.6800149 L42.7806685,48.4415225 L42.6614753,48.3231303 C41.5136872,47.1830553 40.8686726,45.4226058 41.9946157,43.9753518 L45.823256,37.3202555 L46.0612057,37.0839049 C47.1041611,36.0479581 48.4251782,35.6105781 49.9309036,36.1091138 L50.1011449,36.17243 L53.3908772,37.5339407 C53.6184977,37.3811543 53.8259566,37.2434929 53.9477721,37.1664949 C54.1767613,37.0217537 54.3984405,36.8894374 54.6169253,36.7685114 L55.1554497,33.1578992 C55.3074479,31.3793304 57.0074974,30.1666667 58.5888159,30.1666667 L66.1437723,30.1666667 C67.9260556,30.1666667 69.6310604,31.6641583 69.4347178,33.6411045 L69.9289297,36.8318947 C70.4240543,37.090032 70.8290721,37.3149212 71.192839,37.538357 L74.6643774,36.1590731 L74.8016846,36.1091138 C76.1931589,35.6484059 77.5705094,35.9904296 78.4825086,36.8963002 L78.7204582,37.1326508 L82.6651795,43.9895235 L82.7312279,44.112108 C83.4098808,45.4602928 83.2163717,46.9979629 82.0711129,48.1355256 L81.9780844,48.227929 L79.0219872,50.604879 C79.0294436,50.8444485 79.0318374,51.1136794 79.0318374,51.4271357 C79.0318374,51.6669904 79.0219352,51.8792357 79.0011978,52.1012027 Z M48.8152235,63.375473 L48.359337,61.998561 C48.7794599,61.8594612 49.3653387,62.0049466 49.7736741,62.4105381 L48.8152235,63.375473 Z M45.1056906,57.1794972 L46.467437,56.4940176 C46.7305673,57.0167418 46.6287969,57.8254336 46.1850698,58.2661789 L45.1056906,57.1794972 Z M48.721419,39.7621156 L49.5848002,40.631338 C49.5388159,40.6770133 49.420482,40.7589342 49.1990172,40.8322597 C48.8877733,40.9353105 48.5770148,40.927782 48.359337,40.8557103 L48.721419,39.7621156 Z M75.9173647,39.4787983 L76.3732511,40.8557103 C75.9531283,40.9948102 75.3672495,40.8493248 74.9589141,40.4437333 L75.9173647,39.4787983 Z M79.6268976,45.6747742 L78.2651512,46.3602538 C78.0020209,45.8375296 78.1037913,45.0288378 78.5475184,44.5880925 L79.6268976,45.6747742 Z M62.3662941,55.4932998 C64.5779459,55.4932998 66.476881,53.6071254 66.476881,51.4271357 C66.476881,49.2471459 64.5779459,47.3609715 62.3662941,47.3609715 C60.1546423,47.3609715 58.2557072,49.2471459 58.2557072,51.4271357 C58.2557072,53.6071254 60.1546423,55.4932998 62.3662941,55.4932998 Z"></path>
                        </g>
                    </g>
                </g>
            </g>
        </g>
    </g>
</svg>