<?xml version="1.0" encoding="UTF-8"?>
<svg width="16px" height="18px" viewBox="0 0 16 18" version="1.1" xmlns="http://www.w3.org/2000/svg" xmlns:xlink="http://www.w3.org/1999/xlink">
    <!-- Generator: Sketch 45.2 (43514) - http://www.bohemiancoding.com/sketch -->
    <title>Shape</title>
    <desc>Created with Sketch.</desc>
    <defs></defs>
    <g id="Page-1" stroke="none" stroke-width="1" fill="none" fill-rule="evenodd">
        <g id="2_1_Personal-Page---Artist---DONE" transform="translate(-872.000000, -200.000000)" fill="#999999">
            <g id="Video-Empty" transform="translate(730.000000, 100.000000)">
                <g id="Area" transform="translate(20.000000, 47.000000)">
                    <g id="Group-2-Copy" transform="translate(93.000000, 53.000000)">
                        <path d="M43,0 L43,2 L41,2 L41,0 L33,0 L33,2 L31,2 L31,0 L29,0 L29,18 L31,18 L31,16 L33,16 L33,18 L41,18 L41,16 L43,16 L43,18 L45,18 L45,0 L43,0 L43,0 Z M33,14 L31,14 L31,12 L33,12 L33,14 L33,14 Z M33,10 L31,10 L31,8 L33,8 L33,10 L33,10 Z M33,6 L31,6 L31,4 L33,4 L33,6 L33,6 Z M43,14 L41,14 L41,12 L43,12 L43,14 L43,14 Z M43,10 L41,10 L41,8 L43,8 L43,10 L43,10 Z M43,6 L41,6 L41,4 L43,4 L43,6 L43,6 Z" id="Shape"></path>
                    </g>
                </g>
            </g>
        </g>
    </g>
</svg>