<?xml version="1.0" encoding="UTF-8"?>
<svg width="30px" height="30px" viewBox="0 0 30 30" version="1.1" xmlns="http://www.w3.org/2000/svg" xmlns:xlink="http://www.w3.org/1999/xlink">
    <!-- Generator: Sketch 46.2 (44496) - http://www.bohemiancoding.com/sketch -->
    <title>1499300679_Vimeo</title>
    <desc>Created with Sketch.</desc>
    <defs></defs>
    <g id="Page-1" stroke="none" stroke-width="1" fill="none" fill-rule="evenodd">
        <g id="1_1_Login" transform="translate(-880.000000, -661.000000)" fill-rule="nonzero">
            <g id="Social" transform="translate(800.000000, 661.000000)">
                <g id="1499300679_Vimeo" transform="translate(80.000000, 0.000000)">
                    <circle id="BG" fill="#5FCCFF" cx="15" cy="15" r="15"></circle>
                    <path d="M22.5,11.625 C22.40625,13.125 21.375,15.09375 19.40625,17.625 C17.34375,20.25 15.65625,21.5625 14.25,21.5625 C13.40625,21.5625 12.65625,20.71875 12,19.125 C11.625,17.625 11.15625,16.125 10.78125,14.71875 C10.3125,13.125 9.84375,12.28125 9.375,12.28125 C9.28125,12.28125 8.90625,12.5625 8.15625,13.03125 L7.40625,12.09375 C8.15625,11.4375 8.90625,10.78125 9.5625,10.125 C10.59375,9.28125 11.25,8.8125 11.8125,8.8125 C12.9375,8.71875 13.6875,9.46875 13.96875,11.15625 C14.25,13.03125 14.4375,14.15625 14.53125,14.625 C14.90625,16.125 15.28125,16.875 15.65625,16.875 C15.9375,16.875 16.40625,16.40625 17.0625,15.375 C17.71875,14.34375 18,13.59375 18.09375,13.125 C18.1875,12.28125 17.8125,11.8125 17.0625,11.8125 C16.6875,11.8125 16.3125,11.90625 15.9375,12.09375 C16.6875,9.65625 18.09375,8.53125 20.15625,8.625 C21.84375,8.625 22.59375,9.65625 22.5,11.625" id="Vimeo" fill="#FFFFFF"></path>
                </g>
            </g>
        </g>
    </g>
</svg>