<?xml version="1.0" encoding="UTF-8"?>
<svg width="30px" height="30px" viewBox="0 0 30 30" version="1.1" xmlns="http://www.w3.org/2000/svg" xmlns:xlink="http://www.w3.org/1999/xlink">
    <!-- Generator: Sketch 46.2 (44496) - http://www.bohemiancoding.com/sketch -->
    <title>1499300671_youtube_circle_color</title>
    <desc>Created with Sketch.</desc>
    <defs></defs>
    <g id="Page-1" stroke="none" stroke-width="1" fill="none" fill-rule="evenodd">
        <g id="1_1_Login" transform="translate(-920.000000, -661.000000)">
            <g id="Social" transform="translate(800.000000, 661.000000)">
                <rect id="Rectangle-2-Copy" fill="#FFFFFF" x="126" y="6" width="19" height="19"></rect>
                <g id="1499300671_youtube_circle_color" transform="translate(120.000000, 0.000000)" fill="#CF3427">
                    <path d="M19.7635,18.67 C19.6245,18.67 19.5245,18.709 19.4635,18.792 C19.403,18.87 19.3735,19.004 19.3735,19.19 L19.3735,19.638 L20.145,19.638 L20.145,19.19 C20.145,19.004 20.114,18.87 20.0525,18.792 C19.9945,18.709 19.896,18.67 19.7635,18.67 Z M16.7545,18.6545 C16.8715,18.6545 16.963,18.6925 17.0265,18.7695 C17.088,18.8465 17.119,18.961 17.119,19.1105 L17.119,21.4025 C17.119,21.5455 17.0925,21.646 17.0425,21.708 C16.9925,21.7715 16.9145,21.8025 16.8075,21.8025 C16.7335,21.8025 16.664,21.786 16.597,21.7545 C16.5295,21.7235 16.46,21.669 16.3895,21.598 L16.3895,18.8325 C16.449,18.7715 16.509,18.726 16.5695,18.697 C16.63,18.6675 16.6915,18.6545 16.7545,18.6545 Z M19.374,20.329 L19.374,21.165 C19.374,21.399 19.4025,21.561 19.459,21.652 C19.518,21.7425 19.6155,21.7865 19.755,21.7865 C19.8995,21.7865 20.0005,21.7485 20.058,21.672 C20.115,21.5955 20.1455,21.4275 20.1455,21.1655 L20.1455,20.963 L21.043,20.963 L21.043,21.191 C21.043,21.6465 20.9345,21.989 20.7145,22.2205 C20.497,22.45 20.17,22.564 19.7355,22.564 C19.345,22.564 19.0365,22.443 18.812,22.1985 C18.588,21.9555 18.474,21.62 18.474,21.1915 L18.474,19.1985 C18.474,18.8145 18.5985,18.4995 18.845,18.2575 C19.0915,18.015 19.409,17.894 19.8005,17.894 C20.2,17.894 20.507,18.0065 20.722,18.231 C20.9365,18.455 21.043,18.7775 21.043,19.1985 L21.043,20.3305 L19.374,20.3305 L19.374,20.329 Z M17.8115,22.2475 C17.676,22.4155 17.477,22.498 17.218,22.498 C17.0465,22.498 16.895,22.467 16.762,22.402 C16.6285,22.3375 16.5025,22.2385 16.389,22.1015 L16.389,22.442 L15.507,22.442 L15.507,16.426 L16.389,16.426 L16.389,18.3635 C16.5075,18.2285 16.6315,18.1245 16.763,18.055 C16.8965,17.984 17.03,17.9495 17.1655,17.9495 C17.4425,17.9495 17.653,18.044 17.798,18.232 C17.945,18.4215 18.017,18.6985 18.017,19.062 L18.017,21.525 C18.017,21.839 17.9485,22.0795 17.8115,22.2475 Z M13.979,22.442 L13.979,21.954 C13.8165,22.1345 13.65,22.272 13.4745,22.365 C13.3,22.4605 13.1315,22.506 12.9675,22.506 C12.765,22.506 12.615,22.4415 12.511,22.308 C12.4105,22.175 12.3585,21.979 12.3585,21.7135 L12.3585,18.0025 L13.2305,18.0025 L13.2305,21.407 C13.2305,21.5125 13.249,21.588 13.284,21.6355 C13.3225,21.683 13.382,21.706 13.463,21.706 C13.527,21.706 13.609,21.675 13.707,21.612 C13.8055,21.5495 13.8945,21.4705 13.978,21.3745 L13.978,18.0025 L14.85,18.0025 L14.85,22.4415 L13.979,22.4415 L13.979,22.442 Z M10.958,17.3 L10.958,22.442 L9.974,22.442 L9.974,17.3 L8.957,17.3 L8.957,16.426 L11.975,16.426 L11.975,17.3 L10.958,17.3 Z M14.997,14.489 C14.997,14.4885 21.037,14.498 21.754,15.214 C22.4735,15.9315 22.4815,19.471 22.4815,19.4915 C22.4815,19.4915 22.4755,23.05 21.754,23.7695 C21.037,24.4845 14.997,24.5 14.997,24.5 C14.997,24.5 8.9575,24.4845 8.239,23.769 C7.52,23.0515 7.5185,19.518 7.5185,19.491 C7.5185,19.4705 7.5205,15.931 8.239,15.2135 C8.958,14.498 14.997,14.4885 14.997,14.489 Z M19.76,12.6275 L18.777,12.6275 L18.777,12.0875 C18.598,12.286 18.409,12.439 18.212,12.542 C18.016,12.646 17.8265,12.698 17.642,12.698 C17.413,12.698 17.2435,12.625 17.1285,12.4795 C17.014,12.334 16.956,12.116 16.956,11.824 L16.956,7.738 L17.937,7.738 L17.937,11.4865 C17.937,11.602 17.9595,11.686 18.0005,11.7375 C18.0405,11.7895 18.1085,11.8155 18.2,11.8155 C18.2715,11.8155 18.3635,11.781 18.474,11.7125 C18.584,11.644 18.6855,11.5565 18.7765,11.449 L18.7765,7.738 L19.7595,7.738 L19.7595,12.6275 L19.76,12.6275 Z M14.4235,11.794 C14.493,11.8675 14.593,11.9035 14.7235,11.9035 C14.8565,11.9035 14.9615,11.866 15.0405,11.792 C15.119,11.716 15.158,11.613 15.158,11.483 L15.158,8.8195 C15.158,8.7125 15.118,8.626 15.0375,8.56 C14.9575,8.4945 14.8525,8.462 14.7235,8.462 C14.603,8.462 14.506,8.4945 14.4305,8.56 C14.3565,8.626 14.318,8.7125 14.318,8.8195 L14.318,11.483 C14.318,11.6165 14.354,11.7195 14.4235,11.794 Z M13.704,7.9515 C13.968,7.727 14.3245,7.6145 14.77,7.6145 C15.176,7.6145 15.51,7.733 15.7705,7.97 C16.029,8.2065 16.159,8.5115 16.159,8.884 L16.159,11.4095 C16.159,11.8275 16.0315,12.155 15.778,12.3935 C15.5215,12.6315 15.172,12.7505 14.725,12.7505 C14.296,12.7505 13.9515,12.6275 13.693,12.3825 C13.4365,12.1365 13.307,11.806 13.307,11.3905 L13.307,8.8565 C13.3065,8.477 13.4385,8.1755 13.704,7.9515 Z M10.631,6 L9.5165,6 L10.8335,10.0015 L10.8335,12.6275 L11.94,12.6275 L11.94,9.8775 L13.227,6 L12.102,6 L11.419,8.649 L11.3495,8.649 L10.631,6 Z M15,30 C6.716,30 0,23.284 0,15 C0,6.7155 6.716,0 15,0 C23.284,0 30,6.7155 30,15 C30,23.284 23.284,30 15,30 Z" id="Shape"></path>
                </g>
            </g>
        </g>
    </g>
</svg>